<?xml version="1.0" encoding="utf-8"?>
<!-- Generator: Adobe Illustrator 22.0.0, SVG Export Plug-In . SVG Version: 6.00 Build 0)  -->
<svg version="1.1" id="Calque_1" xmlns="http://www.w3.org/2000/svg" xmlns:xlink="http://www.w3.org/1999/xlink" x="0px" y="0px"
	 viewBox="0 0 58.4 120.9" style="enable-background:new 0 0 58.4 120.9;" xml:space="preserve">
<title>ddddd</title>
<path d="M12.1,27l1.6-3.2c0.9,0,2.1,0.4,2.8,0c2.6-1.7,2.5-1.8,2.9-4c0.5-0.5,2.1,0.2,1.9-1.4c1-0.5,2-0.9,3-1.2
	c1.1,0,1.9-0.8,2-1.9c0,0,0,0,0,0l0,0c0.4-2.8,1-5.6,1.5-8.3l3.5-0.4c1.1,1.5,0.9,3.4,1.2,5.3l0.9,5.4c0.5,0.1,1,0.1,1.4,0.1
	c3.5-0.3,5.4,0.7,6.3,4c0.4,1.4,1.5,2.5,2.9,2.8c2.5,0.8,3.5,2.1,3.6,4.8c0.3,6.9,0.7,13.7,0.7,20.6c0,7.5,0.2,15,0.6,22.5
	c0.1,1,0.1,1.9-0.1,2.9c-0.6,2.6-0.1,5.1,0.1,7.6c0.2,3.2,0.2,6.4,0.1,9.6c-0.1,4.2,0,8.5-0.3,12.7c-0.2,2.1-0.6,4.2-1.2,6.3
	c-0.3,0.6-0.9,1-1.6,1.1c-2.7,0.4-5.4,0.7-8.1,1.1c-1.3,0.2-2.7,0.4-4,0.5c-2.2,0.2-4.4,0.3-6.7,0.3c-2.6-0.1-5.3-0.4-7.9-0.7
	c-0.6,0-1.3-0.2-1.8-0.6c-1-0.9-1.9-1.4-3.4-0.2c-0.2-2.6-0.4-4.7-0.7-6.9c-0.1-1.3-0.4-2.5-0.6-3.7c-0.1-0.3-0.1-0.6,0-0.9
	c1-4.3,0.3-8.6,0.2-12.9c0-5.1-0.1-10.2-0.2-15.3c-0.1-3.5-0.5-7-0.6-10.5c-0.3-7.2-0.5-14.5-0.6-21.7c-0.1-3.7,0.1-7.3,0.1-11
	c-0.1-0.8-0.2-1.6-0.4-2.3L12.1,27z M38.5,109c0.3,0.2,0.6,0.7,0.9,0.6c1.7-0.2,3.4-0.5,5.4-0.9c-0.3-1.5-0.5-3-0.6-4.6
	c0-1.5,0.2-3.1,0.3-4.7c0-0.1-0.2-0.2-0.3-0.3l-1.4,1.6c0.4-0.9,0.7-1.9,1-2.9c0.3-1.5,0.5-3.1,0.6-4.7c0-0.1-0.2-0.3-0.4-0.6
	l-1.4,1.4c-0.1-0.3-0.1-0.5-0.1-0.6c1.6-1.7,2.2-4.2,1.5-6.5c0-0.5,0.1-1.1,0.5-1.5c0.4-0.5,0.9-0.9,1.4-1.2l-0.9-0.3
	c-0.3-0.9-0.6-1.8-0.7-2.7c0-6.9-0.2-13.9,0.2-20.8c0.4-7.9,0-15.8-0.3-23.7c-0.1-1.9-0.4-3.7-0.9-5.5l-3.7,4.3l-0.5-0.3L41,30
	c-1.5,0.1-2.7,0.2-3.9,0.3c-0.6,0-1.2,0-1.9-0.1c-1-0.2-2-0.4-3-0.4c-2.1,0.1-4.1,0.3-6.2,0.5c-2.4,0.3-4.8,0.2-7.1-0.3
	c-1-0.2-2-0.2-3-0.2c0.1,2.6,0.3,5,0.2,7.4c-0.2,7.7,0.9,15.3,0.4,23c-0.1,1.1,0,2.2,0,3.3c0.1,4,0.3,8,0.3,12c0.1,3.4,0,6.7-0.3,10
	c-0.4,3.3-0.3,6.6,0.2,9.9c0,0.2,0.1,0.3,0.1,0.5c0.2,2.8,0.4,5.6,0.5,8.4c0.1,0.9,0,1.7-0.1,2.6c-0.4,1.5,0.6,3,2.1,3.4
	c0.2,0,0.3,0.1,0.5,0.1c4.1,0.2,8.2,0.6,12.3,0.6C34.4,110.9,36.6,110.3,38.5,109z M38,22.5c-0.6-1.1-1.8-1.8-3.1-1.6
	c-3.4,0.3-6.8,0.2-10.2-0.5c-0.4-0.1-0.8,0-1.1,0.2c-0.9,1-1.6,2.1-2.4,3.2c1,1.1,2.2,0.8,3.4,0.7c3.6-0.5,7.2-1,10.9-1.6
	C36.3,22.8,37,22.7,38,22.5z M31.2,17.3c-0.8-2.4,0.6-5-1.3-7.1c-1.3,1.2-0.1,2.3-0.3,3.4c-0.2,1.1-0.6,2.3-1,3.6L31.2,17.3z
	 M39.4,24.4c-2.1-1.7-3.6-0.4-5.1-0.2l0.1,0.5C35.8,24.6,37.4,24.5,39.4,24.4L39.4,24.4z"/>
<path d="M43.5,43.3l-0.7-5.2C43.8,39.2,43.9,41.5,43.5,43.3L43.5,43.3z"/>
<path d="M43.5,43.3L43.5,43.3c0.4,1,0.4,2.1,0.1,3C43.3,45.3,42.8,44.3,43.5,43.3z"/>
<path d="M43.6,34l-0.2,2.5l-0.4,0l0-2.5L43.6,34z"/>
<path d="M42.9,100.8c0.1,1.2-0.5,2.2-1.6,2.7L42.9,100.8z"/>
<path d="M43.8,47.7l0.3,1.8c-0.3-0.3-0.5-0.6-0.7-0.9c0-0.3-0.1-0.6,0-0.8L43.8,47.7z"/>
<path d="M40.9,93.2l-0.8,1.3l-0.3-0.2l0.8-1.4L40.9,93.2z"/>
<path d="M40.8,97.1l1-1.6l0.3,0.3l-0.8,1.7L40.8,97.1z"/>
<path d="M41.4,103.4l-1.1,2.3L41.4,103.4z"/>
</svg>
