<svg id="Calque_1" data-name="Calque 1" xmlns="http://www.w3.org/2000/svg" viewBox="0 0 99 103"><title>Sans titre - 3</title><path d="M44.25,12.29a16.15,16.15,0,0,1,5,.53.86.86,0,0,0,.42,0c2.44-.3,4.8.32,7.19.6,1.47.16,3,.19,4.43.23a2.24,2.24,0,0,1,1.6.38,2,2,0,0,0,1,.24c2.54.33,5.07.7,7.62.95,1.83.19,3.68.22,5.53.3.85,0,1.7.07,2.55,0a9.27,9.27,0,0,0,2.11-.2,15.21,15.21,0,0,1,6.91-.06,1.15,1.15,0,0,1,1,1.19,16.28,16.28,0,0,1,0,1.71,43.89,43.89,0,0,0,.29,8.1c.41,3.46.59,7,.87,10.43,0,.64,0,1.28.13,1.92A17.06,17.06,0,0,1,91,44a8.51,8.51,0,0,0,.56,3.78c.07.26.27.66.44.68.48,0,.64.28.61.67A6.21,6.21,0,0,0,93.22,53a1.09,1.09,0,0,1-.64,1.41,13.29,13.29,0,0,1-1.62.49L91,56a7.94,7.94,0,0,1-2.68,1.16l0,0c0-.29.08-.75-.49-.52a7.35,7.35,0,0,0-.85.51l0,0A28.06,28.06,0,0,0,80.41,61a13.48,13.48,0,0,1-1.62,1c-4.7,2.84-9.38,5.69-14.1,8.5-2.33,1.38-4.73,2.64-7.07,4a43.52,43.52,0,0,0-7.35,5.15c-1,.86-1.84,1.79-2.84,2.59a20.87,20.87,0,0,1-2.83,1.9c-1.8,1-3.65,1.94-5.47,2.92a6.08,6.08,0,0,1-2.84.83,6.66,6.66,0,0,0-3.87,1.61c-1.26.92-2.55,1.81-3.87,2.65a6.17,6.17,0,0,1-1.53.42,4,4,0,0,1-3.39,2.36,2.92,2.92,0,0,0-1.13.56l-5.21,3.37a8,8,0,0,1-1.46.87,8.88,8.88,0,0,0-3.34,1.83c-.22.2-.65.18-.93.25a2.08,2.08,0,0,1-.64-1.84c.53-5.67-.37-11.23-1.3-16.79-.23-1.33-.4-2.68-.52-4a8.6,8.6,0,0,1,.17-1.67,6.91,6.91,0,0,0,.19-1.67C9,71.93,8.38,68.05,7.82,64.17c0-.21-.06-.42-.11-.63-.22-1-1-2-.6-3.1a20.56,20.56,0,0,1,1.54-3c2.09-3.91,4.85-7.38,7.3-11,1.62-2.43,3.32-4.82,4.95-7.24A66.36,66.36,0,0,1,26,32.25a31.28,31.28,0,0,0,2.28-3.07c2.67-3.87,5.2-7.83,7.54-11.91.42-.73.71-1.54,1.07-2.33a7.08,7.08,0,0,1-.5-1c-.26-.78-.13-1.06.81-1.29.54-.13,1-.37,1.11-.85a1.42,1.42,0,0,1,1.27-1.25c.67-.07.94-.47,1.28-1a1.54,1.54,0,0,1,2.53-.2,1.12,1.12,0,0,1,.23,1,1.36,1.36,0,0,0,.7,2ZM86.5,30.83l.84-.68a12.48,12.48,0,0,0,0-1.5c-.19-1.55-.45-3.09-.63-4.64a4.54,4.54,0,0,1,0-2.08A5.66,5.66,0,0,0,86.9,19a13.42,13.42,0,0,0-1.83.71Q83,20.93,80.92,22.3c-.31.21-.46.66-.68,1l0,0c-.87-.34-1.49.26-2.17.62-3.67,1.91-7.32,3.86-11,5.77-5.25,2.73-10.53,5.42-15.78,8.15-2,1.06-4,2.2-6,3.29-.43.24-.9.41-1.36.62a25.89,25.89,0,0,0-2.5,1.18c-3.75,2.2-7.51,4.4-11.2,6.69A31.79,31.79,0,0,0,26,52.78c-.66.58-1.46.83-2.12,1.35a1.22,1.22,0,0,1-1.42,0c-.23-.14-.46-.3-.71-.47-1.8,1.12-3.53,2.27-5.32,3.3s-3.33,2.65-5.28,3.55a1,1,0,0,0-.17.14,1.6,1.6,0,0,0-.71,1.65c.45,3,.85,6.08,1.28,9.11,0,.13.15.23.24.35a4.32,4.32,0,0,1,1.61.27c.67.42,1.11-.48,1.83-.21-.59.53-1.08.94-1.53,1.38a6.21,6.21,0,0,0-1.88,3.3,18.09,18.09,0,0,0,.63,5.46c.93-.44,1-1.57,1.69-2.13a47.3,47.3,0,0,0,3-9c-.27-.35-.82-.1-.85-.73A4.26,4.26,0,0,0,18.51,68c.14-.33.61-.56,1-.75a3.67,3.67,0,0,0,1.85-1.69c.29-.62.86-.68,1.47-.45a2.26,2.26,0,0,0,2.81-.81,1.55,1.55,0,0,1,2-.61c.6.28,1-.1,1.69-.18-1.06,2.7-1.87,5.34-2.83,7.94s-1.89,5.34-2.87,8.11a1.74,1.74,0,0,0-.65.31c-1.82,2-4.36,3.07-6.44,4.94-.38-.78-.69-1.48-1.08-2.15a.87.87,0,0,0-.65-.42.79.79,0,0,0-.57.5,2.7,2.7,0,0,1-1.64,2.24,18,18,0,0,0,0,1.81c.11.92.32,1.83.45,2.75.33,2.32,1.14,4.55,1.29,6.9,0,.25.26.48.46.83A27.28,27.28,0,0,0,17.37,96c2.07-1.26,4.11-2.58,6.15-3.89Q30.24,87.77,37,83.37c1.5-1,3-1.94,4.5-2.88,2.61-1.6,5.21-3.21,7.85-4.75,1.66-1,3.4-1.8,5.1-2.71,1.94-1,3.86-2.13,5.84-3.13,1.14-.58,2.42-.89,3.53-1.52,2.78-1.58,5.58-3.16,8.25-4.93,3.44-2.29,7-4.34,10.56-6.48,1.64-1,3.3-1.94,4.93-2.94a14.75,14.75,0,0,0,1.38-1,1.66,1.66,0,0,0,.71-1.48,19.69,19.69,0,0,0-.32-3,51.35,51.35,0,0,1-1-6.76c0-.61-.2-1.22-.32-1.94l-1.44.9a1,1,0,0,1-.67-1.3c.11-.91.29-1.83.49-2.73a16.59,16.59,0,0,0,.23-6ZM43.8,24.56c.68,1.57.15,2.71-1.42,3.39a1.13,1.13,0,0,0-.18.12.94.94,0,0,0-.45,1.1.77.77,0,0,0,1,.57c1.53-.31,3.07-.62,4.58-1,.81-.2,1.59-.53,2.4-.81.16-1.23.61-2.3.2-3.61-.75-.25-1.53-.58-2.35-.78A3.59,3.59,0,0,0,43.8,24.56Zm-4.33,5.28c-.1-.05-.25-.15-.28-.12A.88.88,0,0,0,39,30l.32.12Z"/><path d="M95.47,50.29l-.34,1-.19,0,.1-1.11Z"/><path d="M88.35,57.2a5,5,0,0,1-1.57,1.16c-.35-.61.12-.83.31-1.16l0,0h1.34Z"/><path d="M94.34,47l.9,1c-1,0-.82-.59-.86-1.05Z"/><path d="M91.56,44.14c0,.06.08.13.07.17s-.11.13-.16.19a.46.46,0,0,1,0-.2A.39.39,0,0,1,91.56,44.14Z"/><path d="M14,102.71a1.59,1.59,0,0,1,.09.33s-.08.08-.12.13c0-.12-.07-.23-.09-.34S14,102.75,14,102.71Z"/><path d="M92.07,46.86l-.13.11c0-.06-.1-.16-.08-.18a.74.74,0,0,1,.21-.13Z"/><path d="M44.28,12.32l.07-.29a.4.4,0,0,1,0,.11.76.76,0,0,1-.11.14Z"/><path d="M94.38,46.9l-.37,0,.18-.24.15.34Z"/><path d="M63.21,50a3.29,3.29,0,0,1-.1,3,16.36,16.36,0,0,0-.54,2.17l-.92-.44c-.28.53-.44,1.26-.88,1.54s-1.2.13-1.91.18c-.14.43-.26.9-.44,1.35a.88.88,0,0,1-1.42.3c-.35-.3-.65-.67-1.14-1.17-.33.92-.58,1.63-.85,2.35a9.19,9.19,0,0,1-.54,1.38c-.29.52-.82,1-1.38.82-1.19-.4-2,.45-2.93.74l-1,2c-.15-.37-.25-.55-.3-.73-.19-.68.12-1.36-.15-2.09A3.12,3.12,0,0,1,49,59.54c.93-2.6,1.93-5.17,2.87-7.77.36-1,.6-2.05.91-3.07s.65-2,1-3.09h1.77c1.25-1.29,1.25-1.29,3-.89a10.74,10.74,0,0,1,.66-1c.17-.21.47-.52.65-.48,1.1.22,1.55-.5,2-1.26a1.14,1.14,0,0,1,1.8-.39c.29.19.54.46.82.68a1.07,1.07,0,0,0,1.51,0c.41-.43.77-.89,1.31-1.53A48.17,48.17,0,0,1,63.21,50Zm1.34-5.76,0,.37a.78.78,0,0,0,.1-.15.41.41,0,0,0,0-.19S64.59,44.23,64.55,44.22Z"/><path d="M76.23,35l1.25-1.66,1.26-.21a3.71,3.71,0,0,0,.39-.48c.61-1,1.19-2.11,1.82-3.14.36-.59.73-.71,1.23-.56a1.26,1.26,0,0,1,.9,1.1c.25,1.77.42,2.54,1.29,3.51A1.86,1.86,0,0,1,84.56,36,42.93,42.93,0,0,0,81,44.48c-.54,1.83-1.53,2.45-3,.73-.14-.17-.26-.35-.41-.5a4.25,4.25,0,0,0-.48-.32,3.43,3.43,0,0,0-.6.73c-.32.79-.58,1.6-.91,2.53l-1.17-.49a2.37,2.37,0,0,0-2.13,2.19,8.15,8.15,0,0,1-.62,1.82,1.23,1.23,0,0,1-1.76.65,1.91,1.91,0,0,1-1.18-2.4A19.2,19.2,0,0,1,70,46a21.05,21.05,0,0,0,.92-3l1.94-6.77c0-.14.07-.28.12-.41.76-2.06,1.18-2.18,3-.86A1.21,1.21,0,0,0,76.23,35Z"/><path d="M46.37,55.54q-.28.69-.54,1.38a.77.77,0,0,0,.05-.19.43.43,0,0,0-.05-.16l0,.31a1.22,1.22,0,0,1-.12.19c-.69.87-.47,2.06-1,3a7.72,7.72,0,0,0-1.4,2.86,2,2,0,0,1-.26.81,6.1,6.1,0,0,0-.93,3.58,13.83,13.83,0,0,1-6.7,4.48l-1.2-1.32c-.13.37-.2.62-.31.86-.53,1.22-.69,1.28-2.2.66-.44,1.15-.61,2.44-1.53,3.35-.58.1-.8-.25-.86-.71a1.36,1.36,0,0,1,.11-.83c1.13-1.68,1.56-3.64,2.26-5.48s1.19-3.81,1.82-5.7a30.78,30.78,0,0,1,1.3-3.39c.52-1.12,1.18-2.11,2.69-2.06.34,0,.7-.6,1.18-1.06l2.29.74a6.58,6.58,0,0,0,.92-2.78c.35-1.34.52-1.45,2-1.31a3.35,3.35,0,0,1,2,.64c.43.66-.18,1.59.55,2.19Z"/><path d="M85,29.79c.7.06.8.44.72.89,0,.16-.24.29-.37.43-.13-.12-.36-.23-.38-.37A5,5,0,0,1,85,29.79Z"/><path d="M46.41,55.58a1.5,1.5,0,0,1,.93-1.64l0,0c-.23.6-.32,1.27-1,1.64Z"/><path d="M47.34,53.94v-1l.23,0-.27.92Z"/><polygon points="26.78 75.82 26.67 75.73 26.81 75.67 26.78 75.82"/><path d="M80.24,23.31c.08,0,0,0,0,0Z"/><path d="M86.52,30.78v-.34h0c0,.12,0,.25,0,.38Z"/></svg>