<?xml version="1.0" encoding="utf-8"?>
<!-- Generator: Adobe Illustrator 22.0.0, SVG Export Plug-In . SVG Version: 6.00 Build 0)  -->
<svg version="1.1" id="Calque_1" xmlns="http://www.w3.org/2000/svg" xmlns:xlink="http://www.w3.org/1999/xlink" x="0px" y="0px"
	 viewBox="0 0 71.7 120.6" style="enable-background:new 0 0 71.7 120.6;" xml:space="preserve">
<title>ddddd</title>
<path d="M59.5,67.7l1.3,4.9l1-1.1l0,0c0.2,2.1,0.6,4.2,1.3,6.2c0.7,2.7,0.8,5.4,0.3,8.1c-0.5,3.7-0.7,7.5-1.2,11.2
	c-0.3,3.5-1.8,6.9-4.3,9.5c-0.8,0.8-1.6,1.5-2.5,2.2c-0.6,0.4-1.2,0.8-1.7,1.3c-1.5,2-3.6,3.3-5.8,4.6c-1.3,0.8-2.8,1.1-4.3,1
	c-2.2-0.1-4.5-0.1-6.7-0.1c-1.8,0.1-3.5-0.5-4.8-1.7c-1.4-1.2-3.3-1.9-4.8-3c-2.9-2-5.5-4.4-7.8-7.2c-0.3-0.4-0.7-0.6-1.2-0.7
	l0.6,3.4l-0.2,0.2c-0.2-0.4-0.5-0.8-0.7-1.2c-1.7-3.9-3.5-7.7-5-11.6c-1.6-4.3-3.5-8.6-4-13.2c-0.1-1.3-0.1-2.5,0.2-3.8
	c1.3-6.1,3.5-12,6.6-17.4c1.4-2.2,3-4.3,4.7-6.3c0.5-0.6,1.5-0.8,2.3-1.2s1.6-1,1.3-2.3c-1.3-5.1-2.5-10.2-3.8-15.3
	c-0.4-1.2-0.8-2.4-1.4-3.6c-0.5-1.1-1-2.2-2.5-2.4c-0.5-0.1-1-0.7-1.5-1.1c-0.4-0.4-0.8-0.7-1.3-1c-2.8-1.6-4.1-6-2.3-8.7
	c1.6-2.3,3.4-4.4,5.1-6.6c0.4-0.5,0.9-0.9,1.5-1.2c0.4-0.2,1.3-0.2,1.5,0.1c1.4,1.8,3.8,1.4,5.5,3.3c1.6-2.6,4.4-2.5,6.5-3.6
	s3.5,0,4.9,1c0.9,0.8,1.6,1.8,2,2.9c0.2,0.4-0.1,1-0.3,1.5c-0.8,1.9-1.7,3.7-2.6,5.6c-0.4,1-0.8,1.9-1.3,2.9c-0.9,1.4-1.3,3.1-1,4.8
	c0.4,2.4,0.8,4.9,1.4,7.3c0.8,3.4,1.8,6.8,2.5,10.2c0.2,1.2,1,2.2,2.1,2.6c1.5,0.6,3.1,1.3,4.6,2c3.7,1.5,6.1,4.5,8.7,7.3
	C55.6,60.4,57.8,63.9,59.5,67.7L59.5,67.7z M28.1,17.2c-2.2,0.7-2.9,0.4-3.8-1.2c-1.4-2.6-3.5-2.8-5.5-0.8c-1.5,1.6-2.3,3.7-2.1,5.9
	c0,1.9,1.5,3.4,3.3,3.5c1.8,0.3,2.2,0.7,2.6,2.5c1.3,5.9,2.7,11.8,4,17.7c0.3,1.4,0.8,2.7,1.1,3.8c2.3-0.4,4.3-0.7,6.5-1l-1-4.8
	c-0.4,0.7-0.9,1.3-1.6,1.9c-0.6,0.3-1.3,0.4-2,0.2c-0.2,0-0.4-1.1-0.2-1.6c0.3-0.9,0.7-1.7,1.2-2.6l1.9-0.1c0-0.5-0.1-0.9-0.2-1.4
	c-1-4-2.1-8-3.1-12c-0.2-0.6-0.2-1.2-0.1-1.9c1.3-3,2.7-5.9,4.1-8.8c0.5-0.9,1.1-1.9,1.8-2.9l-2.1-1.9l-5.9,2.5L28.1,17.2z
	 M62.1,86.4c0.8-4.1,0.6-7.2-0.8-8.8L62.1,86.4z"/>
<path d="M30.5,89.2l2.7-1.4C32.6,89,31.5,89,30.5,89.2L30.5,89.2z"/>
<path d="M33.9,86.4l2.4,0.2C35.3,87.4,35.3,87.4,33.9,86.4L33.9,86.4z"/>
<path d="M62.3,51.8c-0.1,0.1-0.2,0.5-0.3,0.5c-0.7,0.2-1.5,0.3-2.2,0.2c-0.7-0.4-1.3-1-1.8-1.7c-0.1-0.1,0.2-0.6,0.4-0.8
	c0.8-0.5,3.4,0.4,3.8,1.3C62.2,51.4,62.2,51.6,62.3,51.8z"/>
</svg>
