<svg xmlns="http://www.w3.org/2000/svg" viewBox="0 0 342.66 465.62"><title>Fichier 1</title><g id="Calque_2" data-name="Calque 2"><g id="Calque_1-2" data-name="Calque 1"><path d="M213.22,302.38c0,.1.13-.35.39-1.08,1.35,2.33,2.42,1.32,3.52-.32.52,1.4.93,2.49,1.51,4.08.31-1.39.51-2.27.7-3.15,8.67.49,17.16.63,26-.68,1.52,1.56,4.88,1.3,5.56-1.06l2.35,1.14.64-1.68.58.37.26.94c2.46-.49,4.86-1,7.26-1.43.37-.06.79.29,1.21.35a4.6,4.6,0,0,0,1.91.08c1.78-.57,3.52-2.46,4.92-.41,3.83-.49,7.41-.88,11-1.42,4.75-.73,9.46-1.68,14.22-2.28a6.59,6.59,0,0,1,3.59,1.13c1.67.94,3.18,2.14,4.76,3.23.41.29.82.58,1.21.89,9.08,7,16.43,15.57,22.8,25.05a48.9,48.9,0,0,0,4,4.49l-2.48-.37c.64,1.28,1.09,2.28,1.63,3.22,5.27,9.14,10.51,18.3,15.86,27.4,3.78,6.45,7.83,12.74,11.54,19.24,5.12,8.93,10,18,15,27,.65,1.16,1.53,2.18,2.23,3.3a7.16,7.16,0,0,1,.55,7.36,8,8,0,0,0-.65,5.31c1.17,3.48-.26,6.58-.59,9.83-.4,3.85-.91,7.68-1.34,11.52a20.11,20.11,0,0,0,0,2.33l-1,.12c-.37-1.88-.74-3.76-1.18-6-1.25.85-2.33,1.54-3.38,2.28a106,106,0,0,1-20.58,11.79c-3.05,1.25-6,2.81-8.94,4.28a11.08,11.08,0,0,0-1.66,1.27l.36.67,4.19-2,.36.62-10.71,6.62-2.39-4c-1.4.69-4.07.14-3.53,3.48.05.32-.56.75-.86,1.13-.23-.37-.64-.73-.67-1.12-.16-1.8-.22-3.62-.33-5.68-.71.27-1.23.48-1.81.69a2.19,2.19,0,0,1-.21-.76c1.25-11,.14-21.89-.31-32.83a9.39,9.39,0,0,1,.25-1.95c.5-2.85.6-5.54-1.58-7.94-.95-1.05-1.3-2.62-2-3.9a19.33,19.33,0,0,0-2.15-3.33q-14.34-16.43-28.75-32.78c-1.67-1.91-3.43-3.75-5.44-5.93,0,3.53-.2,6.64.05,9.71.54,6.69,1.57,13.35,1.91,20,.36,7.05.28,14.14.16,21.2-.17,9.23-.66,18.45-.84,27.67-.12,5.73.15,11.46.12,17.18,0,1.35-.72,2.68-.81,4a57.68,57.68,0,0,0,0,5.88c0,.72.61,1.71.32,2.08-2,2.53-.48,5.12-.3,7.67.12,1.71.88,3.48.61,5.09-.16.91-2.17,2.4-2.77,2.16-2-.81-2.82.89-4.14,1.44l-4.95,2.11c-.52.22-1.2.3-1.51.69-1.31,1.62-2.65,1.33-4.14.32-.44-.3-1.11-.68-1.53-.55-3.32,1-6.59.28-9.89-.05a3,3,0,0,0-3.65,2.85l4.94-.46.09.49c-3.14.5-6.3,1.5-9.43,1.42-15.89-.43-31.78-.9-47.64-1.85-10.28-.62-20.51-2-30.76-3.2a22.24,22.24,0,0,1-6.5-1.81c2,.21,4,.38,5.95.62,4.5.57,9,1.18,13.48,1.72.38,0,.81-.36,1.22-.55-.22-.4-.36-.94-.7-1.18a3.92,3.92,0,0,0-1.8-.75c-3-.23-6-.36-9-.54a27.64,27.64,0,0,1-5.41-.45c-1.47-.39-2.75-1.44-4.43-2.38l-.66.56-.56-1.95-1,1.64c-8.1-2-16.1-3.85-24.07-5.84-5.38-1.35-10.79-2.64-16.06-4.35a40.82,40.82,0,0,1-8-4.1c-.94-.55-1.49-1.75-2.62-3.16l3.32-1a7,7,0,0,0-.55-2.25c-2.23-3.71-.81-7.76-1.23-11.64-.34-3.1-.83-6.2-1.12-9.31a39,39,0,0,1,.15-4.18c.19-8.31.31-16.62.57-24.93.18-5.57.69-11.12.82-16.69.08-3-.32-5.95-.51-9.14L106.78,397a61.24,61.24,0,0,1-.33-7c.06-1.26,1.22-2.48,1.22-3.72,0-2.54-.45-5.09-.79-8.4a30.76,30.76,0,0,0-4,10.9,5.57,5.57,0,0,1-.35,1.67c-.91,1.59-.89,2.68.62,4.18,1.16,1.15,2.9,3.09.77,5.17-.09.08.21.55.32.85.76,2.12.56,2.53-1.9,3.51-.27-2.25-.52-4.43-.77-6.61l-1.06-.06c-.88,3.21-1.81,6.41-2.62,9.64-1.19,4.72-2.08,9.52-3.48,14.18-1.68,5.6-3.91,11-5.62,16.62-1.16,3.8-1.82,7.75-2.72,11.63q-1.23,5.33-2.52,10.63a8.52,8.52,0,0,1-1,1.5v-3.72l-4.14,2.75c.57,1,1.25,2.21,1.92,3.41l-.73.66c-1.86-1.5-3.78-2.94-5.56-4.53s-3.21-3.55-5.11-4.91a68,68,0,0,0-7.21-4c-.22-.12-.52-.38-.65-.32-4.4,2.12-6.94-1.78-10.1-3.3a117.55,117.55,0,0,1-11.53-6.91,17.81,17.81,0,0,1-2.58-2.42c-.18-.17-.28-.5-.48-.56-4.47-1.32-1.45-4-1.2-6.24.06-.53-.36-1.13-.28-1.65.73-4.61,1.37-9.25,2.34-13.81,1.79-8.36,3.82-16.66,5.7-25,1.35-6,2.71-11.94,3.87-17.95a19.54,19.54,0,0,0-.07-5.45c-.11-1.17-.31-2.37,1.22-2.34.43,0,1.24,1.49,1.17,2.23-.41,4.22-1.05,8.41-1.59,12.61a5.53,5.53,0,0,0,.34,3.14A7.37,7.37,0,0,0,48.7,382c1.18-3.58,2.49-7.13,3.42-10.77C53,368,53.26,364.59,54,361.3c.48-2.26,1.19-4.48,1.86-6.69.72-2.36,1.53-4.68,2.34-7.17,1.49.29.81-1.53.8-2.41-.05-3-.35-6-.56-9.15,2.67-1,3.37-3.44,3.35-5.95,0-1.8.83-2.67,2-3.65,1.74-1.47,3.55-3,1.72-5.57l3.77-1.7.64,1.69c11.36-3.23,22.63-6.58,34.24-8.72,4-.74,7.91-2.75,12-3.17,4.78-.49,9.45-1.77,14.63.56,4.23,1.9,6.51,5,9.31,8,6,6.42,12.07,12.82,18,19.34,5.3,5.84,10.35,11.91,15.68,17.72a67.27,67.27,0,0,0,8.4,7.69c.69.53,2.66-.11,3.77-.71,1.35-.74.49-1.74-.21-2.67-5-6.72-10-13.48-15-20.23-1.66-2.25-3.3-4.51-4.85-6.83a2.43,2.43,0,0,1-.39-2,45,45,0,0,1,3.73-5.73c2.48-3.19,5.16-6.22,7.65-9.4a10.85,10.85,0,0,0,1.7-3.25c1-3.14,4.1-4.19,6.42-4.21,5.2,0,9.94-1.72,14.87-2.66a3.82,3.82,0,0,1,1.11-.09,14.74,14.74,0,0,0,7.59-1.27C209.77,302.53,211.36,302.63,213.22,302.38ZM205.1,499.64l-22.85-3.33-.16,1.27C189.63,499.24,197.38,499.31,205.1,499.64Zm-87-19.11-.19.82,15,4,.23-.91C128.17,483.05,123.44,480.67,118.13,480.53ZM45,391.79l.79.21,1.83-6.82-.8-.21Q45.92,388.38,45,391.79Z" transform="translate(-33.99 -36.83)"/><path d="M275.85,123l-3.39,7.31-.6-.19-.11-1.15-.56-.41-3.41,4.59c-.84,1.14-1.66,2.29-2.5,3.43l-.62-.31.4-2.16a3,3,0,0,0-.62,0c-.55,2.36-2.19,3.43-4.27,4.55-2.61,1.41-4.76,3.67-7.31,5.72l-.66-2-3.34,1.45c-.49,2.87-1.14,5.6-1.37,8.36-.3,3.76-.32,7.55-.38,11.33-.06,4.55,0,9.1,0,13.66a22.89,22.89,0,0,0,.25,2.73c.36,2.83-.4,3.78-3.4,4l-.59,2.07,3.51,3.69-.53.57c-.33-.18-.78-.28-1-.55-1.44-2.19-3.21-2.59-5.78-1.92s-5.1.47-7.66.62c-8.09.46-16.19,1-24.29,1.31-3.8.14-7.63-.34-11.44-.18-10,.42-20.07,1-30.1,1.59s-19.91,1.2-29.85,1.91c-4.14.29-8.26.94-12.4,1.29-2.13.18-4.3,0-6.44.09-4.21.25-8.41.58-12.6.91-2.32.19-4.63.53-7,.64a2.93,2.93,0,0,1-2.24-.73c-2.89-4.21-5.65-8.37-5.44-14,.39-10.63.33-21.28.35-31.92,0-.67-.9-1.37-1.44-2-.73-.85-2.15-1.66-2.14-2.49,0-1.81-1-2.37-2.23-3.11-5.68-3.35-9.54-8.22-12.74-14-3.41-6.13-5-12.59-6.26-19.36A26.29,26.29,0,0,1,68,91c2.82-5.44,6.12-10.58,11.43-14.11,4.07-2.71,8-5.7,12.94-6.51,2.85-.47,6.07.09,8.57-1,6.75-3,12.64,0,18.76,1.75,2.28.67,4.53,1.45,7.13,2.29,1.11-9.67,6.77-16.71,13.34-23.19l.63.33-1.19,2.89.34.26a14.67,14.67,0,0,0,1-1.09c3.82-4.92,8.23-9.21,14.11-11.47a80.84,80.84,0,0,1,11.55-3.26,37.08,37.08,0,0,1,15.73-.35,8.1,8.1,0,0,1,1.23.16c4.51,1.86,9,3.82,13.52,5.62,6,2.4,9.61,7.44,13.36,12.3,2.83,3.66,3.95,8,4.61,12.47.27,1.77.9,2.15,2.57,2s3.07.39,4.6.39a5.52,5.52,0,0,0,2.14-.81c.49-.23.93-.56,1.77-1.08l-.37,2.6a7.38,7.38,0,0,0,2.6,0c4.89-2.22,10.07.89,15-.87.37-.13,1,.18,1.4.39,3.66,1.74,7.5,3.21,10.91,5.36,4.19,2.63,8,5.8,12,8.82a18.74,18.74,0,0,1,6.77,8.56c1.17,2.9,2.08,5.92,3,8.91,1.71,5.5,3.51,11,1.13,16.77a22.54,22.54,0,0,1-2.77,4c-1.25-1.66-1.67-3.1.77-3.55.84-5.43,2.33-10.83-.8-16.57-.25,4.85.15,9.14-.85,13.08s-3.43,7.66-5.23,11.46l.83.63A8.35,8.35,0,0,1,275.85,123ZM203.07,49.69l-.74.48a10,10,0,0,0,5.4,4.77Z" transform="translate(-33.99 -36.83)"/><path d="M199.12,285.94c-3-.77-5.19,1.25-7.67,2.24-5.91,2.37-11.78,4.83-17.74,7.08a38.74,38.74,0,0,1-23.87,1.22c-2.88-.74-5.82-1.26-8.71-1.94a5.53,5.53,0,0,1-1.79-.84c-5-3.45-9.76-7.14-14.88-10.33-4.1-2.54-6.7-6.24-8.83-10.23-2.9-5.4-5.11-11.17-7.88-16.64-2.29-4.53-2.85-9.3-3-14.23a15.3,15.3,0,0,0-.84-3l-2.81,5.37c0-1.62-.39-2.88.07-3.63,1.11-1.8.71-3.48.27-5.26-.56-2.21-.09-2.73,2.26-2.65,1.3,0,2.59,0,4.06,0l-.19-2.57c2.31,3.4,5.41,2,8.12,2.13q9.6.36,19.21.3c3.11,0,6.22-.46,9.34-.69,4.47-.33,8.93-.71,13.4-.93s8.76-.1,13.12-.38,8.65-.87,13.1-1.34l.32,1.3,5.65-2c.58,2.43,1.37,2.66,4,1.26l-2-.7,0-.54,28.44-1.37.08,1.37-16.82.36-.07.68c.38.19.77.55,1.15.54q8.19-.19,16.38-.49c1.57-.06,3.42.24,4.63-.49,2.85-1.71,5.25-1.56,7.79.41a26,26,0,0,0,2-2.11,11.14,11.14,0,0,1,5.29,6.4l-.72.7-.46-1.66-.62.23c.7,1.77.63,3.17-1.36,3.72-.13,0-.25.23-.3.38-1.36,3.93-2.72,7.87-3.83,12,4-2.4,5.79-6.4,7.58-10.41-.71,4.6-2.3,8.9-5.7,12.13-4.29,4.07-6.86,9.34-10.42,13.9a32.94,32.94,0,0,1-4.62,5.16c-5.66,4.74-11.45,9.35-17.27,13.9a15.63,15.63,0,0,1-3.61,1.56l5-3.83-.54-.71c-1.54,1-3.12,2-4.6,3.16C199,284.68,199.17,285.44,199.12,285.94Zm20.12-16.88c3.67-1.72,4.77-5.55,7-8.52a12.32,12.32,0,0,0-3.77,3.27,61.1,61.1,0,0,0-3.13,5.31,14,14,0,0,0-6.71,5.27C215.19,273.1,217.72,271.71,219.24,269.06Z" transform="translate(-33.99 -36.83)"/><path d="M244.42,209.87c-1.63,2-3.16,4.08-4.93,5.94a5.4,5.4,0,0,1-3,1.53c-3.92.51-7.87.79-11.8,1.17-1.38.13-2.78-1.55-4.2,0,0,0-.78-.62-1.15-.91-.84,1.49-5.69,2.3-8.85,1.1l2-1.64c-4-.55-7.66-.85-11.23.48l0,.91h8.13v1l-11.11.74-.17-.5c.65-.53,1.29-1.07,2.58-2.15l-5.7.3,2.21,2.32-4.32.27-1.08-2.09-1.89,1.95c-1.3-2.35-2.91-2.27-4.84-.25-.5.52-1.66.41-2.41.57a9,9,0,0,0-.75-1.71c-.07-.09-1,.13-1,.33-.78,2.88-1.82.5-2.68.61-1.11.24-2.4,1-3.3.65-2.93-1.08-5.83-.25-8.73-.21-4.66.06-9.32.57-14,.66-3.07.07-6.15-.44-9.22-.37-7.22.17-14.45.48-21.66.86-2.79.14-5.55.76-8.33.9-2.17.11-4.36-.23-6.54-.27a3.93,3.93,0,0,0-1.72.59c-1,.5-1.92,1.06-2.85,1.64s-1.83,1.22-3.21,2.14c-.44-.74-1.25-2-1.91-3.3s-1.16-2.69-1.83-4.3l-2.07,4-.69-.27,3-10.93-1.19.13c-.09-.26-.23-.51-.18-.55,1.76-1.66,3.29-3.83,5.37-4.77,1.88-.85,4.36-.29,6.58-.45a15.7,15.7,0,0,0,5.17-1.1,49.44,49.44,0,0,0-15.72.16c.53-.36,1-1,1.58-1,3.8-.19,7.6-.24,11.4-.36,8.29-.26,16.58-.43,24.86-.83,9.51-.45,19-1.17,28.53-1.65,7.55-.39,15.1-.63,22.65-.86,4.5-.14,9-.05,13.5-.21,4-.14,8-.6,12-.68,2.79-.06,5.58.28,9,.47-2.57,2.38-5.93-.32-8.1,3.24l10.13-.9-.22-.51c.71-.36,1.42-1,2.13-1.05a41.49,41.49,0,0,1,13.54,1.76c.73.24,1.82-.61,2.93-1,1.26.94,2.6,2.63,4.94,1.24.4-.24,1.27.3,2.07.52l-.7-2,6.89,5.41L243.37,205l1,4.93Zm-64.92,8.34-.09-1.53c-4.88,0-9.75-.05-14.62,0-11.4.14-22.8.24-34.19.55-4.93.14-9.86.7-14.77,1.19-.68.07-1.29.83-1.94,1.26l.29.38ZM173,201.85v1.28c12.18-.18,24.37.55,36.51-1.28ZM97.85,220.94l1.32-.37c-.52-2.43-1-4.87-1.63-7.7-2.45,2.15-2.4,2.12-1.28,3.85a11.52,11.52,0,0,1,.8,2.25C97.3,219.63,97.59,220.29,97.85,220.94Zm14.62-2.14c-4.32-1.09-6-.49-5.56,1.62Zm119.71-14.58,0-1H227V204Z" transform="translate(-33.99 -36.83)"/><path d="M143.64,306.24,142,304l.28-.78c1.31.1,2.88-.24,3.86.37,3.52,2.18,7.35,2.35,11.27,2.51a63.33,63.33,0,0,1,8.38.75c2.3.4,2.75,1.85,1.45,3.81q-4,6-8.07,12c-.9,1.32-5.1,2.12-6.37,1.16-.43-.33-.57-1.08-.78-1.65-.42-1.15-.54-2.5-1.24-3.43-2.19-2.88-4.73-5.51-6.83-8.45-.71-1-.53-2.64-.75-4Z" transform="translate(-33.99 -36.83)"/><path d="M297.26,293.48l1.54-.89,12.77,7.53-1.08,1.24Z" transform="translate(-33.99 -36.83)"/><path d="M244.38,209.94l3.94,2.91c-.54.17-1.4.72-2.13.59-.58-.1-1.14-1-1.47-1.61a6.13,6.13,0,0,1-.31-2Z" transform="translate(-33.99 -36.83)"/></g></g></svg>