<svg id="Calque_1" data-name="Calque 1" xmlns="http://www.w3.org/2000/svg" viewBox="0 0 175 104"><title>Sans titre - 3</title><path d="M72.05,60.73c.3-.29.71-.52.88-.87a2,2,0,0,1,1.87-1.2c.42,0,.85-.07,1.27-.14,1-.17,2-.37,3.2-.61a28.73,28.73,0,0,0,2.85,1.19c1.09.35,2.22.53,3.49.81.3-.14.74-.35,1.2-.54a2.78,2.78,0,0,1,3.31.76,4.75,4.75,0,0,1,1,1.39,2.19,2.19,0,0,0,2.2,1.37,7.42,7.42,0,0,0,1.49,0,2.18,2.18,0,0,1,2.23,1,13.78,13.78,0,0,1,1.25,2.21,8.32,8.32,0,0,1,.38,1.47,9.35,9.35,0,0,0,1,.74,6.85,6.85,0,0,1,2.84,2.78,5.32,5.32,0,0,0,3.63,2.33,28.52,28.52,0,0,0,6.3.61c.77,0,1.09.55,1.55,1l.91-.52c.14.06.32.07.39.17a9.42,9.42,0,0,0,.76,1.23,3,3,0,0,0,3.28.67c1.11-.49,2.19-1,3.31-1.52a2.58,2.58,0,0,0,1.77-1.81,4.13,4.13,0,0,0,4-1.1,2.8,2.8,0,0,1,1.49-.68,6.5,6.5,0,0,0,1.61-.54c3.35-1.41,6.7-2.82,10-4.26.85-.36,1.67-.79,2.5-1.21,3.43-1.74,6.84-3.53,10.31-5.2,2.25-1.08,4.58-2,6.87-3a3.06,3.06,0,0,0,.58-.27,48.12,48.12,0,0,1,6.62-3.41,1.26,1.26,0,0,1,1.38-.06,1.46,1.46,0,0,1,.82,1.6,12.82,12.82,0,0,0-.4,4A2.37,2.37,0,0,1,169,61.24c-.91.56-1.82,1.14-2.77,1.62-2.42,1.21-4.87,2.37-7.31,3.56s-4.86,2.39-7.31,3.54c-8.53,4-16.73,8.63-25,13.1-1.75,1-3.44,2-5.17,3-.93.53-1.86,1.06-2.82,1.52a17.25,17.25,0,0,0-5.21,3.3,1.39,1.39,0,0,1-2.1.11,16.77,16.77,0,0,0-3.24-2.65,3.17,3.17,0,0,1-.5-.55c-.75.39-1.52.75-2.25,1.17a25.91,25.91,0,0,1-6.1,2.55c-3.31.89-6.57,1.94-9.86,2.87-1,.29-2.09.43-3.14.64l0,0a4.48,4.48,0,0,0-4.48.1,3.42,3.42,0,0,1-1.37.51c-2.7.06-5.37.72-8.1.53a3.85,3.85,0,0,1-2.27-.64,1.74,1.74,0,0,1-1.69,1c-1.85.07-3.7.17-5.55.25l-5.13.25H56.4c-3.5,0-7-.1-10.48,0s-7-.24-10.48-.4c-1.57-.07-3.13-.22-4.69-.3a54.4,54.4,0,0,1-10.31-1.79,20.78,20.78,0,0,1-4.51-1.93,27,27,0,0,1-7.84-5.5,21.69,21.69,0,0,1-1.64-2C5.62,84,4.86,82.8,4.1,81.59a6.19,6.19,0,0,1-1.2-4.82,9.43,9.43,0,0,0,0-2,14,14,0,0,1,4.43.07,18.34,18.34,0,0,0,4.68.1,1.47,1.47,0,0,0,1.41-.8,4,4,0,0,1,2.31-1.8c.4-.15.77-.38,1.17-.52a2.59,2.59,0,0,0,1.95-2.3l5.75-2.79L26,67.82a2,2,0,0,0,.33.07,7.85,7.85,0,0,0,4.7-.8,9.87,9.87,0,0,1,2.49-.61,10.17,10.17,0,0,0,3.4-1.13,11.94,11.94,0,0,1,3.28-1l1.4.62c1.42-.6,2.92-1.25,4.44-1.84a4.62,4.62,0,0,1,1.83-.43,12.5,12.5,0,0,0,5-1,9.18,9.18,0,0,0,1.66-1,44,44,0,0,1,6-3.54c1.21.37.94,1.56,1.39,2.27l9.36-1.66c1.39,1.19,1.39,1.19.81,2.92-.44-.1-.88-.35-1.34.15A1,1,0,0,0,72.05,60.73ZM104,88.4,102,89.65c1.54-.43,1.54-.43,2-1.27l.38,0ZM95.15,67.49c-1.38-.87-1.38-.87-3.39-.57-.07-.47,0-1.21-.24-1.36-1-.57-1.16-1.54-1.58-2.43A2,2,0,0,0,88.34,62c-.39.32-.8.69-1.26,1s-1.13.24-1.28,1c.58,1,2.4.81,2.39,2.48l-1.14.83c0,.24,0,.45,0,.66-.15,2-1.57,2.9-3.36,2.15A2.42,2.42,0,0,0,82.09,70a15.08,15.08,0,0,1-1.91.21,45.28,45.28,0,0,0-5.09.57c-1,.21-1.67.09-2.16-.77a3.49,3.49,0,0,0-1.66-1.58A2.29,2.29,0,0,1,70.06,67c-.38-1.11-.13-1.83,1-2.19a17.3,17.3,0,0,1,3.1-.75c2-.3,4.09-.49,6.24-.74l.91,1.29c1.1-.4,1.1-.4,2.58-2-.08-.11-.14-.29-.24-.32a20.94,20.94,0,0,1-3.69-1,5,5,0,0,0-2.11-.08c-.49,0-1,.2-1.47.27-1,.15-2.07.65-3-.22-.15-.14-.54,0-.82,0-.64,0-1.28.1-1.92.1a5.08,5.08,0,0,0-2.71.38,2.5,2.5,0,0,1-1.87.08,4,4,0,0,0-3.46.55,2.28,2.28,0,0,1-1.61.37c-.8-.18-1.71.22-2.42-.47a.55.55,0,0,0-1,.24c-.15.51-.49.64-.91.79a.49.49,0,0,0-.37.7,4.19,4.19,0,0,1,1,0,1.56,1.56,0,0,1,.91.43,6.9,6.9,0,0,1,1.42,3.29c.09,1.4-.38,2-1.82,2a6.66,6.66,0,0,0-2.72.36A14.19,14.19,0,0,1,50,71.56c-1.58.11-1.56.27-2.34-1.1-.11-.18-.25-.35-.35-.54-.64-1.22-.52-1.54.7-2.12.62-.3,1.42-.36,1.71-1.15a11.27,11.27,0,0,0,5-2,7.53,7.53,0,0,0-4.93,2l-3.07.58.81-1.2c-2.45.3-4,1.88-5.91,2.5a4.89,4.89,0,0,0-5.33,1.29l-.95-.52a5.07,5.07,0,0,1-5.05.69,1.67,1.67,0,0,0-1.78.4,24,24,0,0,1-3.2,2.12c-.22-.46-.37-.77-.53-1.08a1,1,0,0,0-1.25-.57.84.84,0,0,0-.8.84,1.2,1.2,0,0,1-.89,1.08,14.36,14.36,0,0,0-1.52.76.67.67,0,0,0-.31,1c.5,0,1,0,1.59,0,3.28-.19,6.55-.43,9.82-.6,1.21-.06,2.43.06,3.64,0q6.61-.23,13.23-.5c1.64-.07,3.27-.21,4.91-.24,2,0,4,0,6,0a44.05,44.05,0,0,1,6,0,27.48,27.48,0,0,0,8.6-.23c.68.27.56,1.54,1.66,1.11L75,72.83h1c1.91,0,3.84.23,5.75.1a26.36,26.36,0,0,1,4.26,0c3.7.34,7.41.21,11.12.22.46,0,1,.09,1.37-.48a6.06,6.06,0,0,0-1.77-2.32,3.6,3.6,0,0,1-1.59-2.89c.66.68.64,1.93,2,2.2a10.11,10.11,0,0,1-.55-1.35c-.12-.47-.09-1-.2-1.46-.18-.78-.68-1-1.77-.68Zm26,13.56c-.9.3-.85,1.13-1.3,1.49a9.39,9.39,0,0,1-1.5.71c-.69.36-1.14-.45-1.73-.39-.64.92-1.26,1.78-1.85,2.65-.15.23-.28.5.13.75a37.39,37.39,0,0,0,6-3.22C120.93,82.42,121,81.81,121.13,81.05Zm7.27-5.7c-.21.85-.31,1.43-.51,2s-.63,1.09-.4,1.76a4.08,4.08,0,0,0,2.87-1.48,10.64,10.64,0,0,1-.92-.85C129.13,76.4,128.87,76,128.4,75.35Zm-45.9-10c-.51,0-.41.43-.56.71s-.51.73-1,.29c-.09-.08-.29-.19-.31-.16-.61.68-1.48.36-2.2.58a3.41,3.41,0,0,0-.74.5A8.53,8.53,0,0,0,83,66.78,2,2,0,0,0,82.5,65.34Zm39.32,17a12.75,12.75,0,0,0,1.28-.63c.12-.08.22-.44.15-.51a1,1,0,0,0-.65-.37C122,80.86,121.89,81.12,121.82,82.33ZM77.3,95.11c-.2,0-.38,0-.56,0,0,0,0,.08-.06.12l.55,0S77.27,95.19,77.3,95.11ZM74.82,67.39c-.15-.23-.22-.42-.28-.41a1.34,1.34,0,0,0-.54.16.57.57,0,0,0,.06.28A7.06,7.06,0,0,0,74.82,67.39Zm8.51,6.51,0-.32-.83.08,0,.24Zm-2.26-.13a6.21,6.21,0,0,0-.81-.16c-.1,0-.19.12-.28.18.11.06.22.17.33.18A4,4,0,0,0,81.07,73.77Zm-53.93-5.2a3.39,3.39,0,0,0,.76.24c.11,0,.23-.12.34-.18-.11-.08-.21-.23-.32-.23A4.32,4.32,0,0,0,27.14,68.57ZM73.72,95.44l-.33-.09a1.74,1.74,0,0,0,0,.32s.14.06.16,0A1.2,1.2,0,0,0,73.72,95.44ZM72.37,74.18s-.08-.09-.12-.09-.09,0-.14.06.07.09.11.09A.47.47,0,0,0,72.37,74.18Zm28.05-1.13.3-.18c-.09-.08-.17-.21-.27-.22s-.2.12-.3.18Zm33.41,2.83s-.09-.14-.12-.13a1.66,1.66,0,0,0-.31.12s.09.15.11.15A2.22,2.22,0,0,0,133.83,75.88ZM85.32,73.81l0-.11-.14,0Z"/><path d="M41.64,41.48a13.3,13.3,0,0,0,.49,7.77c.42,1.2.73,2.43,1,3.42-.65.75-1.15,1.34-1.68,1.9a.94.94,0,0,1-1.18-.08,1.17,1.17,0,0,1-.36-.51c-.31-1.7-1.73-2.39-3-3.15A5.07,5.07,0,0,1,35,49a16.23,16.23,0,0,0-1.13-1.82,4.62,4.62,0,0,1-.77-3.85,29.32,29.32,0,0,1,4.26-10.85c1.83-2.79,3.34-5.8,5-8.71.24-.43.44-.89.72-1.31a12.76,12.76,0,0,0,2-6.23,6.93,6.93,0,0,0-.37-3.35c-.22-.51-.44-1.12,0-1.61s1.19-.29,1.81-.16a4,4,0,0,1,2.23,1.67A5.28,5.28,0,0,0,49,15.38a11.11,11.11,0,0,1,.36,3.37,16.42,16.42,0,0,0,.13,3,7.12,7.12,0,0,1-.74,4.57A26.45,26.45,0,0,1,46,30.82a23.57,23.57,0,0,0-4.61,9.53,1.28,1.28,0,0,0,.29,1.17Zm6.41-15.8-.06.1c0-.05,0-.09.07-.15Z"/><path d="M72,38.85c-.26.89-.49,1.78-.79,2.66a4.64,4.64,0,0,0-.06,3.12,28.73,28.73,0,0,0,2.6,6.31,3.12,3.12,0,0,1,.17.75l-1.57.77a2.2,2.2,0,0,1-.51-.16c-1.2-.89-2.35-1.84-3.58-2.69A5.64,5.64,0,0,1,66,45.88c-.26-1.25-.55-2.5-.78-3.77a11.8,11.8,0,0,1,.89-6.68c.35-.85.79-1.67,1.21-2.5a2.28,2.28,0,0,1,.44-.72c.94-.82,1.34-2,2.07-2.94,1.14-1.41,2.06-3,3.74-4a5.2,5.2,0,0,0,1.75-6.76,12.45,12.45,0,0,1-1.14-4c1.06-1.41,2.37-1.16,3.82-.73a27,27,0,0,1,1.66,2.57,21.81,21.81,0,0,1,1.14,3,5.66,5.66,0,0,1-.33,4.58c-1,1.81-1.66,3.78-2.75,5.51A43.41,43.41,0,0,1,74,34.11a12.85,12.85,0,0,0-2.21,3.63.89.89,0,0,0,.2,1.15Z"/><path d="M52.11,30.9a10.81,10.81,0,0,1,1.83-5.85,14.7,14.7,0,0,0,1.18-2,8,8,0,0,0,.93-4.12c0-.5,0-1-.06-1.5a6.15,6.15,0,0,0-1.37-4.16,1.08,1.08,0,0,1-.11-1,.81.81,0,0,1,1.08-.43,3.84,3.84,0,0,1,2.82,2.35c.32.93.88,1.78,1.28,2.69a17.64,17.64,0,0,1,1.1,2.76,7,7,0,0,1-.09,4.41,5.2,5.2,0,0,0-.3,1.46,5.88,5.88,0,0,1-.89,2.37c-.92,1.69-1.78,3.41-2.69,5.1a4.2,4.2,0,0,0-.55,2.25c.1,1.56-.48,3.09-.2,4.67.08.39-.55.79-.92.58a2.63,2.63,0,0,1-1.09-.93,13.78,13.78,0,0,1-.9-2.6c-.29-1.24-.49-2.51-.71-3.76C52.32,32.44,52.22,31.67,52.11,30.9Z"/><path d="M86.23,95l-.91.22,0-.19h1Z"/><path d="M79.91,26.39s.14.06.14.07a1.86,1.86,0,0,1-.1.31s-.14-.05-.13-.06S79.88,26.5,79.91,26.39Z"/><path d="M42,40.48c0-.13,0-.26.07-.38a.7.7,0,0,1,.09-.17c0,.09.12.22.09.27s-.19.16-.28.24Z"/><path d="M41.66,41.52c.11-.34.22-.69.32-1l0,0c-.11.34-.21.69-.32,1Z"/><path d="M72,38.89l.09-.33c0,.1-.09.19-.13.29Z"/><path d="M63.48,64.24a1.48,1.48,0,0,1,2.05-.81c.4.13.83.29.82.81a1.22,1.22,0,0,1-1.16,1C64.51,65.17,63.79,65.07,63.48,64.24Z"/><polygon points="45.21 67.71 45.29 67.79 45.13 67.79 45.21 67.71"/></svg>