<svg id="Calque_1" data-name="Calque 1" xmlns="http://www.w3.org/2000/svg" viewBox="0 0 124 52"><title>Sans titre - 3</title><path d="M118.69,30.8c-.11.42.21.89-.46,1.26a3.28,3.28,0,0,0-1.69,2.8,4.81,4.81,0,0,1-2.07,3.57c-1.28,1.13-2.66,2.15-4,3.21A2.66,2.66,0,0,1,110,42c-2.46,1.12-4.79,2.48-7.5,3C95.75,46.49,89,47.82,82.15,47.93a5.48,5.48,0,0,1-1.07,0c-4-.6-8-.45-11.93-.61-3.14-.13-6.26-.3-9.4-.44-2.56-.11-5.13.07-7.69.13a150,150,0,0,1-19.89-.44,56.47,56.47,0,0,1-12.47-3A9.87,9.87,0,0,1,15.9,41c-.49-.5-1-1-1.56-1.42-1-.91-2.05-1.77-3-2.73s-1.72-1.9-2.56-2.87a3.88,3.88,0,0,1-.58-.87,10.69,10.69,0,0,0-1.73-2.68,7.87,7.87,0,0,1-1.38-3.29,5.31,5.31,0,0,1,.18-1.78,11.62,11.62,0,0,1,1.78,0,44.14,44.14,0,0,0,7.43.75,3.12,3.12,0,0,1,1,.17,5.77,5.77,0,0,0,2.84.08v-2.1c1.35-1,2.7-2,4.1-3a7.89,7.89,0,0,1,1.59-.58c1.06-.41,2.18-.74,2.78-1.94,1.7.3,3.14-.69,4.74-.95a.48.48,0,0,0,.19-.09c1-1.1,2.36-1.55,3.48-2.36a5.76,5.76,0,0,1,3.58-1.09,11.14,11.14,0,0,1,5.41,1,7.14,7.14,0,0,0,4,.35,5.05,5.05,0,0,1,3.08.51,5.31,5.31,0,0,0,3.75.36q3.24-.6,6.5-1.14a15.82,15.82,0,0,0,5.8-2.59c.55-.35,1-.82,1.71-.53.54.23.58,1.06.14,2.13-.1.25-.23.48-.4.83.78.24,1.47.4,2.12.65a4.67,4.67,0,0,1,1.69.87,5.76,5.76,0,0,0,2,1.12,19.14,19.14,0,0,0,7.68,1.59c1.34,0,2.66.56,4,0a1.8,1.8,0,0,1,1.22.24,13.36,13.36,0,0,1,2.56,1.51,3.94,3.94,0,0,0,3.59.8,10,10,0,0,1,4.82.28,33.07,33.07,0,0,0,4.31.63c.77.67,1,1.88,2,2.53.27.18.28.77.43,1.16s.66.76,1,.48c.82-.63,1.42-.38,2.07.21a3.17,3.17,0,0,0,2.19.7,13.37,13.37,0,0,1,2.76.25c1.1.27,2.1.48,2.92-.56,1.06.69,2.38.8,2.42,2.31l0,0v.93Zm-41-7-.62-.17,0,.24.68-.11c.09.27-.07.71.57.71Zm-40.83-.77a1.61,1.61,0,0,0-.6.1c-.12.08-.12.32-.18.5.18,0,.42,0,.54-.11s.14-.35.21-.53l.27-.17ZM105.12,43.3A15.28,15.28,0,0,0,110,41.21c.29-.16.66-.32.63-.89a2.43,2.43,0,0,0-2.32.4,15.31,15.31,0,0,1-2.67,1.74c-.24.12-.31.57-.46.87a1.54,1.54,0,0,0-.42-.07c-.08,0-.15.12-.23.19a1.36,1.36,0,0,0,.21,0A3.24,3.24,0,0,0,105.12,43.3ZM94.65,26a6.75,6.75,0,0,1-1-.26c-1-.42-2-1.11-3.22-.79a1.14,1.14,0,0,1-1.25-.63,3.77,3.77,0,0,0-.59-.71l-2.72.72a4.81,4.81,0,0,0-.66-.88c-.9-.75-1.86-1.35-3.11-.89-.56.2-.93-.23-1.39-.39l-.16,0,0,0,.17,0a4,4,0,0,0-.11.83,1.59,1.59,0,0,1-1.1,1.6l.65,1c-.65,0-1.06,0-1.47.05a6.42,6.42,0,0,0-1.45.28c-.52.2-.77.61-.33,1.3h2A76.47,76.47,0,0,0,88.28,27a6.76,6.76,0,0,1,1.67.13,13.28,13.28,0,0,0,4.88-.32l-.21-.9c.89.25,1.59,1.17,2.74.85C96.63,25.71,95.79,25.32,94.65,26Zm-18-4.61c.37.4.74.81,1.13,1.2,0,.05.33,0,.35-.08s.1-.49,0-.52c-.51-.22-1-.38-1.57-.57a4.82,4.82,0,0,0-1.11-.56c-1.23-.25-2.49-.41-3.73-.61a4.49,4.49,0,0,1-.59-.9,2.11,2.11,0,0,0-1.84-1.26c-2.13-.43-2.13-.42-3.43-1.77-2.22.71-4.46,1.41-6.68,2.14-1.35.45-2.67,1.06-4.15.81a6.61,6.61,0,0,1-4.59-.41,8.18,8.18,0,0,0-3.14-.46,12.56,12.56,0,0,1-5.43-.94,5.38,5.38,0,0,0-5.66.64,26.52,26.52,0,0,1-5.79,3.18,4.86,4.86,0,0,1-2.22.52,6.1,6.1,0,0,0-4.51,1.61c-.85.76-1.76,1.45-2.65,2.17-.25.21-.69.27-.6.75,6.88.28,10.89.22,12.44-.19,0-.13-.07-.27-.12-.39-1-2.67-.61-3.47,2-4.61,2.21-1,4.71-1.23,6.72-2.7a1.12,1.12,0,0,1,.61-.14,1.9,1.9,0,0,1,1.86.83A6.49,6.49,0,0,1,44.83,22a6.52,6.52,0,0,1-1,2.52,9.35,9.35,0,0,1-.82,1c-.19.27-.57.48-.38,1,3.46,0,6.94,0,10.42,0s7,.15,10.47.31c1.86.09,9.31.16,10.44-.05a9.24,9.24,0,0,0-2.39-1.43,1.46,1.46,0,0,1-.93-1.71c.19-1.32.51-1.76,1.82-2a15.05,15.05,0,0,1,2.13-.1ZM48.46,45.87l-2.74-.09c-.78,0-1.57,0-2.35-.09-2.62-.22-5.24-.63-7.87-.65-3.45,0-6.75-.9-10.11-1.47a3.9,3.9,0,0,1-2.22-1.14,68.69,68.69,0,0,0,11,1.9,7.65,7.65,0,0,0-1.16-.59C28,42.68,23,41.93,18,40.5c-.08,0-.2.13-.39.26a4.36,4.36,0,0,0,.65.52c.82.42,1.69.76,2.48,1.22a22,22,0,0,0,8.69,2.73c3.11.39,6.23.69,9.36.85A43.19,43.19,0,0,0,48.46,45.87Zm51.9-1.95a28.08,28.08,0,0,0-7.53,1,17.73,17.73,0,0,1-2.28.47c-1.76.23-3.52.4-5.28.62-.88.11-1.76.27-2.83.44.35.17.47.29.6.29a28.71,28.71,0,0,0,7.38-.66,35.43,35.43,0,0,1,4.4-.74A28.3,28.3,0,0,0,100.36,43.92ZM40.46,21.48a6.81,6.81,0,0,0-2.54,2.08.68.68,0,0,0,0,1,.7.7,0,0,0,1,.13c.69-.47,1.37-1,2-1.49S41.52,22.09,40.46,21.48ZM81.24,46.77c-1.52-.08-1.52-.08-2.4.33C79.58,47.56,80.17,47.31,81.24,46.77ZM114.06,37c.88-.61.88-.61,1.18-1.47A2.18,2.18,0,0,0,114.06,37Zm-76-10.49a9.54,9.54,0,0,0,1,.09c.07,0,.19-.21.19-.31a.41.41,0,0,0-.22-.3C38.63,25.83,38.34,26,38.07,26.46Zm75,11.32v.12l.14,0ZM6.17,28.41c0,.05,0,.12,0,.15a.31.31,0,0,0,.17.05l0-.26Z"/><path d="M3.74,26.74a1.55,1.55,0,0,1-.36.08s-.06-.14-.09-.22c.13,0,.26,0,.39,0S3.72,26.69,3.74,26.74Z"/><path d="M118.7,29.92c.42.29.36.59,0,.88l0,0c0-.31,0-.62,0-.93Z"/><path d="M68.12,20.7a2.29,2.29,0,0,1-.7,1.74,1.18,1.18,0,0,1-1.32.44,1.58,1.58,0,0,1-.76-1.42,3.84,3.84,0,0,1,.87-1.91,1,1,0,0,1,1.71.33A5.77,5.77,0,0,1,68.12,20.7Z"/><path d="M59.62,22.29c0-.16,0-.37.08-.57a1.64,1.64,0,0,1,2.39-1.19.78.78,0,0,1,.34,1,3,3,0,0,1-1.59,1.59C60.17,23.51,59.57,23.1,59.62,22.29Z"/></svg>