<svg id="Calque_1" data-name="Calque 1" xmlns="http://www.w3.org/2000/svg" viewBox="0 0 80.97 38.44"><title>ddddd</title><path d="M8.44,36.94l1.08,1.19-6.07-.79c-.11-1.23-.33-2.81-.34-4.39A2,2,0,0,1,4,31.45a64,64,0,0,1,6-2.92,65.84,65.84,0,0,1,6.94-2.61,116.54,116.54,0,0,0,15.61-6.09c1.37-.63,2.91-.9,4.27-1.55,3.82-1.82,7.59-3.74,11.37-5.63,1.48-.74,2.85-1.84,4.63-1.46,1.07-1.94,2.89-2.78,4.62-3.73,2.37-1.31,4.76-2.6,7.14-3.88C66.11,2.75,67.66,2,69.3,1.09a13,13,0,0,1,2.07,3.53c.39,1.25.84,2.65,2.51,3.2,1.43.48.77,2.06,1.29,3.24-1.39.73-2.54,1.44-3.78,2-4,1.67-8,3.31-12,4.87a17.11,17.11,0,0,1-5,1.06,17,17,0,0,0-5.87,1.79c-12,5.85-24.4,10.78-36.83,15.64A16.94,16.94,0,0,1,8.44,36.94Zm50.45-23c1.48-2.64,1.45-2.79-.82-4.41a9,9,0,0,0-1.83.93,2.29,2.29,0,0,0-.94,2.71c.51,1.22.89,2.79,2.58,2.7a7.71,7.71,0,0,0,4.94-1.93Zm2.76-4.86.21.45c1.47-.23,3-.38,4-2.37Zm9.17,2.53-.28-.49-2.36,1,.21.46ZM70.2,9.33l.17.61,2.38-.71-.08-.33Z"/></svg>