<?xml version="1.0" encoding="utf-8"?>
<!-- Generator: Adobe Illustrator 22.0.0, SVG Export Plug-In . SVG Version: 6.00 Build 0)  -->
<svg version="1.1" id="Calque_1" xmlns="http://www.w3.org/2000/svg" xmlns:xlink="http://www.w3.org/1999/xlink" x="0px" y="0px"
	 viewBox="0 0 64.4 108.7" style="enable-background:new 0 0 64.4 108.7;" xml:space="preserve">
<title>ddddd</title>
<path d="M54.5,81l-0.1,5c-0.6,1-2.1,1.6-3.8,2.2c-4.8,1.7-9.7,2.7-14.7,3.2c-3.4,0.4-6.9,0.2-10.2-0.4c-1.1-0.2-2.2-0.3-3.3-0.3
	c-2.3,0-3.5,1.3-3.5,3.6c0,3.7,0,7.3,0,11c0,0.4-0.1,0.8-0.2,1.2c0,0.1-0.2,0.2-0.4,0.3c-0.1-0.2-0.2-0.4-0.3-0.6
	c-0.2-3.4-0.4-6.8-0.4-10.3c0-3.4-0.8-6.2-3.5-8.4c-0.4-0.3-1-0.8-1.1-1.2c-0.1-0.8,0-1.7,0.4-2.5c0.2-0.3,1.2-0.1,2-0.1
	c0.1,0,0.1-0.1,0.2-0.2c0.1-4.5,0.2-8.9,0.3-13.4c0-1.6-0.2-3.3-1.7-4.3c-0.2-0.2-0.2-0.7-0.3-1.1C13.4,58.7,13,52.8,13,47
	c0-6.1-1.3-12-2.1-18.1c-0.1-1-0.5-1.8-0.7-2.8s-0.6-2.4-0.2-3c1.9-2.6,2.7-6.2,6.5-7c2.4-0.5,4.7-1.5,7.1-2
	c3.7-0.9,7.5-1.6,11.2-2.4c3.9-0.7,7.8-0.8,11.7-0.2c2,0.2,3.9,0.5,5.9,0.9c1,0.2,1.7,0.9,1.9,1.8c0.8,2.7,1.1,5.5,0.8,8.3
	c-0.5,4.6-0.7,9.2-0.8,13.8c-0.2,9.7-0.3,19.3-0.4,29c0,1.5,0.1,3,0.4,4.5c0.4,1.3,0.3,2.7-0.2,4c-0.1,0.3-0.3,0.7-0.2,0.9
	c0.9,1.7-0.1,3.3,0,4.9L54.5,81z M49.4,67.8c0.1-1.5,0.8-3.1,0.4-4.8c-0.5,0.8-1.2,1.4-2.1,1.8c3.2-5.6,3.4-11.4,2.8-17.6L48.2,49
	c2.3-3.8,2.3-3.8,2.5-8.6c0-0.3,0.1-0.6,0.1-1c0-5.3,0-10.5,0-15.8c-0.1-0.6-0.2-1.2-0.4-1.8c-2.2,2-2.4,2.6-1.4,4.9
	c0.3,0.7,0.9,1.5,0.2,2.8c-0.5-1.8-1.2-3.2-1.1-4.6c0-1.4,0.8-2.9,1.3-4.6c-1.2,0.4-2.3,0.8-3.3,1.1c-2.2,0.5-4.5,1.1-6.8,1.4
	c-2.1,0.3-4.3,0.2-6.4,0.4c-4.7,0.7-9.5,1-14.3,0.8c-1-0.2-2.1,0.1-2.8,0.9c0.3,1.2,0.6,2.4,0.7,3.7c0.2,3.9,0.7,7.8,1.6,11.6
	c0.5,2.2,0.9,4.4,1,6.6c0.2,5.1,0.2,10.2,0.4,15.3c0.1,4.2,0.1,8.5,0.5,12.6c0.3,2.6-0.1,5.2,1.1,7.7c0.2,0.5,0,1.2-0.1,1.8
	c-0.1,0.6-0.2,1.1-0.3,1.7c3.1,0.5,6.1,1.4,9.3,1.2c0.7,0,1.4-0.5,1.5-1.2c0.2-0.7,0.6-1.4,1-2.1c1.4-1.8,3-3.4,4.5-5.2
	c1.3-1.6,1.9-3.6,4.3-4.2c0.7-0.2,1.3-1.1,1.9-1.7c0.8-0.9,1.6-1.8,2.5-2.6c0.9-0.7,0.9-1.4,0.3-2.6c1.6,1.2,2.3,0.6,2.7-0.7
	L49.4,67.8c-0.4,0.7-0.9,1.5-0.1,2.1l0.7,0L49.4,67.8z M18.2,20.6l0,0.7c2,0.3,4,0.5,6,0.7c2.6,0,5.1-0.1,7.6-0.4
	c5.3-0.5,10.4-1.8,15.2-3.9c0.6-0.2,1.1-0.6,1.6-1c0.9-1,1.8-2,2.8-3.2c-3.5,0.2-7,0.2-10.4,0.6c-2.6,0.5-5.1,1.1-7.6,1.8
	c-0.6,0.1-1.2,0.4-1.8,0.5c-2,0.4-4.1,0.7-6.1,1.3C23.2,18.5,20.8,19.6,18.2,20.6L18.2,20.6z M35.4,87.1c1.2-0.5,2.2-0.7,2.6-1.2
	c1.1-1.5,2.7-2.7,3.2-4.7C39.1,82.7,36.4,83.6,35.4,87.1L35.4,87.1z M43.2,83.2c-1.7,0.3-1.9,0.5-3.2,3
	C42.2,86.2,42.4,85.9,43.2,83.2L43.2,83.2z M46.2,20.6l0-0.7c-0.8,0.3-1.7,0.5-2.5,0.8l0.1,0.3L46.2,20.6z M16.7,18.4l-1.5,1.7
	C16.3,20.4,16.7,19.9,16.7,18.4z M38.1,12.3l0.1,0.4l1.3-0.3C39,12.3,38.5,12.3,38.1,12.3z M50.6,80.9c-0.1,0.2-0.2,0.4-0.3,0.5
	c0,0.1,0.2,0.2,0.3,0.3c0.1-0.1,0.2-0.3,0.3-0.5C50.9,81.2,50.7,81.1,50.6,80.9z M42.5,75.8l-0.3-0.3L41.1,76l0.3,0.3L42.5,75.8z"/>
<path d="M14.7,71.2l0.2,2l-0.5,0l-0.3-2L14.7,71.2z"/>
<path d="M14.3,66.4l0.3,2c-0.1,0-0.3,0-0.4,0C13.5,67.9,13.5,67.4,14.3,66.4z"/>
<path d="M54.5,81l-0.3-1.3l1.5,0.1l0.1,0.4L54.5,81z"/>
<path d="M14.6,76.2l0.2-1l0.2,0l-0.1,1L14.6,76.2z"/>
<path d="M32.6,77.8c0.6-1,1.3-1.9,2.1-2.8c3-3.1,5.9-6.2,8.9-9.3c1.4-1.4,2.9-2.7,4.2-4l0.4,0.3c-0.2,0.3-0.4,0.6-0.6,0.9
	c-3.4,3.5-6.9,7.1-10.3,10.6c-1.5,1.5-3.1,2.9-4.7,4.4L32.6,77.8z"/>
<path d="M32.7,77.9l-2.4,2.7l-0.4-0.4L32.7,77.9L32.7,77.9z"/>
<path d="M47.8,29.1l1,1.5l-0.3,0.2l-1-1.5L47.8,29.1z"/>
</svg>
