<?xml version="1.0" encoding="utf-8"?>
<!-- Generator: Adobe Illustrator 22.0.0, SVG Export Plug-In . SVG Version: 6.00 Build 0)  -->
<svg version="1.1" id="Calque_1" xmlns="http://www.w3.org/2000/svg" xmlns:xlink="http://www.w3.org/1999/xlink" x="0px" y="0px"
	 viewBox="0 0 93 102" style="enable-background:new 0 0 93 102;" xml:space="preserve">
<title>ddddd</title>
<path d="M53.2,6.3c-0.1,1.1,0.2,1.8,1.2,2.2c3.4,1.2,5.7,4,8.1,6.5c1,1.3,1.7,2.7,2.2,4.2c1.2,2.7,2.3,5.5,3.4,8.3l-0.4,0.2
	l-1.3-1.8L66,26c0.5,1.9,1.1,3.8,1.6,5.7c0.4,1.9,0.7,4,1.2,6.4c1.6-1.1,2.7-1.9,3.9-2.6c1.6-0.8,3.3-1.5,5-2.2
	c0.5-0.2,1.2-0.2,1.6-0.5c1.7-1.3,3.2-0.6,4.8,0.3c1.8,1,3.6,2.1,5.1,3.4c1.4,1.2,2.3,2.9,2.5,4.8c0.5,4.3-0.5,8.6-2.7,12.3
	c-2.3,4-4.7,8-7.2,11.9c-1.1,1.6-2.3,3-3.7,4.4c-2.3,2.4-3.6,5.6-3.5,8.9c0.1,2.6,0.2,5.3,0.3,7.9c0.1,2.1-0.3,2.8-2.4,3.1
	c-3.7,0.5-7.5,0.9-11.2,1.4c-3.4,0.5-6.8,1.1-10.2,1.6c-5.5,0.8-11,1.6-16.6,2.5c-3.9,0.6-7.8,1.3-11.8,2c-0.5,0.2-1,0.4-1.5,0.7
	l-3.1-1.7c-0.4-2.9-1-5.7-1.3-8.5c-0.5-4.4-1.5-8.9-1.3-13.3c0.3-6-2-11.6-2.3-17.4l-0.5,1.8c-1.2-0.6-1.1-1.7-1.1-2.6
	c-0.2-3.3-0.6-6.5-1.2-9.7c-0.3-1.6-0.3-3.2,0-4.8c0.7-3.8,1.7-7.4,2.2-11.2c0.3-1.8,1.3-3.3,1.3-5.3c0.2-1.9,0.5-3.8,1.1-5.6
	c0.2-0.8,0.5-1.5,0.8-2.3l0.5,0.1l0.6,2c2.6-2.9,5.1-5.7,7.8-8.4c1.1-1.1,2.4-2,3.9-2.7c2.6-1.4,5-3.1,8.2-3.5
	c3.1-0.4,6.2-0.3,9.2,0.3c0.3,0.1,0.6,0.1,0.9,0.1C49.3,4.7,51.2,5.5,53.2,6.3z M15.7,45.8C15,48.4,17.4,65,18.9,67.5
	C18,60,17.7,52.9,15.7,45.8z M14.1,55.2h0.5c-0.9-7.5-1.7-14.9-2.7-22.9c-0.5,0.7-0.7,0.9-0.7,1.1C12.2,40.7,13.2,48,14.1,55.2z
	 M9.9,25c0.4,1.9,0.7,3.8,1.1,5.8C11.6,28.8,11.2,26.6,9.9,25L9.9,25z"/>
</svg>
