<svg id="Calque_1" data-name="Calque 1" xmlns="http://www.w3.org/2000/svg" viewBox="0 0 105.28 107.83"><title>Sans titre - 3</title><path d="M23.66,67l-6.51-5.63c-.8-.69-1.36-1.65-2.38-2.1a.72.72,0,0,1-.3-.3c-.91-1.93-2.48-3.48-3-5.63A35.36,35.36,0,0,0,10,49.06a8.65,8.65,0,0,1-.54-4.61c.19-1.26.29-2.54.45-3.81a9.47,9.47,0,0,1,2.61-5.27c3.56-3.86,8.09-6,13.06-7.29,1.65-.44,3.33-.76,4.92-1.11.17-.17.31-.26.35-.38a20,20,0,0,1,3.73-5.95A31.74,31.74,0,0,0,37.17,17a23.71,23.71,0,0,1,6.49-6.71,7.9,7.9,0,0,1,3.13-1.34c1.21-.21,2.27-1.13,3.63-.76.33.08.15-.8.79-.61.38.12,1.09.2,1.19,0,.52-.88,1.41-.61,2.1-.75a11.5,11.5,0,0,1,6.34.27,6.26,6.26,0,0,0,1.89.27,13.49,13.49,0,0,1,5.18,1.17c1.93.9,4,1.62,5.89,2.51a11.58,11.58,0,0,1,5.4,5c.55,1,1.28,1.89,1.84,2.88.72,1.3,1.35,2.65,2.12,4.15,1.2.14,2.41.9,3.85,1.11a10.93,10.93,0,0,1,2.73,1.16c.32.14.61.37.94.49,2.44.86,4.2,2.64,6,4.39a15.45,15.45,0,0,1,4.22,9.37,18.76,18.76,0,0,1-1,8.63c0,.13-.12.26-.15.4-.59,3.4-2.75,5.89-5,8.29a58.66,58.66,0,0,1-4.52,4.25c-1,.83-2,1.51-3.2,2.33,0,4.89,0,9.86.11,14.83a8.61,8.61,0,0,1-.72,3.9,7.84,7.84,0,0,1-4,.48,45.86,45.86,0,0,0-8.53-.06c-1.78.18-3.57.18-5.35.2a146.39,146.39,0,0,0-15.38.77c-1.83.2-3.71,0-5.56.12a156.86,156.86,0,0,0-18.1,1.65,6.76,6.76,0,0,0-1.85.51,2.6,2.6,0,0,1-2.82-.13A4.54,4.54,0,0,0,24,85.4V80.9c0-.36.18-.8,0-1.05-.69-1.17-.22-2.37-.24-3.55,0-2-.06-4-.08-6C23.65,69.19,23.66,68.06,23.66,67Zm45.08-17.5a1.23,1.23,0,0,0-.06-.39s-.18,0-.28-.06,0,.15,0,.18a2.44,2.44,0,0,0,.33.23c0,2.92.07,5.84.12,8.75,0,2.28.34,4.55-.15,6.82a1.83,1.83,0,0,0,.36,1.81c.7.21,1.45.36,2-.25A5.34,5.34,0,0,0,72.27,62a11.73,11.73,0,0,1-.21-2.5c0-1.5.1-3,0-4.49a47,47,0,0,0-.63-4.87c-.22-1.31-1.11-1.61-2.36-.91A4.19,4.19,0,0,0,68.74,49.47ZM53,44.14a2.79,2.79,0,0,0-.35.77,11.93,11.93,0,0,0,.15,4.87,3.13,3.13,0,0,1,.18,1c-.1,3.78.58,7.5.9,11.25A10.11,10.11,0,0,0,54.39,65a3.63,3.63,0,0,1,0,1.47,5.43,5.43,0,0,0-.11,1,1,1,0,0,0,.5.6.64.64,0,0,0,.91-.27,4.8,4.8,0,0,0,.7-2.44c.05-2.06.17-4.13.14-6.19-.09-5.41-.21-10.82-.39-16.23a16.24,16.24,0,0,0-.92-5c-1.3,0-1.41.07-1.53,1,0,.27.07.61-.05.83A8.52,8.52,0,0,0,53,44.18ZM41.78,71.3a5.7,5.7,0,0,0,.54-1.39,30.92,30.92,0,0,0,.12-3.19c-.08-3.06-.23-6.12-.31-9.17-.06-2.07,0-4.13-.1-6.19a11.29,11.29,0,0,0-.39-2.3.78.78,0,0,0-.61-.47,1.79,1.79,0,0,0-.82.53,1.15,1.15,0,0,0-.15.61,41.31,41.31,0,0,0-.14,7.46,32.11,32.11,0,0,1,0,6.79c-.5-1.44.12-3-.57-4.86-.4,2.2.06,4,0,5.72a.34.34,0,0,0,.06.2c.91,1,.64,2.28.66,3.45A3.33,3.33,0,0,0,41.78,71.3ZM43,11.65a5.82,5.82,0,0,0-.66.44c-.21.19-.64.28-.45.77C42.6,12.83,42.93,12.35,43,11.65ZM56.52,68a7.18,7.18,0,0,0-.26,1.2c0,.09.28.19.43.29.08-.15.25-.31.23-.44A6.17,6.17,0,0,0,56.52,68ZM68,62h.21c0-.21,0-.42,0-.64,0,0-.11-.09-.12-.08s-.1.1-.1.16S68,61.77,68,62Zm.26-2.83-.12-.35c-.11.06-.27.1-.3.18s.08.21.12.32ZM39.88,71l.09-.17-.16,0Z"/><path d="M87.27,88.65l1.34-.37c.18.19.39.32.46.5a5.44,5.44,0,0,1,0,4.5,10.35,10.35,0,0,0-.56,1.39,2,2,0,0,1-1.88,1.48c-1.34.16-2.69.39-4,.46-2.84.16-5.7.26-8.55.33-1.06,0-2.12-.16-3.19-.19-3.06-.08-6.13-.18-9.19-.17-.83,0-1.65.45-2.49.52-4,.34-8.1.63-12.15.91-2.27.15-4.56.2-6.83.41-1.41.13-2.8.47-4.2.72-1.33-.58-2.68-.2-4,0-2.62.3-5.22.72-7.82,1.15a1.94,1.94,0,0,1-1.22-.1,1.08,1.08,0,0,1-.76-1.34,5.93,5.93,0,0,1,.21-.83,27.68,27.68,0,0,0,1-3c.23-1.09,1.3-1.66,1.45-2.8.07-.61.81-.77,1.37-.86,1.69-.26,3.38-.53,5.09-.71,3-.31,6-.52,8.93-.84,5.32-.57,10.63-1.17,16-1.43,2.43-.11,4.84-.2,7.27-.12a33.93,33.93,0,0,0,4.25-.33c2.27-.2,4.54-.47,6.81-.61a17.19,17.19,0,0,1,3.2.18,31.89,31.89,0,0,0,6.18-.11c1.26-.09,2.24,0,2.94,1.12C86.89,88.52,87.07,88.55,87.27,88.65Z"/><path d="M53,44.18l0,0Z"/></svg>