<svg id="Calque_1" data-name="Calque 1" xmlns="http://www.w3.org/2000/svg" viewBox="0 0 92.88 146.26"><title>ddddd</title><path d="M-41.42-2.55c-1.74,1-3.35,1.85-4.92,2.8q-6,3.68-12,7.42c-.65.41-1.49.93-1.7,1.58-.52,1.58-1.86,2.17-3,2.9-3.36,2.09-6.78,4.07-10.2,6.07q-5.6,3.26-11.21,6.47c-2.27,1.3-4.56,2.55-6.9,3.75A117.78,117.78,0,0,0-113.7,42.89c-.12.1-.23.22-.36.31l-8.61,5.92-1.08-1c-1.62,1.09-3.29,2.25-5,3.37a5.63,5.63,0,0,1-1.67.9c-1.22.28-1.58.94-1.09,2.07a32,32,0,0,1-3.36-.91,4.83,4.83,0,0,1-1.85-1.3,45.34,45.34,0,0,1-3.3-4.36,5.11,5.11,0,0,1-.63-1.68,12.62,12.62,0,0,0-.46-2.28c-.61-1.27-.16-2,.78-2.87,5.25-5.05,11.42-8.7,17.78-12.09,1.76-.94,3.43-2,5.22-2.92a19.68,19.68,0,0,1,3.13-.9,6.51,6.51,0,0,0,1.74-.64q12-7.68,24-15.4c.34-.22.66-.58,1-.62,3.63-.45,6-3.06,8.9-4.89C-75.94,1.91-73.47,0-70.8-1.6A170.08,170.08,0,0,0-52.61-14a3.21,3.21,0,0,0,1.48-2.54c0-.81.67-1.59.73-2.41.12-1.64,0-3.3,0-5l-2.75-.23c.47-1.57,2.88-2.16,1.56-4.25,3.42-2.33,6.67-4.63,10-6.82C-36.53-38.57-31.47-41.9-26.3-45c2.46-1.49,5-2.71,7.07-4.85a12.19,12.19,0,0,1,3.78-2.22,1.41,1.41,0,0,1,1.86.62c.8,1.27,1.72,2.47,2.51,3.76,1,1.6,2.26,3,2.6,5,.17,1,1.09,1.92,1.6,2.92,1.66,3.25,3.29,6.52,4.93,9.78.07.14,0,.4.13.44,2.18.93,2,3.48,3.4,4.92a1.76,1.76,0,0,1,.26,2.47,2.23,2.23,0,0,1-.26.27,36.21,36.21,0,0,1-4.8,4.63C-7-14.59-10.9-12.14-14.77-9.61a8.65,8.65,0,0,1-1.71.88c-6.32,2.33-12,5.85-18,8.89-.21.1-.49.16-.62.33-.54.73-1.19,1.53-2.14,1.09a10.22,10.22,0,0,1-2.57-2A14.52,14.52,0,0,1-41.42-2.55Zm3.7-29c-.81.44-1.62.92-2.45,1.32-1.41.68-2.82,1.34-3.33,3.08,2.09-1.18,4.07-2.52,6-3.88l-.29-.49c1.66-.74,3.32-1.5,5-2.22,4.93-2.11,8.82-5.7,12.88-9.06a26.64,26.64,0,0,1,3.26-2.41c1.28-.78,2-.42,2.51,1,.3.65.58,1.32.82,2,.48,2,2.91,3.15,2.17,5.57a.82.82,0,0,0,.24.4c1.14,1.29,2.22,2.63,3.44,3.83s1.3,2,.27,3.24a16.21,16.21,0,0,0-1.19,2c2.45.66,3.37,2.35,4.14,4-.31.92-1.48,1.24-1,2.5L-.71-24c-.93-1.63-.93-3.79-3.39-3.94a15.26,15.26,0,0,0-2.43-7,34.4,34.4,0,0,1-3.39-6c-1-2.72-3.4-4.17-4.85-6.43-.39-.59-1.43-.77-2.17-1.13-1.32,2.89-1.28,2.95-4.19,4.67-4,2.36-8,4.65-12,6.91-3,1.66-6.12,3.08-8.3,6.05Zm-49,45.65a43.2,43.2,0,0,0-10.66,5.79c-.17.11-.2.41-.29.63-9.84,5.75-19.43,11.87-29,18.13,2.87,1.25,3.88,3.27,3.66,6.37,1.28-.81,2.28-1.42,3.25-2.07,4.59-3,9.13-6.16,13.77-9.14,4-2.55,8.09-4.84,12-7.44,4.73-3.13,9.27-6.55,14-9.68C-76,14-71.87,11.35-67.57,9.07a136.88,136.88,0,0,0,14.46-9c1.17-.83,2.44-1.5,3.68-2.23C-48-3-46.54-3.81-45.08-4.62s3.17-1.73,4.77-2.59l3.6,3.54c-.2-2,1.35-2.77,2.46-3.8a10.22,10.22,0,0,0-.59-.87c-1.44-1.64-1.42-1.64.13-3.23A5.48,5.48,0,0,0-34-12.79a5.5,5.5,0,0,0-2.42.62l-6,2.48c-.68.28-1.42.6-1.83-.35s0-1.45.89-1.85c1.18-.53,2.28-1.23,3.69-2-3.46-1.54-4.3,2.54-6.88,2.22l.5,1.28a25.54,25.54,0,0,0-3.56,1.45c-3.43,2-6.83,4.14-10.16,6.33A161.83,161.83,0,0,1-76.53,7.6c-3.42,1.69-6.55,4-9.81,6a2.08,2.08,0,0,0-.37.51ZM-16.44-40-42.34-23.3a6,6,0,0,0,1.46-.15c2.39-1.26,4.83-2.45,7.14-3.84,5.06-3,10.06-6.17,15.07-9.3a7.79,7.79,0,0,0,1.82-1.52c.28-.32.23-.92.42-1.92ZM-45.75-19.3c-.39,1.09-.71,2.15-1.14,3.16-.55,1.3.94,1.75.84,2.87,1.53-.78,1.71-.84,1.53-1.41-.61-2,.8-2.71,2.14-3.46,4.81-2.67,9.64-5.3,14.43-8,1.56-.88,3-1.92,4.54-2.89-3.66,1.55-7.2,3.3-10.67,5.16s-7,3.88-10.72,6c.15-1.41.27-2.53.39-3.67-2.56.28-2.56.28-2.77,2.05ZM-130,48c-3.63-1.09-3.7-1.18-4.78-4.68a21.15,21.15,0,0,0-.91-2l-2,1.68c.59,1.65,1.06,3.15,1.66,4.6,1.3,3.18,3.41,3.55,5.68,1A4.48,4.48,0,0,0-130,48ZM-9-22.66a161.51,161.51,0,0,0-17.66,10A67.34,67.34,0,0,0-9-22.66Zm-18.12,1.07c.77-.39,1.56-.73,2.28-1.18,2.5-1.57,4.94-3.25,7.48-4.76,1.76-1,3.65-1.87,5.48-2.81a12.33,12.33,0,0,0,1.17-.88C-17-29.54-24-25.55-27.1-21.59Zm-21.55-4.52,1.38,1.2,1.23-2.52-.37-.26Zm-79.56,69.39c-1.31-.41-2.12-.62-2.32.64,0,.22.26.49.47.84ZM-51.62-9.84l-.25-.41-1.63.93.28.47Z"/><path d="M89.51,37.74a14.43,14.43,0,0,0-1.83,1.66A156.75,156.75,0,0,0,77,55.83c-1.7,2.89-3.7,5.59-5.51,8.41q-4.5,7-9,14.15c-2.39,3.87-4.7,7.79-7,11.71-1,1.73-1.86,3.53-2.8,5.29q-.39.61-.84,1.2l-1.32-.88c-2.67,3.92-5.41,7.74-7.94,11.69-3.1,4.84-6,9.82-9,14.69-2.46,3.91-5,7.75-7.53,11.65a5.22,5.22,0,0,1-3.69,2.3c3.89-2.44,5.59-6.57,7.9-10.18,6.17-9.61,12.24-19.29,18.32-29a31.14,31.14,0,0,0,3-5.93,19.87,19.87,0,0,0-1.42,1.76c-1.59,2.46-3.08,5-4.7,7.42C43,103.77,40.56,107.41,38,111c-3.26,4.61-6.63,9.14-9.93,13.72-2.95,4.07-5.82,8.19-8.82,12.23-1.14,1.52-2.63,2.78-3.78,4.29a9.94,9.94,0,0,0-1.35,2.94,4.6,4.6,0,0,0,0,1.57c-2.34.38-2.38.35-2.58-1.69a2.12,2.12,0,0,0-.37-1.09,43.79,43.79,0,0,0-3.45-4,7.13,7.13,0,0,1-1.94-8.18c.42-1,1-2,1.49-3,.32-.69.56-1.43.86-2.14a4.6,4.6,0,0,1,.67-1.5c1.42-1.51,2.91-3,4.39-4.41,4-3.91,8.29-7.55,11.91-11.78a54.8,54.8,0,0,0,8.66-14.27,11.75,11.75,0,0,0,.41-1.13c1-3.67.67-4.24-2.42-6.53-4.48-3.33-8.91-6.75-13.24-10.28-3.09-2.51-6-5.28-8.93-7.93-.36-.31-.7-.77-1.12-.87-1.87-.46-2.35-1.73-2.66-3.49a8,8,0,0,1,1.36-5.56,60,60,0,0,1,4.69-6.62C18.32,42.82,24.94,34.5,31.2,25.92c3-4.11,5.36-8.7,8-13.06.47-.78,1-1.49,1.58-2.24l.56.33-1.49,2.94C43.4,11,47.59,9.56,51.59,7.75c.29-.13.72-.1.9-.31,1.66-2,3.12-.66,4.55.28a108.67,108.67,0,0,1,11.78,9.41C73.74,21.45,78.91,25.48,84,29.61a5.73,5.73,0,0,0,1.85,1.08c1.69.53,2.54,2.05,3.86,3a1.59,1.59,0,0,1,.37,2.16A10.3,10.3,0,0,0,89.51,37.74Zm-79.08,26C12,65,13.36,66,14.66,67.05L33.43,81.91c1.43,1.12,3,2.08,4.46,3.14.52.37,1,.83,1.47,1.21,1.66,1.24,3.29,2.51,5,3.64a7.44,7.44,0,0,0,2.11.73c1.64-2.1,3-3.94,4.48-5.73,1-1.15,2.13-2.13,3-3.35q7.48-10.69,14.87-21.48Q74.64,51.57,80.34,43a8.36,8.36,0,0,0,1.72-4.65c0-.09.21-.18.39-.32l.63,1.1,2.71-3.22c-1-.8-2-1.5-2.81-2.28s-1.88-2-2.9-2.82c-3.23-2.75-6.53-5.4-9.75-8.15a91.56,91.56,0,0,0-14.6-10.78,2.19,2.19,0,0,0-1.52-.27c-2.73.87-5.42,1.83-8.11,2.77a1.53,1.53,0,0,0-.59.41c-2.21,2.15-4.74,4-6.38,6.7-1.2,2-2.42,4-3.74,5.84C32.18,31.9,28.92,36.44,25.66,41c-1.54,2.13-3.15,4.21-4.71,6.33-1.08,1.47-2.21,2.91-3.18,4.45-1.45,2.29-2.75,4.67-4.16,7-1,1.57-2,3.13-3.18,4.94Zm8.84,57a5.5,5.5,0,0,0-5,2.53c-.7,1-1.11,2.08-2.46,2.39-.27.06-.52.58-.61.94-.51,1.91-.95,3.85-1.45,5.77-.89,3.39.48,5.79,3.74,6.73,4.68-5.18,8.27-11,11.87-16.88L21,120.09a31.61,31.61,0,0,1-2.59,3.68c-1,1.06-1.53,2.66-3.08,3.11l-.41-.37Zm10.55-4.61,2.84-3.84-3.83-3.05c-.55.9-1.23,2-1.83,3ZM36,97.73c-1.37,2.16-2.51,4-3.77,6h2.7c-.2-2.09,2.18-3.42,1.07-6.06Zm2.14,6.16c-.5-1.26-.66-2.13-1.8-1.56-.26.13-.37.57-.66,1Z"/><path d="M19.42,127.35,16,131.15c-1.1-.74-.42-1.74-.37-2.79l3.6-1.38Z"/></svg>