<svg id="Calque_1" data-name="Calque 1" xmlns="http://www.w3.org/2000/svg" viewBox="0 0 133.19 205.76"><title>ddddd</title><path d="M42.58,18.38a10.82,10.82,0,0,1,2.31,5.94,129.29,129.29,0,0,1,1,19.37c-.14,3.9-.2,7.81-.29,11.72,0,.32-.1.73,0,.94,1.28,1.75.16,3.54.14,5.3a14.56,14.56,0,0,0,.06,2.8c1,5.6,3.68,10.54,6.5,15.39,3.17,5.46,6.4,10.88,9.56,16.34,1.12,1.93,2.05,4,3.16,5.92q3.8,6.66,7.69,13.26c1,1.79,2.22,3.51,3.3,5.29.52.86,1.22,1.62.89,2.85-.13.49.32,1.2.63,1.74,3.21,5.71,6.4,11.42,9.71,17.06a48.41,48.41,0,0,0,3.34,4.33A17.92,17.92,0,0,1,92.26,149c3.12,5.64,7.21,10.54,11.43,15.35,1.27,1.44,2.54,2.87,3.79,4.32a22,22,0,0,0,6.52,5.19c2.39,1.26,4.83,2.46,7.08,3.94s4,3.13,6,4.73c.24.19.56.49.57.74.06,2.49,1.88,4.29,2.55,6.55a2.79,2.79,0,0,1-.69,3.25c-1.33,1-2.62,2-3.85,3.11-1.34,1.43-2.94,1.34-4.57,1.24a8.88,8.88,0,0,1-5.58-2.47,59.14,59.14,0,0,1-4.85-4.91c-2.59-3.14-5.06-6.38-7.47-9.66-3.45-4.7-6.8-9.48-10.19-14.23-.32-.45-.8-.93-.84-1.42-.19-2.36-1.68-4.11-2.77-6-3.29-5.76-6.45-11.62-10.12-17.13-6.73-10.1-12.3-20.91-19-31C55.76,104,51,97.5,46.43,91c-1.79-2.54-3.46-5.16-5.37-7.6a41.63,41.63,0,0,0-4-4.08c-.16-.17-.4-.4-.59-.39-2.65.17-5.07-1.8-7.8-.85-1.84.65-3.58,1-4.84-1a1.28,1.28,0,0,0-.61-.37C19.1,75,15.73,72.12,12,69.83a8.61,8.61,0,0,1-2.66-2.68,56.62,56.62,0,0,1-7.83-23,8.49,8.49,0,0,1,1.23-5.71c.47-.71,1.34-1.65.4-2.78-.19-.23,0-.9.19-1.31,1.36-3.42,2.89-6.77,4.09-10.23,1.33-3.83,3.75-7,5.6-10.53a40.92,40.92,0,0,1,5.33-8.18c.83-.94,1.63-1.92,2.42-2.85,1.16-.16,2.32-.39,3.48-.46,2.7-.16,4.9,1.1,7.07,2.53,5.19,3.43,8.43,8.42,11.27,13.76ZM43,39c-.13-2.87-.24-5.74-.4-8.6a7.49,7.49,0,0,0-1.23-4.31,2.87,2.87,0,0,1-.59-2c.46-2-.68-3.52-1.46-4.89a76.46,76.46,0,0,0-6.06-8.56,5,5,0,0,0-4-2.3,1.68,1.68,0,0,1-1.28-.53c-.7-1.35-2.19-1-3.24-1.61A1.64,1.64,0,0,0,22.5,7l0,.08a39.28,39.28,0,0,0-3.13,6.17,93.75,93.75,0,0,0-4,17.82,50.06,50.06,0,0,0-.61,10.45c.39,4.12.5,8.3,1.91,12.25.64,1.79,1.68,3.43,2.3,5.23,1.06,3.09,3,5.6,4.87,8.2a12.94,12.94,0,0,0,8.58,5.13,2.57,2.57,0,0,0,2.89-1.12c2.59-3.82,5-7.76,5.9-12.38a6.19,6.19,0,0,0,.06-1.61,14.89,14.89,0,0,1-.2-2C41.54,49.74,43.24,44.48,43,39Zm63.16,139.53c2.91,5.41,7.15,9.44,11.47,13.35a7.48,7.48,0,0,0,6.92,1.43c.31-.08.51-.67.76-1-.46-.18-1-.65-1.34-.51-3.16,1.45-5.43,0-7.39-2.23-1.55-1.75-2.94-3.46-2.8-6.27.13-2.63-.38-2.66,2.11-3.47.24-.08.47-.19,1-.39-1.15-.75-2-1.27-2.87-1.87-4.4-3.13-9.12-5.9-12.43-10.32-2.43-3.27-4.7-6.66-7.05-10-.62-.88-1.37-1.69-1.9-2.63-1.41-2.48-2.68-5.05-4.11-7.53-1.75-3-3.69-6-5.41-9-1.1-1.94-1.81-4.11-3-6-1.57-2.58-3.4-5-5.14-7.49-.08-.12-.39-.09-.67-.14a50.69,50.69,0,0,0,2,5.49c1.61,3.2,3.37,6.33,5.22,9.41,4,6.64,8.1,13.19,12.06,19.84,1.39,2.34,2.63,4.75,5.1,6.18a2.11,2.11,0,0,1,.63.7c2.07,2.93,4.11,5.89,6.21,8.8C106.37,176,107,177.22,106.11,178.49Zm16.64,10.84c0-2-2.42-4.78-4.47-5-1.25-.15-2.12.69-1.72,1.87a8.71,8.71,0,0,0,3.84,4.74C121.67,191.64,122.73,190.84,122.75,189.33Zm2.32-2.66c.14,1.08.28,2.17.41,3.25.59-1.34.59-1.34-.41-3.29Zm-62.7-85.78-.29.17a5.52,5.52,0,0,0,.34.69,2.87,2.87,0,0,0,.46.4l.2-.23Zm4.87,7.79-.35.22a3.26,3.26,0,0,0,.23.81c.12.19.38.28.94.66-.29-.66-.37-.87-.47-1.08s-.22-.41-.33-.61Z"/><path d="M42.62,18.43l.12-1.81c1,1.31,1,1.31-.16,1.76Z"/></svg>