<svg id="Calque_1" data-name="Calque 1" xmlns="http://www.w3.org/2000/svg" viewBox="0 0 248.37 253.88"><title>cake</title><path d="M8.26,125.69c2.79,8.73,8.4,11.27,16.68,9.27s11.47-7.81,13.49-15.46c7.54,5.11,14.13,2.37,20.47-1.76s10.38-9.6,9.4-17.85c-.13-1.06,1.57-2.93,2.83-3.46C82.78,91.54,89.06,82.35,92.67,70.7c1.83-5.94-.15-10.57-4-14.83,7.64-4.3,11.77-11.17,14.35-19,2.86-8.77.52-16-9.13-21.6a56.44,56.44,0,0,1,6.3-2.42c4.78-1.11,9.67-1.76,14.39-3.07,7-1.95,13.8-4.23,21.47-2.32,4.35,1,9.15-.37,13.73,0,12,1.08,20,9.72,29.22,16.06s16.88,14.83,28.38,17.83a17.42,17.42,0,0,1,9.77,8c8.16,15.5,16,31.19,23,47.26,3.23,7.4,2.76,15.72,1.71,24-1.14,8.84-.37,17.9-.95,26.83-1.09,17.09-5.39,32.78-16.34,46.92A76.66,76.66,0,0,1,203.9,213c-7.65,4.76-13.87,11.78-21.11,17.31-4.23,3.23-8.9,6.48-13.9,8-8.24,2.43-16.91,3.35-25.37,5-3.51.71-6.94,1.8-10.41,2.74a8.51,8.51,0,0,1-1.89.67c-9-.15-18.06,1.82-27.1-1.08a186.93,186.93,0,0,0-25.29-6.51,21,21,0,0,1-12.65-7,33.15,33.15,0,0,0-8.51-6.66c-7-3.78-14.3-7.08-21.46-10.6s-11.68-9.95-14.37-17.2c-4.92-13.23-9.77-26.53-13.5-40.13C6.12,149.42,6,140.78,5.2,132.37c-.17-1.93,1-4,1.58-6Zm90.82,10.12.31-.64c2.79-.4,6.08,0,8.24-1.39a23.47,23.47,0,0,0,7.79-8.24c.51-1-2.82-5-5.13-6.25-8.3-4.5-16.46-2.58-24,2.18-4.83,3-4.78,7.32.29,10C90.44,133.47,94.94,134.4,99.08,135.81Zm53.29,61.74c-9.41-1.22-17,6.83-18.52,12.75-.57,2.25-.75,4.7,2.58,5.37,8.26,1.66,16.29,1.31,23.87-2.7,4-2.1,4.48-5.95,2.12-9.86-2.92-4.84-7.74-5-10-5.56ZM62.85,179.46c.2,2.12,0,4.4.7,6.33.87,2.29,2.71,6.14,3.82,6a11.26,11.26,0,0,0,7.43-3.95c4.35-6.14,5.46-13.47,4.86-20.85-.16-1.89-2.18-4.57-3.9-5.11s-4.5.78-6,2.18C65.46,168.17,62.17,173,62.85,179.46ZM186.43,126a54.27,54.27,0,0,0,7.32-.43c1.45-.25,3.38-1.24,3.94-2.44,3.29-7-1.48-14.47-9.12-14a14.6,14.6,0,0,0-7.86,3.47c-2.91,2.45-8.11,4-6.7,9.22C175.67,128,181.12,125.68,186.43,126Zm-39.32-83.9c5.44-.09,8-1.86,6.47-4.23-2.75-4.31-5.64-8.72-9.31-12.21s-7.43-.6-10.68,1.7c-2.77,2-1.57,4.2-.83,7C135,42.64,142.24,40.37,147.11,42.06ZM62.76,172.89c-2.32-2.22-4.42-4.62-4.7-4.42a47.75,47.75,0,0,0-5.73,5.28c1.37,1.1,2.9,3.23,4.08,3C58.31,176.51,60,174.71,62.76,172.89Zm129.07,17.64c-2.09-1.64-3.33-3.08-3.77-2.87a74,74,0,0,0-6.82,4.13c.87,1,2.1,3,2.56,2.8C186.2,193.74,188.41,192.34,191.83,190.53Z"/></svg>