<svg id="Calque_1" data-name="Calque 1" xmlns="http://www.w3.org/2000/svg" viewBox="0 0 270.36 232.26"><title>Sans titre - 5</title><path d="M88.67,178.57l1.65,1.05-.18.28-5.41-2.68c-.72-.35-1.45-.66-2.14-1.05a3.81,3.81,0,0,0-4.07-.12c-.37.2-1-.16-1.57-.25a2.6,2.6,0,0,0-.89-.13c-2.7.66-5.38,1.4-8.08,2-1.81.42-3.67.62-5.48,1a18.67,18.67,0,0,0-3.3,1.14c-.28.12-.43.69-.52,1.09a1.16,1.16,0,0,1-1.74.89c-.32-.14-.4-.89-.52-1.38s-.24-1.3-.39-2.13c-1.11,1.22-1.43-.12-2-.53-.16.13-.23.16-.26.21l-.88,1.73a8.37,8.37,0,0,1-.65-1.92c-.13-1.76-.52-3.22-2.16-4.32-.93-.61-1.41-1.89-2.15-2.81-1.43-1.76-2.91-3.49-4.36-5.24-2.08-2.53-4.13-5.09-6.23-7.59-.27-.32-.8-.41-1.18-.65s-.73-.46-.7-.63c.3-1.82-1.12-2.86-1.93-4.09-1.75-2.64-3.69-5.17-5.65-7.66-1.33-1.69-2.84-3.23-4.26-4.86-1.19-1.36-2.35-2.75-3.54-4.11a2.14,2.14,0,0,0-.58-.31c-.12.25-.22.5-.35.74-.22.4-.47.78-.7,1.17a3.45,3.45,0,0,1-.66-1.13c-.24-1.37-.32-2.78-.56-4.16a3.49,3.49,0,0,0-.71-1.36c-.76-1-1.54-2.07-2.38-3.05a1.47,1.47,0,0,0-1.05-.53c-1,.13-1.4-.21-1.41-1.23,0-3.61-.06-7.23-.24-10.83a74.8,74.8,0,0,0-.88-9.83,24,24,0,0,1,0-3.29c-.24-3.55-.37-7.11-.55-10.66-.15-2.88-.32-5.76-.47-8.64S9.31,76.89,9.16,74a6.07,6.07,0,0,0-.31-1.13h.3C8.79,69.41,8.38,66,8.09,62.5s-.4-6.94-.68-10.4c-.18-2.28-.57-4.54-.77-6.82-.16-1.75,0-3.52-.24-5.27C6,36.35,5.47,32.7,5,29c-.19-1.54-.27-3.09-.54-4.61-.11-.57-.64-1.06-.92-1.61-.41-.8-.48-1.37.74-1.41,4.37-.18,8.75-.3,13.1-.68,3.21-.27,6.38-.92,9.57-1.39,2.61-.38,5.22-.78,7.83-1.08,1.84-.21,3.71-.21,5.55-.39,1-.1,1.92-.48,2.89-.59,2.73-.31,5.46-.51,8.19-.81,3.12-.33,6.23-.74,9.36-1.07.74-.07,1.51.15,2.25.08,2.37-.24,4.73-.61,7.11-.81,5.25-.45,10.51-.85,15.78-1.23,3.51-.25,7-.44,10.54-.66l11.74-.71,14.83-.9c4-.22,8-.33,12-.67,3.61-.3,7.19-.92,10.8-1.25,2.28-.22,4.59-.09,6.87-.27,2.58-.2,5.14-.62,7.72-.83,1.06-.09,2.19.32,2.93-.85,0-.07.29-.08.38,0,1.16.85,2.21-.12,3.31-.2.3,0,.74-.16.86,0,.55.66,1.58.87,2,1.3,1.93,2.17,4.64,2.57,7,3.67,3,1.39,6,2.82,9,4.21,1.88.86,3.76,1.7,5.67,2.49,2.47,1,5,1.88,7.46,2.95,3,1.3,5.85,2.72,8.74,4.14.37.18.49.81.85,1a10.81,10.81,0,0,0,2.73,1.43c1.41.4,1.68.74,1.06,2.07l-.26-1.31-.17,0c0,1.68-.31,3.44.09,5a23.21,23.21,0,0,1,.33,5.44c.07,5.81.33,11.62.41,17.43,0,2-.36,3.92-.39,5.88-.06,3.56-.08,7.12,0,10.68s.35,7,.62,10.57c.11,1.48.56,2.93.61,4.4.07,1.84-.19,3.69-.2,5.53s.12,3.94.21,5.91c.1,2.43.22,4.86.33,7.29s.26,5.1.31,7.66c.06,2.91,0,5.83,0,8.75h-.46l-.14-1.06-.45,0c.35,3,.76,6.1,1,9.15a2.55,2.55,0,0,1-.71,1.91c-.31.26-1.18-.15-2.09-.3,0,0-.47.16-.89.34a5,5,0,0,0-.64.36c.13.17.26.49.38.49,2.27,0,1.71,1.58,1.71,2.88a2.78,2.78,0,0,0,.13.62c.47-1,.93-1.94,1.39-2.91l.52-.11c-1.2,2.56,1.27,2.6,2.07,3.91L214,138l-.24.64c1.15.44,2.3.9,3.46,1.31.3.11.72,0,1,.13a85.46,85.46,0,0,0,10.41,6.15c3.43,1.54,6.63,3.6,10,5.33,2.4,1.24,4.92,2.25,7.32,3.49,3.38,1.74,6.71,3.56,10,5.42a1.92,1.92,0,0,1,.93,1.39c-.17,1.64,1.23,1.78,2.08,2.39,1.17.85,2.44,1.56,3.65,2.37.2.13.45.42.43.61-.32,3.3,1.53,6.44.66,9.78-.13.53,0,1.14-.09,1.68a2.17,2.17,0,0,1-2.26,2c-1.54.13-3,1.27-4.5,1.93-.59.27-1.21.45-1.82.68l-3.29,1.25-7.7,3c-1.36.54-2.71,1.11-3.93,1.6l-.6-2.1-1,1.36.89.55c-.21.23-.38.59-.64.69-3.77,1.39-7.59,2.65-11.33,4.12-3.55,1.39-7,3-10.53,4.48a9.61,9.61,0,0,1-1.54.37l1.86-1.28-1.17-1.1c-.24.85-.45,1.61-.67,2.37-1.34.65-2.66,1.33-4,1.93s-3,1.24-4.5,1.86c-4,1.65-7.94,3.24-11.84,5-2.32,1-4.51,2.38-6.78,3.52-.33.16-.84-.05-1.29-.09-.09.58-2.09,2-3.3,2.24-.64.15-1.21.62-1.85.84a10.22,10.22,0,0,1-1.58.27c0-.29-.08-.76.07-.85q3.86-2.37,7.78-4.63a20.18,20.18,0,0,1,2.44-1.15l9.6-4.75.07.16a16.91,16.91,0,0,1,1.59-.93c2.71-1.21,5.45-2.37,8.15-3.6s5.57-2.63,8.38-3.89c2-.89,4-1.68,6.06-2.51,2.2-.89,4.4-1.79,6.62-2.65s4.34-1.66,6.52-2.45c1.65-.6,3.33-1.12,5-1.74,1.32-.49,1.85-.22,2.17,1.15v-1.9c1.84-.81,3.91-1.73,6-2.63a7.27,7.27,0,0,1,1.15-.34c.41-.12.84-.22,1.26-.33l-.28,1.3,2.47-1.17-.1-.24-1.3.27-.09-.28c2.12-.83,4.24-1.66,6.37-2.47,1.11-.42,1.12-1.38,1.15-2.31,0-1.36.05-2.73,0-4.09,0-.22-.61-.65-.77-.59-1.83.75-3.59,1.64-5.42,2.36-2.16.84-4.36,1.54-6.54,2.32q-4,1.44-7.94,2.91l-13.31,5c-3.2,1.18-6.39,2.38-9.61,3.47-3.05,1-6.19,1.82-9.22,2.92q-8.05,2.92-16,6.1c-4.15,1.64-8.24,3.45-12.35,5.18l-13.17,5.58c-2.42,1-4.85,2-7.22,3.11a2,2,0,0,0-.78,1.41c-.09.77.09,1.57-.07,2.4l-.3-1.39h-.15l.3,5.29c0,.16.11.45.07.47-1.25.63-.52,1.85-.84,2.73a16.27,16.27,0,0,1-1.3,2.36,15.1,15.1,0,0,1,.9,1.31c.08.12-.06.55-.16.57-1.15.26-.41.65-.09,1l0,0a9.83,9.83,0,0,1-2,1.5c-1.39.58-1.55-1.13-2.45-1.56-.69-.33-1.25-.91-1.91-1.31-1.2-.73-2.43-1.41-3.64-2.11l-2.64-1.54-.77.41c-.13-.22-.25-.4-.35-.59-1.15-2.17-1.08-2,1.3-2.9a50.73,50.73,0,0,0,4.94-2.6c1.09-.53,2.24-1.08,3.52-.38.16.09.49-.12.75-.2-.12-.27-.15-.68-.36-.81-1.9-1.15-3.82-2.27-5.74-3.38q-3.39-2-6.8-3.93c-2.68-1.54-5.38-3-8.05-4.59-2-1.17-3.91-2.48-5.93-3.61-2.44-1.39-5-2.64-7.43-4a5.39,5.39,0,0,1-1-1l-.85.46c.19-.66.2-1.2.41-1.31a1.53,1.53,0,0,1,1.14.09,17.91,17.91,0,0,1,1.75,1l.27-.34a5.55,5.55,0,0,0-1.11-1.06c-1.23-.7-2.52-1.31-3.78-2-.64-.34-1.08-.5-1.61.33a1.4,1.4,0,0,1-2.51.08,6.71,6.71,0,0,0,1.32-.64c.19-.16.19-.58.27-.89-.31,0-.62,0-.93.1s-.87.21-1.31.31l-.11-.51,1.25-.12c-2.3-1.84-4.83-2.45-7.13-3.5-1.19-.69-1.19-.69-1.45,0l.84.75.62-.76a11.13,11.13,0,0,1,.88.94,10.77,10.77,0,0,1,.59,1c-.38.06-.83.28-1.12.15-1.27-.57-2.5-1.23-3.72-1.9-.11-.07-.09-.51,0-.75a3.53,3.53,0,0,0,.3-1c-1.12,2-2.21.72-3.28.18l-8-4.07a2,2,0,0,1-.45-.42l1.57-.35c.25,1.22.8,1.42,2.43.69-.19.78-.45,1.62.49,1.25l3,1.43c-.36-.73-.45-1.2-.73-1.4s-.7,0-1.06,0l.17-.17-1.87-1.07c-1.12-.52-2.24-1-3.35-1.57a7.14,7.14,0,0,1-.64-.51c-.27-.2-.56-.37-1-.66v-1l-1.23,1.76.37-1.75-2.12-.32-.19-.81-2.09.86Zm130.06,17.82c1.48.52,1.17-1,1.69-1.55a1.77,1.77,0,0,0-.9.62c-.27.3-.5.62-.75.93a3,3,0,0,0-.25-.86.93.93,0,0,0-.66.11,3.29,3.29,0,0,0,.08.93Zm-9-134.71a1.31,1.31,0,0,0,.15-.37c.1-1.85.2-3.71.26-5.57,0-.12-.29-.26-.44-.39-.1.21-.31.43-.29.63.05.48.29,1,.31,1.43.05,1.43,0,2.86,0,4.29a1.5,1.5,0,0,0-.57.15,1.66,1.66,0,0,0-.57.64c0,.11.28.35.43.53a3.67,3.67,0,0,0,.64-.67C209.76,62.18,209.7,61.91,209.71,61.68ZM51,43.23l-1.12-.48v.53L51,43.21c.5,1.9,1.83,2.74,4,2.45-.24-.27-.38-.54-.61-.67-.91-.56-1.84-1.09-2.77-1.6A2.5,2.5,0,0,0,51,43.23ZM26.93,121c2.16-1.09,2-2-.58-3.94-.63.82-.23,2,1,3.09l-.45.86c-.21.23-.64.53-.59.66.45,1.22,1,2.41,1.49,3.61l.76-.12a4.1,4.1,0,0,0,0-1.61A22,22,0,0,0,26.93,121Zm69.78,22.22c.05-.74-1.35-2.45-2-2.38a3.59,3.59,0,0,0-1.31.59c-.09.05-.1.45,0,.51.81.6,1.32,1.75,2.62,1.48.29.23.56.62.88.65s.57-.35.86-.54ZM18.16,50.7c-.2.29-.54.57-.57.87a18.52,18.52,0,0,0,0,2.58c0,.28.23.77.39.78a1.2,1.2,0,0,0,.9-.37,2.47,2.47,0,0,0-.71-3.87l.43-2-.61,0Zm108.77,72.74v-2.61l-.78,1.08-.84-.77c.35,1.23.41,2.19,1.64,2.28,1.48,2.86,2,3.28,4.61,2.09-.59-1.52-1.78-1.88-3.58-1.41,1-1.1.84-1.53-.22-1.56l.12.38ZM38.91,140a20.92,20.92,0,0,1,.36-2.1c.49-1.83-.21-3.25-1.66-4.73a9.36,9.36,0,0,0-.16,2.67,40,40,0,0,0,1.48,4.18,12.29,12.29,0,0,0-.7,2.21c0,.27.57.61.89.92l.32-.2ZM37.74,53.08l1.29.11-.84-3.7a2.87,2.87,0,0,0,.17-.62c.15-1.83-1.24-2.59-2.46-3.41a4.3,4.3,0,0,0-1.53-.28c-.08.76-.42,1.49.58,2a35.89,35.89,0,0,1,3.26,2.27c-1.07-.56-2.13-1.15-3.22-1.66-.22-.11-.81,0-.85.17-.51,1.69,0,2.71,1.63,3.48l-1.35-.29c-.27,1.28,2.27,3.46,4.31,3.75C39.11,54,38.48,53.49,37.74,53.08ZM48.58,39l1.7,1.36-.85-.2-.09.18,1.33,1,.27-.32-.69-.73c1.27.68,2.51,1.43,3.82,2a8,8,0,0,0,2.3.41s.28-.83.17-.9a48,48,0,0,0-5.34-3.38c-.73-.37-2-.77-2.61.54l-1.16.42.53.45ZM36.13,71.11a4.52,4.52,0,0,1,.41.71c.1.26,0,.66.2.83a25,25,0,0,0,2,1.61,7,7,0,0,0,1,.54,6.81,6.81,0,0,0,.21-1.33c-.07-1.65-.22-3.29-.32-4.94,0-.74-1.49-1.93-2.21-1.74a.64.64,0,0,0-.37.4c-.31,1.31-.58,2.62-.87,3.94-.06-1-.53-2.23-.1-2.88,1-1.58.52-2.2-1-2.69a1.57,1.57,0,0,1-.4-.29c1,.29,2,.59,3.06.86.54.15,1.09.24,1.64.35a16.75,16.75,0,0,0,.07-2.12,3.1,3.1,0,0,0-.53-1.06c.15-.28.41-.56.41-.84,0-1.76,0-3.52-.18-5.28a2.25,2.25,0,0,0-.76-1.43c-1.3-1-2.69-1.86-4-2.76-.27.7-.35,1.52-.8,1.95-1,.93-1,3.35.15,4.1s2,1.25,3,2A30.92,30.92,0,0,1,39,63.32c-1.22-.89-2.39-1.84-3.66-2.65a9.19,9.19,0,0,0-2-.71,11.11,11.11,0,0,0,0,1.91,7,7,0,0,0,.52,2,7.68,7.68,0,0,0,1,1.39,3.71,3.71,0,0,0-.52-.36,5.66,5.66,0,0,0-1-.36c-.09,0-.34.23-.32.26a6.15,6.15,0,0,1,.44.73c.13.32.33.78.2,1-.56.91-.11,3.87.76,4.51a10.27,10.27,0,0,0,.92.71,3.41,3.41,0,0,0,.92.16ZM30.78,132.7c-.28.22-.83.47-.81.68.17,2.59.66,5.08,2.91,6.78a1.12,1.12,0,0,0,.78.25c.16,0,.35-.38.37-.61.14-1.46.26-2.93-.8-4.17,0-.06,0-.18,0-.35l.86.18c-.45-2.33.61-4.65-.26-6.85h-.46V133l-.89-1.12-.55,4.77-.53,0-.6-3.89a2.59,2.59,0,0,0-.91-3.46ZM193.56,50.61l0,0-2.08,1.24c.22-1.08-.57-.59-1.27-.34-.41.14-.83.24-1.25.35-1.63.42-3.3.76-4.91,1.28-1.88.61-3.7,1.4-5.58,2-.85.29-1.75.42-2.64.63l-1,.24.5.52c1.21-.2,2.42-.34,3.61-.62,3.18-.74,6.35-1.55,9.53-2.29s6.26-1.42,9.39-2.13c1.22-.28,1.86-.91,1.73-1.61l-5,1.26-.15-.41,1.47-1-.15-.24ZM49.21,71A6.2,6.2,0,0,1,48.42,69a13.37,13.37,0,0,1,.41-3c0-.25.34-.45.43-.7a3.78,3.78,0,0,0,.33-1.48c0-.17-.66-.3-1-.45l-.42-1.28c.21-.4.4-1,.18-1.25a11,11,0,0,0-2-1.62,2.85,2.85,0,0,0-.9-.25,3.42,3.42,0,0,0-.19.93c.12,2.82.29,5.63.41,8.45.05,1.36,1.63,3.11,3,3.1.18,0,.36-.35.54-.54l.63-4.08-.61-.07ZM53,89.17l0,0c-.46-1.39.64-3.42-1.86-4a3.5,3.5,0,0,0-.32,1c0,2.79,0,5.58.09,8.37,0,.45-.06,1.16.18,1.31,1.13.71.87,1.67.74,2.69a17.3,17.3,0,0,0,0,2.19l1.35-.94c0,1.81,0,3.42,0,5,0,.45-.31.88-.36,1.34-.11,1-.14,1.92-.2,2.89a23.27,23.27,0,0,0,.27,3.39c.06.32.83.5,1.28.75a6.59,6.59,0,0,0,.15-1.15c-.11-1.81-.32-3.62-.38-5.43,0-1.33.09-2.66.15-4a35.8,35.8,0,0,1,.31-5.69c.25-1.24.61-2.37.08-3.59a7.43,7.43,0,0,0-.54-.88l-.43,0,1.35-5.91-.13-.06-.61,1.11c-.07-.24-.11-.33-.13-.42-.1-.36-.19-.72-.29-1.07a9.58,9.58,0,0,0-.39,1.14C53.15,87.9,53.08,88.54,53,89.17ZM87.65,32.8l0,0-.31-.76c.93,0,1.83,0,2.73,0,.09,0,.24-.71.2-.73a13.87,13.87,0,0,0-3.77-1.46,23.68,23.68,0,0,0-4.69.41l.45-1c-1.69.31-3.6-.86-4.35.82L75.55,31.1a3.75,3.75,0,0,1,1.57-1.52,10.13,10.13,0,0,1,4.78-1.3.82.82,0,0,0,.6-.43.62.62,0,0,0-.21-.58,7.75,7.75,0,0,0-1.66-.41c-.66-.08-1.35-.07-2-.1a3.65,3.65,0,0,0-.81,0c-.58.09-1.14.3-1.72.35-2.63.24-5.26.42-7.89.67-1.9.18-3.79.44-5.68.68-1.63.2-3.26.43-5.28.7-.59-.46-10,.25-11.58,1.26,1.17,1.58,2.89,2,5,1.48a33.32,33.32,0,0,1,3.88-.6c.72-.1,1.45-.16,2.18-.25,1.41-.18,2.88-.83,4.06.63.13.16.49.17.75.18.77,0,1.54,0,2.3,0-.55.57-2.73.82-3.38.23-1.52-1.39-3.13-.17-4.67-.52l0,.4h3.07l-1.29.77c.4.22.79.47,1.2.66.23.11.54.05.76.17s.68.37.7.59c.09,1.13.74,1.2,1.61,1a11.41,11.41,0,0,0,1.66-.37c.35-.14.61-.52.93-.81a23.82,23.82,0,0,0,3.17.15c1.84-.13,3.67-.46,5.51-.66a21,21,0,0,0,3.67-.31,9.38,9.38,0,0,1,6.48.08l-7.91,1.12a14.11,14.11,0,0,0-1.45.09c-.57.06-1.14.1-1.71.19a7.63,7.63,0,0,0-1.91.39,1.1,1.1,0,0,0-.26,1,7.87,7.87,0,0,0,1.46,1.42,2.24,2.24,0,0,0,.77.34,7.81,7.81,0,0,0,2.86.78c2-.21,4-.82,6-1.17a15.93,15.93,0,0,1,5.76-.21,1.22,1.22,0,0,0,.58-.11c2.23-.6,4.46-1.18,6.67-1.83,1-.28,1.87-.71,2.81-1.08l1.76,1,.39-.54a6.3,6.3,0,0,1-1.12-.76c-.63-.63-.88-.39-1,.34l-1-1.18c-.26.12-.5.33-.74.32-1.33,0-2.69-.57-3.9.56-.29.27-1,.13-1.46.18l-.08-.47,3-.93A1.58,1.58,0,0,0,91.48,32a11.93,11.93,0,0,0-1.47.4C89.23,32.59,88.44,32.68,87.65,32.8Zm57.52,3.85c.79-.35,1.58-.7,2.36-1.07a3.21,3.21,0,0,0,.49-.42c-.15-.14-.32-.41-.47-.4-1.77.11-3.54.27-5.32.41l-.06.33,3,1.14c-1.26.93-2.49,1.94-4.08.51-.21-.18-.77,0-1.16.06a11.63,11.63,0,0,0-1.15.37l.19-.79-1.43-.13-.25-.87L136.43,37l1.15-.39.26.91a17.9,17.9,0,0,1-2.24.18c-.72,0-1.44-.29-2.17-.34s-1.81-.64-1.77.91l-1.3.18a2.14,2.14,0,0,1,1.09-1.41,6.39,6.39,0,0,1,2,0l-.26-.45c.12-.19.24-.54.37-.55.53,0,1,.08,1.58.09s.8-.07,1.21-.1c-1.49-.4-2.25-.32-3.14-1.68a1.64,1.64,0,0,0-1.3-.59c-1.79.31-1.59-.91-1.42-1.88.19-1.15-.37-1.22-1.34-1.2a8.38,8.38,0,0,0,.56.93c.6.71.17,1.19-.47,1.14-2.45-.18-4.76,1.22-7.24.56a.75.75,0,0,0-.63.2c-.92,1-1.65,1.07-2.17-.52.41,1.65-.65,1.35-1.48,1.4l-.33-.94-1.19.77a7.86,7.86,0,0,0,1.59,1.22c1.61.68,3.29,1.2,4.92,1.85,1.1.44,2.62-.1,3.31,1.41.06.14.83.15,1.09,0,1-.73,1.34-.77,2.37.06l-2.09.34c1.32.82,1,1.62.07,1.67a11.21,11.21,0,0,1-3.22-.78c-.42-.11-.82-.3-1.24-.38-1.57-.29-3.51,1-4.65-1.12-.12-.21-.6-.23-.91-.34s-.76-.11-.91-.33a1.43,1.43,0,0,0-2.1-.55,9.26,9.26,0,0,1-2.6.34l2.53,2.35c.26-.37.54-1.08.8-1.08a17.54,17.54,0,0,1,2.75.46l-.08.38h-2.52a1.46,1.46,0,0,1-.83.84A4.18,4.18,0,0,1,113,41c-1.09,0-2.19-.08-3.29-.13.07-1.45-1-1.19-1.88-1.34-.28-.05-.49-.49-.94-1-.1.55-.35,1.08-.21,1.44s.75.29,1.15.42l1.41.38-4.45.22-.1.46.36.18c2,.74,4,1.5,6,2.21a5.34,5.34,0,0,0,2.09.51c2.28-.16,4.55-.42,6.81-.75,4.83-.7,9.64-1.5,14.47-2.2,3.46-.5,6.93-.88,10.39-1.36.44-.06,1.16-.34,1.2-.61.28-1.65,1.48-1.68,2.71-1.78,2.66-.2,5.31-.39,8-.64,5.83-.53,11.66-1.1,17.48-1.66,2.66-.26,5.34-.45,8-.83,3.75-.54,7.47-1.23,11.2-1.88.74-.13,1.47-.35,2.2-.51s.73-.2-.87-1.91c0,0-.12,0-.19,0a11.31,11.31,0,0,1-3.67,1.09c-4,.34-8,.5-12,.85-3.82.32-7.64.78-11.45,1.22-.31,0-.57.42-.86.64a3.47,3.47,0,0,1-1.76.41c-1.79,0-3.59,0-5.39.09-.27,0-.53.27-.81.37a7.55,7.55,0,0,1-1.6.48c-.85.1-1.71,0-2.56.11s-1.89.36-2.84.44c-.73,0-1.48-.22-2.19-.11C147.93,36,146.55,36.35,145.17,36.65ZM128.58,49.87a23.71,23.71,0,0,1,.57,3c.13,2.26,0,4.53.21,6.78.26,3,.34,2.95,3.21,2.39.3-.06.59-.12.89-.15,3.74-.3,7.51-.45,11.22-.95,3.88-.53,7.73-1.33,11.56-2.14,1.06-.22,2.06-.7,1.93-2.26a30.07,30.07,0,0,1,.26-4.22,3,3,0,0,0,0-1A36.76,36.76,0,0,0,157,46.85a3.2,3.2,0,0,0-1.67-1.55,5.19,5.19,0,0,0-2.26.15c-3.82.55-7.62,1.16-11.44,1.67-1.75.23-3.53.17-5.27.43-2.13.33-4.24.83-6.33,1.35-.52.13-.94.64-1.41,1-.56.16-1.6-.38-1.33,1.29Zm32.68-20h0a3.93,3.93,0,0,1,.41-.57,2.66,2.66,0,0,1,.6-.32,2.65,2.65,0,0,0-.76-.19c-.8,0-1.61.08-2.41.16-1.86.19-3.73.39-5.59.6-.16,0-.3.13-.46.16-.53.13-1.06.24-1.6.36l.09-1.6-.88-.6c1.19-.09,2.31.2,3.42.19a53.43,53.43,0,0,0,5.64-.39c.23,0,.47-.64.55-1,0-.12-.5-.51-.75-.49-1.41.11-2.82.34-4.23.46-.83.07-1.68,0-2.82,0,.39-.31.5-.47.63-.49,1.6-.21,3.21-.45,4.82-.6,2.23-.21,4.47-.33,6.7-.54,2-.19,4-.49,6-.65,1.67-.14,3.35-.17,5-.22.69,0,1.38,0,2.08,0,.38,0,1.07,0,1.09-.1a8.74,8.74,0,0,0,.05-1.7l-5.77.14s0,.06-.06.07c-.43.26-.84.7-1.29.74-3.24.35-6.48.64-9.72.89-4,.3-8,.52-12.06.83-.43,0-.83.49-1.25.74,2.8.17,2.8.17,3.15,1.06-1.85.15-3.73.33-5.61.42-1,.05-2.27.35-2.26-1.37,0-.1-.36-.3-.55-.29-.66,0-1.32.15-2,.16-1.22,0-2.44.06-3.66,0-1.75,0-3.49-.12-5.24-.18-.56,0-1.12,0-1.67,0,.8-.57,2.13,0,2.4-1.05-1.28-.47-2.33-.86-3.38-1.22-.17-.06-.5-.11-.52-.05a2.54,2.54,0,0,0-.14.78l-3.5-.2-.88,1.57,5.14-.35a2.05,2.05,0,0,1-1.32.71,39.43,39.43,0,0,1-4.47.2,4.7,4.7,0,0,1-1.58-.68l-1.74-.76.4,1.27c-2.8,1.13-12.45,1.89-13.24,1,1.54-.09,3-.17,4.47-.27.15,0,.29-.17.45-.19,1.51-.2,3-.37,4.54-.57.47-.06.93-.18,1.39-.28l-.09-.63c-1.55,0-3.09,0-4.63,0-.25,0-.48-.38-.72-.59a3.78,3.78,0,0,0,1-.15.83.83,0,0,0,.42-.51c0-.09-.26-.34-.43-.38a4.72,4.72,0,0,0-.93,0v1.07l-.9-.8c.12-.41.41-1,.3-1.08a2.13,2.13,0,0,0-1.32-.54q-6.19.54-12.38,1.25c-.27,0-.48.62-.72,1l0,0c-1-1.28-2-.52-2.92.08-.36-.21-.62-.48-.9-.49a25.65,25.65,0,0,0-3.28-.06c-2.29.16-4.57.4-6.85.59-1.71.14-3.49-.57-5.11.52-.13.09-.38,0-.58,0-1.89,0-3.9-.39-5.65.1-2.65.76-5.39.3-8.06,1.34-2.2.86-4.85.53-7.3.77a7.09,7.09,0,0,0-1.33.36c.42.51.84.81,1.24.78,1.57-.11,3.12-.36,4.69-.49s3-.17,4.57-.29c3.29-.27,6.58-.61,9.87-.83,2.45-.16,4.9-.1,7.34-.28a4.94,4.94,0,0,0,2.73-1c.8-.58,2.45,0,3.9.07.29-.4,3.2-.76,3.72-.19.13.14,0,.73,0,.74a9.5,9.5,0,0,1-1.6,0c-.36,0-.88-.34-1-.2-1.37,1.25-2.85,1.11-4.41.54a2,2,0,0,0-.66,0,4.12,4.12,0,0,0,4,1.87c1.5-.2,3-.09,4.56-.27,2.17-.26,4.31-.7,6.47-1a24.66,24.66,0,0,1,3,0,1.74,1.74,0,0,1-.88.58,6.25,6.25,0,0,0-.81.57,4.71,4.71,0,0,1-1.26.93,4.21,4.21,0,0,1-2,.15c-1.09-.21-2.11.78-3.32,0-.36-.23-1.92-.55-2.36.77a3.93,3.93,0,0,0-1.06-.54,1.53,1.53,0,0,0-.85.34s0,.46.11.5c1.07.47,2.16.9,3.24,1.34a1.26,1.26,0,0,0-.42-1,9,9,0,0,0-1-.63c.76.39,1.51,1.09,2.26,1.09a43.57,43.57,0,0,0,5.08-.55,3.42,3.42,0,0,1,1,.05c.09,0,.14.27.2.42a3.33,3.33,0,0,1-.83.35c-1.77.24-3.55.45-5.69.71l2.51,1.09,2.45,1.07a4.58,4.58,0,0,0,.28-.38,9.09,9.09,0,0,0,2.79.76,17.83,17.83,0,0,0,4-.91c.65-.19,1.2-.81,1.85-.93,1.78-.33,3.6-.44,5.39-.74,3.55-.59,7.1-1.24,10.64-1.89.21,0,.36-.31.54-.47-.2-.14-.39-.37-.61-.4a11.22,11.22,0,0,0-1.42,0,1.75,1.75,0,0,1,1-.43,21,21,0,0,0,2.76-.19c1.15-.25,2.21-.72,3,.64a1.52,1.52,0,0,0,1.13.47,45,45,0,0,0,4.93,0c2.66-.18,5.31-.56,8-.75,1.65-.11,3.32,0,5,0l0,.49c-.37.09-.74.19-1.12.25a12.38,12.38,0,0,0-2.3.34c-.51.17-.9.7-1.34,1.08l-.08-.61-2.21-.93.64,1.4h-1.46a4.76,4.76,0,0,1-1.34.54c-1.91.24-3.83.38-5.75.59a2.29,2.29,0,0,0-.73.34c.21.18.43.35.63.53,1.14,1,2.39.08,3.58.13a18,18,0,0,0,3.1-.72c.37-.06.81.3,1.22.47a6,6,0,0,1-1.2.38c-.94.1-2-.18-2.63,1,.57.08,1.31,0,1.52.26.84,1.12,1.44.42,2.17-.06.4-.25,1.2-.55,1.33-.4,1,1.11,2.06.74,3.18.37a8.33,8.33,0,0,1,1.5-.18l-.1,1.05,1.78.27.09-.32-1.1-.56.26-1.4-3.72.74.94-1.56c.47,1.19,1.06,1.08,1.84.41a2.63,2.63,0,0,1,3,.41L151,33.5l.14.49,4.36-.78v-.37h-2.58l0-.45c1.54-.27,3.08-.59,4.63-.8s3-.33,4.52-.47c2.89-.25,5.79-.45,8.68-.74a7.84,7.84,0,0,0,1.82-.7,20.41,20.41,0,0,0-4.7-.29C165.61,29.5,163.43,29.7,161.26,29.86ZM97.48,169.33a25.73,25.73,0,0,0-3.74.24c-2.14.46-4.23,1.15-6.36,1.68-.29.07-.67-.22-1-.34,2-1,3.8-1.82,5.59-2.72.16-.08.18-.43.27-.66-.27-.05-.57-.21-.81-.15-1,.28-2,.68-3,.9a1.22,1.22,0,0,1-1-.46c-.16-.27.07-.75.07-1.15s0-.87-.12-.89a13.56,13.56,0,0,0-3.15-.42,10.5,10.5,0,0,0-2.23.76c-1.82.56-3.65,1.07-5.57,1.62a4.15,4.15,0,0,0,.73.62c2.46,1.22,4.92,2.46,7.41,3.63,1.78.82,3.67,1.42,5.4,2.33,3.33,1.76,6.51,3.82,9.89,5.48,4.44,2.17,9,4.08,13.53,6.1a40.32,40.32,0,0,1,4.32,2,3.58,3.58,0,0,0,3.47.28c1.65-.62,3.39-1,5.09-1.49l.28.37c-.25.27-.46.69-.77.8-1.22.43-2.48.73-3.7,1.14-.17.06-.3.74-.29.75.91.37,1.84.71,2.76,1.06l0,0c.26.29.45.69.77.85,2.38,1.14,4.81,2.19,7.18,3.37q4,2,7.92,4.16c3.39,1.86,6.72,3.82,10.1,5.69,1.54.85,3.44,1.26,4.66,2.42a2.76,2.76,0,0,0,3.26.54c.81-.27,1.56-.71,2.35-1,2.09-.88,4.18-1.77,6.3-2.59s4.45-1.57,6.64-2.44c2.48-1,4.92-2.08,7.4-3.09,1-.39,2-.61,2.91-1,4.31-1.87,8.56-3.9,12.92-5.62,4-1.59,8.2-2.87,12.31-4.29,3.61-1.25,7.22-2.51,10.85-3.71a2.11,2.11,0,0,1,1.46.23,1.63,1.63,0,0,0,2.09-1l-2,.68c.37-.47.43-.66.56-.71,1.77-.74,3.55-1.48,5.33-2.19.16-.06.49,0,.56.06,1.13,1.79,1.43-.63,2.22-.47l-1.05.16c1.16-.54,2.12-1.9,3.61-.88.08.05.31-.09.45-.17.46-.25.9-.54,1.38-.76.82-.38,1.66-.73,2.51-1.07a20,20,0,0,1,2.09-.74c1-.25,2.36.53,2.74-1.15,0-.09.29-.12.44-.17.54-.17,1.07-.35,1.62-.5.92-.25,1.65-1.65,2.89-.4.62-.5,1.21-1,1.85-1.46.12-.09.44.16.68.17a3.38,3.38,0,0,0,.95-.06c.28-.07.54-.24.81-.33.81-.29,1.62-.56,2.68-.92.43.31,1.62-.12,1.92-1a1.28,1.28,0,0,1,.67-.72,18.18,18.18,0,0,1,2.51-.66,8.48,8.48,0,0,1,1.22.07,10.68,10.68,0,0,0,1.22-.2c-.1-.38-.07-.93-.31-1.1-.9-.64-1.9-1.15-2.85-1.73-2.32-1.42-4.57-3-7-4.23-1.28-.66-2.55-2.64-4.33-.71,0,0-.07,0-.1,0l-6.4,1.84a1.41,1.41,0,0,0-.42.22,20.59,20.59,0,0,1-2.6,1.73c-1.66.76-3.4,1.37-5.12,2-.85.32-2,1.07-2.54.77a2.5,2.5,0,0,0-2.67-.06,4,4,0,0,1-1,.19l-.12-.39c1.39-.55,2.77-1.13,4.17-1.65,2.21-.81,4.42-1.62,6.66-2.35,3.11-1,6.25-2,9.36-3a9.51,9.51,0,0,0,1.79-1.13,6,6,0,0,1-1.61-.31c-2.58-1.67-5.09-3.46-7.72-5.05-2.3-1.39-4.76-2.51-7.09-3.85-1.82-1-3.55-2.23-5.34-3.32-3.16-1.92-6.26-3.95-9.53-5.68-4.68-2.48-9.49-4.74-14.26-7.06-.23-.11-.64.07-.93.2s-.59.43-.92.56c-.76.3-2,.32-2.25.86-1.08,2-2.29,2.44-4.29,1.27a.88.88,0,0,0-.66,0c-1.24.37-2.45.8-3.7,1.14a8.59,8.59,0,0,1-1.89.25,4.44,4.44,0,0,1-1-.17c-.23-.16-.56-.58-.9-.59a7.1,7.1,0,0,0-1.86.35c-4.25,1.06-8.48,2.15-12.74,3.17-.95.23-2,.13-2.93.37a14.88,14.88,0,0,0-2.4,1l0,.06-1.43.9c.62.26,1.12.69,1.53.61,2.12-.41,4.21-.94,6.31-1.46,3.41-.84,6.81-1.7,10.22-2.55a2.33,2.33,0,0,1,.59,0,1.61,1.61,0,0,1-1,.72c-1.06.25-2.34.19-2.2,1.89,0,.21-.46.68-.64.64-.92-.17-1.81-.47-2.71-.72-.27-.07-.57-.25-.81-.2q-3.57.72-7.12,1.51c-.55.12-1.08.37-1.93.66l5.76,3.21-.1.19-.88-.11-.15.28,11.19,7.3-.22.31c-2.36-1.38-4.72-2.8-7.1-4.15s-4.87-2.56-7.23-4c-2.2-1.33-5-1.44-6.9-3.32-.12-.12-.45-.09-.67,0-1.34.32-2.68.68-4,1-3.06.75-6.12,1.53-9.19,2.24-1.6.37-3.25.52-4.84.91-2.38.58-4.7,1.35-7.08,1.91a11.66,11.66,0,0,1-2.71,0l-.27.37,1.72,1.31a7.64,7.64,0,0,1,1,.75c.39.41.68.92,1.08,1.31a4.3,4.3,0,0,0,1,.5,2.67,2.67,0,0,1-1.79,0c-2.66-1.07-5.29-2.21-8-3.26-.27-.11-.71.18-1.06.32s-.77.36-1.17.47-.61-.06-.84.05c-.81.38-1.57.89-2.39,1.22-2.18.87-4.37,1.75-6.59,2.5-1.38.46-2,1.05-1,2.39,1.6-.13,3.08-1.65,4.6-.58.92-.28,1.7-.53,2.48-.75.51-.14,1-.23,1.66-.37l1,.52a1.82,1.82,0,0,1-.41.15c-2.21.42-4.44.76-6.63,1.26-1.64.38-3.23.94-4.83,1.48-.16.05-.31.7-.27.72,1,.56,2,1.08,3,1.57s2.24,1.06,3.36,1.59l-.22.47c-2.2-.94-4.38-1.92-6.59-2.81a5.32,5.32,0,0,0-2.54-.64c-1.53.22-3,.85-4.51,1.22-1,.23-1.94.29-2.91.43l-.08-.55c1.6-.47,3.22-.91,4.81-1.42.32-.11.55-.44.83-.67-.34-.18-.69-.53-1-.5a41.5,41.5,0,0,0-4.13.6c-.78.15-1.57.75-2.29.65-1.25-.16-2.35.94-3.64.25-.41-.21-1.06.05-1.6.09l.22,1-2.29.64a4.75,4.75,0,0,1,1-.59c.15-.09.19-.37.28-.57-.21-.06-.45-.21-.62-.15-1.22.41-2.43.86-3.62,1.35-.2.08-.3.43-.45.65.84.37,1.74,1.16,2.49,1,2.72-.45,5.38-1.21,8.07-1.82a5.71,5.71,0,0,1,1.17,0l0,.18-6.45,2.65.13.56a4.82,4.82,0,0,0,1.14,0c1.45-.39,2.87-.85,4.31-1.25a3.28,3.28,0,0,1,1,.08l-3.36,1.86.18.35-.87-.19.69,1.58ZM165.12,46.85a2.43,2.43,0,0,0,0,.62c.27,2.08.56,4.16.84,6.23,0,.1,0,.25,0,.29.36.29.76.79,1.12.77a17.46,17.46,0,0,0,2.2-.59c2.31-.45,4.66-.74,6.94-1.3,2.5-.62,4.91-1.6,7.41-2.19,4.92-1.15,9.86-2.18,14.81-3.15,2.55-.51,2.85-.68,2.9-3.3,0-.7-.3-1.39-.33-2.1,0-1.06-.67-1.17-1.49-1.09-.29,0-.61.2-.88.14-2.27-.56-4.41-.06-6.65.4-5.17,1.07-10.41,1.78-15.6,2.75-2.66.49-5.29,1.22-7.93,1.86-.59.14-1.16.35-1.75.48C166.32,46.76,165.88,46.77,165.12,46.85ZM41.54,104.17l.34-2.35c.54,1.5-.65,3,1,3.9l.27-3.29.42,0a6.85,6.85,0,0,0,.06,1c.26,1.19-.7,2.67.76,3.56a5.38,5.38,0,0,0,1.47.38c-.14-.3-.29-.59-.42-.9a.92.92,0,0,1,0-.29c0-1.23,0-2.47,0-3.7,0-3.13.19-6.25.14-9.37-.06-3.5-.35-7-.4-10.5,0-1.38-.31-2.41-1.62-3a9,9,0,0,0-1.32-.39l-.18,3a1,1,0,0,1-.26-.69c0-1,0-1.92-.09-2.86,0-.3-.45-.56-.7-.84a2.65,2.65,0,0,0-.28.85c0,.93.1,1.86.11,2.79,0,2.42,0,4.84,0,7.26v2.88c-.47-.15-.65-.32-.67-.52-.19-1.52-.34-3.05-.49-4.59,0-.11.1-.23.14-.35a4.9,4.9,0,0,0,.45-1.46c0-1.61-.13-3.21-.25-4.81-.07-1,.1-2.16-.4-2.81a13.15,13.15,0,0,0-3.07-2.35s-.34.28-.27.22l-2.14-1.74c-.22.76-.5,1.5-.65,2.26a4.09,4.09,0,0,0,0,1.52c0,.35.47.68.44,1-.08,1.18-.37,2.35-.41,3.53a16.59,16.59,0,0,0,.28,3.06c.13.87.68,1.77.53,2.56-.21,1.09-.91,2.09.09,3.13,0,0,0,.25-.08.37A5.94,5.94,0,0,0,34,92.14c-.09,1.69-.06,3.38-.11,5.07a2.85,2.85,0,0,0,2.65,3.32l.11-.78c.21.43.1,1,.32,1.24a10,10,0,0,0,1.56,1.32l.54-.9-.23-.14-.54.39-.22-3.11.4,0c.06.38,0,1.07.2,1.1,1.3.34.84,1.39.79,2.1C39.33,103.26,40.05,103.93,41.54,104.17Zm77.92-87.78,0,.38-14.24,1.15,1.06-1.48-1.71.82.19.91L101.64,18l-.47-1,0,.49a9.1,9.1,0,0,1-2,.62c-.4,0-.83-.43-1.25-.67a6,6,0,0,1-2.29.58L83.64,19c-1.83.15-3.67.19-5.47.49-.57.1-2.08-1.11-1.78.79-1.07.79-2.7.09-3.89,1.58h3.62l-1,.71a1.14,1.14,0,0,0,1-.13c.68-.36,1.35-.74,2-1.09,1.31-.68,2.71,0,4.1-.21,3.08-.41,6.18-1.43,9.36-.57a1.12,1.12,0,0,0,.39-.06,8.09,8.09,0,0,1,2-.28,13.37,13.37,0,0,0,3.73-.14,78.25,78.25,0,0,1,9.81-.72c2.65-.1,5.3,0,7.5,0a9.67,9.67,0,0,1,1.77-.79c1-.17,2-.22,2.94-.31,4.06-.38,8.11-.78,12.18-1.11a6.09,6.09,0,0,1,1.88.4c.59.15,1.17.37,1.76.48.9.17,1.8.3,2.71.41a2.17,2.17,0,0,0,.66-.08c1.51-.32,3-.61,4.51-1s2.91.76,4.47-.14a8.1,8.1,0,0,1,3.56-.76,1.78,1.78,0,0,0,2-1.76l-1.13.62h-4.12l.38.67a4.19,4.19,0,0,1-1,.2c-.67,0-1.33-.13-2-.18-.42,0-.85,0-1.74,0,.94-.5,1.47-.75,2-1.06a3,3,0,0,0,.59-.64c-.28-.11-.56-.33-.84-.31-4.9.29-9.8.63-14.7.93-1.45.09-2.91.11-4.37.19-2.31.12-4.63.24-6.95.41-1,.07-2,.23-3,.39-.17,0-.3.28-.45.43.21.09.44.28.64.26C117.7,16.61,118.58,16.49,119.46,16.39ZM70.79,49.24a7.35,7.35,0,0,0,.75.21,7.25,7.25,0,0,0,2.24.42c2.37-.25,4.7-.72,7.06-1,2.56-.29,5.16-.34,7.71-.68,1.46-.2,2.85-.8,4.3-1.13a20.82,20.82,0,0,1,2.84-.37,5.81,5.81,0,0,1,1,.19c.8.07,2,.47,2.34.1,1-1.12,2.26-.92,3.45-1.12,1.68-.28,3.36-.51,5.11-.76-1.26-.86-2.32-1.56-3.35-2.3a.87.87,0,0,1-.31-.72c.29-.86.28-.91-.67-.78l-7.63,1.09-6.49.91.73.86c-1.35.65-1.63.68-2.75.29-.12,0-.26,0-.39,0-1.93-.64-3.85-.17-5.79,0A1.81,1.81,0,0,0,79.14,46c-.31,1.26-1,1.15-1.93.69s-1.92-1.61-3.42-1.27-3.21.47-4.82.71a3.67,3.67,0,0,0-.83.39,6.88,6.88,0,0,0,.55.75C69.29,47.87,69.92,48.43,70.79,49.24ZM34.2,100.58c0,2.81,0,5.29,0,7.77,0,1.11.26,2.21.29,3.32,0,1.58.35,2.93,2.15,3.48l.29-2.17c-.36,2.13.75,3.46,2.32,4.77V106c-.29,1,.77,2.72.38,4.69s0,4.39.17,6.6a6.45,6.45,0,0,0,.29,1.19l.43,0a23.64,23.64,0,0,0,.12-7.92h.44v5.79l.32,0,.44-1.75c.2,2.9-.07,5.87,3.31,7.56.2-4.1.39-8.06.58-12l.48,0c0,2.74,0,5.48,0,8.21,0,1.74-1.2,3.81.77,4.88l1.8-.38c.09-.41.9-1.49-1.36-.94.47-.63.73-1,.73-1,0-2.37,0-4.46,0-6.55,0-.34-.35-.68-.53-1-.16.27-.44.53-.46.81-.06.89,0,1.78,0,2.67A27.39,27.39,0,0,1,47,111.6c.12-1.13.21-2-1.13-2.28-.2,0-.31-.41-.5-.58-1-.86-1.92-1.7-3.19-2.82l-.35,4.69c0-1.61,0-2.93,0-4.26,0-.29,0-.71-.19-.83-1-.67-2-1.27-3-1.94l-.28,1C38.38,101.81,36,101.73,34.2,100.58Zm56-23.18v.41c.66-.08,1.31-.19,2-.23a1.9,1.9,0,0,1,.67.2c-.07.17-.1.43-.23.49a9.52,9.52,0,0,1-1.56.61c-3.44,1-7,1.65-10.31,2.85-4.33,1.56-8.62,3.2-11.9,6.83-2.17,2.42-4.16,4.86-5.19,7.94-.68,2-1,4.12-1.57,6.18-.08.31-.38.56-.56.84s-.64.69-.64,1c0,1.69.16,3.38.27,5.06.25,4.08.49,8.17.76,12.25.07,1,.26,2,.39,3l.69-.05c0-3,0-6,0-9a61,61,0,0,1,.27-8.56c.69-4.39,1.8-8.71,2.78-13a2.93,2.93,0,0,1,.88-1.47c1.22-1.09,2.7-1.83,3.39-3.52a9.51,9.51,0,0,1,2-2.53c.17-.18.76-.28.88-.15.73.75,1.24,0,1.72-.26,3-1.86,5.93-3.8,9.65-3.85a3.43,3.43,0,0,0,1-.33c.52-.19,1-.44,1.56-.58,2.18-.57,4.39-1,6.55-1.67,3.58-1,6.94-2.78,10.78-2.92,1.75-.07,1.94-.54,1.11-2.49l-.73,1.39h-1.23l.15-.91a5.73,5.73,0,0,0-.83,0c-2,.3-3.93.56-5.87.94-1.12.22-2.2.65-3.29,1l.13.47,4.72-.77a1.21,1.21,0,0,1-.69.57c-1.32.38-2.64.76-4,1.09a.69.69,0,0,1-.59-.32c-.2-1-1-.87-1.64-.82A9.91,9.91,0,0,0,90.17,77.4Zm-63.6-9.08-.31,7.1h.06c-.09,2-.19,3.91-.29,5.86A2.69,2.69,0,0,1,25.76,80c-.11-4-.21-8.11-.36-12.17,0-.35-.33-.68-.51-1l-.46.19.22,1.81-1.43-1.35.16,2.82h.36l.32-1,.28,1.36.16,0,.08-1.18.51.13c-.28.93-.56,1.86-.82,2.8a2.06,2.06,0,0,0-.08.85c.16,1,.45,1.94.56,2.92.08.76.25,1.85-.15,2.24-.89.86-.5,1.56-.23,2.57l.52-.83.38.21-.93,1.54a6.19,6.19,0,0,1,.8.46s0,.33-.13.41a2.75,2.75,0,0,0,0,3.93.8.8,0,0,1,.1.65c-1.14.64-.55,1.53-.38,2.36a1.63,1.63,0,0,1,0,.93c-.55,1.13.17,1.49,1.14,2l.3-5.42c.16.21.26.28.27.35.09,1.82.16,3.64.29,5.45,0,.27.3.51.45.77.12-.23.34-.47.34-.7,0-.9,0-1.81-.1-2.7-.13-1.87-.29-3.73-.43-5.59a4.07,4.07,0,0,1,.45,1.49,40.58,40.58,0,0,0,.26,4.69c.28,1.5-.14,3.32,1.47,4.39.37.24.8.4,1.2.61l.94.52a4.56,4.56,0,0,0,.26-1.06c0-1.62,0-3.24,0-4.86,0-1.39,0-2.79,0-4.19,0-.2-.3-.39-.46-.58l-.45.05c0,.76-.27,1.65,0,2.25,1,1.86-.49,3.18-.64,4.78l-.36-.06.48-3.58c-.26-.64-.53-1-.5-1.29.06-.57.4-1.12.43-1.69a15.74,15.74,0,0,0-.29-1.76c-.11-1.4-.19-2.8-.24-4.21a9.13,9.13,0,0,1,.08-1.65c0-.34.3-.67.3-1,0-2.16,0-4.32-.09-6.49a5.77,5.77,0,0,0-.2-1l-.3,0v3.08C28.47,71.52,29.75,69,26.57,68.32Zm37.82,2.25.22-.09c.36.54.71,1.09,1.09,1.61.7,1,1.41,2.06,2.81,1.82A9.2,9.2,0,0,0,72,72.8a17.81,17.81,0,0,0,3.44-3.23,5.08,5.08,0,0,0-.14-6.1,7,7,0,0,0-4.83-2.28,7.21,7.21,0,0,0-5.09,1.63c-2.61,2.3-2.33,6.27-.61,9.15ZM125,12.64a41.66,41.66,0,0,1-4.35.85c-2.64.23-5.28.29-7.92.42l-9.12.5-6.63.34c-5.35.28-10.7.54-16.05.87s-10.95.66-16.41,1.14c-4.33.38-8.63,1-12.95,1.49-2,.22-4,.38-6,.61-.26,0-.49.29-.74.45.16.13.32.38.49.38a20.08,20.08,0,0,0,2.33-.07c2.75-.24,5.49-.53,8.24-.76,3.71-.32,7.42-.6,11.12-.89,3.38-.26,6.75-.5,10.12-.77,1.1-.09,2.19-.23,3.28-.34,2.63-.27,5.25-.59,7.88-.8s5-.24,7.44-.43a36.59,36.59,0,0,1,5-.51c2.88.18,5.7-1,8.62-.12,1.12.34,2.46,0,3.7-.05s2.7,0,4-.1a19.33,19.33,0,0,0,4.78-.63C122.87,13.86,124.79,15.14,125,12.64Zm75,84.1c.18,2.58.33,5.09.55,7.6,0,.42.41.8.63,1.2,0-.37.06-.73.08-1.09a2.77,2.77,0,0,0,0-.5c-.33-3.58-.67-7.15-1-10.72-.25-2.6-.49-5.21-.74-7.81-.06-.62-.36-1.37-.12-1.83.62-1.2.24-2.27.15-3.48a15.47,15.47,0,0,0-2.42-7,22.71,22.71,0,0,0-3.65-4.76c-.81-.76-2.26-.9-3.45-1.18a20.8,20.8,0,0,0-4.39-.75c-2.56,0-5.13.13-7.69.33-1.39.1-2.76.44-4.59.74.59.27.73.38.87.38,2.42,0,4.86.13,7.28,0,3.24-.18,6.5-.46,9.24,1.69a19,19,0,0,1,6.76,9.68c.28.92.83,2,.62,2.79-.63,2.45.6,4.62.88,6.9a34.26,34.26,0,0,1,.38,8ZM50,89.51c0-1.67,0-3.33,0-5,0-.14-.45-.27-.68-.4,0,.24-.17.51-.1.71.29.83.41,1.56-.9,2,0-2,1-4.33-2.07-5a8.51,8.51,0,0,0,0,.86c.09,3.08.24,6.17.26,9.25,0,2.62-.18,5.24-.19,7.86s.1,5.45.19,8.18c0,.26.29.51.65,1.11l.4-2.92,1.87.53a11.59,11.59,0,0,1-.43-1.76c-.06-.55-.17-1.27.12-1.63a5.33,5.33,0,0,0,.37-3.81,3.78,3.78,0,0,1-.09-2.89A4.32,4.32,0,0,0,49.87,94c0-.4-.09-1,.13-1.16.91-.91.31-1.6-.18-2.34-1.09,1.18.4,3.35-1.6,4.21l.2.67c-.3-.86-1-1.81.22-2.41,0-.29-.24-.68-.13-.79,1-1,.74-1.85-.21-2.41L49,87.89C49.24,87.53,49.24,87.53,50,89.51ZM95.69,36.77l-.24-.51c-2.32.4-4.64.78-7,1.2-.24,0-.44.3-.66.45.15.14.33.41.45.39,1.2-.21,2.4-.47,3.6-.7a4.83,4.83,0,0,1,1-.09.79.79,0,0,1,.1.33,3.78,3.78,0,0,1-.89.36c-3.18.58-6.37,1.14-9.55,1.73-.31.06-.59.37-.88.55a3.3,3.3,0,0,0,1.11.28c1.17-.14,2.34-.41,3.52-.58,1.58-.23,3.16-.41,4.75-.62l2-.24.08.39a5.49,5.49,0,0,1-1.14.39c-1.53.17-3.06.22-4.58.43-1.17.15-2.32.48-3.64.77.68.72,4.31.8,5.19.47a7.27,7.27,0,0,1,1.77-.23c.4,0,.82,0,1.22-.06a20,20,0,0,1,2.41-.43c2.21-.06,4.45.15,6.52-1.28L100.52,41c1.13-.09,2.18-.13,3.2-.28a5.23,5.23,0,0,0,1.3-.55c-.38-.19-.75-.39-1.12-.59a.36.36,0,0,1-.1-.11l.17-.32,2.06,1,.23-1.85-3.71.2a6,6,0,0,1,1.43-.43c.53-.14,1-.35,1.55-.53a7.18,7.18,0,0,0-1.44-.72c-2.84-.77-5.48.56-8.23.82l-2,.22v-.38ZM74.6,19.71l-.06-.3a18.42,18.42,0,0,0-2.35,0c-2.71.36-5.42.78-8.13,1.18-1.84.28-3.68.65-5.53.83-1.47.14-3,.06-4.45.07h-.3L54,21H51c-.09,0-.17.08-.26.12a12,12,0,0,1-2,.7c-1.42.27-2.85.48-4.29.61-2.58.23-5.17.34-7.75.59a5.81,5.81,0,0,0-1.64.73A27.64,27.64,0,0,0,40,24c3.52-.14,7-.34,10.57-.52s7-.42,10.54-.57A7.9,7.9,0,0,1,63,23.3c.74-.15,1.52-.32,2.31-.47a23,23,0,0,0,3-.58c1.69-.58,3.32-1.32,5-2Zm35.48,58.56.38.32a4.87,4.87,0,0,1,1.21-.6c2.22-.37,4.44-.65,6.66-1,1.34-.21,2.67-.56,4-.73,3.67-.46,7.34-.82,11-1.3,2.57-.34,5.12-.88,7.69-1.2,3.14-.4,6.12-1.74,9.36-1.52.21,0,.42-.17.64-.23a13.49,13.49,0,0,1,1.5-.34c.54-.08,1.08-.08,1.62-.12l0-.41a4.43,4.43,0,0,0-1.25-.26c-3.22.3-6.44.65-9.65,1-2.4.25-4.81.46-7.2.77q-5.31.69-10.62,1.51c-2,.31-4.12.61-6.14,1.08-2.77.64-5.51,1.41-8.24,2.19C110.71,77.52,110.42,78,110.08,78.27ZM39.78,32.36a9.67,9.67,0,0,0-2.45-.72,32.26,32.26,0,0,0-4.16.34,2.61,2.61,0,0,0-.69.25c.16.26.26.64.5.77,1,.56,2.12,1,3.19,1.57a1.09,1.09,0,0,0,.31,1.08c.87.48,1.79.86,2.7,1.26.13.06.31,0,.46,0a12.59,12.59,0,0,1,1.48-.32c.73-.08,1.47,0,2.2-.12s1.62-.39,2.44-.4c2.22,0,4.44.09,6.66,0,1.36,0,2.72-.31,4.09-.47-.49-1.82-1.91-.76-2.94-.94.45-1.44,2.66.19,2.66-1.59H46l-.45,1.28.63.31c-1-.12-1.73-.62-2.55-.75a14,14,0,0,0-2.56.16,13,13,0,0,1-1.65-.1Zm63.8,37,.08.36a17.21,17.21,0,0,0,1.76-.57c1.24-.57,1.19-1.81,1.33-2.89a3.63,3.63,0,0,0-.21-1.94,25.2,25.2,0,0,1-2-8.62,2.45,2.45,0,0,0-.69-1.27c-.78.24-2,.52-2.15,1a17.93,17.93,0,0,0-.11,4.2,1,1,0,0,0-.29.51,17.81,17.81,0,0,0,.41,7.65,1.48,1.48,0,0,0,1,1,9,9,0,0,0,2.17-.54l.16.21Zm-15.9-5.73a21.19,21.19,0,0,1,2-1.73c1.56-1.07,2.33-2.78,1.73-4.18a9.4,9.4,0,0,1-1-2.09c-.28-2.15-.92.3-1.55-.13s-1.91-.43-2.88-.63-3.09,1.65-2.88,2.68c.25,1.25.53,2.5.73,3.76a2.05,2.05,0,0,0,2.55,1.92A4,4,0,0,1,87.68,63.67Zm-3.25,94.77-.08-.38c-.65,0-1.3,0-2,0-3,.05-5.92.22-8.66-1.19A10.22,10.22,0,0,1,69,152.71c-1.15-2.24-2-4.65-3.15-6.86a22.44,22.44,0,0,1-2.25-10c-.06-1.38-.33-2.75-.5-4.13-.27.14-.33.27-.33.39q.28,6.24.59,12.47a2.11,2.11,0,0,0,.26.63c.92,2.08,1.79,4.2,2.8,6.23a23.58,23.58,0,0,0,3,5c.74.86,2.22,1.07,3.38,1.55,1.34.56,2.6,1.55,4.21.8.15-.07.42.12.64.17a7.85,7.85,0,0,0,2.14.44,28,28,0,0,0,3.62-.63A10.1,10.1,0,0,0,84.43,158.44ZM18.4,63.1l-.45,0a3.38,3.38,0,0,0-.17.75c0,2.74,0,5.47-.06,8.21,0,.73-.16,1.46-.15,2.19,0,1.56.12,3.12.15,4.68.06,2.32.06,4.65.16,7a1.21,1.21,0,0,0,.76.8,1.83,1.83,0,0,0,2.11-2.1l-.7.42V82.4a6,6,0,0,0,.92-.08c.06-.69,0-1.38,0-2.07h-.39l-.34,1.12-.35-.07.17-2.73A2.35,2.35,0,0,0,20,77.41c-.31-1.33-.6-2.65-.87-4-.13-.6-.19-1.22-.28-1.83.19-.54,0-1,0-1.48a14.59,14.59,0,0,0-.18-5.27A9.2,9.2,0,0,1,18.4,63.1ZM28,111l.44-.24q-.22-5.59-.47-11.21c0-1-.06-2.07-.16-3.09,0-.23-.33-.42-.51-.63-.16.21-.42.4-.46.63-.23,1.35-.41,2.71-.63,4.21a42.35,42.35,0,0,0,0-4.24,6.94,6.94,0,0,0-.9-2,10.46,10.46,0,0,0-.4,1.79c-.11,2.19-.22,4.38-.19,6.57,0,1.64.25,3.27.42,4.9a7.65,7.65,0,0,0,.35,1.19l.94-.44-.33.32Zm-.38-82.36a7.8,7.8,0,0,0-1.16,0,3.29,3.29,0,0,0-.76.31c.2.23.36.53.61.66.65.32,1.34.57,2,.83a1.88,1.88,0,0,0,.94.26c1.53-.3,3-.77,4.58-1,1.93-.28,3.88-.36,5.82-.56,3-.32,6-.64,8.92-1,.46-.06.86-.48,1.29-.73-.42-.22-.84-.65-1.25-.64-2.25.09-4.49.21-6.73.45a50.15,50.15,0,0,0-6.75.69A50.35,50.35,0,0,1,27.59,28.66ZM59.42,37c-2.18.38-3.85.64-5.5,1-.37.07-.68.43-1,.65l1,.44a3.51,3.51,0,0,1,.4.27c.88.59,1.74,1.25,2.67,1.75a7,7,0,0,0,1.69.35,9.09,9.09,0,0,0,2.64.58c.56,0,1.08-.79,1.61-1.22a6.05,6.05,0,0,1,.61-.54,9.1,9.1,0,0,1,.9-.4,9.62,9.62,0,0,0-.85-.84,5.28,5.28,0,0,0-.88-.47ZM22.28,65.2l-.55.1c-.05.08-.13.17-.12.26.24,3.22-.29,6.48.4,9.69a5.33,5.33,0,0,1,0,1.59c-.1.88-.26,1.75-.37,2.63,0,.1.12.22.17.34.18.4.53.81.51,1.2-.07,1.58-.28,3.15-.38,4.73-.06,1,0,2,0,3.43l2.19,2.62c-.13-1.05-.25-1.67-.28-2.3-.14-2.91-.24-5.82-.37-8.73-.09-2.14-.2-4.28-.31-6.42,0-.3-.09-.59-.1-.89-.09-1.44-.14-2.89-.27-4.32S22.44,66.51,22.28,65.2ZM54,79.76h-.25c0-.52.07-1,.13-1.54a38.18,38.18,0,0,0,.49-4.37c0-2.21-.31-4.42-.33-6.64,0-1.2,0-2.32-1.26-2.91-.19-.09-.45-.31-.55-.25a.73.73,0,0,0-.31.56c.09,1.42.23,2.84.35,4.26.18,2.07.41,4.13.51,6.2.11,2.64.1,5.29.16,7.93a2.26,2.26,0,0,0,.21.58h.3l.37-2.78.43,1.58h.31L55,78.7l-.47-.08Zm-32.5,23.1.18-.08c0,.86,0,1.71,0,2.57a2.28,2.28,0,0,0,.35.72c.16-.24.44-.48.46-.73.05-.93,0-1.87,0-2.66l1.49,1c0-1.73,0-3.2,0-4.66,0-1.66,0-3.33-.08-5,0-1-1.25-1.56-1.71-1.28l-.33,5.71a1.36,1.36,0,0,1-.57-1c0-1.59.12-3.17.12-4.76a3.91,3.91,0,0,0-.4-1.16,4.06,4.06,0,0,0-.46,1.22c0,.82.16,1.64.17,2.46a40.9,40.9,0,0,0,.1,4.83c.1.72,1.51,1.41-.28,1.82,0,0-.06.12-.05.18.16,1.11.33,2.23.5,3.34l.31,0Zm-1.85.66h.37a3.5,3.5,0,0,0,.09-.55q0-4,0-8c0-1.12,0-2.25,0-3.38S18.8,89.5,17.88,90l-.06-.91a2.54,2.54,0,0,0-.21,1.63,6.61,6.61,0,0,1,.21,1c-.14,1.84-.34,3.68-.49,5.52a1.13,1.13,0,0,0,.16.76c1.05,1.16.72,2.29,0,3.38l1.57,2,.43-4h.25ZM45.51,76c-.36-.48-.69-.72-.72-1a29.77,29.77,0,0,1-.12-3c0-2-.49-2.6-2.66-2.9V74H41.9l-.44-5.55c-1.39,1.85-1,7.57.12,8l.29-.77-.25.35c.52.51,1,1,1.56,1.53a3.61,3.61,0,0,0,.62.32c.34.21.66.45,1,.68.05-.39.09-.77.15-1.15,0,0,.11-.05.25-.1l.32.83Zm7.36,41.54c-1.53,1.44-.59,3.06-.47,4.59a28,28,0,0,1,.25,4.65c-.11,1.18.24,1.64,1.38,1.89a6,6,0,0,1,0-1.65c.11-.38.54-.68.82-1l.66,1-.26.17-.42-.67v3l.48,0c.12-1.73.24-3.46.35-5.19,0-.15-.09-.4-.18-.43-1.23-.35-.8-1.32-.82-2.13,0-1.7,0-3.4-.2-5.09a2.79,2.79,0,0,0-1-1.5c-.15-.14-1,.12-1,.3a15.08,15.08,0,0,0-.19,2.34ZM16.16,53.72a6.43,6.43,0,0,0,.15-1.44,23.15,23.15,0,0,1-.54-2.52c-.09-2.29.1-4.6-.13-6.87-.1-1-.23-2.54-2-2.65a8.77,8.77,0,0,0-.2,1.33c.05,3.07.2,6.14.15,9.2C13.56,52.55,14.7,53.07,16.16,53.72Zm-5.94,3.7c.39-.48.59-1,.87-1,1-.16.89-.74.8-1.46-.15-1.16-.23-2.33-.3-3.49-.09-1.67-.16-3.34-.23-5-.09-2-.15-4-.26-6A7.88,7.88,0,0,0,10.8,39l-.36.06v3.11H10.3l-.76-3.91c.13,3.86.1,7.69.16,11.53a6.09,6.09,0,0,0,.56,1.78C9.54,53.42,10.36,55.36,10.22,57.42Zm190.49,76.32a8.23,8.23,0,0,0-2.55-1,13.28,13.28,0,0,0-3.8.5c-3.17.86-6.26,2-9.46,2.71-1.54.33-1.93,1.44-2.76,2.37a3.6,3.6,0,0,0,1.45-.16c1.81-.57,3.61-1.18,5.42-1.77a40.1,40.1,0,0,1,5.44-1.68c1.11-.2,2.26-1.77,3.5-.21.07.09.38-.07.57,0,.48.09.95.24,1.64.42ZM15.93,84.1l.3-.08c0-1.66,0-3.32,0-5-.08-3-.16-6.11-.31-9.16-.09-1.82-.29-3.64-.51-5.44,0-.23-.43-.4-.66-.6a3.39,3.39,0,0,0-.31.93c0,1,0,2,0,3,0,1.36.07,2.71.11,4l-.26,2.63.39.09-.25.19a32,32,0,0,1,.05,8.12l.79-.17Zm32.39-3.3c.17-.69.37-1.37.52-2.06a13.39,13.39,0,0,0,.22-1.67c0-.77.08-1.56.07-2.34s.13-1.48-.21-1.89A12.08,12.08,0,0,0,46.54,71a1.77,1.77,0,0,0-.63-.17,2.83,2.83,0,0,0-.13.63c0,2,.14,4,.06,6.06S46.59,80.68,48.32,80.8ZM93.38,67.29l-.51.54c-1.39-1.8-1.73-2-3.08-1.68-.31.07-.54.46-.91.79a3.16,3.16,0,0,0-2.91,2,2.09,2.09,0,0,0,.14,1.74A2.54,2.54,0,0,0,87.9,71a16.89,16.89,0,0,0,2.28-.57C92.21,70,93.45,68.82,93.38,67.29Zm47.93,67.14c-.13-.38-.15-.57-.25-.67a24.88,24.88,0,0,0-2.53-2.4c-1.37-1-2.21-3.29-4.6-2.08a8.67,8.67,0,0,1-1.15.4,4.49,4.49,0,0,0,.71,1.14c2,1.77,4,3.52,6.13,5.19.3.24,1,0,1.47,0a4.58,4.58,0,0,0-.72-1,3.6,3.6,0,0,0-1.12-.45l.51-.49Zm39-118.2c.17,1.09.28,2,.44,2.83a.63.63,0,0,0,.37.41,16.53,16.53,0,0,0,3.45.84c1.53.06,2,.69,1.85,2.1,0,.19.71.66.75.63,1.37-1.28,2.48-.06,3.68.33,1,.33,2.1.57,3.15.86l.14-.47ZM162,20.57l0,.12c.92-.08,1.84-.14,2.76-.29a.84.84,0,0,0,.51-.63c-.09-1.46-1.3-1.09-2-1-4.68.69-9.35,1.49-14,2.29a4.52,4.52,0,0,0-1.19.62,5.13,5.13,0,0,0,1.41.26C153.62,21.53,157.8,21,162,20.57ZM55.53,148.85a28.69,28.69,0,0,1,0-3.08c.11-1,.46-2,.62-3a2.61,2.61,0,0,0-.24-1.1,5,5,0,0,1-.38-1.06c-.14-2.14-.23-4.28-.33-6.42,0-.12.07-.25.08-.37,0-.49.26-1.07.06-1.44s-.81-.32-1.41-.52c0,.11.08-.12,0-.24a9.31,9.31,0,0,0-.89-1.1c0-.05-.24.05-.36.09.11.31.22.61.31.93.18.66.33,1.32.53,2a4.35,4.35,0,0,0,.58,1.56c1.09,1.29,1,2.21-.41,2.81a2.83,2.83,0,0,0,.31.71c1.37,1.77.76,3.9.85,5.83,0,.94-.56,1.95-.5,3.11S54.67,149,55.53,148.85Zm13.77,16.2a4.3,4.3,0,0,0,4.24.76c2.13-.69,4.25-1.44,6.37-2.19a14.67,14.67,0,0,0,1.55-.74c-.59-.23-1.18-.47-1.78-.68a1.2,1.2,0,0,0-.5,0A32.13,32.13,0,0,0,69.3,165.05Zm25.94-4.4.53-1.57,1.29.58c.37.17.76.56,1.08.51,1.42-.24,2.82-.59,4.22-.9a2.12,2.12,0,0,0-1.45-.93,9.6,9.6,0,0,0-2.1.27l.56-.78-.24-.21-1.39,1.49v-.55c-.51-.14-1.06-.47-1.52-.38-2.71.5-5.4,1.08-8.09,1.68-1.18.26-2.35.63-3.78,1,1.32,1.39,2.45.28,3.52.07,1.22-.25,2.41-.63,3.62-.95l.11.35-1.27.59c2,.83,2.84-1.62,4.69-1.63l-.66,1.15Zm19.51-6.42a2.93,2.93,0,0,0-.78,0c-2.93.64-5.85,1.28-8.76,2-.29.07-.47.6-.7.92a12.84,12.84,0,0,0,3,1.19,10.59,10.59,0,0,0,3.17-.41,2.8,2.8,0,0,0,1.45-.51C113.06,156.44,113.86,155.34,114.75,154.23Zm9.75-90.3c0-.23.12-.5,0-.69-.3-.71-.67-1.4-1-2.1-1.14.76-3.12,0-3.61,1.85a7.74,7.74,0,0,0,0,2.84,5.24,5.24,0,0,0,1.71.14c.46,0,.92-.17,1.38-.18C124.2,65.76,124.88,65.29,124.5,63.93ZM42.1,58.8c-.13,2.79-.38,5.55-.27,8.3,0,.64,1.31,1.23,2,1.81.05,0,.43-.17.43-.26-.08-2-.18-4-.28-6C44.27,61.78,43.34,59,42.1,58.8Zm118.6,72.13.23-.36c1.38-.14,2.77-.25,4.15-.47.23,0,.63-.67.55-.82a4.94,4.94,0,0,0-4.2-1.8c-1.2.25-2.4.47-3.58.79-.2.06-.42.75-.4.77C158.52,129.7,159.61,130.31,160.7,130.93ZM30.31,140.59l-.42.18a3,3,0,0,0,.23,1.15,58.83,58.83,0,0,1,4,5.77c.9,1.71,3.23,2,3.6,4.14.05.26.88.38,1.34.57a4,4,0,0,0-.2-1.41,14.4,14.4,0,0,0-1.63-2.12c-.12-.13-.52,0-.79,0l.29-.32-1.27-1.07a2,2,0,0,1-.42-.39c-.66-1.1-1.23-2.28-2-3.31S31.23,141.64,30.31,140.59Zm125.92-4.76c.38,2.14-1.47,1.11-2.27,1.63-.07,0-.37-.24-.56-.39a29.76,29.76,0,0,0-2.5-2c-.18-.11-.73.35-1.1.54a4,4,0,0,0,.49.66c.91.82,1.81,1.65,2.78,2.38.53.41,1.25.94,1.81.86a22.7,22.7,0,0,0,4-1.13c.13-.05.22-.8.09-.89C158.13,136.92,157.23,136.43,156.23,135.83Zm-3.65-10.89c.39,1.39,2.48,2.79,3.39,2.21a6.24,6.24,0,0,1,4.1-.77c.25,0,.54-.52.81-.8-.79-.53-1.6-1.52-2.38-1.5A44.71,44.71,0,0,0,152.58,124.94ZM13.76,105.47l.49-.1a7.47,7.47,0,0,0,.09-.94c0-1.88-.05-3.76-.12-5.64Q14,92.7,13.7,86.62c0-.29-.32-.57-.49-.85-.13.27-.39.54-.38.81,0,1.25.17,2.49.24,3.74.12,2.29.26,4.58.32,6.87s0,4.65.09,7A6.81,6.81,0,0,0,13.76,105.47Zm105-45.8c.62-.2,1.19-.34,1.72-.57.91-.39,2.26-.64,2.56-1.32s-.18-2.06-.33-3.12l-3.45,1.14-.1-1.41-.4,0Zm-92.4-4.46c1.15-.28,1.22-2.41.25-5.39-.82,0-1.46.09-.88,1.17a1.43,1.43,0,0,1,.12.58c0,2.25,0,4.49,0,6.74a2.36,2.36,0,0,0,.19,1.24,21,21,0,0,0,1.78,2C28.14,59.52,28.21,57,26.38,55.21Zm-15.29,13c.24,2.06.43,3.81.66,5.54.12,1,.39,1.92.46,2.88.14,1.72.16,3.45.28,5.17,0,.25.35.48.54.71a2.18,2.18,0,0,0,.33-.82c0-2-.15-3.93-.19-5.89,0-1.07.09-2.15.05-3.22-.06-1.31-.21-2.61-.34-3.91a3.42,3.42,0,0,0-.28-.78l-.4,1.31ZM107.81,76l1-.18,7.76-1.71c.94-.2,1.89-.36,2.82-.62.24-.06.39-.43.59-.67-.27-.08-.56-.27-.81-.24-2.66.31-5.31.7-8,1C109.69,73.74,108.32,74,107.81,76Zm45.71,147.53c.08-1.67.18-3,.18-4.37,0-.16-.57-.52-.78-.46-1.4.4-2.77.87-4.14,1.35-.21.07-.53.3-.53.44a.88.88,0,0,0,.43.59C150.18,221.89,151.69,222.64,153.52,223.56ZM45.72,52.64c-.14,1.68-.28,3.23-.39,4.78a.59.59,0,0,0,.2.44,21.88,21.88,0,0,0,2.25,1.6c.15.08.85-.33.85-.52a18.14,18.14,0,0,0-.17-2.65c-.07-.61,0-1.38-.36-1.77A15.92,15.92,0,0,0,45.72,52.64Zm51.78,93.9H96.32a6.89,6.89,0,0,0,.55.82,5.64,5.64,0,0,0,.94.89c.71.48,1.42,1.35,1.92.7,1.24,0,2.07.11,2.9.07.18,0,.39-.41.49-.67,0-.09-.15-.33-.28-.44a21,21,0,0,1-1.87-1.63C100,145.22,98,145.42,97.5,146.54Zm98.25-34.3-.94,5.11-.53,0-.5-1.82a2.43,2.43,0,0,0-.34,1.3c-.12,1.09-.29,2.18-.41,3.27a9.45,9.45,0,0,0,0,1.19,3,3,0,0,0,1.07-.42c.47-.45.79-1.06,1.23-1.55a6.44,6.44,0,0,0,.66-6.84A1,1,0,0,0,195.75,112.24Zm-22.13,14.55.08-.51c-.65-.06-1.29-.16-1.94-.18a22.73,22.73,0,0,0-3.3,0A3,3,0,0,0,167,127c-.08.06.18.61.37.88,1.1,1.54,2.66,1.32,4.21,1a1,1,0,0,0,.57-.47c.05-.09-.22-.34-.32-.48Zm-.72-48.72-.43-.07a4.6,4.6,0,0,0-.28.84c-.29,3.27-.48,6.55-.87,9.81a2.19,2.19,0,0,0,1.58,2.7V78.07ZM64.22,44.18a2.48,2.48,0,0,0,3,1.26c1.3-.26,2.62-.36,3.94-.54l1.89-.28C71.6,42.9,66.44,42.73,64.22,44.18ZM177.79,16.29c-.08-.32,0-.84-.28-1.06a4.17,4.17,0,0,0-1.46-.77c-2.43-.86-4.87-1.69-7.31-2.51a2.11,2.11,0,0,0-.69.07,4.35,4.35,0,0,1,.35.63,3,3,0,0,1,.25,1,6.76,6.76,0,0,1-.31,1.31l2.3-.64A14.17,14.17,0,0,1,177.79,16.29ZM71.93,38.67a7.61,7.61,0,0,0-7-2.07c-.21,0-.52.29-.52.45a.83.83,0,0,0,.42.58c.83.48,1.68.91,2.53,1.35A4.43,4.43,0,0,0,71.93,38.67ZM38.71,119.94l-.5.47-3.27-3c-.1,1.38,2.5,3.9,4.31,4.53,0-1.1.12-2.21.13-3.32,0-.19-.28-.41-.47-.56-1-.85-2.08-1.68-3.14-2.49a4.07,4.07,0,0,0-.91-.38c0,.35-.2.86,0,1,.92.89,2,1.68,2.9,2.55A11.24,11.24,0,0,1,38.71,119.94ZM88.6,157.85c.68-.21,1.24-.41,1.82-.55,2.34-.54,4.68-1.06,7-1.61a1.65,1.65,0,0,0,.84-.48,2.39,2.39,0,0,0,.27-.88,3.27,3.27,0,0,0-.82-.06c-.84.17-1.68.35-2.5.59-2.21.65-4.42,1.32-6.61,2a.81.81,0,0,0-.4.58C88.2,157.57,88.48,157.74,88.6,157.85Zm90.63-131.4v-.1a.66.66,0,0,0-.2,0l-1.29.28c.1.24.14.62.3.69a4.07,4.07,0,0,0,1.11.1,6.47,6.47,0,0,1,.76.05,6.26,6.26,0,0,0,1.7.4c1.06-.08,2.11-.39,3.17-.53.72-.1,1.47-.06,2.19-.13a.73.73,0,0,0,.53-.35.64.64,0,0,0-.27-.54,11.88,11.88,0,0,0-3-.52C182.57,25.89,180.91,26.22,179.23,26.45ZM29.11,110h.36a5.17,5.17,0,0,0,.16-.74c.05-3.11.22-6.22.11-9.33-.09-2.68-.24-2.71-1.54-3.2Q28.65,103.34,29.11,110Zm141.23,14.48a.42.42,0,0,0-.11-.33c-1.11-.84-2.23-1.67-3.78-1.35-1,.21-2.08.31-3.11.5-.23,0-.56.21-.6.38a.84.84,0,0,0,.33.63c1,.88,4.24,1.27,5.41.72A16.87,16.87,0,0,1,170.34,124.44ZM128.85,22.74l.1-.43c-.82-.35-1.69-1.06-2.46-1-2.57.31-5.12.89-7.66,1.41a2.93,2.93,0,0,0-1,.62,5.25,5.25,0,0,0,1.33.24c1.37-.13,2.72-.4,4.09-.52C125.14,22.93,127,22.85,128.85,22.74ZM106.14,153.82l.1.17c.78-.47,1.58-.94,2.35-1.43.13-.09.17-.32.25-.48-.17-.06-.35-.2-.5-.17-2.45.49-4.89,1-7.33,1.52a12.85,12.85,0,0,0-1.91.78c.56.39,1,.95,1.35.89,1.34-.21,2.64-.62,4-.94C105,154,105.56,153.93,106.14,153.82ZM27.75,48.54c-.12.16-.47.41-.45.65q.15,3,.44,6c0,.22.32.45.54.61s.39,0,.42-.1c.37-.84,1.13-1.8.95-2.53C29.27,51.56,30.08,49.43,27.75,48.54ZM43.38,139.1l-.44.24c-.14.53-.11,1.22-.45,1.55-.71.7-1.68,1.21,0,1.78,0,0,.05.12.08.18.36.75.7,1.52,1.09,2.25.08.15.37.19.56.28a1.93,1.93,0,0,0,.24-.58,11.32,11.32,0,0,0,.15-3.06A11.46,11.46,0,0,0,43.38,139.1Zm136.77-11.74c.71,1.65,3.16-.39,3.39,2l4.34-3.39-.2-.32Zm5.48-66.56a3.46,3.46,0,0,0,.65.18c2.21-.28,4.41-.55,6.62-.86a1.63,1.63,0,0,0,.84-.44.81.81,0,0,0,.15-.71.78.78,0,0,0-.64-.37c-.16,0-.32.32-.46.52s-.15.3-.25.5c-.91-1.28-4.84-1.17-6.07.21h3.4V60ZM108.07,35.15a1.54,1.54,0,0,0,1.39,1.7,12.09,12.09,0,0,0,3.4.08,5.54,5.54,0,0,0,1.73-.81c-.68-.32-1.36-.66-2-1-.11,0-.26,0-.4,0ZM8.42,53.79C8,45.73,8.47,37.59,6.7,29.47Zm20.06,61.09c.33-3,0-3.73-1.32-3.56l-2-2C25.11,112.24,25.82,114.18,28.48,114.88ZM38.86,39.73l-.53.83a9.56,9.56,0,0,1,1.07.51c1.4.87,2.77,1.79,4.19,2.63A4.58,4.58,0,0,0,44.9,44c-.14-.56-.13-1.26-.47-1.65a6,6,0,0,0-2-1.43C41.29,40.45,40.06,40.13,38.86,39.73ZM16.14,89.52l.18,0A8.81,8.81,0,0,0,16,87.79c-.13-.28-.6-.41-.91-.61a4.11,4.11,0,0,0-.37,1c0,.73,0,1.45,0,2.18a20.34,20.34,0,0,0,.17,2.82c.06.38.51.7.79,1a3.42,3.42,0,0,0,.47-1C16.18,92,16.14,90.75,16.14,89.52ZM28.65,33.78l-.24.39a6.45,6.45,0,0,0,.84.74c2.34,1.39,4.7,2.78,7.06,4.14a4.06,4.06,0,0,0,1,.28c-.14-.39-.17-1-.45-1.14-2.07-1.19-4.19-2.29-6.3-3.42C29.93,34.43,29.29,34.11,28.65,33.78ZM41.13,67.62c.16-.29.3-.43.3-.56-.07-2.55-.13-5.11-.26-7.66,0-.25-.45-.48-.69-.72-.13.28-.38.57-.36.84.09,1.59.58,3.25.29,4.77C40.17,65.6,40.76,66.41,41.13,67.62ZM59.22,47.78l-.26.29c.13.21.21.53.4.62,1.13.52,1.35,1.1.3,2-.1.07.21.94.35,1a13.93,13.93,0,0,0,3-.15c.52-.09,1.21-.54.32-1.13C62,49.44,60.58,48.62,59.22,47.78Zm-9.89-4.94c.09-.81-.63-1.3-1.48-1.48-.23,0-.68.62-.93,1a4,4,0,0,0-.29,1c-.49,1.91-.13,2.59,1.69,3.26.3.11.57.31.88.41a3.87,3.87,0,0,0,.77.07c0-.33.2-.78.05-1a3.43,3.43,0,0,0-1.24-1c-.72-.32-1.54-.48-1.32-1.56.09-.42.15-1.14.36-1.19C48.22,42.4,48.71,42.68,49.33,42.84ZM23.17,39.76A3.44,3.44,0,0,0,22,35.89c-.71-.47-1.42-.94-2.15-1.39a.84.84,0,0,0-.53-.11c-.09,0-.21.27-.19.4a21.08,21.08,0,0,0,.52,2.51c.1.31.51.55.83.73.1.06.36-.15.54-.26s.55-.48.68-.42a1.93,1.93,0,0,1,.8.75A15.48,15.48,0,0,1,23.17,39.76ZM16,58.15a16.1,16.1,0,0,1,.21-1.75c.34-1.57-.91-2.17-1.79-3a.78.78,0,0,0-.65.26C13,55.78,13.73,57.26,16,58.15Zm97.36,26.47-.91.95-.47.51a2.1,2.1,0,0,0,.69.21c1.51-.18,3-.32,4.52-.62a3.1,3.1,0,0,0,1.38-1c.1-.11-.15-.83-.34-.88a3.34,3.34,0,0,0-1.54,0,1.8,1.8,0,0,0-.82.67A1.65,1.65,0,0,1,113.35,84.62Zm-82,19.4.41,0a12.86,12.86,0,0,0-.28-3.19c-.26-.76.55-2.18-1.38-2.29,0,2,0,3.92,0,5.87,0,1-.56,2.47,1.59,2.43a13,13,0,0,1-.9-2.32,15.72,15.72,0,0,1,0-2.66h.29ZM184,124.5l-.09-.4c-.34,0-.67,0-1,0-1.78.14-3.57.26-5.35.46a6.26,6.26,0,0,0-1.44.57,15.44,15.44,0,0,0,1.61,1c.2.09.52,0,.78-.08,1.42-.31,2.85-.61,4.26-1A8.52,8.52,0,0,0,184,124.5ZM200.9,38a6.22,6.22,0,0,0,.19,1,18.15,18.15,0,0,1,1.27,3.21c.26,1.45.93,2.94-.31,4.43a17,17,0,0,0-1.79,3.51C203.53,48.68,204.05,40.55,200.9,38ZM169.14,20.14v0c.67,0,1.33,0,2,0,.22,0,.43-.22.65-.34-.18-.2-.31-.5-.53-.59a23.82,23.82,0,0,0-2.52-.92c-.43-.13-1.15-.3-1.31-.1a6.69,6.69,0,0,0-.75,1.77c.45.08.91.17,1.37.22S168.77,20.14,169.14,20.14ZM78.28,44.3a7.43,7.43,0,0,0,1.42-.64,2.09,2.09,0,0,0,.68-1c0-.13-.37-.6-.57-.6-1.19,0-2.37.06-3.55.17-.09,0-.27.67-.19.72C76.77,43.43,77.51,43.85,78.28,44.3Zm98.92,72.6a3.51,3.51,0,0,0,4.16,1.65C181.23,116.64,179.27,115.34,177.2,116.9ZM42.26,56.11c2.21-1.35,2.21-1.63.39-3.79.21-.23.59-.5.54-.63A13.06,13.06,0,0,0,42.45,50l-.68.2C41.92,52.11,42.08,54,42.26,56.11Zm88,88.22,2.31.65.16-.37c-.59-.38-1.21-1.12-1.77-1.07a12.66,12.66,0,0,0-3.52,1c-.2.07-.36.87-.2,1.17.65,1.31,1.54.2,2.29.05C129.81,145.69,129.94,145,130.28,144.33ZM16.54,101.43a19.64,19.64,0,0,1-.35-3.14,22.18,22.18,0,0,1,.6-2.47,1,1,0,0,0-.42-.86A3.86,3.86,0,0,0,15,94.79c.19.68.63,1.35.46,1.74C14.72,98.29,14.68,99.84,16.54,101.43Zm9.9-37.49-.39.18A5.86,5.86,0,0,0,27,65.37a19.21,19.21,0,0,0,1.88,1.09,5.2,5.2,0,0,1,.7.64c.06-.34.15-.67.19-1a3.29,3.29,0,0,0,0-1c-.22-1.11-.18-2.42-1.88-2.57l1.21,2.53ZM128.64,131c2.21,2.21,4.24,4.24,6.26,6.28C134.75,135.38,130.2,131,128.64,131Zm-2.35-32.8c-.33-.86-.64-1.72-1-2.56-.08-.17-.4-.23-.6-.34.15-.27.32-.53.47-.8l.57-1a7.71,7.71,0,0,0-1.59,0c-.11,0-.2.71-.13,1.06.14.78.49,1.54.56,2.33a5.38,5.38,0,0,1-.3,1.62ZM34.55,41.54l-.35.35,1.54,1-.25.26L32.88,42l-.26.45,5.28,3.36.3-.22c-.26-.31-.51-.62-.77-.92s-.94-.73-.9-1C36.73,41.87,35.27,42.14,34.55,41.54Zm114,38.79-.06-.18a8,8,0,0,0-1.8.63c-.31.2-.38.78-.56,1.19.36.13.73.41,1.06.37a12.56,12.56,0,0,0,2.4-.59c.23-.08.54-.5.49-.69a1.26,1.26,0,0,0-.65-.75C149.22,80.2,148.87,80.32,148.57,80.33ZM42.88,148.22c-.78,2.3,0,4.55,1.84,5.09C45,152,43.87,148.73,42.88,148.22Zm154.91-44.61-.37,0c-.17,2.16-.36,4.32-.5,6.49,0,.22.19.49.36.69a3.23,3.23,0,0,0,.57.45c.11-.22.32-.44.32-.65-.07-1.8-.18-3.61-.28-5.41C197.86,104.64,197.82,104.12,197.79,103.61ZM44.48,138.5c.6-2.28.41-2.82-1.45-4.07a.58.58,0,0,0-.52-.06.68.68,0,0,0-.16.53C42.5,136.4,42.69,137.89,44.48,138.5Zm98.16-10-.29.33c2,2,3.74,4.14,6.36,5.3l.37-.44ZM161,14.1a11.09,11.09,0,0,0,2.28-.63c.34-.18.45-.86.55-1.33a1.3,1.3,0,0,0-.89-.39,14.87,14.87,0,0,0-2.23,1.18,4.53,4.53,0,0,0-.84.8ZM115.12,145.41c-1.35-.83-2.6-1.61-3.86-2.35-.09-.06-.4.08-.46.2a.65.65,0,0,0,0,.54c.11.19.39.29.49.48C112.53,146.54,112.66,146.59,115.12,145.41Zm78.46-15.67-6,2.91.19.45,7-2.44Zm-126.35-79-.21.46a7.09,7.09,0,0,0,1.49-.4.92.92,0,0,0,.12-.83c-1.38-1-2.8-2-4.24-3-.18-.11-.53,0-.79,0,.12.23.19.53.38.68.38.31.89.49,1.23.83C65.92,49.22,66.56,50,67.23,50.75Zm-38,11.36a5.07,5.07,0,0,0-.8-5.51C27.83,58.12,28.32,61.47,29.24,62.11ZM11.09,66.8l.63-.11a22.29,22.29,0,0,1-.43-2.53c-.1-1.7-.08-3.41-.15-5.11,0-.23-.29-.45-.45-.67-.12.22-.36.46-.35.67.15,1.93.34,3.85.53,5.78C10.93,65.48,11,66.14,11.09,66.8ZM124,137.49c-.17-.32-.19-.44-.26-.5-1.44-1.23-2.89-2.47-4.35-3.69a.73.73,0,0,0-.5,0c-.05.24-.15.61,0,.72,1.38,1.22,2.78,2.41,4.22,3.57C123.21,137.69,123.6,137.53,124,137.49Zm18.64-11.28-.49.7,5.28,3.89.46-.61ZM50.92,78.12c0,1.33,0,2.64,0,3.94a2.58,2.58,0,0,0,.33.84c.25-.13.6-.2.73-.4a1.31,1.31,0,0,0,.08-.88,13.7,13.7,0,0,0-.49-1.43l.95.68C52,79.76,53.1,78.29,50.92,78.12Zm102.24,41.6c-1.32.21-2.27.33-3.2.53-.26,0-.47.34-.7.52.3.12.61.36.9.34.88,0,1.75-.18,2.63-.29l2-.28Zm38.8-.93c-.8-.14-1.47-.28-2.14-.38-.35,0-.71,0-1.07-.07a15.25,15.25,0,0,0,.1,2,1.5,1.5,0,0,0,1,.11,21,21,0,0,0,2.07-.88ZM45.32,131.14c-.68-.71-1.36-1.44-2.09-2.12a1.24,1.24,0,0,0-.7.51c-.47,1.23.79,1.59,1.29,2.33.17.26.59.35.9.52ZM177.89,27.72c-.68-.56-1-1.08-1.31-1a31.55,31.55,0,0,0-3.58.85c-.16.05-.3.42-.3.64s.34.37.5.35C174.62,28.31,176,28.05,177.89,27.72ZM119.12,71l4.35-.84c-.72-1-2.47.71-2.26-1.26C119.12,68,119.85,70.24,119.12,71ZM126,83.87l-.26-.51c-.79.19-1.57.43-2.37.55-.65.1-1.34,0-2,.11-.28,0-.49.42-.73.64.17.17.38.51.53.48,1.23-.17,2.45-.37,3.66-.64A5.07,5.07,0,0,0,126,83.87ZM38.4,124.71l-.52.07c-.17.33-.49.67-.47,1,0,1,.19,2,.32,3.06a2.82,2.82,0,0,0,.25.64l.29-.05v-2.66l1,.83.43-.29ZM8.92,64.07c.76-1.53-.08-9.32-.61-9.55ZM83.58,27.14l4.2,1.58C86.9,26.47,85.54,26,83.58,27.14ZM168,95.31a7.09,7.09,0,0,0,0,1.21,3.51,3.51,0,0,0,.4.86c.18-.24.48-.47.52-.73a30.79,30.79,0,0,0,.29-3.18c0-.24-.28-.48-.43-.73-.23.2-.61.36-.66.6A14.84,14.84,0,0,0,168,95.31ZM89.44,29l-.35.69,1.73.78a3.17,3.17,0,0,1,.47.27c.83.57,1.64,1.17,2.49,1.71.12.07.41-.13.63-.21a2.54,2.54,0,0,0-.35-.49,12,12,0,0,0-1.39-1C91.61,30.19,90.52,29.62,89.44,29Zm12.92,108.08c.11-1.43-2.86-4.12-4.65-3.84Zm71.06-40.17c0-1,.21-1.72-.06-2.22s-1-.78-1.55-1.11a1.24,1.24,0,0,0-.42.56C171.08,95.57,172.22,96,173.42,96.94ZM27.77,46l.57-.16c-.17-1.5-.33-3-.53-4.51,0-.16-.31-.29-.47-.44-.12.25-.35.49-.34.73a25.07,25.07,0,0,0,.24,2.86A8.57,8.57,0,0,0,27.77,46ZM137,21.48c-1.79,0-3.18,0-4.58,0a1.46,1.46,0,0,0-.74.25,1.93,1.93,0,0,0-.41.48c.2.13.39.35.6.36a16.56,16.56,0,0,0,3.15,0A7.42,7.42,0,0,0,137,21.48ZM117,142.94l-1.76,1.11a7.12,7.12,0,0,0,1.92,1.29c.32.09.89-.61,1.35-1ZM18.94,47.09c-.26-1.55-.43-2.7-.67-3.84,0-.09-.52-.08-.79-.12a22.08,22.08,0,0,0,0,3C17.47,46.45,18.19,46.65,18.94,47.09ZM48.25,150.37l.51-.07c.51-3,.34-4.23-.93-5.13ZM9.69,78.28l.57.28c.19-.46.57-.94.53-1.38-.2-2-.54-4-.77-6a20,20,0,0,1,0-2.32l-.56,0c.07.61.16,1.22.21,1.83.16,1.68.22,3.38.5,5C10.33,76.69,10.85,77.56,9.69,78.28Zm163.9,45.37c1.11-.11,1.94-.15,2.75-.31.29-.06.52-.42.78-.64-.33-.15-.67-.44-1-.42a14.58,14.58,0,0,0-2.35.32,2.62,2.62,0,0,0-.73.4ZM45.05,31.55c-1.34,0-2.56,0-3.77,0-.18,0-.37.41-.49.66,0,.08.2.39.23.38a6.08,6.08,0,0,1,.6-.34,1.93,1.93,0,0,1,.68,0C43.21,32.34,44.25,33.06,45.05,31.55Zm8.21,28.07c-1.17.62-1.08,1.08.9,4.4ZM30.38,107.46a18.26,18.26,0,0,0-.11,2.14,4.64,4.64,0,0,0,.4,1.19l1-.38-.44-1.06C32.22,108.68,32.07,108.23,30.38,107.46Zm173-79.92c.43,1.67,1.74,2.45,3,1.94.16-.07.42-.23.42-.34a.74.74,0,0,0-.3-.55C205.5,28.22,204.47,27.9,203.36,27.54ZM21,56.51h.69l-.45-7.22H21ZM194.09,87.15c0,.7-.17,1.27,0,1.58a4.62,4.62,0,0,0,1.4,1.09.72.72,0,0,0,.49-.13,4.3,4.3,0,0,0-.26-2C195.52,87.34,194.71,87.34,194.09,87.15ZM39,147.57c1.2-2.36-.45-2.9-1.67-3.68l-.38.22ZM167.8,72.1c-.71-.71-3.38-.89-3.81-.42a.83.83,0,0,0-.15.71.69.69,0,0,0,.58.34C165.49,72.57,166.56,72.34,167.8,72.1Zm1,18.77h.54c0-1.21,0-2.43,0-3.65,0-.24-.23-.47-.36-.7a3.11,3.11,0,0,0-.5.83c-.08.4.16,1-.05,1.22C167.4,89.6,168.15,90.21,168.8,90.87ZM123.53,150l-.12-.69-5,1.09.15.67Zm14.9-8.12c-.12,1,.39,1.26,1.24,1,.67-.18,1.35-.34,2-.57.21-.07.34-.34.51-.51-.24-.12-.5-.34-.73-.32C140.46,141.57,139.48,141.73,138.43,141.86Zm19.34-50.48c-1,.32-1.91.57-2.77.9-.16.07-.21.5-.25.77,0,0,.31.24.44.21a25.44,25.44,0,0,0,2.59-.72,1.17,1.17,0,0,0,.53-.73C158.34,91.72,157.92,91.5,157.77,91.38Zm39.54,30.21-3.57,4.4C195.28,125.89,197.33,123.33,197.31,121.59ZM30.76,73.53c-.81,2-.47,6.14.64,6.72C31.19,78,31,75.69,30.76,73.53ZM183.82,42.2l0-.51-4.63.5a.38.38,0,0,0-.25.15c-.09.13-.2.3-.16.42a.44.44,0,0,0,.37.23C180.67,42.74,182.24,42.47,183.82,42.2Zm-88,64.55c.55.52.83.93,1.21,1.07.17.07.82-.49.78-.61a16.59,16.59,0,0,0-.9-2Zm60.57,25.05c.2-1.17-1.11-2.82-2.14-2.82-.22,0-.45.18-.68.28.11.22.16.51.34.65C154.67,130.54,155.48,131.13,156.37,131.8Zm-63.63,7.53c-.44-.58-.66-1.09-1-1.32a3.22,3.22,0,0,0-1.44-.26c-.08,0-.31.45-.26.51a8.61,8.61,0,0,0,1.54,1.59C91.71,140,92.28,139.54,92.74,139.33Zm29.11-7-.41.38a10.48,10.48,0,0,0,4.79,3.53ZM107.46,100l-1.2-1.27c-.28.4-.81.85-.76,1.2s.59.9.92,1.34ZM48.13,143.06l.65,0a2.51,2.51,0,0,0,.24-.75c-.08-1-.21-1.93-.34-2.88a.56.56,0,0,0-.34-.27c-.17.13-.42.31-.42.47C48,140.8,48.05,141.93,48.13,143.06Zm58-4.57c1,1.73,2.56,2.81,3.34,2.33l-2.26-2.44ZM97.56,100.6a2.27,2.27,0,0,0-.07-.79,3.7,3.7,0,0,0-.64-.68,3,3,0,0,0-.55.75,4.56,4.56,0,0,0-.17,1.37,2.41,2.41,0,0,0,.34.8,3.59,3.59,0,0,0,1-.57C97.64,101.31,97.55,100.9,97.56,100.6ZM56.43,50.75l.23-.46c-1.09-.68-2.18-1.37-3.31-2-.17-.1-.53.1-.79.2,0,0,0,.4.06.44C53.89,49.55,55.16,50.14,56.43,50.75ZM160,50.1c0-1.72,0-3,0-4.28,0-.16-.51-.35-.81-.41-.08,0-.4.45-.36.62C159.11,47.26,159.5,48.47,160,50.1ZM21.68,118.7l-.3-1.26-.45,0,.25,3.1,1-1.31.49.79L23,120l-.41-2Zm109.48,9.69.11.71c.95,0,1.91,0,2.84-.18.28,0,.52-.44.73-.72,0,0-.16-.37-.22-.36C133.46,128,132.31,128.2,131.16,128.39ZM14.45,121.58h.37V117h-.37ZM165.22,94.39l-.53-.62a3.56,3.56,0,0,0-.44.87A16.31,16.31,0,0,0,164,97c0,.26.26.53.4.79.2-.2.54-.38.58-.6C165.1,96.33,165.13,95.5,165.22,94.39ZM109.9,152.33l4.39-.56C113.76,150.8,110.89,151.06,109.9,152.33Zm27.52-56.86c.42.32.73.71.89.66a19.79,19.79,0,0,0,1.93-.89,9,9,0,0,0-1.83-.81C138.2,94.39,137.86,95,137.42,95.47Zm10.28,45.8-.11-.69c-1.28.16-2.56.32-3.83.51-.12,0-.25.29-.29.46s.23.28.34.26C145.11,141.65,146.4,141.45,147.7,141.27ZM16,123.35l.56,0v-4.45H16Zm89,15.28c-.22.15-.49.24-.5.36a.75.75,0,0,0,.24.57c.63.48,1.28.94,2,1.37a8.65,8.65,0,0,0,1.11.52c-.2-.33-.4-.67-.61-1a2.08,2.08,0,0,0-.37-.46C106.23,139.53,105.62,139.09,105,138.63Zm9.12-2.4-.46.53c1,.82,1.9,1.65,2.87,2.46,0,0,.35-.11.38-.21s.1-.56,0-.65C116,137.63,115.05,136.93,114.12,136.23Zm-77.42-8c.5-1.1.41-1.29-1.22-2.55C34.54,126.56,34.89,127.29,36.7,128.26ZM179.86,29.19c.34.23.46.37.57.37,1.42-.07,2.84-.15,4.26-.26.14,0,.26-.3.38-.45-.22-.1-.45-.3-.66-.28C183,28.74,181.55,29,179.86,29.19ZM125.17,101l-.35.29c.05.72.06,1.45.17,2.16a1.12,1.12,0,0,0,.52.62.67.67,0,0,0,.53-.12,5.05,5.05,0,0,0,0-1.73C126,101.76,125.49,101.4,125.17,101ZM39.46,19.74l.1.65,4.72-.74-.08-.53ZM86.72,134.09l-.47.52c.84.79,1.66,1.6,2.52,2.36.06.06.4-.06.49-.19s.11-.45,0-.53C88.44,135.51,87.58,134.81,86.72,134.09ZM46.9,156.25,49,158.81l.18-3ZM24,107.09c0-.76,0-1.53,0-2.28,0-.17-.36-.42-.57-.43a.71.71,0,0,0-.52.44C22.63,105.88,22.66,106.83,24,107.09ZM135.62,24.71c1-.35,1.85-.65,2.69-1,.1,0,.13-.27.19-.41a1.71,1.71,0,0,0-.57-.23c-1,0-2,0-3,0a4,4,0,0,0-.78.31l1.57.27ZM27.86,128.43c1-1.18.39-3.06-1.39-3.84Zm92-.44c.07-.4.24-.76.14-.86-.81-.8-1.65-1.56-2.51-2.3-.09-.07-.35.06-.52.1,0,.17,0,.39.15.5.64.66,1.29,1.3,2,1.93C119.22,127.54,119.44,127.68,119.83,128Zm-106-14.88c1.64-1.33,1-2.67,0-4.36ZM91.59,100a4.63,4.63,0,0,0,.25.46,8.27,8.27,0,0,1,.51-.66c.33-.35.68-.68,1-1l.52-.54c-.24-.12-.5-.35-.72-.32C92.22,98.09,91.43,98.44,91.59,100Zm2.19,49.47c-.71-.79-1.37-1.55-2.07-2.27-.11-.12-.41,0-.63-.06a1.72,1.72,0,0,0,.11.7c.29.47.8.84,1,1.33C92.48,150.23,93,150.15,93.78,149.49ZM44.42,135.13l.63-.58c-.61-.69-1.21-1.4-1.85-2.07-.13-.14-.39-.16-.59-.24-.07.23-.28.58-.19.68C43.05,133.69,43.75,134.4,44.42,135.13Zm22.76-31.49-.57-.06-.35,5,.48,0Zm26.31,14.3-.15-.47c-.84.16-1.69.29-2.52.51-.21.06-.34.43-.51.65.25.16.57.51.73.45C91.88,118.76,92.68,118.33,93.49,117.94ZM94,92.63a3.67,3.67,0,0,0,4.42-.91Zm47.54,44.26c.44,2.1,1.53,1.87,2.81,1.18Zm26.18-91.72.19.53,4.24-1.19-.18-.59Zm-148,74.56V116C18.66,117.45,18.75,119.14,19.64,119.73ZM126.29,60.39c-.3-2.25-.6-4.51-.88-6.64C124.61,56,125.46,58.2,126.29,60.39ZM17.62,103.56l-.47.16,1.6,3.68.14-.12-.25-3.58-.8.53Zm17.7,18.7-.66.5,2,2.82c.11-.64.31-1,.19-1.23C36.42,123.61,35.85,123,35.32,122.26Zm79.57-21.39.84-.07c0-.79,0-1.57,0-2.36,0-.15-.28-.36-.47-.42s-.47.15-.47.23C114.78,99.12,114.84,100,114.89,100.87ZM17.17,33.73l.36-.19a6.54,6.54,0,0,0-.64-.74s-.5.26-.48.35c.16.93.37,1.85.61,2.76,0,.1.33.12.5.18.07-.2.21-.43.17-.61C17.55,34.89,17.35,34.31,17.17,33.73ZM23.87,36l.33-.73L20.93,34l-.22.49Zm167.48,79.26c.3-.94.31-1-1.26-1.76a2.68,2.68,0,0,0-1-.08c.18.38.27.88.56,1.09A8.26,8.26,0,0,0,191.35,115.24ZM131.27,85.76c-2,.63-2,.63-2,1.56C131.21,87.6,131.76,87.18,131.27,85.76ZM36.16,129.47c.38.79.71,1.53,1.11,2.24.1.17.42.22.63.32a2.71,2.71,0,0,0,.39-.85,1,1,0,0,0-.27-.77A19.6,19.6,0,0,0,36.16,129.47Zm93-28.76-.68,0c-.07.81-.16,1.62-.18,2.43a.61.61,0,0,0,.39.46c.16,0,.49-.21.5-.34C129.17,102.43,129.13,101.57,129.11,100.71Zm6.58-16.63c.24-.28.56-.5.59-.75s-.37-.64-.46-.62c-.71.22-1.38.52-2.06.8ZM201.18,116l-.17-.08c-.18,1.53-.37,3.06-.53,4.59,0,.1.26.23.39.34a1.94,1.94,0,0,0,.3-.66C201.2,118.8,201.18,117.4,201.18,116ZM43,124.29c-.32,1.27.77,2.67,1.71,2.57.16,0,.44-.58.39-.63C44.49,125.6,43.81,125,43,124.29Zm119.82,13.22,1.89-1.26-1.64-.21a.61.61,0,0,0-.3,0c-.32.16-.63.33-.94.5ZM139.61,86.23l1.47-1c-.2-.2-.47-.61-.58-.57a18.08,18.08,0,0,0-1.84.86ZM210.75,48.3l.14-.06V43.16h-.14ZM35.87,131c-.82,1.1-.53,3.41.37,3.86ZM14.41,114.57l-.52-.31a2.88,2.88,0,0,0-.2.92.82.82,0,0,0,.45.63c.21,0,.71-.15.73-.28.1-.9.11-1.8.16-2.71h-.47Zm78.82,21c-.83-.66-1.47-1.19-2.14-1.66-.07-.05-.37.21-.56.33.63.59,1.25,1.19,1.9,1.75C92.48,136.07,92.76,135.85,93.23,135.6ZM32.06,93.76l.26,3.83C33.47,97,33.46,96.79,32.06,93.76ZM89.37,148l-.47.52c.76.67,1.51,1.35,2.29,2,.06.05.39-.07.4-.15s.06-.53-.06-.63C90.83,149.11,90.09,148.55,89.37,148Zm-57-36.66.27,0v-5.64h-.27ZM177.75,29.46c-1.72-.88-2.51-.6-2.5.78Zm13.87,93.41.32-.14c-.54-.48-1.05-1-1.63-1.44a1.07,1.07,0,0,0-.83,0,.61.61,0,0,0-.19.56,1.26,1.26,0,0,0,.62.54C190.46,122.57,191.05,122.7,191.62,122.87Zm-50-23.73v2c.34,0,.82.05,1-.15C143.84,99.71,141.73,99.92,141.58,99.14Zm-2.34,13.44,0,.64,3.71-.32,0-.53Zm33.24-69.11.15.68c.71-.1,1.44-.17,2.14-.32.15,0,.31-.34.34-.54s-.28-.36-.39-.33C174,43.1,173.22,43.3,172.48,43.47ZM23.75,77.06l.54,0-.35-4.48-.19,0Zm99,18.69-.62,0c-.1,1.15-.21,2.3-.31,3.45l.69,0Zm13.28,48.47,1.18-1.08a4.32,4.32,0,0,0-1.13-.76c-.17,0-.7.39-.7.6S135.74,143.64,136.07,144.22Zm-30.72,3.83.1-.37c-.8-.6-1.58-1.22-2.4-1.81-.11-.08-.35,0-.53,0,0,.17,0,.4.13.5a15.91,15.91,0,0,0,1.68,1.51C104.58,148.08,105,148,105.35,148.05ZM151.7,23.51l0-.12a3.51,3.51,0,0,0-1,.12c-.19.07-.3.37-.45.56.24.1.51.32.73.28a20.88,20.88,0,0,0,2.47-.53c.2-.05.33-.31.49-.48a1.77,1.77,0,0,0-.59-.17C152.8,23.25,152.25,23.39,151.7,23.51Zm48.17,14.76-.2-.35-1.06-.08a4.17,4.17,0,0,0-1.17,0c-.25.06-.45.36-.67.55a2.31,2.31,0,0,0,.67.33,4.93,4.93,0,0,0,1.43,0A3.86,3.86,0,0,0,199.87,38.27Zm-40.4-5.53c-2.26-.73-2.27-.88-2.94.71ZM28.07,117.61l.48-.49-2-2c-.11.22-.37.56-.31.63C26.83,116.41,27.46,117,28.07,117.61Zm77.57-23.53.71-.43,1-.79c-.24-.25-.55-.74-.68-.7a2.4,2.4,0,0,0-1.24.79C105.26,93.17,105.55,93.69,105.64,94.08ZM164.1,26.51l0-.47c-.87,0-1.74,0-2.61,0-.22,0-.42.29-.63.45.24.12.49.37.71.35C162.45,26.8,163.27,26.64,164.1,26.51Zm-13.19,101,.66-.61c-.59-.47-1.17-1-1.79-1.38-.09,0-.42.26-.64.4Zm-14.46-32.7-.79-.61c-.37.56-.74,1.11-1.07,1.69,0,0,.44.41.45.4C135.53,95.85,136,95.35,136.45,94.85ZM70.12,74.51l.22.48,4-1.91a5.23,5.23,0,0,0-2.17.46C71.45,73.82,70.79,74.18,70.12,74.51ZM17.9,41.71c.75-.77.36-2.62-.45-2.81-.14,0-.53.32-.51.39C17.22,40.07,17.55,40.84,17.9,41.71ZM128.69,83l-2.22,1a2.79,2.79,0,0,0,1.67.24c.32,0,.65-.09,1-.14ZM13.2,31.06l-1.68,1.46,2.08,1Zm31.66,94,.52-.48-2.07-2-.48.47ZM75.65,73.31c1.35-1.46,3.07-2.56,2.85-4.56Zm27.49,7,.13.26,2.9-.41-.78-1ZM132,30.54a8.21,8.21,0,0,0,1.66,1c.22.07.65-.31.86-.58.07-.09-.25-.7-.4-.7A15.09,15.09,0,0,0,132,30.54ZM116.27,87.65l-2,1.09c.18.14.42.43.54.39.64-.22,1.26-.53,1.88-.81ZM141,81.51l-2.31,1.19c.16.18.39.53.46.5a18.7,18.7,0,0,0,2.05-1A2.76,2.76,0,0,0,141,81.51Zm-6,21.19.51,0c.07-.77.15-1.53.17-2.3,0-.15-.28-.3-.42-.44-.13.13-.36.27-.36.41C134.88,101.16,134.94,101.93,135,102.7ZM89.46,140.46l.42-.41c-.46-.53-.9-1.09-1.4-1.58-.12-.13-.43-.09-.65-.07-.06,0-.17.28-.14.32C88.27,139.31,88.87,139.88,89.46,140.46ZM82.28,173.4,82,174l3.12,1.36.17-.37Zm142.85,20.52,0-.36a4,4,0,0,0-1.33-.28c-.29,0-.54.46-.8.71.3.13.61.4.9.37A5.49,5.49,0,0,0,225.13,193.92ZM46.84,132.1l-.45,0L46,134.6c.6-.27,1.23-.44,1.22-.57A13.43,13.43,0,0,0,46.84,132.1ZM188.53,95.45l-.46.61c.56.42,1.12.84,1.7,1.22,0,0,.31-.27.47-.42ZM11.39,58.18c.07.77.1,1.48.21,2.19,0,.09.49.23.57.16C12.71,60,12.27,58.6,11.39,58.18ZM127.13,197.39c-.69-.6-1.11-1-1.58-1.34a1.6,1.6,0,0,0-.79-.2.7.7,0,0,0-.15.52,1.22,1.22,0,0,0,.55.61A16.22,16.22,0,0,0,127.13,197.39ZM22.05,110h.56c-.06-1-.11-2-.2-3,0-.07-.28-.19-.38-.16a.47.47,0,0,0-.28.35C21.83,108.16,21.94,109.1,22.05,110Zm218.28,77.83c1.12-.67,3.07-.27,3.11-2.3ZM125.26,86.68l-1.15.89a3.49,3.49,0,0,0,1.16.32c.34,0,.64-.34,1-.54Zm33.55-72-2.45,1.13c.77.14,1.38.44,1.8.26S158.58,15.2,158.81,14.67ZM170,68.07l-.08-.57-2.78.2.06.61Zm-33.11,24c-.58-.32-.86-.6-1-.54a4.92,4.92,0,0,0-1,.66c.25.24.51.7.73.68S136.2,92.5,136.85,92.08Zm9.85-13.3-2.85.3A1.76,1.76,0,0,0,146.7,78.78ZM186,112.59l.35-.42-1.81-1.3C184.08,112.56,185,112.6,186,112.59ZM36.34,122.83l2.48.59C38.32,122,37.32,121.77,36.34,122.83ZM140,101.07a6.3,6.3,0,0,0-.77-.81,9.41,9.41,0,0,0-1,.88c.22.21.46.63.64.6A4,4,0,0,0,140,101.07ZM23.18,126.9l-.56.11.51,2.84.58-.12Zm153.75,12.64.17.57c.79-.22,1.57-.43,2.34-.67.07,0,.15-.26.11-.33s-.27-.27-.37-.25C178.43,139.07,177.68,139.31,176.93,139.54ZM129,13.7l0-.49-3,.3.07.6ZM54.33,27.84c-.64-.38-1.09-.68-1.58-.91a.56.56,0,0,0-.52.13c-.1.1-.13.45,0,.51a3,3,0,0,0,1.15.67C53.6,28.3,54,28,54.33,27.84ZM78.59,136.33l.33-.32-2.08-2-.41.45Zm106.2-95.48L187,39.37C185,39.21,184.43,39.7,184.79,40.85ZM155.72,22.76l0,.63,2.95-.33,0-.5Zm9.56,28.82-.23,0v3.89h.23ZM31.9,83.3l-1.12-2c-.16.17-.49.41-.45.51a9.62,9.62,0,0,0,.81,1.68C31.18,83.54,31.62,83.37,31.9,83.3Zm-9-37.78-.48,0,.37,4,.39,0Zm174.53,69.7c.22-1.06.39-1.83.56-2.67C196.89,112.89,196.64,113.87,197.4,115.22ZM159.91,56l.26,0,.24-5.12h-.23ZM79.28,120.6l.12-.72a17,17,0,0,0-1.72-.18c-.08,0-.17.42-.26.65Zm28.13-62.75-.43.07c.22,1,.43,1.92.65,2.88l.4-.08ZM52.29,101.33l-.62.14.78,2.92.34,0ZM156.54,215.68l.29,0v-3.39h-.29ZM22.36,115.73c.35-.55.68-.87.61-1a5.17,5.17,0,0,0-.78-1c-.16.16-.48.35-.45.45A11.71,11.71,0,0,0,22.36,115.73Zm18-70.26a2.41,2.41,0,0,0-.26,1,2.52,2.52,0,0,0,.59,1.13c.07.1.45,0,.68-.07L41,46.66C40.78,46.25,40.58,45.84,40.39,45.47ZM7.9,25.08l.62-1L7,23.31l-.13.36ZM162.76,97.72a5,5,0,0,0-.84-.8c-.07,0-.58.36-.55.47a13.16,13.16,0,0,0,.62,1.45ZM122.64,87.49c-.23-.18-.37-.38-.46-.35a14.26,14.26,0,0,0-1.79.56c-.11,0-.11.36-.16.56.59-.1,1.19-.16,1.76-.3C122.21,87.91,122.38,87.69,122.64,87.49Zm18-64.5v.66c.73,0,1.47,0,2.2,0a.39.39,0,0,0,.22-.28c0-.14-.16-.35-.25-.35C142,23,141.32,23,140.59,23Zm-24.77,80.59h-.63c0,.63,0,1.26,0,1.89,0,0,.39,0,.6,0ZM135,87l.27.14a5.65,5.65,0,0,0,.86-.53,4.69,4.69,0,0,0,.52-.79c-.3-.1-.81-.34-.87-.26A9.94,9.94,0,0,0,135,87ZM74.73,170.2l0,.47,1.75.15v-.62ZM30,111.53c-.49.83,0,1.24.83,1.44.23.06.54-.17.81-.26a6,6,0,0,0-.58-.55C30.79,112,30.46,111.78,30,111.53Zm197.74,81.59c-.62-.5-.92-.94-1.17-.91-1,.09-.73.68-.2,1C226.66,193.4,227.18,193.18,227.77,193.12ZM10.83,79.15l-.49-.07L10,81.76l.45,0-.21-1.66L11,81Zm32.51,47.31-.32.4c.5.54,1,1.08,1.51,1.61a.38.38,0,0,0,.36,0c.1-.1.22-.36.17-.4C44.5,127.52,43.92,127,43.34,126.46Zm-10.23-1.79.59,1c.14-.32.4-.63.39-.94a3.92,3.92,0,0,0-.36-1.15Zm147.45-1.94,0-.54-2.4.14,0,.59Zm-144-1.31-1.69-1.85C34.8,120.89,34.93,121.64,36.59,121.42Zm96.3-108.55,0,.54,2.63-.19,0-.35ZM122.16,194.13l-.33.57,1.7.88.26-.49Zm111-3.15-.18-.57-2.38.86.13.37ZM109.87,16.52l-.07-.44-2.71.35.08.5Zm22.74,95.55,0,.39,2.62-.27-.08-.56Zm-19.48,29.79.88-.68c-.18-.21-.43-.62-.52-.59a8.66,8.66,0,0,0-1.22.69ZM213.29,119l.14,0V114l-.14,0ZM111.7,115.72l-.42-1.6-1.57.86Zm13.82-25.36c-1.67,0-1.7,0-1,1.7ZM30.15,127.91l.32,0v-2.41l-.32,0ZM40,121.14l.58-.08a8.74,8.74,0,0,0,0-1.45c0-.13-.42-.19-.64-.28Zm64.53-24.89,1,1.39a3.07,3.07,0,0,0,.57-.93c0-.22-.23-.71-.4-.72A3.88,3.88,0,0,0,104.55,96.25Zm-5.76,32.3-.5.51c.61.49,1.22,1,1.84,1.47a.36.36,0,0,0,.35-.06c.06-.12.1-.37,0-.43C100,129.52,99.37,129,98.79,128.55Zm-26.41-72-.84.9a4.29,4.29,0,0,0,.91.59c.11,0,.52-.33.49-.46A3.46,3.46,0,0,0,72.38,56.53Zm63,11.33c-.17-.39-.25-.82-.38-.84a8,8,0,0,0-1.38.08l0,.48ZM48.64,120l.64-.08L49,118.06l-.58,0ZM32.37,87.46l.53,0L33,85.74l-.52,0C32.45,86.29,32.41,86.88,32.37,87.46ZM128.91,46l-.11-.36-2.09.34.14.62ZM97.3,93.64l-1.16.78c.21.15.46.46.62.42a5.47,5.47,0,0,0,1.14-.56Zm70.3,6.06.64.84a4.83,4.83,0,0,0,.57-1c0-.14-.31-.38-.48-.57ZM30,42.89l-.19.35a4,4,0,0,0,.5.72,2.91,2.91,0,0,0,.67.38c.05-.27.23-.68.13-.78A5.85,5.85,0,0,0,30,42.89Zm76.83,14,.36-.11-.72-2.66-.51.15Zm49.75,165h.52l-.18-2.32-.34,0ZM23.17,30.92l.38-.49a10.34,10.34,0,0,0-1.16-.84c-.08-.05-.35.2-.53.32Zm157.88,6.21,0-.28-2.86.28.09.59ZM62.51,128.94l.51-.05-.3-2.47-.21,0Zm-22.39-.21.61,0-.11-1.84-.59.07ZM204.9,104.17l-.7,2,1.19-.09Zm-2.49-13.92h.48l-.36-3.2-.31,0ZM32.74,90l-.27,0v2.64h.27Zm69.55,44.13-.39.43,1.5,1.27.33-.33Zm144.56,51.08.36.27,1.13-1.46-.46-.34Zm-100.7-62.17.22-.57-1.59-.57c0,.18-.11.49-.05.52C145.18,122.68,145.67,122.86,146.15,123.06ZM92.41,58.82l-1,3.43C92.4,61.69,92.76,60.38,92.41,58.82Zm-5,99.14-.1-.56-2.07.39.09.47Zm5.15-56.08-.65-.75a3,3,0,0,0-.47.91c0,.25.21.53.33.8ZM48.93,115l-.28,0v2.48h.43Zm1.7-55.39.92-1.41-.92-1.61Zm81.65-46-.11-.48-2.12.29,0,.42ZM94.34,136.7l-.34.38,1.24,1.16.44-.51Zm87.89-35-.28.19a13.71,13.71,0,0,0,.69,1.32c.08.12.39.08.6.12,0-.21.15-.5.06-.6A13,13,0,0,0,182.23,101.68ZM14.76,62.61c.33-.48.68-.79.62-.94-.12-.31-.46-.53-.71-.78-.16.2-.45.42-.43.61A3.77,3.77,0,0,0,14.76,62.61Zm121.08,5.16.29.15,1.55-.94c-.64-.08-1.09-.26-1.4-.13S136,67.45,135.84,67.77ZM35.4,128l-.4.11c.12.65.23,1.3.37,1.95,0,.08.22.22.29.19s.32-.22.3-.29C35.8,129.28,35.59,128.63,35.4,128Zm25.68-82.6.11-.57c-.53-.09-1.06-.19-1.59-.25-.06,0-.15.31-.22.47ZM204.4,134.06l-.74-.78c-.19.19-.56.43-.52.55a1.21,1.21,0,0,0,.58.64C203.82,134.52,204.09,134.25,204.4,134.06Zm-103.61-28.6-.45.05.09,2,.36,0ZM24.21,58.09l.26,0V56l-.26,0Zm2.08-10.74-.67.11L26,49.12c.17-.06.49-.11.49-.15C26.42,48.43,26.35,47.89,26.29,47.35ZM139.61,66.87l.25.42,1.52-.84-.27-.45ZM52.5,147l.53-.06-.17-1.65-.36,0ZM190.82,38.58l-1.94.4,1.47.73Zm-25.3-6.34-.07-.52-1.83.17,0,.51Zm55.55,163,.8.78a8.23,8.23,0,0,0,.42-1.24c0-.11-.29-.29-.45-.43ZM172.9,73.59h-.36v1.69h.36Zm16.46,16.35.39-.55c-.41-.26-.81-.54-1.23-.77a3.22,3.22,0,0,0-.36.44Zm15-41.78-.58-.18c-.15.55-.3,1.1-.43,1.65a3.93,3.93,0,0,0,.42.16ZM19.73,107.9h.18V105h-.18Zm19.53,23.59-.3,0v2.14h.3Zm32-55.29.14.31,2.26-1-.18-.4Zm112.55,34.49a13.58,13.58,0,0,0-1.37-1c-.09,0-.33.17-.51.27a7.64,7.64,0,0,0,.81.8C182.86,110.82,183.14,110.73,183.79,110.69ZM20.89,48.37l.36,0-.14-2.56h-.22Zm21.74,8.09-.63.09.28,1.71c.17,0,.49-.08.49-.1C42.74,57.59,42.68,57,42.63,56.46Zm-2.29-4.6-.53,0,.26,2.19.45,0ZM32.87,80.34h-.48l-.09,2,.47,0ZM177.11,43c-.41-.25-.66-.51-.78-.46a2.79,2.79,0,0,0-.71.59c.21.12.42.34.62.34S176.67,43.2,177.11,43ZM74.51,78.24l-.21-.52-2,.88.08.22Zm96.08-49.76c-.6-.22-.84-.41-1-.36a3.9,3.9,0,0,0-.84.52c.19.13.4.38.58.37A5.58,5.58,0,0,0,170.59,28.48ZM38.94,130.42l.59-.08-.27-1.54a2.74,2.74,0,0,0-.47.11C38.81,129.42,38.88,129.92,38.94,130.42ZM138.43,90.8a5.74,5.74,0,0,0-.62,1c0,.1.39.47.45.44a1.55,1.55,0,0,0,.67-.62C139,91.53,138.7,91.24,138.43,90.8ZM96.71,112.6l.06.57,1.83-.33-.07-.48ZM135.23,114l1-.81c-.19-.12-.43-.37-.57-.33a4.55,4.55,0,0,0-1,.53Zm-116.1,9.76h.3v-2.25l-.3,0ZM104,96.31h-.54l.14,2h.4ZM17.72,38.45l.44-.27L17.52,37l-.57.34ZM65.19,76.72l.42-.42-1-1a3.25,3.25,0,0,0-.42.51A12.73,12.73,0,0,0,65.19,76.72Zm37,19.77-.31,0v1.94h.31Zm95.33-31.72a3.14,3.14,0,0,0-1.07-.28c-.23,0-.61.45-.57.57.09.3.4.52.63.78Zm-6.13-39.86.21-.44-1.46-.72-.23.48ZM24.92,62.64h-.44V64h.44ZM119,147l.08.43,1.36-.27a2.06,2.06,0,0,0-.14-.4C119.82,146.81,119.39,146.9,119,147ZM95.48,66.66l.4-.48-1.5-1-.29.37Zm22.46,33.23.36,0,.21-2-.36,0ZM207.73,37l.44-.06L208,35l-.42,0ZM24.85,131.59l.61,0-.25-1.72a2.84,2.84,0,0,0-.43.06C24.79,130.46,24.82,131,24.85,131.59Zm123-3.59.47-.47-1.28-1.1-.24.27Zm24.64-66.89.11.48,1.92-.5-.07-.29ZM48.91,128.89l.59,0-.13-1.6-.55,0ZM126,82l-.28.39c.24.23.46.54.75.64s.44-.25.66-.39ZM96.24,98.08l.21.5a7,7,0,0,0,1.11-.39s-.11-.44-.17-.67Zm-56,33.32h.37l.11-1.52h-.48ZM29.32,113h-.18v2.26l.38,0Zm81.6,29c-.53-.3-.78-.56-.92-.51a5.17,5.17,0,0,0-.92.6c.16.12.34.38.48.36A7.64,7.64,0,0,0,110.92,142ZM28.05,48.13l.51-.2L27.9,46.5l-.4.18Zm84.33,79.25-.32.37,1.52,1.22.29-.35Zm65.23-67.2-.17-.4-1.8.84.21.43Zm-93.69,68,.37-.42-1.38-1.11-.3.34Zm-28-34.54h.2V91.2h-.2Zm-6.36,41.54H49.1l.24,2.42.21,0Zm162.89,62.54-.51.41a6.75,6.75,0,0,0,.68,1.17c.08.09.5-.12.77-.19l-1.18.87ZM99.77,184.12l.39-.08c0-.31,0-.69-.11-.9s-.54-.18-1-.33Zm113.46,13.45.22.42,1.69-.84-.17-.33Zm-95.14-94.88h-.23l-.18,2.56h.41Zm-96.57-41,.55-.13-.32-1.29-.47.11Zm-5.35,41.55.25-.1-.94-1.94-.42.22Zm87.49-2.07.48,0-.08-1.46-.5,0ZM48.51,43.77l-.19.41,1.07.59.24-.56Zm152.9,84.51.56-.12-.33-1.26-.6.17Zm-168-2-.43.37.73,1c.14-.14.42-.38.39-.42A8.7,8.7,0,0,0,33.41,126.23Zm220.22,56.43.09.46,1.56-.62-.11-.3ZM153.5,34,153,34,152.87,35l.72.09ZM137.34,140l.63-.61-1-1c-.1.1-.32.25-.3.3C136.88,139.14,137.12,139.58,137.34,140Zm72-89.3.48,0-.16-1.78-.43,0ZM83.83,140.07l-.57.57,1.16,1.25.42-.42ZM66.21,160.85c-.25.45-.48.68-.46.89a.79.79,0,0,0,.46.56c.14,0,.54-.28.52-.42S66.48,161.36,66.21,160.85Zm9.37-71.7.17.27,1.62-1-.2-.32Zm-22-56.3c.12-.32.33-.6.29-.84s-.41-.37-.62-.35-.43.27-.64.42Zm110.9,86.4-.91,1c.22.14.44.37.67.39s.43-.27.46-.46A3.33,3.33,0,0,0,164.46,119.25Zm-151.92-83H13c0-.45,0-.9,0-1.35a2.4,2.4,0,0,0-.42,0Zm21.31,84.85-.55.06.18,1.72.48,0Zm53.25-1.22.38.09.34-1.32-.44-.11Zm27.66-29-.49.07.2,1.46a2.4,2.4,0,0,0,.42-.09C114.87,91.82,114.81,91.34,114.76,90.86Zm51.41-22.6-.06-.37-1.66.26.06.39Zm-89-26.9-.11-.54-1.17.3.1.45Zm102.89,60.49.56-.2-.58-1.41-.5.19ZM40.15,123.49l.58-.09L40.48,122,40,122Zm4.63-58.41-.25,0,.12,2.07.5-.06Zm74.59,45.58.06.31,2-.3-.07-.36Zm-86,.76h.21V109.2h-.21Zm-12.7-2.84.42-.09c-.08-.43-.16-.85-.26-1.27a2.49,2.49,0,0,0-.43,0Zm95.54-75.3c-.34-.18-.53-.36-.7-.34s-.33.23-.5.35c.19.15.36.37.57.41S115.92,33.49,116.23,33.28Zm74,2.9,0-.44c-.33,0-.65,0-1,.09,0,0,0,.28,0,.42Zm-35.37,50,.1.48,1.51-.33-.1-.43Zm27.65-45.79.21.45,1-.52-.19-.38ZM166.35,28.24l-.11.52,1.34.07,0-.42ZM25.22,25.67l.09.5,1.27-.3-.06-.37Zm54.88,111-.41.31.9,1,.29-.24ZM98.77,36.26V36H97.18v.26ZM21.06,86.62l-.53.19a5.31,5.31,0,0,0,.38.88c.05.07.34,0,.52,0Zm149.23,25c0,.15-.17.5-.09.55a9,9,0,0,0,1.17.66l.09-.18ZM22.55,124.67l-.4.08.14,1.47.49-.06Zm-9-94.8-.17-.37-1.47.68.15.28Zm101.11,66.2.58,0c0-.43,0-.86,0-1.29,0,0-.27,0-.42-.07Zm33.49,24-.78,1.07a3.86,3.86,0,0,0,.79.44c.11,0,.45-.25.43-.36A6.73,6.73,0,0,0,148.17,120Zm32.4-16.32-.5.09.31,1.11.43-.12ZM20,38.05c-.22.48-.41.69-.38.87a2.55,2.55,0,0,0,.35.7c.18-.2.47-.38.51-.6S20.29,38.57,20,38.05Zm35.91-13.9.07.36,1.31-.23-.05-.3ZM120,97.52l-.27,0v1.93H120ZM37.41,20.05l0,.46.93-.07,0-.5ZM141.74,21.3l0,.41,1.56-.14-.06-.42Zm-25.11,130,.27.41.86-.57-.23-.37ZM120.82,95l-1-.9c-.11.2-.31.42-.29.62a.69.69,0,0,0,.41.51C120.13,95.26,120.4,95.1,120.82,95Zm-99.12,18c-.31-.2-.49-.39-.7-.41s-.36.35-.32.46.32.34.49.51ZM54.48,90.44H55l-.06-1.26h-.3ZM151,17v.42l1.17-.12,0-.3ZM91.16,130.31l-.4.33.62.82a4.29,4.29,0,0,0,.4-.34A7,7,0,0,0,91.16,130.31Zm77.22-50.8.52,0,.1-1.15a4,4,0,0,0-.5,0C168.44,78.75,168.41,79.13,168.38,79.51ZM113.63,16.22l-.15-.42-1.07.35c.06.14.15.41.16.41C112.93,16.46,113.28,16.33,113.63,16.22ZM168.71,134l-.13-.45-1.16.33.13.44Zm-46.22-32.12h-.4v1.51h.32Zm22-83.67,0-.46h-.95l0,.37ZM108.3,78.35l.15.46,1-.39-.13-.36ZM55.71,111.72h.18v-2h-.18ZM71.35,149l-.43.27.85,1.11.36-.26Zm52.22-76.48-.23-.3-1.13.76.3.33Zm57.09-.84-.3.07a2.38,2.38,0,0,0,0,.93c.08.15.49.13,1.08.25ZM148.93,17.41l.12.53,1.11-.38-.13-.41Zm-44.52,94.94c-.42-.21-.66-.43-.82-.38s-.33.33-.48.51c.18.14.35.39.54.39S104,112.63,104.41,112.35Zm22-61-.5-.15-.26,1.21.28.09Z"/><path d="M157.2,226.66a14.34,14.34,0,0,1,1-2,5.38,5.38,0,0,1,1.54-1.67c3.46-2,7-3.93,10.47-5.86,1.73-1,3.45-1.93,5.22-2.82a44.48,44.48,0,0,1,5-2.17c-2.61,2.32-6.11,3.43-8.9,6.2a6.07,6.07,0,0,0-4.82,2.24l.11-1.11L162,222a16.26,16.26,0,0,1,2.19.2c.11,0,.07.68.08.69-.8.31-1.32.54-1.85.72-.21.07-.5-.05-.68,0a4.15,4.15,0,0,0-.94.74c-.16.15-.17.51-.34.6-1.08.56-2.19,1.07-3.29,1.6Z"/><path d="M111.54,191.16l-4-2.3.77-.62C110.21,188.36,111.32,189.22,111.54,191.16Z"/><path d="M117,194.08l-.12-.82a4.1,4.1,0,0,1-1-.4c-.09-.08.06-.68.1-.68.39,0,1-.06,1.12.15a5.87,5.87,0,0,1,.41,1.65Z"/><path d="M175.54,216c.65-.39,1.3-.8,2-1.13.13-.06.44.18.6.34a.54.54,0,0,1-.19.46c-.72.27-1.46.48-2.19.71Z"/><path d="M166.36,221.85l2.73-1.34.13.24-2.64,1.49Z"/><path d="M166.1,220.91c-.35.53-.46.88-.68,1s-.51-.14-1.15-.35Z"/><path d="M193.56,50.61l.3.78-.91.25-.13-.25.71-.74Z"/><path d="M176.32,187.06l-5.53,2c-.22.08-.52,0-.67.17a5.37,5.37,0,0,1-3.23,1.47,11,11,0,0,0-3.07,1.25q-2.2,1-4.39,2.08c-2.2,1.09-4.38,2.24-6.61,3.27-.52.24-1.25,0-1.82.16a8.51,8.51,0,0,0-2.89,1.23c-1,.82-1.71.34-2.48-.12-.27-.16-.58-.66-.51-.88s.53-.53.87-.67c2.42-1,4.85-2,7.28-2.89,1-.38,2-.69,3-1,.06,0,.16-.07.19,0,1.48,1.37,2.66-.14,3.83-.55,5-1.76,10-3.71,15-5.58a6,6,0,0,1,.86-.21Z"/><path d="M141.35,169.93c-3.27,1.13-6.56,2.25-9.83,3.41-1.64.58-3.27,1.21-4.89,1.85-.15.06-.21.36-.31.55.26.07.53.24.76.19a10,10,0,0,1,2.57-.46,4.56,4.56,0,0,1-.92.58c-3,.89-5.95,1.79-8.95,2.6-2.32.62-4.67,1.09-7,1.66a9.42,9.42,0,0,0-1,.45,1.48,1.48,0,0,1-.89.17.83.83,0,0,1-.43-.7,1.11,1.11,0,0,1,.65-.6c.93-.33,2.09-.35,2.79-.94,1.62-1.34,3.68-.71,5.39-1.58a37.41,37.41,0,0,1,5.45-2.1c3.37-1.09,6.77-2,10.14-3.14,1.66-.54,3.25-1.29,4.91-1.87a5.59,5.59,0,0,1,1.54-.06Z"/><path d="M227.55,152a12.9,12.9,0,0,0-2.17,1,16.25,16.25,0,0,1-5,2.15c-2.57.74-5,1.82-7.55,2.76a2.76,2.76,0,0,1-.74.27,1.87,1.87,0,0,1-.67-.24c.15-.19.25-.49.45-.57,2.37-.89,4.78-1.73,7.14-2.65a7,7,0,0,0,1.5-1.08,8.87,8.87,0,0,1,5.3-1.73c.58,0,1.15-.06,1.72-.1Z"/><path d="M161.93,174.22c-1.23.5-2.45,1-3.69,1.51-2.3.92-4.62,1.83-6.93,2.73a1.71,1.71,0,0,1-.95.19c-1.27-.42-2.14.2-3,.94a1.63,1.63,0,0,1-1,.24c-.11,0-.37-.43-.31-.53a1.24,1.24,0,0,1,.64-.6c1.27-.37,2.58-.62,3.83-1,.87-.3,1.66-.86,2.52-1.21.65-.26,1.38-.35,2.05-.58,1.77-.62,3.52-1.29,5.29-1.91a10.58,10.58,0,0,1,1.38-.3Z"/><path d="M211.06,150.15l-18.05,5-.14-.44,17.95-5.4Z"/><path d="M124.57,190.8c.31-.34.55-.84.93-1,3-1.18,6.13-2.26,9.18-3.43,2-.75,3.89-1.6,6.08-2.51,0,.09.44.63.31.93s-.76.6-1.21.72c-1.68.47-3.38.86-5,1.4-3.78.28-6.69,3-10.27,3.85Z"/><path d="M136,187.63c1.33.54,2.67,1.05,4,1.63,1.12.5,2.21,1.06,3.28,1.65.23.13.33.5.49.77-.31.1-.71.38-.93.28-1.32-.59-2.61-1.25-3.9-1.91-.82-.41-1.64-.82-2.44-1.28a4.94,4.94,0,0,1-.78-.68Z"/><path d="M125.53,157.56c.29-.23.54-.6.86-.67,2-.44,4-.83,6-1.2a2.87,2.87,0,0,1,.95.13c-.27.23-.51.6-.82.66-1.81.37-3.64.67-5.46,1-.48.09-.94.22-1.4.33Z"/><path d="M210.09,146.24a2.42,2.42,0,0,1,2.41-1.71c1.4-.08,2.77-.67,4.28-.77Z"/><path d="M141.37,169.94a10,10,0,0,1,1.92-1.38c1.49-.61,3-1.05,4.57-1.56l.16.45-6.67,2.48Z"/><path d="M187.82,183l6.37-2.68.21.49L188,183.39Z"/><path d="M173.77,169.46c-.59,1.38-1.65,1.26-2.42,1.56s-1.77.57-2.66.84c-.23.07-.45.16-.67.24l-.2-.54Z"/><path d="M152.42,165.84l-3.44,1.3-.21-.58,3.46-1.05Z"/><path d="M97.47,169.35l4.1,1.24-.27.67-3.82-1.93Z"/><path d="M184.79,183.78l1.91-.93.24.49-2,.82Z"/><path d="M158.17,147.09l2.71-.66.1.41-2.72.62Z"/><path d="M203.47,137c-.45.25-.77.54-.89.47a1.6,1.6,0,0,1-.6-.75c0-.07.35-.47.41-.44A9,9,0,0,1,203.47,137Z"/><path d="M125.31,182.68l1.51.95-.27.42-1.52-1Z"/><path d="M177.46,168.55l1.78-.64.18.49-1.8.6Z"/><path d="M195.39,150.86l-2,.51-.09-.3,1.94-.59Z"/><path d="M225.29,169.1l-1.06,1-.25-.19.85-1.17Z"/><path d="M206.85,159.46l-1.49.8-.13-.23,1.36-1Z"/><path d="M119,179.65l1.29.63-.2.39-1.29-.63Z"/><path d="M113.05,176.56l1.09.84-.17.25-1.18-.69Z"/><path d="M182.39,167.48l-1.15.28-.1-.41,1.14-.3Z"/><path d="M98.51,24a6.64,6.64,0,0,0,1,.27,15.32,15.32,0,0,0,1.66,0l6.2-.17c.2,0,.42.12.63.12.88,0,1.76-.18,2.64-.14a4.55,4.55,0,0,1,2.17.7c-.66.06-1.32.1-2,.17-1.54.15-3.08.37-4.63.47-2.75.18-5.51.31-8.26.42a3.87,3.87,0,0,1-1.13-.35c.27-.26.52-.53.8-.78s.58-.49.88-.74Z"/><path d="M113,29.68c-.2-1.4,1-.92,1.54-1,1.62-.2,3.27-.21,4.94-.37l3.28.26v.32l-9.77.76Z"/><path d="M113,29.67c-1.28.21-2.55.43-3.83.61-.16,0-.39-.18-.51-.34s.09-.38.21-.44a4.59,4.59,0,0,1,1.89-.69,8.43,8.43,0,0,1,2.25.87Z"/><path d="M104.67,30.18c1-.24,2-.46,2.85-.65.13,0,.39.06.42.15a.7.7,0,0,1,0,.55C107.35,31,105.51,31,104.67,30.18Z"/><path d="M123.24,27.38l5.12-.29,0,.36h-5.11Z"/><path d="M161.26,29.86l-3.09.65-.07-.64h3.16Z"/><path d="M128.32,37.07l1-.58.07.81-.93.06Z"/><path d="M38.42,88l.25,4.49.6-.17c0,.26.09.69,0,.75-1.49.83-.73,2.23-.89,3.38a1.29,1.29,0,0,1-.21.7V88.06Z"/><path d="M41.13,92.68v10h-.29v-10Z"/><path d="M38.18,87.09V81.6h.15V87Z"/><path d="M43.62,90.58,43.37,88l.31,0,.3,2.58Z"/><path d="M39.2,95v2.9H39V95Z"/><path d="M42,97.71v2.87h-.14v-2.9Z"/><path d="M36.28,87v-2.1h.18V87Z"/><path d="M42.13,88v1.86H42V88Z"/><path d="M36.49,79.57v1.48H36.2V79.53Z"/><path d="M87.65,32.8l1.2,1.55a2,2,0,0,1-.51.21c-3.77.6-7.53,1.21-11.31,1.77a3.84,3.84,0,0,1-1.19-.27,3.61,3.61,0,0,1,1.08-.66,48.73,48.73,0,0,1,7-1.09,2.86,2.86,0,0,0,2.38-1.19,6.26,6.26,0,0,0,.58-1.25L87,33.68l.7-.86Z"/><path d="M70.66,29.53l-3.79.74C67.92,29,69.28,29.2,70.66,29.53Z"/><path d="M73.21,31.2l-3,.18C70.45,30.39,70.63,30.36,73.21,31.2Z"/><path d="M65.32,30.49l-2.14.58C63.2,30,63.85,29.8,65.32,30.49Z"/><path d="M66.68,32.18l-1.89.24L64.71,32l1.87-.37Z"/><path d="M83.86,32.56c.53-.28.78-.5,1-.52s.41.34.42.53a.66.66,0,0,1-.42.5C84.74,33.11,84.51,32.9,83.86,32.56Z"/><path d="M72.24,36.12,70.33,36l0-.34h1.91Z"/><path d="M137.36,15.92a18,18,0,0,1,2.61-.36,19.5,19.5,0,0,1,2.69.32c-.66.81-1.56.29-2.43.24a24.88,24.88,0,0,0-2.72.13Z"/><path d="M120.53,16.36l2.89-.27,0,.25-2.91.43Z"/><path d="M38.31,105.9v9.15h-.24v-9.13Z"/><path d="M46.59,120.69l.2-2,.49,0L47,120.71Z"/><path d="M43.27,113.66l.18,1.48-.41,0v-1.55Z"/><path d="M41,107.47v1.76h-.11v-1.77Z"/><path d="M25.91,85.94l-.15-3.36.5,0V85.9Z"/><path d="M101.63,38.53a13,13,0,0,0-1.88.32c-1,.31-2.32-.29-3,1.09-.08.16-1-.06-1.47-.12a4,4,0,0,1-1.58-.48,7.68,7.68,0,0,1,1.56-.62c1.42-.24,2.85-.42,4.28-.53a11.71,11.71,0,0,1,2,.19Z"/><path d="M53,89.17c0,1.23,0,2.47.07,3.69a9.05,9.05,0,0,0,.64,1.83,1.52,1.52,0,0,1,.09.81c-.28,1-.62,2.08-1,3.4-.12-1-.29-1.79-.31-2.57,0-1.7,0-3.4,0-5.1a14.78,14.78,0,0,1,.19-1.88c0-.07.23-.11.36-.16Z"/><path d="M26.46,101.78l.31,3.33-.55,0v-3.35Z"/><path d="M23.09,97.39c-.19,1.61-.35,2.94-.5,4.26C22,100.87,22.15,98.46,23.09,97.39Z"/><path d="M43.55,73l.27,3.09h-.27Z"/><path d="M55.47,125c-.65-.12-1.1-.09-1.18-.24a6.52,6.52,0,0,1-.26-1.58Z"/><path d="M10.6,48l.24,2.29-.33,0-.31-2.29Z"/><path d="M15.24,78.92l.06-1.26h.35v1.27Z"/><path d="M37.77,53.09l-2-1.62Z"/></svg>