<svg id="Calque_1" data-name="Calque 1" xmlns="http://www.w3.org/2000/svg" viewBox="0 0 238.87 190.33"><title>Sans titre - 5</title><path d="M11.06,63.08a5.33,5.33,0,0,1-1.33-.66,1,1,0,0,1-.1-1c.35-.6.45-1.68,1.85-1,0-.85,0-1.56,0-2.26,0-1.51,0-3-.07-4.52s-.11-2.73-.17-4.09c0-.2,0-.47-.14-.56-1.12-.88-.15-1.58.15-2.35a3.67,3.67,0,0,0,.32-1.23c0-3.06-.05-6.13-.13-9.19a12,12,0,0,0-.41-2c0-.19-.17-.44-.09-.55.75-1,.23-2.17.41-3.24.1-.58.28-1.15.42-1.73a1.67,1.67,0,0,0,.05-.5c-.13-1.13-.28-2.26-.42-3.39l0-.25c-.1-.41-.4-1-.24-1.19a2.69,2.69,0,0,1,1.45-.71c.52-.08.67-.3.68-.74a.92.92,0,0,1,1-1c2.18-.14,4.36-.33,6.54-.38,3.33-.07,6.67.05,10-.09a56.41,56.41,0,0,0,5.61-.77c.44-.06.89,0,1.33-.1a2,2,0,0,0,.88-.33,1.16,1.16,0,0,1,1.4-.07,1.25,1.25,0,0,0,.75.18c2.48-.26,5-.58,7.44-.82,2-.19,4.08-.3,6.11-.41,1.06-.06,2.12,0,3.16-.08,1.82-.16,3.63-.47,5.45-.58,2.08-.13,4.17-.1,6.26-.14,1.76,0,3.53,0,5.28-.15s3.75-.44,5.63-.62c2.74-.26,5.49-.43,8.23-.72,1.48-.15,3-.51,4.43-.66,3-.28,5.91-.45,8.86-.73,2-.18,3.92-.5,5.88-.68,1.51-.14,3-.14,4.55-.22,2.74-.13,5.49-.26,8.23-.41,2-.11,4-.27,6.06-.35,1.59-.06,3.18,0,4.77-.05s3.33-.14,5-.22c.95,0,1.9-.07,2.84-.15,1.71-.15,3.42-.33,5.12-.51,1.43-.14,2.85-.32,4.27-.46s3.09-.24,4.63-.41c2.29-.26,4.58-.62,6.87-.82,1.5-.14,3-.06,4.53-.12.24,0,.48-.23.77-.38a1.26,1.26,0,0,1-.24-1.89,1.13,1.13,0,0,1,1.59-.42q2.28,1.15,4.62,2.2c1,.44,2.08.75,3.09,1.19s2,1,2.93,1.49a1.6,1.6,0,0,0,.67.3c1.83.06,3.1,1.31,4.58,2.11.78.42,1.52.91,2.32,1.28,1.89.87,3.79,1.73,5.72,2.53,1.6.66,3.24,1.2,4.85,1.83.85.33,1.65.76,2.49,1.12s1.69.67,2.53,1c1.2.48,2.41.94,3.6,1.47,1.44.64,2.88,1.3,4.28,2,1.6.85,3.15,1.79,4.72,2.69,1.07.62,2.15,1.2,3.2,1.86,1.67,1,3.31,2.16,5,3.21a12.24,12.24,0,0,0,1.9,1,1.68,1.68,0,0,1,1.24,1.59c0,.92,0,1.84.06,2.76a2,2,0,0,0,.5,1.18c.76.69.42,1.45.34,2.24-.2,1.85-.4,3.7-.49,5.55s-.07,3.8-.08,5.69c0,.89.1,1.78.09,2.67,0,3.57-.06,7.14-.16,10.71s-.3,7.42-.51,11.13c0,.76-.36,1.49-.46,2.26a17.56,17.56,0,0,0-.18,2.62c0,2.32.08,4.64.14,6.95,0,1.61.21,3.22.17,4.83s-.34,3.37-.43,5.07c-.08,1.44-.06,2.89,0,4.33a15.46,15.46,0,0,1,.3,1.85c-.24,2.21-.62,4.39-.88,6.59-.14,1.13-.17,2.28-.2,3.43-.07,2.93-.11,5.86-.18,8.79-.05,2-.14,3.9-.19,5.85a1,1,0,0,0,.24.59c.4.52.85,1,1.24,1.54.58.8.32,1.37-.65,1.6s-2.18.56-3.26.88c-.53.16-.73.48-.5,1.1.09.26-.19.66-.47.94l-.47-2.2h-.08c0,.21,0,.42-.07.63,0,.52-.16.8-.87.74-1.43-.12-2.63.68-3.89,1.25a17.77,17.77,0,0,1-4.28,1.48c-2.25.4-4.44,1.13-6.65,1.71-1.1.29-2.22.52-3.31.83s-2.36.76-3.54,1.12c-.86.27-1.74.5-2.6.76-1.67.51-3.32,1.06-5,1.55-1,.3-2.09.49-3.14.76-.5.13-1,.34-1.47.51-2,.64-3.94,1.31-5.93,1.91-1,.31-2.06.46-3.07.75-1.19.35-2.35.81-3.54,1.16-1.63.49-3.27,1-4.92,1.39-2.77.69-5.55,1.32-8.32,2-2.4.58-4.8,1.19-7.2,1.79-2.6.66-5.21,1.34-7.82,2-3.08.73-6.18,1.39-9.25,2.13-1,.24-2,.64-3,.91-.74.21-1.51.31-2.27.47-1,.22-2,.41-3,.66-1.23.33-2.45.74-3.69,1.06-1.5.39-3,.66-4.52,1.09-2,.57-4.1.69-5.92,1.81a1.09,1.09,0,0,1-.56.15c-1.8,0-3.35,1-5.07,1.37-1.09.21-2.17.5-3.25.78-1.77.47-3.53,1-5.29,1.44l-7.41,2c-1.65.43-3.33.78-5,1.26a8.94,8.94,0,0,0-2,1,13.85,13.85,0,0,1-6,2c-1.84.14-3.24,1.21-4.8,2-1.15.55-2.31,1.07-3.48,1.55-.67.27-1.39.44-2.08.66l-.14-.3,3.09-1.75-.11-.31c-.35.07-.71.1-1,.19-.74.21-1.47.43-2.2.68a4.07,4.07,0,0,0-.8.42c-.38.22-.73.67-1.11.69-1.18,0-2.29.44-3.43.58-1.42.17-2-.6-1.64-2,.07-.35.28-.68.35-1,.1-.51,0-.78-.59-1.11a7.79,7.79,0,0,1-2.58-2.26c-1.92-2.7-3.67-5.51-5.52-8.25-.85-1.25-1.77-2.46-2.66-3.69a.46.46,0,0,0-.2-.14c-1-.24-1.35-1.16-2-1.87l-.74,2.27a4.59,4.59,0,0,1-.71-3.28c.17-1.38-.7-2.27-1.28-3.31-.24-.43-.59-.8-.85-1.23s-.4-.67-1-.63c-.21,0-.65-.46-.64-.7a4,4,0,0,0-1.37-2.82c-.63-.75-1.36-1.43-1.95-2.21s-1.11-1.73-1.64-2.6-1.09-1.77-1.58-2.68c-.64-1.19-1.22-2.41-1.84-3.61a3.57,3.57,0,0,0-.53-.78c-.83-.83-1.68-1.63-2.52-2.43.65-.88.52-.73-.32-1.45a11.21,11.21,0,0,1-1.92-2.69,3.58,3.58,0,0,0-1-1.21,15.84,15.84,0,0,1-2-2.42c-.8-.9-1.11-2.15-2.22-2.83a3,3,0,0,1-1.55-2.16,1.71,1.71,0,0,0-.51-.74c-1.05-1.13-2.17-2.19-3.15-3.37-1.17-1.42-2.23-2.92-3.32-4.4-.66-.9-1.32-1.82-1.92-2.76a3.9,3.9,0,0,1-.35-1.11c0-.1,0-.29,0-.32-1-.5-.66-1.29-.53-2.1.05-.28-.29-.68-.54-.94-.54-.57-.44-.83,0-1.48a5.06,5.06,0,0,0,.75-2.22c.18-2.36,0-4.76.39-7.09a53.6,53.6,0,0,0,.42-7.48c0-.39,0-1,.79-1,.48,0,.58-1,.13-1.37a1.09,1.09,0,0,1-.33-1.67c.27-.46,0-1.23,0-1.85a26.32,26.32,0,0,1-.31-2.62c0-2.34.09-4.69.19-7,.1-2.17.34-4.34.35-6.52a27.6,27.6,0,0,0-.44-3.82ZM35.27,46.23l-1.83-1.39c-.17.91.47,1.39,1.86,1.37a3.21,3.21,0,0,1,.35.91c0,.68.48.86,1,.92.24,0,.52-.26.78-.4-.12-.22-.2-.53-.39-.63A17.92,17.92,0,0,0,35.27,46.23Zm24.92-11h1.47l.43-1.56-1.92,1.59c.44-.73-.35-1.11-.49-1.67a.68.68,0,0,0-.45,0,2.24,2.24,0,0,1-1.68.79c-.09,0-.18.18-.34.36A4.73,4.73,0,0,0,60.19,35.23Zm9.1.45c-.3,0-.68,0-.87-.15-.68-.61-1.12-.24-1.65.31.22.35.42.95.66,1a15.7,15.7,0,0,0,2.58-.2l-.74-1c.13,0,.28.11.4.07a4.82,4.82,0,0,0,.74-.31c-.06-.12-.12-.33-.17-.32a4.63,4.63,0,0,0-.9.18S69.3,35.54,69.29,35.68Zm-36.79,25c.68-.32.48-1,.5-1.51,0-.18-.51-.38-.94-.68l-.15-.51c-.16.11-.22.14-.24.18a.93.93,0,0,0,0,.24,3.55,3.55,0,0,0,.64,2.23c-.39-.17-.67-.14-.64.38.08,1.16.12,2.32.27,3.46a2.87,2.87,0,0,0,.61,1.1s.49-.17.49-.24C32.94,63.72,33.3,62.11,32.5,60.63ZM186,79.59A3.12,3.12,0,0,0,185,79.2a17,17,0,0,0-2.67.37c-1.44.3-2.86.64-4.28,1-1.07.28-2.13.64-3.19,1l.08.3,3.23-.58,3.53-.65c.51-.09,1-.2,1.53-.28a3.3,3.3,0,0,1,1.08-.07c.63.13,1.57-.2,1.74-.71a3.31,3.31,0,0,0,2.57.13,11.52,11.52,0,0,1,2.71-.71c.57-.09.76-.29.77-.84a.86.86,0,0,0-.34-.08c-1.79.35-3.57.7-5.35,1.08C186.25,79.18,186.16,79.44,186,79.59Zm-144.76,37c.65,0,1-.19.55-.88a2.25,2.25,0,0,1-.18-.64l0,0c.13-.17.4-.35.39-.52,0-1.45-.2-2.91-.14-4.35a2.74,2.74,0,0,0-1.71-2.72l1.7-.62v-1.52c0-.27-.12-.63,0-.81.67-.92,0-1.91.18-2.88a33.9,33.9,0,0,0,0-4.28,2.19,2.19,0,0,0-1.53-2.11c-.56-.1-.7.14-.68.64.1,2,.21,4.05.25,6.07,0,.89.46,1.85-.39,2.61.53.71,1.66,1.27.43,2.26-.1.09,0,.43,0,.65a1,1,0,0,0-.12.31c.09,1.85.19,3.69.28,5.54,0,.17.1.4,0,.49-.76.85-.09,1.35.42,1.92a4.48,4.48,0,0,1,.51.84c-1,.19-1.28.78-.67,1.62l.52.74c-.9-.15-.93.54-1,1.11a6.5,6.5,0,0,0-.06,1h-.17l-1-4.49a1.51,1.51,0,0,0-1,1.74,11.34,11.34,0,0,1-.25,3.7c-.27,1.25-.42,2.65.68,3.74.4.39.74.85,1.24,1.43a8.13,8.13,0,0,0,.11-1.11c0-.3-.19-.62-.12-.89a2.45,2.45,0,0,0-1.07-3s0-.11,0-.26a4.08,4.08,0,0,1,1.62.28,5.68,5.68,0,0,1,1.09,1.58l-.84-.11c.09,1.63-.38,3.22.28,4.74.19.44.2,1.15,1.09,1.09V127.2c0-1.67,0-3.33,0-5a5.91,5.91,0,0,0-.5-3.29c.77-.36.93-.78.57-1.49C41.56,117.14,41.42,116.84,41.28,116.55Zm9.87-72.32-2-.59c0-.76-.46-1-1.17-.84s-1.57.2-2.35.33c-.13,0-.24.17-.35.26.09.12.18.31.3.33a4.44,4.44,0,0,0,.82,0c.08.48.31.9-.35,1.06-.1,0-.23.4-.18.44a3.86,3.86,0,0,0,2.32,1.52c-.26-.41-.66-.71-.89-1.11A4.93,4.93,0,0,1,47,44.4l.25,0,.7,1.5.22-.08.14-.49c1.21.5,1.27.69.64,1.68a3.63,3.63,0,0,0-.2.73l.8-.41c.46-.2.74-1,1.44-.4.13-.21.42-.46.37-.6A9,9,0,0,0,50.72,45l.41-.75a13.41,13.41,0,0,0,1.9.07,25.54,25.54,0,0,0,2.62-.43,4.22,4.22,0,0,0,.82-.35,5.66,5.66,0,0,0-.89-.58,1.64,1.64,0,0,0-.66,0,14.27,14.27,0,0,1-1.6.07c-.79,0-1.57-.19-2.36-.24a.62.62,0,0,0-.53.25c-.06.13.11.37.21.54S51,44,51.15,44.23Zm4.41-9.88a3.85,3.85,0,0,0-1-.25c-1.51,0-3,0-4.52.2-.79.08-1.86-.45-2.25.69-.57-.07-1.06-.15-1.55-.18s-1,0-1.47,0a1.43,1.43,0,0,0,1.78,1.12,2.34,2.34,0,0,1,1.55.3c.45.23.77.63,1.3.16.15-.12.46-.07.69-.08a3.64,3.64,0,0,0,1.15,0c.58-.26,1-.39,1.26.63l.41-1c.38.21.73.55,1.05.53a14.88,14.88,0,0,0,2.18-.39l1-.17-1.31-1.43a10.19,10.19,0,0,0,1.11-.13.42.42,0,0,0,.21-.37c0-.09-.27-.25-.35-.21C56.37,33.92,56,34.14,55.56,34.35Zm67.4,29L124,61.05c-1.61.25-3,3.65-2.25,5.36a19.76,19.76,0,0,1,.5-2.13,3.74,3.74,0,0,1,.69-.93c-.06.24-.14.48-.2.72-.17.72-.38,1.44-.51,2.17a1.32,1.32,0,0,0,1,1.56A4,4,0,0,0,128,64.06c0-.78-.33-1.08-1.1-1.11s-1.43-.21-2.15-.21a3.91,3.91,0,0,0-1.24.37A3.4,3.4,0,0,0,123,63.37Zm-2.15-9.56a10.71,10.71,0,0,1,.83-1.24c.33-.39.62-.72.35-1.07-.57.3-1,.52-1.4.76a.61.61,0,0,0-.27.28c-.23.76-.47,1.53-.64,2.31a2,2,0,0,0,.12.75l1-1.82c-.58.84-.22,1.64,0,2.51a2.52,2.52,0,0,0,1.66,2.14c1.13.35,2.36.55,3.22-.68a1.88,1.88,0,0,1,.2-.19l.48.41c.6-.61.49-.55.17-1.23-.49-1-.82-2.14-1.22-3.22l-.14.2c-.5-.18-1-.39-1.5-.54a1.28,1.28,0,0,0-.87-.07A3.37,3.37,0,0,1,120.81,53.81Zm-65,26.65c1.11.19,1.41-.12,1.26-1.28a3.86,3.86,0,0,1-.12-.57c0-2.62,0-5.24,0-7.86a14.83,14.83,0,0,0-.15-2c0-.34-.4-.66-.39-1,.06-2.22.19-4.45.27-6.68a2.78,2.78,0,0,0-.17-.72l-.28,0c-.25,1.12-.52,2.24-.75,3.37-.16.72-.35,1.46.35,2l-.8.34.55,1a1.4,1.4,0,0,0-.73,1.43c0,1.48,0,3-.07,4.44A4.08,4.08,0,0,0,56,76.61a2.66,2.66,0,0,1,.26.38,1.82,1.82,0,0,0-1,2.26,8.56,8.56,0,0,0,.64,1.24l-.55,0c-.24,1.74.31,2.49,1.83,2.32Zm-6.5,45.83c-.15.17-.47.42-.43.5.32.61-.12,1.14-.12,1.69,0,2.41.11,4.82.18,7.23h.12l.43-2.66.31,0c0,.29,0,.58,0,.87a15,15,0,0,0-.15,2.4c.13,1.18-.56,2.46.52,3.54.79.8,1.45,1.73,2.24,2.69.19-.67.51-1.2.42-1.67a17.13,17.13,0,0,1,.07-3.36c0-1.09-.53-2.2.14-3.27,0-.08,0-.26-.07-.4-.1-.61-.22-1.22-.29-1.84a9.7,9.7,0,0,0-.08-1.33c-.07-.29-.36-.53-.56-.79-.23.71-.09,1.41-.36,1.85a2.33,2.33,0,0,0,.06,2.55c-1.05,1.23-.05,2.84-.77,4.1l-.24,0,.32-9.34-1.06.09-.11.91c-.2-.7-.39-1.28-.5-1.88,0-.09.28-.25.43-.38,0,.74.61.69,1,.64.21,0,.44-.48.54-.78a5.22,5.22,0,0,0,.15-1.13l.32,0c0,.17.07.39,0,.5-.59.79.13,1.28.44,1.84.07.12.43.09.66.13-.05-.21-.11-.42-.15-.63l-.15-.9a1.58,1.58,0,0,1,.67,1.43,3.11,3.11,0,0,0,.24,1.14c0,.13.27.19.41.29.09-.16.25-.32.24-.47-.1-1.2-.23-2.4-.37-3.61,0-.12-.19-.22-.4-.46a8.45,8.45,0,0,1-.3,1,6.11,6.11,0,0,1-.5.75l.29-2.47.24,0,.4.52c.24-.6.47-1.13.66-1.67.05-.13,0-.32-.08-.47a5.07,5.07,0,0,1-.39-1.3c0-1.35.22-2.69.17-4a13.82,13.82,0,0,0-.58-2.65c-.29.13-.4.24-.4.35-.07,1.55-.14,3.09-.15,4.64,0,.27.38.57.33.8-.14.68.48,1.49-.42,2.09-.22.15,0,.89,0,1.4-1.31-.55-1,.29-.86,1-.15-.13-.27-.24-.26-.34.06-2,.14-3.9.21-5.85,0-.58.24-1.43-.05-1.7a20.77,20.77,0,0,0-2.92-1.91c0,.72,0,1.3,0,1.88.06,1,.22,2,.22,3.06s-.25,1.81-.26,2.71A3.63,3.63,0,0,0,49.34,126.29Zm.78-71.87c.9.09.52-.69.66-1.07.56-1.46.22-2.16-1-3-2.62-1.78-5.2-3.62-7.78-5.47-2.15-1.56-4.25-3.2-6.41-4.74-1.36-1-2.78-1.83-4.19-2.72-.11-.08-.42-.09-.43,0s-.2.48-.11.61c.43.68.92,1.33,1.4,2A6.36,6.36,0,0,0,33.16,41a6.69,6.69,0,0,0,1.11.64c.45.2.82.52,1.26.68,1.13.41,1.24,1.42,1.64,2.58l-5-3.23a1.75,1.75,0,0,0-.13.42,1,1,0,0,0,.07.32c.52,1.44,1.88,2,3,2.7,1.45,1,2.88,1.94,4.32,2.91a3.1,3.1,0,0,0,.6.23c0-.27.13-.63,0-.79a16.33,16.33,0,0,0-1.34-1.29l-1.36-1.25v-.24a3.2,3.2,0,0,1,1.26,0,8.44,8.44,0,0,1,1.51.95c-.32.89-.12,1.22.86,1.46a5.23,5.23,0,0,1,1.75.51c1.3.87,2.52,1.88,3.77,2.83.56.43,1.11.86,1.68,1.28s1,.71,1.47,1c.76.45.47,1.14.46,1.78-.14.08-.38.16-.4.26-.17,1.28-.36,2.57-.42,3.86,0,.64.81,1.06,1.61.92s.31-.66.29-1a1.93,1.93,0,0,1,0-.34C51.29,56.75,51.34,55.4,50.12,54.42ZM83.54,42.74l0,0c.19.18.34.43.56.53.46.21,1,.35,1.47.54l.61-.9.23.16-.24.71a2.46,2.46,0,0,0,2.12-.15,1.79,1.79,0,0,1,.83-.16c.46,0,.92.09,1.38.1a2.82,2.82,0,0,0,.64-.09l0,.23-4.23.73a3.22,3.22,0,0,0,2.88.66c1.7-.16,3.41-.22,5.11-.35.21,0,.42-.22.62-.33a2,2,0,0,0-.36-.54,6.5,6.5,0,0,0-1-.48l-1.33-.59a6.91,6.91,0,0,1-.9-.47l-3.17-1.83-.22.92-.36.05-1,0a6.39,6.39,0,0,1,.62-.74c.4-.38.51-.64-.11-.92-.47-.21-.87-.57-1.33-.81-.75-.4-1.52-.77-2.3-1.11a15.08,15.08,0,0,0-1.52-.5c-.42.9-1.52.79-2.53.81-.66,0-.79-.31-.43-.93.52.95.76,1,1.46.21l-.47-.18.16-.2h.84c-.49-1.3-1.49-1.25-2.59-1.07-1.6.26-3.2.47-4.83.7-.11.48,0,.76.56.72a5.24,5.24,0,0,0,1.74-.1c1.2-.52,1.41.79,2.19,1.06L77,38.75a3.78,3.78,0,0,0,.51.38c.41.16,1,.2,1.19.49a1.15,1.15,0,0,0,1.5.63.63.63,0,0,1,.55.25c.08.13-.06.39-.12.58s-.17.46-.26.69c.28,0,.56,0,.85,0a2.21,2.21,0,0,1,.86.1A15.53,15.53,0,0,1,83.54,42.74ZM56.48,119.16l0,0c-.07-.18-.15-.35-.2-.53a5.58,5.58,0,0,1-.31-1.3c0-.83.16-1.65.17-2.48s-.34-1.88,0-2.85c.13-.35-.1-.83-.14-1.25a1,1,0,0,1,.09-.6.7.7,0,0,0-.16-1.08c-.34-.31-.62-.67-1-1.12a2.24,2.24,0,0,0-.26.67c0,1.08-.08,2.17,0,3.26.1,1.71.1,3.42.24,5.13.34,4.49.28,9,.37,13.52a1.51,1.51,0,0,0,1,1.43l.31-1.45.32,0c0,.34,0,.67,0,1,.05.5.16,1,.22,1.51a3,3,0,0,1,.06.95c-.1.52-.36,1-.42,1.53-.1.93-.11,1.87-.16,2.8h-.21c-.38-1.35.6-3-.72-4.29-.11.26-.19.36-.19.46.07,1.41.15,2.83.23,4.25.12,2,.19,4.06.39,6.07.09.85-.18,1.82.58,2.51a1,1,0,0,0,.64.26c.11,0,.27-.34.27-.53,0-.9,0-1.79,0-2.69s-.16-1.61-.12-2.41c.09-2.06.28-4.11.38-6.17,0-.77-.14-1.55-.14-2.33,0-1.46.12-2.93.12-4.4,0-1.74-.07-3.49-.1-5.24,0-.89,0-1.79,0-2.68C57.68,120,57.2,119.3,56.48,119.16ZM74.82,31l.49.93.75-.66L75.92,31H74.8a2.79,2.79,0,0,0-2.87-1.56,2.36,2.36,0,0,1-.75,0,1.18,1.18,0,0,1-.52-.39,2.1,2.1,0,0,1-.27-.54l-.52.44c-.84-.8-.86.09-1.1.53l0,0c-.28,0-.62,0-.81-.15a1.45,1.45,0,0,0-1.85,0,.92.92,0,0,1-.56.11c-1.18-.18-2.09.54-3.11.88-.66.22-1.3.45-2,.62a.73.73,0,0,1-.57-.23c-.3-.31-.58-.49-1-.22A17.83,17.83,0,0,0,57,31.64c-.76.61-1.09.6-1.55-.23a1.39,1.39,0,0,0-.2-.24,14.62,14.62,0,0,1-1.92.66c-.82.16-1.67.15-2.51.26a.82.82,0,0,0-.76,1.12h2.2c1.6,0,3.2.06,4.8,0,.16,0,.37-.33.44-.54s0-.41-.09-.8a13.05,13.05,0,0,0,1.86,1,4.17,4.17,0,0,0,1.33.08c.26,0,.53-.07.79-.07a9,9,0,0,1,1,.1c.37,0,.73.12,1.1.18l-.06.22-1,.42c1.31.33.76.73.3,1.09.12.1.18.2.23.2,1-.16,2-.32,3-.52.09,0,.2-.47.15-.5-.37-.25-.78-.45-1.17-.66-.21-.11-.43-.19-.62-.31a12.67,12.67,0,0,1-1.16-.74c-.31-.22-.58-.49-.87-.73l.19-.26,2.5,1v.35l1.63-.22,1.77.57c-.34.68-1.28.05-1.68.74a30.37,30.37,0,0,0,8.09-.3c.12,0,.23-.24.37-.4-.89-.4-1.68-.78-2.48-1.11-.6-.25-.62-.68-.4-1.17s.69-.49,1.14-.34S74.35,30.8,74.82,31Zm39.1,6.16c-.33-.07-.77,0-1-.24-.54-.58-1-1.27-1.45-1.89a1.06,1.06,0,0,0-.55-.32,10.47,10.47,0,0,1-4.42-1.56,1.66,1.66,0,0,0-.94-.25c-.81,0-1.51.89-2.41.34a.07.07,0,0,0-.07,0c-.39.74-1.06.28-1.6.39-.35.07-.67.23-1,.29-.53.09-1.08.1-1.6.23-.21.05-.37.33-.56.5h0a1.56,1.56,0,0,0-1.82-.34,4.12,4.12,0,0,1-1.23.07,2.82,2.82,0,0,0-.64.09A6.16,6.16,0,0,1,93,35c-1.15,0-2.25.54-3.49,0-.69-.31-1.68.08-2.54.17-.06,0-.11.16-.12.18l3.64,2,.28-.88.17,0,.24.78c.67.26,1.21.75,1.83,1,.8.35,1.67.53,2.49.81a1.45,1.45,0,0,1,.62.37,2.2,2.2,0,0,0,2.56.44c.39-.19.64-.16.76.29l0,0-.73.77c.27.2.53.56.8.57a7.81,7.81,0,0,1,3.18,1.15,2.23,2.23,0,0,0,1.06.31,8.53,8.53,0,0,0,2.64-.5,4,4,0,0,1,3.41-.07c0-.28,0-.5-.11-.59a6.71,6.71,0,0,0-4.59-2c.24-.45,1.39.15,1-.78s-1,0-1.45,0c-1-1.17-1.65-1.16-2.28,0a1.12,1.12,0,0,1,.05-.81c.15-.24.46-.39.67-.61s.17-.29.13-.34a.78.78,0,0,0-.38-.21c-.32-.08-.65-.13-1-.19.19-.26.38-.52.58-.77,0,0,.1,0,.16,0a1.46,1.46,0,0,0,.67.38c.41.15.84.27,1.24.46.24.11.42.37.66.49,1,.5,2.09.92,3.09,1.48s2.12,1.32,3.16,2a2.37,2.37,0,0,0,2.55.42.55.55,0,0,1,.47,0c.73.49,1.37.14,2.05-.13.32-.12.94-.25,1-.15.4.77.9.38,1.39.21l1.1-.39.2,1,.33.2c-.4-1.22.65-.89,1-1.34-.71-.47-1.36-1-2.06-1.33a5.14,5.14,0,0,0-1.31-.33,4.11,4.11,0,0,1-1.09-.9c-.37-.38-.7-.53-1,.1a1.08,1.08,0,0,1-.73.48c-.79.1-1.26-.46-1.42-1.57.47,1,1.1,1.17,2,.59-.52-.31-1-.62-1.5-.88C114.28,36.8,114.07,37,113.92,37.14ZM48.15,100.45l0,0c-.79-2.82-.2-5.74-.55-8.62A1.29,1.29,0,0,0,48.08,90c-.11-.21-.22-.61-.12-.72.54-.56.4-.92-.2-1.28-.19-.12-.27-.4-.41-.61A2.45,2.45,0,0,0,47.83,85a1.27,1.27,0,0,1,.31-1.35.92.92,0,0,0-.09-1.52c-.37-.27-.84-.55-1-.94a9.31,9.31,0,0,0-1.79-2.28,2.1,2.1,0,0,1-.21-.51l.15-.09L48,80.49c0-.51,0-.87.06-1.23s-.1-.49,0-.65a1.74,1.74,0,0,0,.11-2s.11-.17.11-.26c0-.5.12-1.11-.11-1.48-.68-1-.75-1.23-.07-2.24a1,1,0,0,0,.13-.55,7.1,7.1,0,0,0-.08-1.73c-.08-.3-.52-.52-.8-.77-.14.21-.37.4-.39.62,0,.47.06,1,0,1.42-.09.91-.21,1.81-.37,2.7,0,.15-.27.26-.42.39a2.43,2.43,0,0,1-.26-.61c0-.16.22-.33.24-.5,0-.49.25-1.16,0-1.45a1.8,1.8,0,0,1-.27-1.72A4.51,4.51,0,0,0,45.06,67a3.21,3.21,0,0,0-.13.43c-.11,1.61-.25,3.22-.31,4.83s0,3.4-.06,5.1c0,1.19-.11,2.39-.19,3.58-.07,1-.2,2-.27,3S44,85.8,44,86.7a9.57,9.57,0,0,0,0,2.57,3.63,3.63,0,0,1,0,1.67c-.13,1-.44,2.11.31,3a6.49,6.49,0,0,0,.87.74c-.88.25-1,.25-1.05,1.22a29.17,29.17,0,0,0-.08,3.1c0,3,.07,6.06.14,9.09a2.7,2.7,0,0,0,.34,1.52,20.42,20.42,0,0,0,2.05,2c.8.75,1.59,1.51,2.4,2.24.39.36.81.67,1.21,1v-4.37l.35-.09c.45.65-.2,1.63.31,2.13-.19.25-.48.47-.44.62a25,25,0,0,0,.73,2.7c.06.18.41.27.63.4a3,3,0,0,0,.23-.79c0-.43-.18-.87-.16-1.3.06-1,.25-2,.28-3.06a17.85,17.85,0,0,0-.17-2.74c-.12-1.07.42-2.14-.08-3.2,0-.06.09-.19.12-.3a3.51,3.51,0,0,0,.24-.94c0-.87-.1-1.74-.08-2.62,0-1.31.13-2.62.2-3.94,0-.2,0-.4,0-.6-.22,0-.49-.07-.66,0a.88.88,0,0,1-1.33-.36,5,5,0,0,0-.45-.56h.21c.07-.33.13-.67.21-1a2.42,2.42,0,0,1,.1-.36c.13.06.36.11.38.19.09.44.13.9.18,1.35.47-.79.89.28,1.42,0,0-1.27.36-2.62-.73-3.62-.33.07-.7.15-.88,0-.51-.41-.94-.93-1.41-1.38a4.36,4.36,0,0,0-.55-.41,2.81,2.81,0,0,0-.21.66c0,1.24,0,2.48-.13,3.71-.05.81-.2,1.61-.29,2.25a10.82,10.82,0,0,0,1.44,1.63,6.62,6.62,0,0,1,1.74,1.6c.59.9.59,1.12-.3,1.33-.63-.76-1.2-1.49-1.82-2.18-.27-.29-.56-.27-.66.19l-.12.66Zm24.24,19,.75,1.36.23,0-.11-1.93-.28-.1-.6.73c0-1.22,0-2.44,0-3.66a.7.7,0,0,1,.21-.51c.57-.44.29-.77-.09-1,.12-.31.32-.57.29-.8-.1-.89-.28-1.77-.44-2.64-.52.14-.84.68-.94,1.8-.17,2-.35,3.89-.51,5.84-.1,1.18-.11,2.35-.3,3.55a40.94,40.94,0,0,0-.34,5.87c0,2.29,0,4.58,0,6.87,0,.55.09,1,.83,1s.52-.58.47-1.06,0-1.06,0-1.59c.67.71,1.57,1.1,1.52,2.13,0,.12.57.31.89.41.14,0,.33-.13.48-.11a18.83,18.83,0,0,0,5.34-.58c1.56-.25,3.1-.59,4.65-.87.36-.06.73,0,1.08-.09,1.22-.26,2.43-.55,3.65-.82a4,4,0,0,1,.69,0l.11.29-1.61.66c-.24.09-.57.13-.7.31-.46.65-2.61,1.28-3.2.76a1.23,1.23,0,0,0-1.52-.1,7.88,7.88,0,0,1-1.42.65,32.37,32.37,0,0,1-3.27.57c-1.17.15-1.38.39-1.35,1.53.06,2,.07,4.07.1,6.1,0,1.13,0,2.25,0,3.38s.11,2.36.05,3.54c-.07,1.38-.28,2.75-.41,4.13a5.3,5.3,0,0,0,.13,1c1-1.33,1.81-2.44,2.64-3.54l.37.06c.1.65.44,1.38.24,1.93a10.33,10.33,0,0,1-2.75,4.43.7.7,0,0,1-.52.08c-.45-.89-.66-.5-.89.13a4.83,4.83,0,0,1-.44.76c-1.22-.26-1.32-.17-1.18,1.11a1.19,1.19,0,0,0,0,.33c.07.19.16.51.28.53a1.31,1.31,0,0,0,.68-.21c.17-.09.3-.31.47-.36a9.83,9.83,0,0,1,1.41-.3c.82-.1.51-.79.7-1.23a2.36,2.36,0,0,1,.36-.53,27.32,27.32,0,0,1,2.53-2.92c.78-.7,1.19-1.81,2.33-2.14a1.24,1.24,0,0,0,.78-.68c.26-.92.4-1.88.57-2.82.09-.46.16-.93.23-1.39l.34,0a7.68,7.68,0,0,0,0,1.44,10.61,10.61,0,0,1-.61,5.71c-.08.22-.43.57-.51.53-.94-.41-1.1.46-1.46.9a17.28,17.28,0,0,0-1,1.7c.86-.15,1.5-.2,2.1-.37,2.2-.64,4.39-1.32,6.58-2,.63-.19,1.26-.38,1.9-.55,1-.27,2.09-.48,3.12-.78,1.35-.4,2.66-.91,4-1.28,2.14-.57,4.31-1,6.45-1.61,1.15-.31,2.25-.77,3.38-1.11,1.86-.56,3.73-1.08,5.59-1.62,1.09-.31,2.2-.57,3.27-1,1.34-.48,2.67-1.05,4-1.63.52-.23.93-.75,1.46-.9a27.78,27.78,0,0,1,3-.59l6.71-1.23.16-.05c1.57-.43,3.14-.89,4.73-1.29,2.33-.58,4.67-1.11,7-1.68,1.51-.36,3-.73,4.53-1.12,1.17-.31,2.33-.67,3.5-1,.36-.11.72-.25,1.09-.33.85-.19,1.73-.32,2.57-.55,1-.28,2-.7,3-1,1.29-.33,2.62-.53,3.92-.83a14.21,14.21,0,0,0,1.55-.54c-1.35.07-1.72-.09-1.94-.94.91-.3,1.82-.63,2.74-.9,1.51-.45,3-.91,4.56-1.27a9.33,9.33,0,0,1,2,0c.45-.95.88-1,2.18-.56.32.12.84-.15,1.21-.35.52-.28.94-.82,1.48-1,1.89-.48,3.8-.84,5.71-1.25.13,0,.25-.13.38-.17.75-.27,1.5-.57,2.27-.77s1.38-.18,2-.37c2.47-.7,4.92-1.46,7.39-2.16,2.05-.58,4.13-1.09,6.19-1.63a6,6,0,0,0,1.3-.29,3.74,3.74,0,0,1,2.93-.4,5.69,5.69,0,0,1,1.05.54c.17-1.26.39-2.54.5-3.82.3-3.48.59-7,.82-10.45.13-2,.15-4,.2-5.94.07-2.54.14-5.07.16-7.6a7.72,7.72,0,0,0-.31-1.62l-.33,0-3.31,4.1c0-.34-.07-.44,0-.49.9-1.24,1.79-2.49,2.74-3.69.51-.65,1.3-1.08,1.32-2.09,0-2.4.15-4.8.24-7.2,0-.6.06-1.19.11-2a29.91,29.91,0,0,0-4,.84,14.71,14.71,0,0,1-4.5,1,13.54,13.54,0,0,0-2.84.59c-2,.48-4,1-6,1.44-1.42.29-2.89.3-4.3.63-2.62.6-5.2,1.37-7.81,2-2.83.69-5.68,1.32-8.53,1.93-1.87.4-3.76.72-5.64,1.06-.46.09-.94.08-1.4.19q-2.62.63-5.25,1.31c-1.56.4-3.13.79-4.67,1.25-2,.6-3.9,1.38-5.89,1.89s-4.16.75-6.21,1.24c-1.76.42-3.47,1-5.19,1.58-.84.27-1.65.65-2.5.89-1.09.32-2.21.54-3.31.81-1.84.44-3.67.9-5.51,1.33-1.67.38-3.38.67-5,1.11-2.33.61-4.63,1.34-6.94,2-.81.24-1.64.44-2.44.72-2.18.78-4.34,1.62-6.53,2.37-1,.35-2.11.48-3.14.82-2.19.74-4.35,1.57-6.55,2.32s-4.72,1.52-7.08,2.29a15.76,15.76,0,0,0-1.6.65,13.47,13.47,0,0,1-1.52.76c-.66.21-1.15-.19-1.31-.93-.06-.3-.14-.59-.22-.88-.41-1.43-1.07-2.8-.75-4.37a24.5,24.5,0,0,0,.36-2.71c0-.54,0-1.09,0-1.93-1.61,1.23-3.07,2.62-4.78.8-.33,1-.64,1.85-.92,2.74a.92.92,0,0,0,0,.46,8.21,8.21,0,0,1,.28,1.43c0,1.25,0,2.51-.16,3.75-.11,1,0,2-.77,2.81-.3.32-.28.93-.41,1.41l.28.07.46-1.32.26.09c0,.25-.09.51-.13.77-.14.73-.29,1.45-.4,2.18-.21,1.31.41,2.82-1,3.84-.12.09-.07.42-.11.64s-.07.31-.1.47l-.27,0c.17-1.91.33-3.82.5-5.76-.72-.22-.64.5-.83.83a10.73,10.73,0,0,0-.54,1.49l-.58-1.88c-.28.19-.43.38-.39.51.38,1.06-.06,2.07-.12,3.1-.09,1.52,0,3,.08,4.58.05,1.09.18,2.18.23,3.27,0,.2-.26.41-.4.61-.13-.21-.37-.41-.37-.62,0-1.34,0-2.67,0-4,0-2,.15-4,.16-6a10,10,0,0,0-.33-1.86C73,120.73,72.29,120,72.39,119.5ZM177.48,55.68l1,.11c.39,0,.78.05,1.18,0s.65-.12,1-.12c.6,0,1.2,0,1.8.08.76,0,1.53.15,2.29.14s1.47-.17,2.21-.21c1.36,0,2.73,0,4.08-.11,1.87-.19,3.73-.49,5.58-.8s3.67-.65,5.49-1c2.57-.52,5.14-1.1,7.71-1.62,1.28-.26,1.84-.93,1.64-2.2-.11-.74-.33-1.45-.49-2.18a11.3,11.3,0,0,0-1.84-4.11c-.16-.22-.38-.49-.61-.54a11.74,11.74,0,0,0-2.68-.45c-1.13,0-2.26.25-3.39.33-1.87.13-3.75.18-5.63.32s-3.79.35-5.69.56a18.13,18.13,0,0,0-5.62,1.22,23.8,23.8,0,0,1-3.28,1,12.51,12.51,0,0,0-2.3.7,6.38,6.38,0,0,0-3.2,4.86C176.39,53.12,177.06,54.49,177.48,55.68Zm-35.36,4.77h.26a2.63,2.63,0,0,0,.14.76c.11.21.36.51.53.5a37,37,0,0,0,4.22-.42c1.36-.26,2.66-.82,4-1.09,2.37-.47,4.77-.82,7.15-1.23a15.07,15.07,0,0,0,2.52-.55,27.47,27.47,0,0,0,3.69-1.61c1-.56,2.06-1.27,1.94-2.72-.14-1.68-.28-3.36-.45-5a.63.63,0,0,0-.47-.37c-.54,0-1.1,0-1.65.07-.18,0-.41.1-.53,0a4.5,4.5,0,0,0-3.09-.68c-1.08.08-2.16.14-3.23.29q-2.9.42-5.77.93c-1.72.3-3.44.64-5.15,1l-4.32.84c-.82.16-1.65.29-2.45.52-.43.12-1.06.34-1.16.65a4.92,4.92,0,0,0-.19,2.22c.29,1.66.71,3.3,1.14,4.93a19.74,19.74,0,0,0,.85,2.16c.32.79,1,.35,1.54.39.08,0,.22-.5.3-.78S142.06,60.7,142.12,60.45Zm58.63,7.72,0-.28-.37-.13c-.75-.27-1.37.18-2.05.33-1.49.33-3,.47-4.52.73-1.35.25-2.68.58-4,.84-1.09.2-2.19.32-3.28.53-2.17.41-4.31.92-6.48,1.28-1.64.28-3.31.38-5,.6a34.13,34.13,0,0,0-4.28.72,40.33,40.33,0,0,1-7.54,1.3c-1.19.1-2.4,0-3.58.21-1.71.24-3.39.67-5.1,1-2.27.37-4.56.67-6.84,1l-8.87,1.36c-1.45.22-2.9.4-4.35.63-.82.12-1.63.34-2.45.45-1.68.24-3.37.37-5,.67q-3.69.66-7.35,1.49c-1.91.43-3.79,1-5.7,1.47-2.49.55-5,1-7.49,1.5-1,.2-2.08.32-3.1.55s-2.23.59-3.35.88c-1.6.41-3.22.79-4.82,1.2-.4.1-.77.31-1.17.42l-4.89,1.29c-1.54.41-3.08.85-4.64,1.21-1.29.31-2.6.51-3.9.78q-3.37.7-6.75,1.44c-.66.15-1.31.33-2,.52s-1,.31-1.56.51a4.48,4.48,0,0,0-.72.44c.19.22.37.46.58.66s.52.37.78.55.52.51.81.53a.9.9,0,0,1,.9.9c0,.8.36.87.95.87a5.66,5.66,0,0,1,.92.13c.61.12.92,0,1-.75,0-1,.39-1.36,1.4-1.53a3.05,3.05,0,0,0,.4-.13c-.13-.73-.19-1.4.79-1.5a.29.29,0,0,0,.17-.17c.17-.71.78-.81,1.33-1,.88-.24,1.77-.44,2.66-.64l4-.91c.6-.13,1.19-.28,1.79-.35a20.38,20.38,0,0,0,3.15-.32A35.35,35.35,0,0,1,96.7,87.9c.35-.05.72.06,1,0,1.36-.26,2.71-.58,4.07-.83s2.45-.42,3.67-.62l.09,0c1.63-.31,3.26-.6,4.89-.93a18.13,18.13,0,0,0,1.92-.52c1-.32,2-.68,2.92-1a4.5,4.5,0,0,1,1.13-.43,14.22,14.22,0,0,0,3.89-.66c.88-.27,1.82-.34,2.73-.54a19,19,0,0,1,2.71-.63c1.66-.08,3.23-.69,4.94-.59a14.5,14.5,0,0,0,3.38-.61,7.57,7.57,0,0,1,2.36-.34c.86.13,1.15,0,1-.79l5.37-1c1-.18,2-.38,3-.54.7-.12,1.41-.19,2.11-.24s1.31-.07,2-.06a13.08,13.08,0,0,0,1.35.13c1.63-.2,3.24-.49,4.86-.71,1.84-.24,3.68-.42,5.51-.68,2.22-.32,4.43-.7,6.65-1.06.21,0,.5-.08.6-.23a1,1,0,0,1,1.36-.32,15.62,15.62,0,0,1,2.46-.84c2.75-.45,5.59-.53,8.17-1.77a.39.39,0,0,1,.24,0,5.06,5.06,0,0,0,2.68-.41,21.93,21.93,0,0,0,3,0c1.05-.16,2.07-.53,3.12-.76.6-.13,1.22-.16,2.06-.26.56-.46,3.3-1.5,3.9-1.09.9-.32,1.62-.61,2.37-.82S199.91,68.34,200.75,68.17ZM85.08,98.75a1.36,1.36,0,0,0,1.79,1.08,4.86,4.86,0,0,1,.66-.15c1.12-.29,2.25-.55,3.37-.88.84-.25,1.66-.6,2.5-.87A20.55,20.55,0,0,1,98,96.84a14.45,14.45,0,0,0,2.07-.56c.56-.12,1.19-.66,1.65.21,0,.09.37.07.55,0,.69-.14,1.38-.33,2.08-.47,1.22-.24,2.45-.44,3.67-.69.84-.16,1.68-.34,2.51-.56,1.58-.41,3.14-.88,4.72-1.26,1.94-.48,3.89-.9,5.84-1.33.64-.15,1.28-.24,1.91-.41,1.28-.35,2.55-.76,3.83-1.09,1.48-.38,3-.63,4.45-1,2.18-.6,4.32-1.37,6.52-1.9,2.72-.66,5.49-1.15,8.23-1.73a8.09,8.09,0,0,0,2.08-.56,30.09,30.09,0,0,1,7.37-2.44c3.47-.76,7-1.33,10.46-2q4.06-.83,8.12-1.77a25.7,25.7,0,0,0,2.65-.88,1.19,1.19,0,0,0,.29-.21,12.31,12.31,0,0,0-2.52.23c-2.45.49-4.89,1-7.34,1.51-1.82.36-3.65.64-5.48.94-.49.09-1,.11-1.48.21l-6.27,1.34c-1.57.33-3.14.59-4.7,1-2.59.61-5.15,1.35-7.74,1.93-3,.67-5.94,1.22-8.9,1.84-2.34.49-4.67,1-7,1.53-.94.2-1.9.36-2.84.58-1.82.45-3.62,1-5.46,1.38s-4,.76-6,1.14c-.93.17-1.86.33-2.78.54-1.83.42-3.66.88-5.48,1.32-1.18.29-2.36.57-3.54.88a20.38,20.38,0,0,1-3.27.9,16.46,16.46,0,0,0-3.87.81C89.93,97,87.33,97.4,85.08,98.75ZM100.41,30.2a7.24,7.24,0,0,1,.37-.74c.35-.52.23-.83-.35-1.08s-1.22-.62-1.64-.85c-.61.14-1.05.26-1.5.32a.42.42,0,0,1-.36-.22c0-.1.09-.3.21-.37a3.17,3.17,0,0,1,.62-.28l0-.3a19.48,19.48,0,0,0-2.29-.91c-.42-.12-1.06.27-1.37.07-1-.65-2.09-.34-3.1-.33-1.77,0-3.6-.31-5.33.64l.92.81-.15.26a4.67,4.67,0,0,1-.9-.35c-.65-.41-1.23-.94-2.1-.78s-1.74.28-2.62.37c-.58.06-1.17,0-1.75.07-.95.11-1.88.28-2.82.43-.27,0-.54.11-.81.16-.56.09-1.12.21-1.69.27s-1,.06-1.56.08-.81,0-1.22,0c-.23,0-.47,0-.71.07v.3l2.89.65,2,1.2c.18-.54.49-.15.79.09a5.75,5.75,0,0,0,1.13.88c1.23.54,2.53.9,3.72,1.5.63.32,1,.48,1.29-.06a4.29,4.29,0,0,0,1.28.36,22.4,22.4,0,0,0,2.94-.32A15.41,15.41,0,0,0,88,31.64a1.62,1.62,0,0,1,.55.09,14.36,14.36,0,0,0,1.58.24A16,16,0,0,0,92,31.88a6.73,6.73,0,0,0,.73-.13l-2-1.76h3.13c0,.18-.08.45-.11.72-.08.57.14.87.74,1,1.3.2,2.66,0,3.92.5.08,0,.21,0,.32-.06a9.13,9.13,0,0,1,1.26-.19c.75,0,1.51.1,2.25,0a3.14,3.14,0,0,0,1-.48c-.25-.34-.43-.87-.75-1A12.07,12.07,0,0,0,100.41,30.2ZM78.66,62l-.07-.22c-.32.11-.65.21-1,.33a7.37,7.37,0,0,0-3.4,2.4c-.63.89-1.06,1.92-1.61,2.86-.31.51-.92.94-1,1.47a7.25,7.25,0,0,0,.52,4.4,2.34,2.34,0,0,0,2.15,1.64c.74,0,1.51,0,2.22.11,1.42.14,2.1-1,3.18-1.39a2.75,2.75,0,0,0,1.22-1.19A17.39,17.39,0,0,0,83,67.54a6.74,6.74,0,0,0-.35-3.78,2.89,2.89,0,0,0-3.22-1.49c-.44.13-.9.2-1.35.3l0-.21Zm-42,29.17c.66,0,1.06,0,1.34-.1.63-.32,1.38-.72.28-1.43-.05,0,0-.17,0-.23-.18-.26-.37-.51-.56-.77l-.43-.6a3.73,3.73,0,0,0,.67-.09,1.89,1.89,0,0,0,.72-.27c.06-.06-.11-.42-.21-.62-.28-.55-.75-1-.19-1.73.17-.22-.1-.76-.13-1.15,0-.59-.07-1.19-.1-1.78,0,0,0,0,.1-.09l.4.08c0-.65-.08-1.26-.13-1.87a7.37,7.37,0,0,0-.16-.79,2.8,2.8,0,0,1-.13-.69c.06-.68.22-1.35.23-2,0-.45-.23-.9-.24-1.35,0-1.25-.08-2.51,0-3.76,0-.45.34-.9.33-1.34,0-1.3-.14-2.6-.24-3.9-.11-1.57-.23-3.14-.34-4.71a1.16,1.16,0,0,1,.11-.38,2.41,2.41,0,0,0,.21-.84c0-.53-.23-1-.28-1.57-.08-1-.1-2.07-.16-3.1-.08-1.29-.17-2.59-.29-3.87a2.69,2.69,0,0,0-.36-.77l-.24.08a7,7,0,0,0-.1.8c-.07,1.09-.09,2.18-.19,3.26-.12,1.36-.52,2.75.79,3.91-.68.14-1.53.15-.91,1.16l-.79.14c.2.36.49.63.48.9,0,.91-.21,1.83.49,2.29-.25.37-.58.65-.61,1a29.83,29.83,0,0,0-.16,3.27,17.49,17.49,0,0,0,.26,2l-.47.5-.38-1h-.24a2.57,2.57,0,0,0-.2.69c0,1.09.06,2.17.09,3.26a5.11,5.11,0,0,0,.06,1,6.15,6.15,0,0,1,.31,1.21,1.31,1.31,0,0,0,.56,1.29,4,4,0,0,1,.46.42c-.32.08-.72,0-.87.23-.4.47.17,2.44.69,2.81a15.31,15.31,0,0,1,1.23,1.06l-.17.22c-.18-.1-.38-.3-.53-.27-.36.07-1,.25-1,.38,0,1.19.12,2.38.19,3.57a5.12,5.12,0,0,1-.06.78c0,.18-.18.41-.12.54.42.95-.06,2.14.78,3a.48.48,0,0,1,0,.45,1.5,1.5,0,0,0-.25,1.34c.22,1.58,0,3.23.32,4.79.24,1.29-1,2.67.4,3.79l-.56.31,1.32,2,.28-.12a19,19,0,0,0,.15-2c0-1.45.36-2.86.19-4.31-.12-1-.08-2.11-.19-3.15a2.2,2.2,0,0,0-.53-1A6.94,6.94,0,0,0,36.66,91.19Zm105.24-61a7.48,7.48,0,0,0-.81-.92,5.83,5.83,0,0,0-2.49-1.43c-.53-.11-1.09-.08-1.63-.14-.39,0-.78-.14-1.17-.21l.07-.17,1.2-.44-2.35-1.11-.35.31a3.07,3.07,0,0,0-.22-.6c-.1-.15-.3-.38-.43-.36-.82.13-.75-.49-1-1.05a12.55,12.55,0,0,1,1.84.48,9.54,9.54,0,0,1,1.42.92l.34-.5a11.9,11.9,0,0,0,1.41.94c.18.09.5-.05.73-.15a.52.52,0,0,0,.14-.4,2.58,2.58,0,0,0-.56-.25.3.3,0,0,1-.08-.07l1.47-1.37a5.29,5.29,0,0,0,1,.63c.19.08.49-.1.73-.17-.05-.19,0-.44-.16-.57a2.89,2.89,0,0,0-2.58-1.08c-.85.09-1.69.23-2.54.32a4.67,4.67,0,0,1-1.49,0c-1.4-.31-1.66-.2-2,1.12a3.07,3.07,0,0,1-.76-.24,3.39,3.39,0,0,0-2.5-.24,17.69,17.69,0,0,1-2.3.19,3.57,3.57,0,0,1-.93-.25c-.26,1.05-.49,1.13-1.45.73a4.51,4.51,0,0,0-1.57-.47c-1.61-.05-3.23,0-4.84,0a3.84,3.84,0,0,0-.81.2c.58.52,1.05,1,1.55,1.38.11.09.32.05.48.1a1.45,1.45,0,0,1,.53.25c.82.93,1.65,1.82,3,1.55.24.46.35,1,.68,1.24a3.29,3.29,0,0,0,3,.26,13.29,13.29,0,0,1,1.39-.35c.1-.39.38-.5,1-.12a1,1,0,0,0,1.6-.18,6.82,6.82,0,0,1,1.32-1c.63.19.23.72.06,1.33a1.54,1.54,0,0,0,.74-.38c.23-.2.44-.41.5-.47l.82.68c.16.14.38.25.45.43a13.5,13.5,0,0,1,.48,1.44c.82-.36,1.33-.29,1.6.22a1.42,1.42,0,0,0,2,.42,2.31,2.31,0,0,1,1-.43C140.12,30.18,140.89,30.23,141.9,30.23Zm23.18,53.22-1,.21c-1.94.35-3.9.6-5.82,1s-4,1.13-6,1.74-3.93,1.35-5.93,1.88c-2.41.64-4.86,1.12-7.29,1.68-1.08.25-2.16.49-3.23.78-2.05.55-4.07,1.18-6.12,1.7-1.82.47-3.66.81-5.48,1.26s-3.41.9-5.12,1.37c-.47.13-.92.34-1.4.45-1.11.26-2.23.46-3.34.7-2.94.65-5.87,1.34-8.81,2-1.85.4-3.71.72-5.56,1.11-1.64.34-3.29.64-4.9,1.11s-3.47,1.19-5.19,1.82a1.81,1.81,0,0,0-.58.49s.12.31.18.3a4.21,4.21,0,0,0,.86-.16c.25-.07.49-.2.75-.26a7.86,7.86,0,0,0,1-.16,19.58,19.58,0,0,1,4.54-1.25,24.17,24.17,0,0,0,3.69-1c2.19-.61,4.37-1.28,6.57-1.82,1.88-.46,3.79-.8,5.69-1.14,2.15-.38,4.31-.7,6.46-1.06a6.11,6.11,0,0,0,.74-.17c.87-.27,1.72-.61,2.6-.8,1.32-.29,2.67-.44,4-.71.92-.19,1.81-.48,2.71-.74,1.38-.4,2.75-.87,4.14-1.2.81-.19,1.68-.06,2.49-.23,2.33-.51,4.64-1.11,7-1.67,1.14-.28,2.29-.49,3.4-.85,1.37-.45,2.67-1.06,4-1.5a13.08,13.08,0,0,1,2.17-.34c.3,0,.61,0,.91,0,2.26-.37,4.39-1.58,6.8-1.13.09,0,.2-.07.31-.1a10.71,10.71,0,0,1,3.87-.84.84.84,0,0,0,.68-.45A17.71,17.71,0,0,0,165.08,83.45ZM145.62,37.23a4.46,4.46,0,0,1,1.6,0,25,25,0,0,1,2.51,1.48c.86-.61.87-.57,1.05.42a1.07,1.07,0,0,0,.75.63c.26,0,.57-.28.86-.44l-.9-.37s0,0-.09-.18l2.13-.42L153.31,40l.78-.38.25.75.55-.47.47.61c.38-.65.75-1.23,1.06-1.84,0-.07-.24-.44-.34-.43-.4,0-.5-.13-.73-.43s-.94-.66-1.34-1.07c-.9-.94-2.65-.37-3.24-1.84,0-.07-.21-.06-.31-.12a7.09,7.09,0,0,1-1.08-.6,3.4,3.4,0,0,0-2.93-.71,2.35,2.35,0,0,1-2-.49c-.79.22-1.39.36-2,.56a.84.84,0,0,0-.5.44.6.6,0,0,0,.25.54c.65.29,1.33.52,2,.76l.78.29c.12,0,.25,0,.38.06l.72.13c-.14.25-.25.67-.43.7a25.63,25.63,0,0,1-2.76.32.59.59,0,0,1-.4-.34c-.37-1.28-1.5-1.77-2.49-2.4a1.48,1.48,0,0,0-2,.41c-.39.4-.64.29-.73-.21a11.52,11.52,0,0,1-.11-1.22c-.42,0-.8.07-1.19.07-.7,0-1.4,0-2.11,0-.48,0-1,.05-1.44.07l-.57.05c0,.26,0,.64.12.75.62.46,1.31.83,2,1.23a4.24,4.24,0,0,0,2.14.88c.18,0,.35.28.59.48.16-1.14,1.17-.67,1.82-1.12l.62,1.42-.38.18-.59-1.23a4,4,0,0,0-.62.75c0,.06.3.31.47.47a2.5,2.5,0,0,1,.24.22c1.32,1.36,2.74,2.46,4.82,2.14a3.06,3.06,0,0,1,.83.06l-.15.63.19.21c.36-.26.87-.44,1.07-.8.42-.76.9-1,1.66-.43C147.12,38,145.82,38,145.62,37.23ZM39.28,84.3l-.25.07c.11.33.18.92.34.94,1,.17.54,1,.61,1.45a8.61,8.61,0,0,1-.09,1.82,1,1,0,0,1,0,.23l-.7-.11c.16.31.26.51.37.71s.5.65.51,1a17.27,17.27,0,0,1-.2,2,1.31,1.31,0,0,0,.1.8c.56.74,1.18,1.43,1.8,2.15a1.6,1.6,0,0,0-.33-2.48c.16-.18.45-.34.46-.53,0-.67,0-1.35,0-2a5.58,5.58,0,0,1,.13-.9c0-.23.18-.51.1-.7a5.82,5.82,0,0,1-.27-2.35c.06-3,0-6.11,0-9.17a9.06,9.06,0,0,0-.26-1.53,1.2,1.2,0,0,1,0-.33c.07-1.83.21-3.66.21-5.49,0-1.23-.21-2.47-.34-3.7A19.66,19.66,0,0,0,41.12,64a1,1,0,0,0-1.52-.74,13.25,13.25,0,0,1-.33,6.85h.59L39.36,72a14.47,14.47,0,0,1,.74,1.38,1.18,1.18,0,0,1-.08.68,4.15,4.15,0,0,0-.29.86c0,1.15,0,2.31,0,3.59a9.62,9.62,0,0,1,.19,2.86,2.75,2.75,0,0,0-.06,1.21A11.22,11.22,0,0,1,40,84.5c0,.09-.15.19-.27.33ZM173.7,88.75l.13.29a3.28,3.28,0,0,0,.63-.06l5-1.22c.95-.23,1.89-.46,2.84-.67,2-.44,4-.89,6-1.31.46-.1,1,0,1.42-.13q5.06-1.25,10.09-2.53c1.17-.29,2.33-.63,3.5-.89s2.41-.47,3.61-.72c.62-.13,1.25-.28,1.86-.46,1-.3,2-.64,3-.92,1.26-.34,2.53-.6,3.78-1,.92-.27,1.06-.74.7-1.46-1.18.4-2.32.84-3.5,1.17s-2.94-.34-4,1c-.09.11-.31.11-.47.15a11.49,11.49,0,0,1-1.62.37c-.79.08-1.74.56-2.27-.41-.43-.8-1-.62-1.61-.47s-1.35.2-2,.33a2.63,2.63,0,0,0-.62.28,6,6,0,0,0,.32.62,1.2,1.2,0,0,0,.34.23l0,.28c-1.19.38-2.36.8-3.56,1.13-2.69.75-5.39,1.49-8.1,2.17-1.81.45-3.66.8-5.49,1.21a7.62,7.62,0,0,1-1.33.38,7.05,7.05,0,0,0-2.7.66,30,30,0,0,1-3.39,1c-.46.13-.92.21-1.36.37A11.36,11.36,0,0,0,173.7,88.75Zm-63.64-27.5.29-.07c-.24-1.33-.42-2.68-.76-4a4.85,4.85,0,0,0-1.08-2.32c-.3-.28-1.32.21-2,.35-.11,0-.24,0-.32.08s-.34.27-.33.41c0,1.82,0,3.66.21,5.47s.58,3.32.85,5c.14.85.16,1.71.31,2.56,0,.18.48.49.53.45,1.21-.87,3.24-1,3.09-3.15,0-.15.17-.32.16-.47a8.81,8.81,0,0,0-.16-1.45C110.61,63.15,110.32,62.2,110.06,61.25ZM80.78,162.92l.1.37c1.31-.27,2.63-.47,3.92-.81,1.83-.48,3.64-1.08,5.47-1.6a29.1,29.1,0,0,0,5.13-1.47,18.63,18.63,0,0,1,3.13-1.07c1.13-.34,2.28-.6,3.41-.94,1.31-.38,2.6-.83,3.91-1.23.64-.19,1.29-.34,1.93-.52a6.44,6.44,0,0,1,1.11-.34,5.08,5.08,0,0,0,3.2-.91,2.08,2.08,0,0,1,2-.45,1.69,1.69,0,0,0,1.52-.39,1,1,0,0,1,1.19-.55c.61.06,1-.47,1.68-.38A6.93,6.93,0,0,0,121,152c.29-.08.73-.19.79-.38a3.8,3.8,0,0,0,0-1.21l-1.08.16a2.34,2.34,0,0,0-.24.09l-7.13,1.88c-1.07.29-2.15.58-3.2.91s-1.8.67-2.72.94c-1.62.47-3.27.83-4.87,1.34-2.42.76-4.81,1.63-7.22,2.43-2.22.74-4.45,1.48-6.68,2.19-1.82.58-3.66,1.09-5.49,1.66C82.34,162.3,81.57,162.63,80.78,162.92Zm-28.49-.75a3.5,3.5,0,0,0,.16-.75,8.92,8.92,0,0,1,0-2.87,7.13,7.13,0,0,0,.2-2.4c-.07-1.35-.24-2.69-.4-4a1.67,1.67,0,0,0-.34-.66l-2-2.79a10.66,10.66,0,0,0,.06,3,11.76,11.76,0,0,0,1.63,2.6l-.12.13L50,152.79c.13,2-1.48.77-2.13,1.4l.46.73a3.37,3.37,0,0,1-.79-2.75,3.34,3.34,0,0,0-.17-2.81c-.46-.69-1-1.35-1.49-2a4.11,4.11,0,0,0-.62-.51c-.05.28-.1.44-.11.59-.06,1.54-.14,3.09-.16,4.63a2.66,2.66,0,0,0,.26,1.36,37.7,37.7,0,0,0,2.7,3.91C49.26,159,50.73,160.45,52.29,162.17Zm141.53-29.36-.15-.32-3.93.64c-2.44.41-4.88.78-7.31,1.26-1.81.36-3.6.86-5.4,1.29-1.24.29-2.49.56-3.72.87-1.5.39-3,.82-4.49,1.21-1.1.29-2.21.51-3.28.86-.28.09-.48.55-.62.88,0,.07.32.36.54.47a1.49,1.49,0,0,0,.79.17c.82-.12,1.63-.33,2.45-.48a46.68,46.68,0,0,0,4.88-.93c1.77-.54,3.58-.86,5.37-1.27,1.09-.25,2.18-.55,3.28-.79.37-.09,1,.05,1.09-.15.51-.8,1.42-.8,2.05-1.23,1-.68,2.09-.59,3.13-.9,1.58-.46,3.21-.8,4.81-1.22C193.5,133.12,193.65,132.93,193.82,132.81ZM65.52,93.73l-.31.07c0,.33,0,.67,0,1s.16.66.18,1c.12,2.45.25,4.9.33,7.35.16,4.49.38,9,.41,13.46,0,5-.15,10-.18,15.07a36,36,0,0,0,.29,3.87c0,.17.26.33.41.49.15-.16.39-.31.43-.5a4.17,4.17,0,0,0,0-1c0-4.43,0-8.86,0-13.28,0-2.68.25-5.35.26-8,0-1.77-.28-3.54-.32-5.32-.06-2,0-4,0-5.95,0-.45,0-.86-.5-1.13a.92.92,0,0,1-.38-.76,4.14,4.14,0,0,1,.41-1.51c.78-1.4-.09-2.57-.46-3.8A4.17,4.17,0,0,0,65.52,93.73ZM69.41,20v-.32a1.87,1.87,0,0,0-.63-.26c-2.2,0-4.4.06-6.6.2-1.89.12-3.78.42-5.67.58-.94.08-2-.29-2.46,1.3l-.15-1.07-1,.14.43.74c-.52.16-.89.28-1.2-.28-.14-.25-.61-.59-.77-.52-.43.18-1.22.13-1,1.08-.66-1.2-1.68-.53-2.52-.6-.11,0-.25.48-.46.91l-.5-.78-3.58.32a2.13,2.13,0,0,0-.57.1.42.42,0,0,0-.2.32c.06.13.26.33.32.31.68-.3.92.2,1.26.61a1,1,0,0,0,.71.33c1.31,0,2.62,0,3.93-.12,2.13-.19,4.24-.49,6.37-.68,1.33-.12,2.68-.11,4-.19,1.71-.11,3.43-.25,5.14-.37.83-.06,1.67-.05,2.49-.17.26,0,.46-.44.68-.67a2.63,2.63,0,0,0-.79-.23c-.8,0-1.6.1-2.4.16C65.86,20,67.67,20.18,69.41,20Zm40.91,7.28c0-.11,0-.21.07-.26.55-.53.65-.85-.31-.95a2.16,2.16,0,0,1-1.07-.59,3.91,3.91,0,0,0-3.92-1.13c-1.31.47-2.9-.39-3.9,1.09l.74.88.19-.5,1.48.72c-.46.8.3,1,.71,1.37.59-.78,1.06-.72,1.61,0,.2.28.63.39,1,.57s.55.19.67.38c.45.68.92.95,1.6.26a2.57,2.57,0,0,0,3,1.82c1.11-.17,2.26-.14,3.38-.21a2.74,2.74,0,0,0,.64-.28c-1.68-.89-3.24-.39-4.77-.43a.88.88,0,0,1,.48-.24c.35-.07.8,0,1-.21a4.26,4.26,0,0,0,.73-1.08,8.16,8.16,0,0,0-.89-.44C112,27.8,111.14,27.55,110.32,27.28ZM37.86,26.07v.06c-.39,0-.78,0-1.17.05-1.66.2-3.32.39-5,.64-.29.05-.54.38-.82.58a2.63,2.63,0,0,0,.9.34c1.36,0,2.71-.16,4.07-.22s2.67,0,4-.08q2.91-.17,5.82-.45c1.23-.11,2.44-.36,3.67-.49.74-.08,1.5,0,2.25-.06.44-.05.86-.35,1.3-.39,2-.18,4-.31,6.06-.47.18,0,.35-.19.53-.29-.12-.2-.19-.5-.36-.57a3.29,3.29,0,0,0-1.35-.32c-2.72.16-5.44.38-8.16.59a3.83,3.83,0,0,0-.62.22,5.42,5.42,0,0,1-2.07.47,7.77,7.77,0,0,0-2.26,0C42.42,25.86,40.14,26,37.86,26.07ZM203.55,72.63l-.1-.33c-.5.08-1,.19-1.52.24-1.63.18-3.26.29-4.89.51-3.24.41-6.48.89-9.72,1.32-.94.13-1.89.17-2.82.32q-2.75.44-5.48,1a.77.77,0,0,0-.52.47c-.06.58,0,1.17,0,1.9.64-.19,1.2-.4,1.79-.52,1.81-.38,3.64-.73,5.46-1.08l6.7-1.24c.54-.1,1.1-.14,1.63-.28,1.34-.33,2.65-.78,4-1s3-.46,4.44-.72A4.73,4.73,0,0,0,203.55,72.63ZM52.34,77.14a7,7,0,0,0,0-3.27.73.73,0,0,0-.64-.32c-.55.16-.65-.15-.82-.54a4.87,4.87,0,0,0-.78-1.25,1,1,0,0,0-.77-.14c-.11,0-.22.35-.23.55,0,.81,0,1.62-.07,2.42-.11,1.51-.31,3-.38,4.52a3.28,3.28,0,0,0,1.1,3,28.08,28.08,0,0,1,2.15,2.21.72.72,0,0,0,.51.17c.09,0,.23-.24.23-.37,0-.5,0-1,0-1.51,0-1.44-.07-2.87-.15-4.31a1,1,0,0,0-.4-.61c-.34-.23-.79-.32-1.1-.57A6.14,6.14,0,0,1,50,76.05a1.43,1.43,0,0,1-.16-.48C51.26,75.28,51.58,76.47,52.34,77.14Zm18.5,61.48c-.17,1-.33,1.88-.49,2.81a26.68,26.68,0,0,0-.54,3.61c0,1.42.27,2.85.26,4.27,0,1.61-.28,3.21-.31,4.81s.1,3.43.11,5.15a7.76,7.76,0,0,1-.23,2.31c-.33,1.06-.36,1.12.73,1.25a2.18,2.18,0,0,0,.5,0c.25,0,.67,0,.72-.17a1.72,1.72,0,0,0-.08-.86,6.13,6.13,0,0,1-.39-1.11,44.35,44.35,0,0,1,.52-10.48,6.16,6.16,0,0,0-.1-1.65,13.42,13.42,0,0,1-.4-2.62c.2-2.82.53-5.62.81-8.43a1.24,1.24,0,0,0,0-.56,2,2,0,0,0-1-.07c-.18.07-.32.5-.32.76A3,3,0,0,0,70.84,138.62Zm43.57-34.47-.08-.4a7.58,7.58,0,0,0-.82.08l-5.76,1.3c-1.65.37-3.31.7-5,1.11-1.45.36-2.9.74-4.31,1.23-1.69.59-3.35,1.29-5,2-1.24.5-2.59.5-3.84,1.14-.68.35-.5.85-.81,1.28C97.4,109.38,106,107.08,114.41,104.15ZM24.92,119.46l-.19.59-1-.37c.08.36.15.73.26,1.08a2.39,2.39,0,0,0,.28.49c.45.78.87,1.57,1.36,2.32.59.91,1.29,1.77,1.85,2.7,1.55,2.56,3,5.14,4.57,7.71.3.52.67,1,1,1.5l.29-.09a6,6,0,0,0,0-.85,13.91,13.91,0,0,1-.37-2.61,4.91,4.91,0,0,0-1.24-3.17c-1-1.39-2.07-2.68-3-4.09-.44-.68-.64-.64-1.12.13A9.83,9.83,0,0,0,24.92,119.46ZM121.11,159l0-.28a3,3,0,0,0-.6,0l-3.93,1c-1.52.38-3.05.72-4.56,1.12-2.59.71-5.17,1.44-7.75,2.17-.85.24-1.69.49-2.52.76-.65.21-1.27.5-1.92.69-1.51.45-3,.84-4.55,1.29s-3.3,1-4.93,1.51c-.69.23-1.34.58-2,.88l.12.26C99.4,165.58,110.38,162.75,121.11,159ZM26.84,93.36c0,1.66-.56,3.23-.14,4.87a2.33,2.33,0,0,1-.08,2.09c-.13.21,0,.58,0,.88a4.82,4.82,0,0,0,.11.52c.12.62.05,1.38.39,1.82a1.11,1.11,0,0,1,.11,1.4,3.88,3.88,0,0,0-.36,1.57A7.35,7.35,0,0,0,27.2,109a9.19,9.19,0,0,0,1.29,1.87l.33-.13a5.47,5.47,0,0,0,.19-1.18c-.1-1.37-.26-2.74-.38-4.11a.79.79,0,0,1,.05-.41,2.81,2.81,0,0,0-.44-3.08.66.66,0,0,1,0-.61c.53-.67.31-1.44.32-2.16,0-.9-.1-1.79,0-2.68A2.66,2.66,0,0,0,26.84,93.36Zm20.83,29.71.39-.13c-.1-1.15-.21-2.29-.3-3.44a.6.6,0,0,1,.14-.43c.55-.53.38-1.15.31-1.79,0-.38,0-.78,0-1.16a1.78,1.78,0,0,0-.22-1c-1-1.11-2-2.17-3-3.24-.11-.11-.31-.12-.48-.19-.06.16-.11.24-.1.31.07,1.65.15,3.29.25,4.93,0,.31.3.62.26.91-.16,1.17-.22,2.26,1,3,.31.17.48.58.71.88Zm58-76.67s.08-.23,0-.26a5.09,5.09,0,0,0-1.24-.74c-.21-.06-.63.2-.8.42-.48.66-1,1.2-1.9,1a4.09,4.09,0,0,1-1.59-.57c-1.08-.77-2,.07-3,.13l.16.79c-.47,0-.89.06-1.3.11a4.46,4.46,0,0,0-1.22.21.8.8,0,0,0-.37.69c.11.38,1.77,1,2.19.9.89-.15,1.78-.3,2.68-.42.26,0,.55.08.81,0,1.43-.18,2.85-.37,4.27-.58s2.63-.38,3.94-.59a2.53,2.53,0,0,0,.55-.22v-.26Zm34,47.84.17.26c1.08-.22,2.16-.42,3.23-.65l7-1.53c1.87-.4,3.74-.77,5.6-1.18s4-.94,6-1.37c.63-.14,1.31-.07,1.94-.22s1.38-.54,2.1-.7c1.15-.25,2.33-.4,3.51-.58.5-.08,1-.11,1.5-.17.92-.11,1.15-.28,1.28-1-1.12.16-2.21.29-3.29.48-1.86.33-3.71.69-5.56,1-2.13.41-4.28.74-6.38,1.22-3.31.77-6.58,1.64-9.88,2.45-2.2.54-4.41,1-6.61,1.58A1.85,1.85,0,0,0,139.66,94.24Zm-42-22.12a3,3,0,0,0,1.9-2.55,2.65,2.65,0,0,0-1.66-3c-.15,0-.4,0-.64,0-.73,0-.91.23-.74,1a4.11,4.11,0,0,1,0,.93c-.26-.24-.53-.47-.77-.72-.08-.07-.06-.26-.13-.3-.22-.1-.57-.3-.67-.21a7.78,7.78,0,0,0-1.7,1.58c-.16.23.23.85.38,1.29a2.17,2.17,0,0,0,.07.24,1.9,1.9,0,0,0,1.61,1.37C96,71.81,96.72,72,97.69,72.12ZM46.6,126.74l-.13,0a2.08,2.08,0,0,0,0-.56,8.41,8.41,0,0,0-.53-1.48c-.08-.16-.45-.17-.68-.25a3.11,3.11,0,0,0-.14.66c0,.27.15.54.15.81,0,1.62.14,3.24,0,4.85a8.18,8.18,0,0,0,1.77,5.58c.06.08.23.09.51.18l-.34-1.66a1.87,1.87,0,0,0,.58-2.33,1.15,1.15,0,0,1-.1-.48c.11-1.07.33-2.15.34-3.22a15.94,15.94,0,0,0-.34-2.92,3.69,3.69,0,0,0-.57-1ZM52.39,73.1a3,3,0,0,0,.15-.6c-.15-1.38-.31-2.76-.49-4.13,0-.17-.21-.31-.31-.46s-.34-.42-.33-.63c0-1.2.07-2.39.1-3.59a2.26,2.26,0,0,0-2.06-2.44,1.11,1.11,0,0,0-.08.3c-.07,2.12-.06,4.25-.22,6.36-.13,1.58,0,2.9,1.68,3.59a1.65,1.65,0,0,0,.36,0l.22-1.64C52.23,70.62,51.35,72,52.39,73.1Zm67.84-36.71c1.28.4,2.25.72,3.24,1a1.55,1.55,0,0,0,.63-.07,1.5,1.5,0,0,1,1.73.43c-.47.85-.47.87.36,1.33a7.43,7.43,0,0,1,1.45.78c.56.5,1.06.92,1.82.43.15.74.14.75-.41.86-.82.17-.86.26-.55.8,1.5.67,2.45-.33,3.66-.78-.59-.91-1.34-.11-2.07-.31a1.5,1.5,0,0,1,1.62-.46c.15.05.37-.1.56-.16-.06-.19-.08-.5-.21-.55-1.53-.6-2.7-2.11-4.52-1.9a2.51,2.51,0,0,0-.75-.74c-.16-.11-.48-.14-.52-.27-.33-1.08-1.43-.84-2.13-1.27a1.26,1.26,0,0,0-.72,0c-.83.17-1.65.36-2.48.55C120.77,36.13,120.6,36.23,120.23,36.39ZM118,25.1c-.73.58-1.18.32-1.61-.25a2.47,2.47,0,0,0-.65-.49,5.48,5.48,0,0,0-3.08-.32c-.66,0-.81.36-.86.86s.15.8.73.71c.1,0,.32.11.33.19.11.66.72.6,1.12.84a15.62,15.62,0,0,1,2.31,1.47c.39.34.61.4,1,.14.6-.42,1.15-.18,1.71,0v.27h-1.73c.27.32.37.55.54.64a3,3,0,0,0,2.83-.12c.2-.11.39-.23.58-.35a5.45,5.45,0,0,1-.5-.46c-.58-.65-1.5-1.05-1.51-2.08-1-.54-1.2.35-1.59.94l-.19-.17ZM128.11,100l0,.38a2.59,2.59,0,0,0,.87.06c2.25-.6,4.5-1.21,6.74-1.85,2.06-.57,4.09-1.23,6.15-1.76s3.92-.81,5.86-1.27a9.88,9.88,0,0,0,1.61-.69l-.1-.31a4.16,4.16,0,0,0-.79,0c-.54.1-1.08.26-1.62.36-1.61.29-3.23.51-4.82.85-2.39.52-4.77,1.1-7.14,1.69a9.86,9.86,0,0,0-4,1.48c-.12.1-.31.09-.47.15ZM84.69,113.37c1.13-.31,2-.49,2.81-.8s.8-.62.22-1.11a2.26,2.26,0,0,1-.74-1.94c0-.6-.29-1.2-.32-1.81a3.28,3.28,0,0,1,.26-1.52c.21-.48.75-.81.42-1.48-.07-.14.14-.51.31-.65s.61-.27.87-.46a.77.77,0,0,0,.35-.55c0-.2-.28-.56-.37-.54-.93.21-1.84.46-2.74.76-.13,0-.22.44-.2.67,0,.68.17,1.37.22,2.06a1.88,1.88,0,0,1-.2.64l-.25-.09c0-.22,0-.43,0-.65s-.07-.43-.11-.65l-.28,0A57.19,57.19,0,0,0,84.69,113.37Zm-26,57.1a6.53,6.53,0,0,0,0-.71c-.06-2.68-.12-5.35-.21-8,0-1.37.05-2.79-.95-3.92a1.91,1.91,0,0,0-.62-.32,2.39,2.39,0,0,0-.18.71c0,.35.14.69.18,1A15.49,15.49,0,0,1,56,166c-.09.25-.18.63,0,.79C56.79,168,57.7,169.14,58.71,170.47Zm23.35-68.66.27-1.33c.82.17,1.32-.38,1.79-1.83a6.59,6.59,0,0,1-1.36-1.32c-.4-.7-.94-.73-1.61-.73a5.6,5.6,0,0,1-1.88-.17c-1.55-.55-1.53-.6-1.54,1,0,1.33.36,1.83,1.66,2.14a3.1,3.1,0,0,1,2,1.41A10.25,10.25,0,0,0,82.06,101.81Zm32.48-85.24,0,.25a3.56,3.56,0,0,0,2.22.88c2.33-.18,4.65-.35,7-.55,1.32-.11,2.63-.33,3.94-.37,1.1,0,1.55-.41,1.53-1.57Zm-79,5.8-.15.29a11.54,11.54,0,0,0-1.67.2,2.16,2.16,0,0,0-.85.58c-.24.23-.47.78-.59.75-.37-.1-.86-.33-1-.64a.89.89,0,0,0-1.17-.62c-1.72.32-3.45.62-5.17,1a13.32,13.32,0,0,0-1.61.55c.08.15.1.23.14.24,1,.18,1.92.36,2.88.52.07,0,.15-.06.23-.07,1.05-.13,2.09-.27,3.14-.37.32,0,.67.11,1,0,1-.21,2-.59,3-.72,1.95-.24,3.91-.34,5.87-.52a13.69,13.69,0,0,0,1.56-.31c-1.09-.26-1.91-.46-2.73-.63-.09,0-.2.13-.32.15a19.82,19.82,0,0,1-2.18.18C35.81,23,35.68,22.58,35.55,22.37Zm103,134.34.12.2c1-.21,2-.41,3-.63.32-.07.63-.22,1-.31,1.35-.38,2.7-.79,4.06-1.12,1.83-.45,3.69-.81,5.52-1.27,2.46-.63,4.9-1.32,7.35-2,.94-.24,1.89-.43,2.83-.69.19,0,.33-.29.49-.45a2.73,2.73,0,0,0-.57-.41,1.14,1.14,0,0,0-.66,0c-1.49.43-3,.86-4.45,1.32a21.35,21.35,0,0,1-4.57,1.39,20.43,20.43,0,0,0-3.19.62c-1.5.38-3,.82-4.47,1.25-2,.58-4,1.18-6,1.78C138.75,156.43,138.63,156.6,138.5,156.71ZM92.74,58.19a8.6,8.6,0,0,0-.21,2c0,.53.38,1.41.72,1.47,1,.19,2.09.63,3-.3.42-.45.79-1,1.2-1.44l.4.09c0-.2.2-.5.11-.59a3.42,3.42,0,0,0-.76-.52,5.38,5.38,0,0,0-.77-1c-.41-.35-.92-.58-1.37-.9a.85.85,0,0,0-1.35.19A10.47,10.47,0,0,1,92.74,58.19ZM36.28,137.63l-.35.11c.13,1.38-.1,2.85,1.1,4a1.6,1.6,0,0,1,.28.4c.72,1.24,1.43,2.48,2.17,3.71.12.19.42.28.64.42.09-.24.27-.48.25-.72-.06-1.3-.15-2.61-.28-3.9-.08-.74-.26-1.47-.41-2.2-.12-.54-.37-.66-.89-.36a4.91,4.91,0,0,1-1.32.39c-.48.12-.71,0-.78-.57A6.43,6.43,0,0,0,36.28,137.63Zm79.89-94.91,0,.37,2.76,1.38c.11-.29.19-.84.37-.87a13,13,0,0,1,2.42-.19.74.74,0,0,1,.55.46c0,.83.62.75,1.15.69,1.67-.2,3.34-.42,5-.65a.92.92,0,0,0,.91-.86l-5.23.59c.31-.24.42-.38.54-.4.92-.18,1.84-.32,2.75-.5a2.93,2.93,0,0,0,.59-.29c-.17-.18-.33-.51-.5-.51a21.33,21.33,0,0,0-4.46.2,13.68,13.68,0,0,1-3.54.55,5.49,5.49,0,0,0-1.38.35c-.18,0-.37.06-.79.13l.7-.74-.11-.23ZM41.55,136.59c.05-1.09.1-1.93.13-2.78a6.93,6.93,0,0,1,0-1,1.86,1.86,0,0,0-1.25-2.13l-.29,2.84s-.32-.17-.34-.34a5.11,5.11,0,0,1-.09-1.65,3.43,3.43,0,0,0-2.14-4,26,26,0,0,0,0,3.3,4.66,4.66,0,0,0,.87,2.36c.81.93,2,1.53,2.37,2.83C40.9,136.14,41.16,136.25,41.55,136.59Zm7.56-54-.35.19c0,.57.1,1.15.09,1.73a10.77,10.77,0,0,1-.15,3,1.23,1.23,0,0,0,.37,1.42c.92.91,1.87,1.77,2.82,2.64a1.88,1.88,0,0,0,.51.24V88.61c-.15-.29-.16-1.5-1.12-.25a4.56,4.56,0,0,0-.39-1.55,5.34,5.34,0,0,0-1.27-1l.15-.23a5.23,5.23,0,0,0,.54.12c.31,0,.84.18.9.07a.78.78,0,0,0-.38-1.12,2.53,2.53,0,0,1-.65-.69C49.81,83.55,49.46,83.08,49.11,82.61ZM37.93,105.72a7.45,7.45,0,0,0,0-1.64c-.07-.29-.49-.51-.75-.76a2.7,2.7,0,0,0-.43.7,7.46,7.46,0,0,0-.1,1.07,5.33,5.33,0,0,0-.19,1.91,13.93,13.93,0,0,1,.51,4.4,1.19,1.19,0,0,0,.37.68c.29.31.66.56,1,.87a8,8,0,0,1,.59.79,2.93,2.93,0,0,0,.17-.65c-.08-.85-.32-1.7.33-2.46.09-.1,0-.33,0-.49-.09-.91-.25-1.81-.26-2.71S38.94,105.94,37.93,105.72Zm172.2,23a1.91,1.91,0,0,1-.41.24c-2.16.56-4.33,1.1-6.49,1.67-1.5.4-3,.84-4.48,1.27a6,6,0,0,0-1.32.44c-.27.15-.42.5-.63.75a3.8,3.8,0,0,0,.81.13c.38,0,.76-.14,1.14-.2a17.72,17.72,0,0,0,1.93-.35c.59-.18,1.1-.6,1.69-.75,2.43-.61,4.87-1.17,7.31-1.73C210.53,130,210.67,129.55,210.13,128.69ZM91.2,91.63c-.7.2-1.4.42-2.12.6-1.77.44-3.56.85-5.32,1.33a1.05,1.05,0,0,0-.38.78c.49.47.9,1.07,1.8.85,1.83-.46,3.69-.81,5.53-1.25a.89.89,0,0,0,.47-.63A12.85,12.85,0,0,0,91.2,91.63ZM86.11,50.15l0-.38a3.79,3.79,0,0,0-1.31-.4A19.12,19.12,0,0,0,81,50a1.67,1.67,0,0,1-1.49-.25,1.77,1.77,0,0,0-1.23-.23c-.64.19-.88.09-.89-.59a.66.66,0,0,0-.31-.49.64.64,0,0,0-.57.22c-.22.55-.69.53-1.15.66a5.35,5.35,0,0,0-1.68.77c-.27.2-.32.7-.57,1.3ZM52.19,149.8a15.56,15.56,0,0,0,.23-1.91c0-1.13,0-2.26-.07-3.39,0-.16-.21-.31-.34-.45-.58-.65-1.17-1.3-1.78-1.93a2.63,2.63,0,0,0-.51-.33,2.47,2.47,0,0,0-.21.59c0,.81,0,1.62,0,2.43,0,.62-.13,1.38.16,1.84A36.36,36.36,0,0,0,52.19,149.8Zm-11.5-8.52c0,.56.05,1,.07,1.45,0,.15,0,.3,0,.45a5.13,5.13,0,0,0,0,1,10.2,10.2,0,0,1,.46,2c-.06,2.12,1.05,3.71,2.26,5.26.11.14.36.17.54.25a5.54,5.54,0,0,0,.07-.57c0-.8-.13-1.61-.11-2.4,0-1.06.11-2.12.17-3.18l-.21,0a3.27,3.27,0,0,0-.14.62.65.65,0,0,1-.82.69c-.3,0-.74-.36-.78-.61a17.87,17.87,0,0,1-.36-3.25A1.43,1.43,0,0,0,40.69,141.28ZM95,18.07l-.09.27a4.44,4.44,0,0,0,1.23.37c1.86,0,3.72-.11,5.59-.16,1.56-.05,3.12-.09,4.68-.11.58,0,.64-.39.58-.79,0-.21-.29-.55-.43-.55-1.27.06-2.53.16-3.79.27s-2.36.25-3.54.35c-.37,0-.73,0-.75-.54,0-.11-.5-.35-.69-.28C96.89,17.25,96,17.67,95,18.07ZM45,29.4,44.75,29c-1.2.14-2.39.3-3.59.4-1.36.1-2.72.11-4.08.23a1.32,1.32,0,0,0-.94.51c-.4.79-.79,1.2-1.75.76-.32-.14-.87.19-1.3.34-.06,0-.1.39,0,.42a2.92,2.92,0,0,0,1.17.63A3.1,3.1,0,0,0,36,31.87a22.61,22.61,0,0,1,4.72-1.51c1.29-.33,2.6-.55,3.9-.83C44.71,29.5,44.84,29.44,45,29.4Zm174.41,96.38h-.3c-.58-2.28.4-4.61,0-7-.45,2-.9,3.8-1.29,5.65a1.47,1.47,0,0,0,.19.93c.44.79,1.2,1.5.4,2.5-.11.12-.06.37-.08.57a6.4,6.4,0,0,0,1.14,4.12,2.56,2.56,0,0,0,.05-.46,15,15,0,0,1,.38-5.08,17.76,17.76,0,0,0,0-3l-.22,0ZM57.32,92.22c0-.45-.08-.83-.09-1.21,0-2,0-4-.06-6.05,0-.93-.6-1.48-1.68-1.47,0,.5,0,1,0,1.48.06,1.53.17,3.06.18,4.6A2.7,2.7,0,0,0,57.32,92.22Zm-15-41.09-.37.28a16.23,16.23,0,0,0,1.16,2.73,12.21,12.21,0,0,0,2,2.09.81.81,0,0,0,1.3-.08,6.66,6.66,0,0,1,.5-.56c.34-.32.45-.58,0-.93-1.15-.91-2.26-1.87-3.41-2.78A9.83,9.83,0,0,0,42.31,51.13Zm75.26-18.32v0a9.25,9.25,0,0,0-1.49,0c-.21,0-.41.31-.54.53,0,.05.22.3.38.42.33.25.71.44,1,.71a2.93,2.93,0,0,0,2.75,1,13.38,13.38,0,0,0,1.72-.58c.09,0,.12-.49.1-.5-.61-.19-.58-.74-.74-1.19-.07-.19-.28-.44-.43-.45C119.42,32.79,118.5,32.81,117.57,32.81ZM39.21,35.87a10.41,10.41,0,0,1,.85.73c1.09,1.2,2.53.88,3.8.68a2.91,2.91,0,0,1,1.8,0c.58.26,1.19.35,1.53-.41a4.43,4.43,0,0,0,.18-.65c-.25.07-.51.12-.75.2s-.52.32-.66.24c-.94-.46-1.85-1-2.78-1.51a1.11,1.11,0,0,0-.51-.21,20.9,20.9,0,0,0-2.38.29A4,4,0,0,0,39.21,35.87ZM47.6,144l.25-.08c0-1.33,0-2.66,0-4,0-.86-.36-1.12-1.24-.95.46-1,.14-1.58-1.06-1.81a9.11,9.11,0,0,0-.17,3.78,4.7,4.7,0,0,0,.85,1.76,6.49,6.49,0,0,0,1,1A3.52,3.52,0,0,0,47.6,144ZM56.44,40.24a3.79,3.79,0,0,0,1,.42c1.27.14,2.54.26,3.81.32s2.68.06,4,0c.2,0,.42-.21.59-.37a.52.52,0,0,0-.16-.4,12.58,12.58,0,0,0-2.75-.83,22.16,22.16,0,0,0-3.82,0C58.24,39.52,57.26,39.3,56.44,40.24ZM74.66,148.67H75c.08-1.57.16-3.14.26-4.72.1-1.74.2-3.48.34-5.22,0-.15.33-.26.44-.43s.39-.55.34-.77-.5-.51-.66-.45a13,13,0,0,0-1.55.84.58.58,0,0,1-.17,0l-.57-.64c-.12.37-.33.67-.25.82A4.44,4.44,0,0,0,74,139c.18,1,.45,2,.57,3a29.57,29.57,0,0,1,.1,3C74.67,146.26,74.66,147.47,74.66,148.67ZM33.57,48.54l-.68-.43-.25.11.73,7.23h.28A2.47,2.47,0,0,0,33.8,55c.21-1.29.38-2.58.62-3.86.14-.72.36-1.4-.34-2,0,0,0-.19,0-.29a8.7,8.7,0,0,0,1.11,0,.65.65,0,0,0,.46-.33c0-.14-.13-.37-.27-.51s-.58-.46-.85-.72c-.56-.54-1.1-1.1-1.68-1.68-.57,1.21.14,1.61,1,1.83Zm89.32,106.92c-2.2-.26-13,2.49-13.7,3.5C110.16,159.36,122.17,156.29,122.89,155.46ZM22.17,45.51c-.07-.51-.09-.81-.15-1.11a9.58,9.58,0,0,1-.24-1c0-.89,0-1.78,0-2.67a2,2,0,0,0-2-2,26.52,26.52,0,0,1-.18,2.82C19.27,43.52,20.27,44.29,22.17,45.51ZM221.63,58.92c-.69.19-1.29.56-1.63.4a4.08,4.08,0,0,0-2.75-.09,41.15,41.15,0,0,0-4.18,1.29c-.17.06-.28.33-.42.49.21.08.43.25.62.22.73-.14,1.45-.33,2.17-.52a2.52,2.52,0,0,1,2.18,0,1,1,0,0,0,.56.07c.91,0,1.81-.06,2.72-.14.22,0,.59-.17.62-.31A8.73,8.73,0,0,0,221.63,58.92Zm-168,72.54a4,4,0,0,0-.13.64c0,2.56-.06,5.13,0,7.7a30.49,30.49,0,0,0,.52,3.77c0,.18.2.33.39.64a2.36,2.36,0,0,0,.24-.7c0-.7-.09-1.4-.08-2.09,0-1.82.12-3.63.06-5.44a32.59,32.59,0,0,0-.47-3.8C54.15,132,53.91,131.81,53.63,131.46ZM175.55,68.23a3.09,3.09,0,0,0,1.07,0c1.84-.78,3.84-.08,5.73-.78a40.93,40.93,0,0,1,5.24-1.11c.2,0,.35-.33.52-.5-.22-.08-.44-.24-.64-.21-1.13.15-2.25.36-3.37.52-.83.11-1.67.13-2.49.26s-1.82.37-2.73.58c-.52.12-1,.31-1.54.44a1.57,1.57,0,0,1-.74.06C176.05,67.31,175.75,67.51,175.55,68.23ZM145.89,151l1.22-.29L150,150c.86-.23,1.72-.51,2.59-.7,1.18-.27,2.39-.45,3.56-.74.21-.05.33-.43.5-.66a1.79,1.79,0,0,0-.63-.23,2.75,2.75,0,0,0-1.14.21,7.35,7.35,0,0,1-3.31.87,6,6,0,0,0-1.3.26l-3.72.78c-.6.12-1.2.22-1.78.38-.17.05-.29.27-.43.42.15.14.29.37.46.41A6.65,6.65,0,0,0,145.89,151ZM24.81,96.67l.31-.21c0-.86,0-1.71,0-2.57a1.57,1.57,0,0,0-.37-.9c-.71-.78-1.48-1.52-2.23-2.26-.09-.08-.26-.16-.35-.12a.38.38,0,0,0-.18.32c.07,1.44-.39,3,1.14,4.09A13.92,13.92,0,0,1,24.81,96.67ZM32.91,88A8.45,8.45,0,0,1,33.12,89c.19,2.91.33,5.83.55,8.75,0,.27.42.51.65.76,0,0,.09,0,.16-.06l-.16-.59.91.09c-.31-.47-.71-.81-.74-1.18-.13-1.27-.14-2.55-.18-3.83a.49.49,0,0,1,.17-.36c.55-.35.47-.66,0-1a.83.83,0,0,1-.21-.57c0-.5,0-1,0-1.5A1.38,1.38,0,0,0,32.91,88Zm98-53.64h-1.17c-.71,0-1.48-.54-2.22.28.49.3.91.58,1.36.82,1,.52,1.94,1,2.93,1.51a16.49,16.49,0,0,1,1.72.74c.91.56,1.75,1.23,2.63,1.82a4.15,4.15,0,0,0,.93.35l.16-.26a23.28,23.28,0,0,0-2.32-1.91,20.78,20.78,0,0,0-2.63-1.3c.12-.88-.88-1-1.48-1.47ZM151,24a8.32,8.32,0,0,0-1-.78,10.47,10.47,0,0,1-2.12-1.05,2.84,2.84,0,0,0-2.1-.57,4.09,4.09,0,0,0-1.27.32,7.73,7.73,0,0,0-.75.4,6.78,6.78,0,0,0,.74.68,1.29,1.29,0,0,0,.57.11c.64.05,1.29.08,1.6.82a.53.53,0,0,0,.41.19c.68-.05,1.35-.13,2-.2l.28.68ZM25.09,107c.05-.81,0-1.44.12-2.05a2.6,2.6,0,0,0-.87-2.53c-.46-.43-1.22-.74-1-1.64,0-.13-.4-.36-.62-.54a2.64,2.64,0,0,0-.26.69c0,.44.07.89,0,1.34C22.39,104.27,23.47,105.64,25.09,107ZM29,62.27l.22-.07c-.16-1.47.32-3-.27-4.43a1.84,1.84,0,0,1-.15-.76A2.23,2.23,0,0,0,27,55.21l1.37,1.47-.2.19-.86-.69-.3.09a42,42,0,0,0,.59,4.64C27.72,61.44,28.53,61.82,29,62.27ZM54.72,165.21a5.5,5.5,0,0,0,.15-.77c0-1.16,0-2.33.05-3.49s.13-2.55.17-3.82a4.59,4.59,0,0,0-.06-1.62,5.83,5.83,0,0,0-.92-1.4l-.32.15c.08,1.6.14,3.2.23,4.8,0,.94.15,1.88.21,2.82,0,.1-.11.2-.13.3A3.06,3.06,0,0,0,54.72,165.21Zm143.09-36.07-.11-.38a30.92,30.92,0,0,0-4.93.81c-1.37.44-2.76.5-4.13.8-1.06.24-2.13.5-3.18.79a14.68,14.68,0,0,0-1.38.55l0,.22a4.36,4.36,0,0,0,.81,0c1.63-.31,3.25-.66,4.88-1,2.07-.39,4.15-.72,6.21-1.13A10.73,10.73,0,0,0,197.81,129.14ZM71.17,25.44c1.1.64,11.51-.4,13.44-1.32A.86.86,0,0,0,84,24a6.66,6.66,0,0,1-.7.19c-1.16,0-2.33,0-3.49,0-.85.06-1.69.34-2.55.41-1.64.14-3.29.16-4.94.29A4.08,4.08,0,0,0,71.17,25.44ZM19.59,49.3c-.57,2.41-.13,4.46,1.9,6a2.48,2.48,0,0,0,.49.23c-.07-1.27-.11-2.45-.19-3.63A3.63,3.63,0,0,0,19.59,49.3Zm7.76-5.59-.25,0c0,.77,0,1.54,0,2.31s-.25,1.69-.28,2.53-.3,1.58.44,2.19a.32.32,0,0,1,0,.31c-1,.92-.42,1.58.36,2.22.06,0,.06.16.12.21.22.18.45.34.68.5a2.69,2.69,0,0,0,.19-.89c-.21-1.59-.5-3.16-.72-4.74S27.54,45.25,27.35,43.71ZM75,46.3v-.06c-1.56.21-3.13.41-4.69.64-.19,0-.35.21-.53.32.13.19.21.44.39.55a1.36,1.36,0,0,0,.7.1c1.45-.09,2.91-.2,4.36-.31a1.85,1.85,0,0,0,.48-.21,4.16,4.16,0,0,1,.83-.39c.79-.15,1.59-.21,2.37-.36.22,0,.39-.3.59-.46-.24-.09-.48-.28-.71-.26C77.53,46,76.27,46.15,75,46.3Zm86-7.81a.79.79,0,0,0,1-.77c0-.22-.43-.52-.71-.7s-.63-.11-.82-.29a4.43,4.43,0,0,0-4-1.19,2.61,2.61,0,0,0-.72.41c.22.22.4.53.66.65,1,.45,2,.85,3,1.26C160,38.08,160.49,38.28,161,38.49Zm-16.79-8.58a9.1,9.1,0,0,0,1.27-.1c.38-.08.55-.37.18-.65a6.25,6.25,0,0,0-1.53-.94,7.23,7.23,0,0,1-3.53-2c-.24-.29-1-.26-1.5-.21s-.46.42-.12.68a4.15,4.15,0,0,0,1.22.7,3.11,3.11,0,0,1,2.3,2,.74.74,0,0,0,.49.36A10.16,10.16,0,0,0,144.24,29.91ZM22.18,78c-.1,1-.21,2-.28,3a1,1,0,0,0,.25.61c.55.61,1.11,1.23,1.71,1.79.39.37.67.22.68-.31s-.06-1.23,0-1.83a2.41,2.41,0,0,0-.81-1.93A17.68,17.68,0,0,0,22.18,78Zm70.12,28.2.1.3c.47-.11.94-.21,1.4-.34.77-.23,1.53-.5,2.3-.73,1.35-.39,2.72-.74,4.05-1.18.19-.07.34-.58.31-.86s-.45-.54-.58-.5c-1.33.45-2.65.94-3.95,1.46-.73.3-1.43.69-2.13,1C93.29,105.6,92.8,105.88,92.3,106.15ZM56.75,149.33c-.19.32-.24.37-.24.42.06,1.75.1,3.49.2,5.24a1.87,1.87,0,0,0,1.51,1.51c0-.47-.13-.92-.15-1.38-.07-1.36,0-2.75-.22-4.09C57.77,150.47,57.19,150,56.75,149.33ZM34.53,109.07c.23-.8.42-1.4.57-2a1.84,1.84,0,0,0,0-.62,12.34,12.34,0,0,1-.33-2.92c.15-1.26-.5-2.22-.79-3.3,0,0-.1,0-.34,0A21.09,21.09,0,0,0,34.53,109.07Zm-14.28-4.46a4.63,4.63,0,0,0,.81,5.82c1.41-.66.67-1.88.71-2.87C21.83,106.31,20.71,105.7,20.25,104.61ZM194.57,36.76l.07.28a33.84,33.84,0,0,1,3.49,0,19,19,0,0,0,5.54-.15c.26,0,.47-.34.7-.51a5.24,5.24,0,0,0-.76-.5c-.13-.07-.33,0-.5,0-1.32.11-2.64.24-4,.33s-2.51.09-3.76.18A2.66,2.66,0,0,0,194.57,36.76ZM89.71,18.51l-.12.22a4.77,4.77,0,0,0-.81-.26c-.31,0-.74-.13-.94,0-1.38,1.11-3.06,1-4.66,1.19L81,20l0,.36a7.44,7.44,0,0,1,2.25-.25c1.61.36,3-.41,4.45-.63,1.21-.18,2.43-.24,3.52-.34l.9-1.45-2.85.17Zm-41.57,42-.47-.07c-.09.44-.19.87-.25,1.31s0,.61,0,.91c-.13,1.77-.25,3.54-.41,5.3-.07.73.29,1,1.12,1.14C48.25,66.22,48.29,63.38,48.14,60.54ZM173.22,35.48l0,.25c.25.19.49.49.77.54a8.47,8.47,0,0,0,2.29.21c1.29-.12,2.57-.38,3.85-.61a4.46,4.46,0,0,0,.81-.36c-.26-.17-.52-.46-.78-.47-1.18,0-2.36,0-3.54,0a11.27,11.27,0,0,0-1.29.13ZM14.58,92.41a3,3,0,0,0-.23.92A7.35,7.35,0,0,0,14.68,96a6.81,6.81,0,0,1,.76,1.87c0,.21.58.33.9.5a2.78,2.78,0,0,0,.3-.91c0-.74-.15-1.47-.24-2.2,0-.3,0-.67-.14-.88C15.74,93.7,15.14,93.06,14.58,92.41ZM29.9,119.84c-.36,1.17-.38,2.21.77,3,.35.25.52.74.8,1.09.43.53.9,1,1.34,1.53l.3-.09c0-.93.06-1.86,0-2.79-.05-.65-.39-.68-1-.25a1.22,1.22,0,0,1-.82.18c-.09,0-.18-.4-.2-.63-.06-.47-.09-.94-.12-1.41S30.61,119.64,29.9,119.84Zm119.29-92c-.84-.37-1.6-.72-2.37-1a.68.68,0,0,0-.55.1c-.13.09-.27.41-.23.46a8.29,8.29,0,0,0,1.37,1.28,5.11,5.11,0,0,0,1.46.54,3.46,3.46,0,0,0,1.22.19,1,1,0,0,0,.73-.51,1.49,1.49,0,0,0-1.69-1.82ZM24.94,101.36c1-1.2-.17-4.45-2.8-5.5a5.25,5.25,0,0,0,0,1.38,5.34,5.34,0,0,0,1.69,2.48A8.66,8.66,0,0,1,24.94,101.36Zm39.78-52.7c-.45-.32-.78-.75-1.13-.76a20.2,20.2,0,0,0-3.65.13c-.48.07-.78.15-1.14-.24-.11-.12-.51,0-.76.07,0,0,0,.45,0,.49a7.58,7.58,0,0,0,2.57,1.14,16,16,0,0,0,3.6-.5C64.33,49,64.41,48.87,64.72,48.66Zm-50,22.2c0,1.38,0,2.56-.13,3.74-.05.8.61,1,1,1.34.05,0,.44-.19.55-.36.41-.67.11-1.4.15-2.1C16.34,72.3,15.77,71.64,14.68,70.86Zm62-30.06a2.32,2.32,0,0,0-1.89-1.45c-.25-.26-.57-.58-.86-.56a13.2,13.2,0,0,0-2.16.38c-.16,0-.42.24-.4.32a.84.84,0,0,0,.35.5c.37.26.79.46,1.38.79l.19-.62C74.4,41.31,75.55,40.48,76.7,40.8ZM39.92,54l-.24.19a9.23,9.23,0,0,1,.21,1.28c0,1.62,0,3.23,0,4.84a8.86,8.86,0,0,0,.32,1.92c.06.22.35.37.53.56l.28-.12c0-.68,0-1.36,0-2s-.27-1.65-.34-2.48c-.09-1.09-.06-2.2-.17-3.28C40.47,54.58,40.13,54.31,39.92,54Zm-9.65,28.3-.59-2.41.22-.08c.09.09.16.21.27.25s.47.14.71.21a2.3,2.3,0,0,0,0-.69c-.06-.18-.28-.32-.39-.49a2.08,2.08,0,0,1-.39-.71,6.54,6.54,0,0,1,0-1.17,1.7,1.7,0,0,0-1.26-1.84C28.54,76.79,29.38,81.84,30.27,82.32Zm36,62.7.27.06a2.28,2.28,0,0,0,.3-.68c.2-2.1.38-4.21.55-6.31,0-.37.13-.89-.49-.86s-.7.4-.68,1c0,1.42,0,2.84,0,4.27C66.32,143.3,66.31,144.16,66.31,145Zm-20.72-1.31a3.74,3.74,0,0,0,2.09,4.87C47.88,146.38,47.72,146,45.59,143.71Zm114.13-115a17.64,17.64,0,0,1-2.22-1.51,3.38,3.38,0,0,0-1.93-1c-.55-.09-1,.06-1.1.45a3.73,3.73,0,0,0,0,1.45.68.68,0,0,0,.4.09.88.88,0,0,1,1.23-.36c.44.2.86.44,1.3.65A2.44,2.44,0,0,0,159.72,28.71Zm-7,1.4a1.53,1.53,0,0,0-.5.29.42.42,0,0,0,.09.42,5,5,0,0,0,1.3.83,1.7,1.7,0,0,1,1.18,1.05,1,1,0,0,0,.8.43c.44-.07.78-.24,1.18.17.13.13.63-.09,1-.15-.08-.21-.1-.52-.25-.61-.61-.36-1.27-.65-1.9-1s-1.35-.78-2-1.14A5.1,5.1,0,0,0,152.76,30.11ZM56.37,58.64a3,3,0,0,1,.17-.81,1.33,1.33,0,0,0-.24-1.53A1.93,1.93,0,0,1,56,55.14c0-.9-1.42-2.19-2.29-2a.51.51,0,0,0-.35.35c0,.13.19.4.3.39,1.23,0,1.15.82,1.2,1.65a3.8,3.8,0,0,0,.3,1.51A11.93,11.93,0,0,0,56.37,58.64Zm1.34-22.37c0,.51,0,1.27-.87.43-.06-.06-.22,0-.33,0-.77.15-1.54.3-2.31.47-.14,0-.38.17-.38.23s.15.43.25.44a23.4,23.4,0,0,0,2.51.09,11.52,11.52,0,0,0,1.68-.28,3.39,3.39,0,0,1-.14.4c-.13.21-.26.42-.4.62a4.94,4.94,0,0,0,.86,0c.17,0,.42-.19.46-.34A4.67,4.67,0,0,0,59.23,37c0-.14-.32-.31-.53-.4A9,9,0,0,0,57.71,36.27ZM55,153c0-.62,0-1.19,0-1.76-.09-1.33-.18-2.66-.35-4,0-.3-.39-.55-.6-.83l-.27.14c0,.7,0,1.39,0,2.08a13.94,13.94,0,0,1,.14,2.22A1.73,1.73,0,0,0,55,153ZM22.7,31.28c-.65.59-.73,1.07,0,1.55a17.18,17.18,0,0,0,1.38,1A25,25,0,0,0,26.41,35c.14.06.35-.05.53-.07-.07-.2-.07-.46-.2-.57-.63-.49-1.29-.93-1.93-1.41S23.43,31.85,22.7,31.28Zm49.19,4.39a13.43,13.43,0,0,0,1.79,0c1.23-.16,2.46-.39,3.68-.61a.53.53,0,0,0,.34-.3c0-.08,0-.33-.11-.34-.5-.11-1.11-.4-1.48-.21a3.91,3.91,0,0,1-2.73.42c-.19,0-.48-.07-.57,0-.53.61-1.1.25-1.77,0v1.78ZM19.28,101.19a12.52,12.52,0,0,1,.27-1.23,2.86,2.86,0,0,0-1.31-3.71c0,.07-.14.13-.14.19a30.52,30.52,0,0,0,.09,3.58C18.25,100.5,18.47,101.25,19.28,101.19Zm47.49,58.38.28,0c0-.8,0-1.6,0-2.39s-.21-1.54-.21-2.31.2-1.58.18-2.37-.35-1.53-.31-2.28a3.18,3.18,0,0,0-.28-2.19A49.84,49.84,0,0,0,66.77,159.57Zm133-25.13c-1.52.27-2.92.49-4.29.82-.19,0-.32.61-.35,1s.28.56.67.44c.84-.25,1.68-.49,2.51-.78a10.57,10.57,0,0,0,1.51-.65c.16-.08.34-.34.31-.48S199.85,134.5,199.77,134.44ZM135.25,21a1.58,1.58,0,0,0-2.11-.7,6,6,0,0,1-3,.37,2.24,2.24,0,0,0-.75.26l0,.4c.7.19,1.4.4,2.12.56A8.58,8.58,0,0,0,133,22c.15,0,.44-.15.44-.22,0-.75.53-.6,1-.67ZM66.93,164.9c0,1.18,0,2.09,0,3,0,.17.49.45.71.41a8.59,8.59,0,0,0,1.61-.51c.16-.06.38-.22.38-.35a.83.83,0,0,0-.24-.54,12.1,12.1,0,0,0-1.24-1.24A10.84,10.84,0,0,0,66.93,164.9ZM33.51,77.71c0-.31.05-.55.05-.79,0-1.07-.07-2.15-.12-3.22a3.07,3.07,0,0,0-1.19-2.22c0,.57-.1,1-.08,1.51s.16,1.07.2,1.6,0,1.29,0,1.92S32.63,77.63,33.51,77.71ZM57.72,119.1c0-.5,0-.83,0-1.16-.08-1-.2-2.08-.27-3.12s-.06-2.11-.14-3.16c0-.19-.23-.35-.36-.53a5.45,5.45,0,0,0-.25.55c-.09.35-.15.7-.22,1.06,0,.16-.11.37,0,.47.8,1.13.39,2.34.22,3.52A2.2,2.2,0,0,0,57.72,119.1ZM148.41,18.88a2.92,2.92,0,0,0,3.38.77c.6-.22,1.05-.55,1.73-.27a1,1,0,0,0,.85-.47c.12-.65-.49-.53-.8-.46a16,16,0,0,1-3.91.19A5.52,5.52,0,0,0,148.41,18.88ZM14.08,41.81a4.77,4.77,0,0,0-.17.85c0,1.61,0,3.23-.07,4.84,0,.66.37.9,1,1.1a5.92,5.92,0,0,0,.24-1.6c-.06-.62-.44-1.21-.49-1.83a16.83,16.83,0,0,1,.16-2.34H15Zm20.63,81.65c-.74,1.25-.22,5,.57,5.64.24-.83-.15-1.81.67-2.46.07,0,.07-.28,0-.4C35.56,125.31,35.13,124.39,34.71,123.46Zm.2-63.14-.34,0c0,.37-.1.75-.11,1.12,0,.57.07,1.14,0,1.7a10.26,10.26,0,0,0,.3,4.57A2.49,2.49,0,0,0,35,66.32c-.18-.84,0-1.43.72-1.65V64a5.71,5.71,0,0,1-.74-.53,13.18,13.18,0,0,1,.81-1.36Zm-.69,51.85a8.36,8.36,0,0,0-.16,4.42c0,.18.42.33.66.43.07,0,.33-.15.35-.26a9.62,9.62,0,0,0,.25-2.53A7.22,7.22,0,0,0,34.22,112.17ZM29.39,67a9.53,9.53,0,0,0,.27-1c.18-1.39-.93-2.08-1.69-3,0,0-.42.19-.44.32A3.51,3.51,0,0,0,29.39,67Zm4,4.86c0-.61,0-1,0-1.34-.09-.94-.23-1.87-.3-2.81,0-.65,0-.48-.56-.64-.82-.25-.54.25-.54.58,0,.67.08,1.34.06,2C32,70.52,32.48,71.1,33.36,71.82Zm11.78,49.53-.23.12a11.25,11.25,0,0,0,.6,2.4,1.45,1.45,0,0,0,2.27.37C47,123.23,46.43,121.93,45.14,121.35ZM24.37,73.75c-.05-.48-.24-.92-.1-1.21.35-.7,0-1.08-.45-1.48-.31-.26-.6-.54-.91-.8a3.83,3.83,0,0,0-.42-.28,1.8,1.8,0,0,0-.22.49c-.27,1.5.91,2.28,1.67,3.27C24,73.8,24.19,73.75,24.37,73.75ZM21.47,103a8.12,8.12,0,0,1-.1-1.58c.06-.56-.38-1.28.44-1.66a1.18,1.18,0,0,0-.23-.67,3.24,3.24,0,0,0-.91-.46c-.1.12-.28.24-.29.37a20.14,20.14,0,0,0-.13,3A1.11,1.11,0,0,0,21.47,103ZM171.35,22a2.81,2.81,0,0,0-3.24-1.1.73.73,0,0,0-.43.48.83.83,0,0,0,.34.57C169.08,22.79,170.19,22.45,171.35,22ZM112,18.24l0-.13a7.8,7.8,0,0,0,1.08,0c.19,0,.36-.19.54-.29a1.92,1.92,0,0,0-.31-.5,2.43,2.43,0,0,0-2.93-.46c-.2.1-.39.23-.58.34.14.22.23.57.42.64A14.83,14.83,0,0,0,112,18.24Zm33.46,8.57c.1-.06.4-.15.49-.34s-.16-.45-.34-.58a5.42,5.42,0,0,0-.81-.37c-.57-.28-1.14-.59-1.71-.89a3.34,3.34,0,0,0-.94-.44c-.17,0-.4.24-.6.38a3.23,3.23,0,0,0,.5.54c.29.19.78.23.91.48C143.46,26.56,144.39,26.59,145.44,26.81ZM158.9,15.28c1.27-.3,2.47-.56,3.66-.86a2.58,2.58,0,0,0,.63-.38c-.22-.17-.43-.46-.67-.48a6.6,6.6,0,0,0-3.34.72C158.67,14.52,158.67,14.78,158.9,15.28Zm14.92,131.56-.06-.28c-.79-.44-6.29,1.18-6.68,2.16ZM14.71,82.48c-.84,1.74-.22,4.22,1.32,4.7C15.37,85.61,16.16,83.83,14.71,82.48Zm20.34,39.61c.13-.22.28-.38.29-.54,0-.71.06-1.42.08-2.13a2.08,2.08,0,0,0-1.16-1.84C33.71,119.16,34.07,121.32,35.05,122.09Zm27.82-37.3a3.2,3.2,0,0,0,3.85.45c.13-.11.14-.45.1-.67s-.26-.47-.36-.45C65.26,84.31,64.07,84.56,62.87,84.79ZM19.24,91l.41,0a3.86,3.86,0,0,0,.1-.75c-.07-.82-.25-1.65-.24-2.47s-.54-1.21-1.2-1.57C18.52,87.83,18.23,89.57,19.24,91Zm4.47,17.39c-.37.46-.76.73-.74,1a2.78,2.78,0,0,0,1.24,2.54c.16.09.44.17.55.09a.63.63,0,0,0,.2-.55,6.53,6.53,0,0,0-.34-1.59A9.73,9.73,0,0,0,23.71,108.41Zm5.83-23.79c.12,1.64.22,3.17.37,4.7,0,.25.3.47.47.72C31.27,89.11,30.68,85.19,29.54,84.62Zm-2.43-2.78c-.16.34-.31.5-.3.66.06,1.3.09,2.6.23,3.89a1,1,0,0,0,1.15.93C27.37,85.6,28.39,83.63,27.11,81.84Zm16-22c.79-.19,1.48-.33,2.15-.53a.86.86,0,0,0,.31-.46c-.77-.69-1.56-1.35-2.46-2.11Zm-10,19.21-.43.11c0,1.16.08,2.31.16,3.47a1.24,1.24,0,0,0,.36.62.63.63,0,0,0,.44.24c.08,0,.23-.24.23-.38A11.83,11.83,0,0,0,33.77,81,12.77,12.77,0,0,0,33.1,79.06Zm34.43,93.39.08.14c.38,0,.85.07,1.11-.12a1.53,1.53,0,0,0,.53-1.06c0-.64-.33-.88-1-.55-.36.18-.82.19-1.17.38a1.58,1.58,0,0,0-.66.72c-.07.2.11.71.2.71A2.7,2.7,0,0,0,67.53,172.45Zm48.82-127a4.38,4.38,0,0,1-1.38-.57,2,2,0,0,0-2.45-.21c-.19.08-.33.31-.48.47a2.65,2.65,0,0,0,.67.34,12,12,0,0,1,2,.37C115.63,46.17,115.9,46.16,116.35,45.4ZM45.5,61.14c-.06.59-.11,1.13-.17,1.67-.13,1-.28,2.07-.4,3.1a.8.8,0,0,0,.71,1C46.11,65.76,46.06,61.53,45.5,61.14ZM182,35.07a1.53,1.53,0,0,0,2.28-.35c.09-.18.41-.25.62-.38s.51-.35.76-.53a4,4,0,0,0-.89-.42.93.93,0,0,0-.62.18C183.42,34,182.73,34.55,182,35.07ZM77.79,23.33c-.92-.61-5.46-.13-6.12.62a3.94,3.94,0,0,0,1.48.15c.92-.13,1.82-.38,2.74-.54C76.45,23.46,77,23.42,77.79,23.33Zm-54,33.46c0-1.19.06-2.3,0-3.4,0-.42-.42-.81-.74-1.38-.15.34-.23.43-.23.52,0,1.09-.11,2.18-.09,3.26C22.69,56.37,23,56.78,23.78,56.79ZM160,29.72c.62.31,1.18.42,1.4.75a1.68,1.68,0,0,0,1.22.71c.35.07.68.26,1,.32a10,10,0,0,0,1.1.09c-.26-.33-.51-.67-.8-1-.07-.08-.26,0-.39-.09a7.84,7.84,0,0,1-1.91-.75C161.07,29.39,160.66,29.48,160,29.72ZM32.15,55.23c.25-.36.55-.62.5-.76-.22-.68-.54-1.32-.89-2.14-.19.59-.68.92-.36,1.62a3.79,3.79,0,0,1,.15,1.28,12.13,12.13,0,0,0,.07,1.48c0,.2.36.35.56.52.12-.22.36-.46.33-.66A8.73,8.73,0,0,0,32.15,55.23ZM74.22,99.84v3.25c1.3-.33,1.28-.33,1.23-2.18C75.44,100.16,75.06,99.89,74.22,99.84Zm-9.6,39.21h-.37c0,.23-.09.46-.1.7a24.49,24.49,0,0,0,0,2.57,3.29,3.29,0,0,0,.48,1.23c0,.11.27.13.41.19.06-.16.19-.33.18-.49,0-.38-.13-.75-.18-1.13C64.87,141.1,64.75,140.08,64.62,139.05ZM66.42,39a1,1,0,0,0,.08.26,6.48,6.48,0,0,0,3.73,1.07c.1,0,.23-.21.21-.29a.51.51,0,0,0-.26-.33c-.26-.13-.54-.22-.81-.33a10.44,10.44,0,0,0-1.76-.67C67.27,38.61,66.87,38.85,66.42,39Zm-28,95.54c-.65,1,.18,3.38,1.32,3.94A4.16,4.16,0,0,0,38.4,134.51ZM31,97.69l-.4.09c.12,1.76.22,3.52.37,5.28,0,.19.32.36.49.54.1-.24.29-.48.26-.71-.1-.93-.28-1.85-.39-2.78-.05-.46,0-1,0-1.41A5.57,5.57,0,0,0,31,97.69ZM139.67,20.24c.36.11.82.1,1,.32a1.28,1.28,0,0,0,1.35.38c.47-.07.95,0,1.42-.07a4.49,4.49,0,0,0,.85-.29,8.25,8.25,0,0,0-.95-.45c-.13-.05-.33.12-.48.08a3.91,3.91,0,0,1-1.08-.35A2,2,0,0,0,139.67,20.24ZM24,61.71c.39-1.56.19-2.57-1.2-3C22.22,59.76,22.8,61.72,24,61.71ZM68.31,50.82a1,1,0,0,0-.25,0c-1,.31-1.91.61-2.85.94-.18.06-.3.25-.45.37.18.08.37.24.53.22,1.3-.19,2.61-.4,3.9-.63a.44.44,0,0,0,.28-.32.61.61,0,0,0-.28-.44A4,4,0,0,0,68.31,50.82ZM129.76,32.1c.36-.28.68-.56,1-.78.18-.11.45-.08.63-.18a1.73,1.73,0,0,0,.41-.44c-.15-.12-.3-.31-.47-.34a2,2,0,0,0-.73.05c-.65.11-1.29.22-1.93.36a8.16,8.16,0,0,0-.86.34Zm25,1.95s0-.19,0-.2c-.91-.26-1.81-.52-2.73-.73-.11,0-.41.27-.41.42s.21.38.38.47c.62.31,1.27.59,1.89.87ZM94.27,81.52a5.1,5.1,0,0,0,1.19.18c1.09-.16,2.11-.71,3.29-.49.37.07.82-.28,1.35-.48C99.27,80.24,96,80.72,94.27,81.52Zm-53.68,55.3h-.33a7.93,7.93,0,0,0,.06,2.44,7.2,7.2,0,0,0,1.44,1.88,2.5,2.5,0,0,0,.05-1.11c-.09-.8.14-1.74-1-2.1-.11,0-.14-.34-.19-.52S40.61,137,40.59,136.82Zm37.06-33.6a1.86,1.86,0,0,0,.82,2.16,2.92,2.92,0,0,0,.54.23,2.71,2.71,0,0,0,0-.57c-.06-.3-.19-.57-.26-.86-.17-.73-.3-1.46-.48-2.19,0-.14-.23-.25-.34-.38-.1.15-.25.28-.27.44A11.13,11.13,0,0,0,77.65,103.22ZM21.91,58l-1.79-1.35c-.37.69-.53,1.21.13,1.81C21.42,59.56,21.39,59.6,21.91,58Zm31.16,56.72c.71-1.15.67-4.89-.08-5.51C53.2,111,52.59,112.78,53.07,114.74Zm-9.73,11.8-.26.07c0,1,0,2,0,3.07,0,.28.3.74.51.77.55.08.48-.4.44-.76,0-.57-.32-1.2-.15-1.68C44.19,127.2,43.69,126.94,43.34,126.54ZM85.61,33.43v.27a6,6,0,0,0,1.27,0,5.32,5.32,0,0,1,2.8,0c.62.2.87-.16.72-.68A7.36,7.36,0,0,0,85.61,33.43ZM28.42,71.69c-.24,1.42.36,2.37,1.5,2.45A1.74,1.74,0,0,0,28.42,71.69Zm35.7,47.06-.3.07.34,5.07h.29c0-.38,0-.75.06-1.13a9,9,0,0,1,.2-2.39A1.22,1.22,0,0,0,64.12,118.75ZM13.88,35.1v5.26C14.94,39.59,14.88,36.6,13.88,35.1ZM25.37,84.58l.36,0,.73-3.26a2.87,2.87,0,0,0-.81-.06c-.19,0-.5.22-.5.33C25.19,82.61,25.29,83.59,25.37,84.58ZM47.53,30.8c0-.07-.08-.16-.1-.16-1.24.17-2.47.33-3.7.53-.1,0-.15.31-.22.47a1.61,1.61,0,0,0,.59.15c.64-.07,1.28-.17,1.92-.28S47.28,31.56,47.53,30.8Zm113,110.34c-.75-1-2-.81-3.55.54a1.1,1.1,0,0,0,1.92-.11c.18-.26.62-.37,1-.49A1.86,1.86,0,0,1,160.53,141.14Zm-20.76,5.52c-.09.66,0,.82.68.7a22.9,22.9,0,0,0,2.31-.57c.16,0,.26-.3.39-.45a2.22,2.22,0,0,0-.54-.34,1,1,0,0,0-.56,0ZM56.27,93.11a3.58,3.58,0,0,0,.2,3,.55.55,0,0,0,.45.13.43.43,0,0,0,.27-.34C57.21,94.88,57.43,93.79,56.27,93.11Zm-35.61-13c.14-.06.23-.08.23-.11.12-1.12.24-2.23.3-3.35,0-.14-.31-.4-.5-.42a.72.72,0,0,0-.56.33,2.31,2.31,0,0,0-.05,1c.11.7.26,1.4.41,2.1A3,3,0,0,0,20.66,80.09ZM87,49.72,87,50l3.39-.53C90.17,48.23,88.54,48.38,87,49.72Zm101.78,89c-.36-.2-.58-.43-.77-.41-1.13.16-2.34.14-3.18,1l.14.43ZM165.15,35.25c.73.33,1.43.65,2.14,1a2.82,2.82,0,0,0,.58.1,1.89,1.89,0,0,0,.06-.62,2.14,2.14,0,0,0-2.68-.74S165.21,35,165.15,35.25Zm31.09,41.87c.51.4,3.38-.2,4.3-.84A8,8,0,0,0,196.24,77.12ZM78.07,164.64l-4.79,1.2C74.19,166.35,77.7,165.51,78.07,164.64ZM27.72,110.85l-.36.12a3.41,3.41,0,0,0-.1.46c-.11,1.12,1,1.68,1.25,2.64a.39.39,0,0,0,.29.09c.11-.1.27-.28.24-.37a12.34,12.34,0,0,0-.51-1.18Zm108-66.93c0-1.65,1.63-.45,2.25-1.45a20.63,20.63,0,0,0-2.11,0,3.31,3.31,0,0,0-1.15.41c-.11.06-.12.37-.11.56a1.51,1.51,0,0,0,.21.46l.53-.59Zm77.63,31.35a10.72,10.72,0,0,0,.22-1.48.76.76,0,0,0-.47-.55,1.66,1.66,0,0,0-.9.11.81.81,0,0,0-.45.42c0,.09.17.31.31.43C212.44,74.57,212.88,74.91,213.31,75.27ZM104.41,23.76l0-.16a2.8,2.8,0,0,0,.82,0c.21-.07.5-.3.52-.48a.7.7,0,0,0-.43-.54,2.16,2.16,0,0,0-1.13.06,6.05,6.05,0,0,0-1.13.7ZM78,42.37l.17.16.72-.58a5.23,5.23,0,0,0-1-.86.86.86,0,0,0-.73.4,1.86,1.86,0,0,0,.16,1.11c.09.19.44.26.79.45ZM65.61,28.3l0-.3a2,2,0,0,0-.62-.24,17.88,17.88,0,0,0-2.07-.05,2.28,2.28,0,0,0-.72.32,3.07,3.07,0,0,0,.72.37,7.71,7.71,0,0,0,1.71.27A3,3,0,0,0,65.61,28.3ZM33.73,87.58l.17,0c0-1,0-1.93,0-2.89a1.87,1.87,0,0,0-.22-.58,2.79,2.79,0,0,0-.57.37.67.67,0,0,0-.19.51C33.16,85.83,33.45,86.7,33.73,87.58Zm30.66,30.64V113.8C63.79,114.44,63.79,117.5,64.39,118.22ZM14.05,54.34c.54-.49,1-.89,1.44-1.31a.36.36,0,0,0-.05-.37,3,3,0,0,0-.87-.56c-.5-.17-.82,0-.76.6S14,53.66,14.05,54.34ZM132.56,15.66v0a11,11,0,0,0,1.41-.1c.16,0,.26-.32.39-.49-.14-.09-.29-.26-.43-.26-.88,0-1.76.11-2.63.21-.18,0-.34.18-.51.28.17.13.34.36.52.38A7.5,7.5,0,0,0,132.56,15.66ZM25.37,54.8c-.77.67-.59,3.49.2,3.86ZM24,68.93l.24-.15a2.16,2.16,0,0,0-.12-.86,8.67,8.67,0,0,0-1-1.28,3.48,3.48,0,0,0-.58-.43c-.05.26-.24.61-.13.76C22.88,67.66,23.45,68.29,24,68.93ZM160.38,32.06a4.76,4.76,0,0,0-.73-1,.73.73,0,0,0-.7,0,9.46,9.46,0,0,0-1.07.95C158.55,32.76,159.38,32.31,160.38,32.06ZM25.2,60.71c-.54,1.23-.2,2.62.81,2.93C25.83,62.61,26.34,61.48,25.2,60.71Zm191,14.3V72.44l-1.67.46ZM43.52,134.32l-.4.17V137c.32-.27.39-.73.6-.8.42-.15.66-.32.48-.74A8.79,8.79,0,0,0,43.52,134.32ZM17,37.47l.18-.08-.79-1.22-.24.12a9.3,9.3,0,0,0,.32,3.36h.29Zm11.65-1.73c-.3,1.46-.16,1.72,1.17,2.18C30,36.57,29.69,36,28.64,35.74ZM214.49,113.3c-.62.82-.71,3.7,0,4.14ZM43.51,141a5.64,5.64,0,0,0,.75,3.66A3.86,3.86,0,0,0,43.51,141Zm-6.74-21.87H37c.62-1.21.51-3-.27-3.5ZM99.54,43.69l.17-.26c-.07-.13-.12-.32-.23-.39-.69-.39-1.4-.76-2.11-1.11a.46.46,0,0,0-.39.17c0,.17,0,.47.11.52C97.89,43,98.72,43.34,99.54,43.69ZM25.77,75.21c0-1.06,0-2,0-2.95,0-.12-.18-.28-.31-.34s-.3.12-.3.18c0,.93,0,1.87.07,2.8C25.23,75,25.52,75.07,25.77,75.21Zm142.41,59.17c-.45.52-1.56.15-1.26,1.2.06.2.73.39,1.05.31C168.93,135.65,168.3,135,168.18,134.38ZM149.25,145l4.27-1.57C152.43,143.21,149.33,144.19,149.25,145ZM70.47,25.44a3.34,3.34,0,0,0-2.32-.11s-.09.57,0,.67A1.89,1.89,0,0,0,70.47,25.44Zm102.62,5.92-.09-.3c-.56-.19-1.12-.4-1.69-.54-.08,0-.37.47-.36.48.32.29.65.68,1,.75S172.72,31.51,173.09,31.36ZM34.56,130.44l1,2.67C36,131.57,35.68,130.59,34.56,130.44Zm-.76-20.75a12.74,12.74,0,0,0,.3,1.82c.06.2.4.31.61.47.14-.21.38-.41.4-.63C35.18,110.54,34.63,110.15,33.8,109.69ZM157.3,21.24c.52,1,.78,1.07,1.6.56.14-.09.36-.05.53-.11a3.67,3.67,0,0,0,.52-.27c-.18-.12-.36-.33-.55-.34a9,9,0,0,0-1.47,0A4.07,4.07,0,0,0,157.3,21.24ZM54.85,94.76c.25,0,.28,0,.3,0a.06.06,0,0,0,.06-.05c0-.19,0-.37,0-.56,0-.81,0-1.62-.06-2.42,0-.16-.25-.3-.38-.45a1.65,1.65,0,0,0-.2.56c0,.29.16.58.19.88C54.79,93.43,54.81,94.12,54.85,94.76Zm116.47-57a1.39,1.39,0,0,0-2.34-1Zm-42.89-4.63c-.33-.1-.57-.25-.79-.21a14.5,14.5,0,0,0-1.81.45.35.35,0,0,0-.19.3c0,.1.18.27.26.25C126.72,33.8,127.68,34.11,128.43,33.16ZM72,88.32c.91-.23,1.71-.42,2.5-.65.09,0,.21-.27.18-.31s-.26-.25-.37-.23c-.78.16-1.57.35-2.35.56-.11,0-.27.25-.25.34S72,88.26,72,88.32Zm91.9-61.39,0-.24-1.69-1-.65,1.19ZM135.61,83.55l-.17-.29c-.76.2-1.53.38-2.27.62-.1,0-.15.39-.11.56s.33.19.47.15a8.64,8.64,0,0,0,1.41-.47A3.22,3.22,0,0,0,135.61,83.55ZM26.55,118.05a1.59,1.59,0,0,0-.49-2c-.11-.1-.33-.24-.38-.2a.61.61,0,0,0-.28.43C25.39,117.13,26,117.5,26.55,118.05Zm57.67,51.27c.37.21.53.38.63.35.84-.25,1.68-.53,2.5-.83.1,0,.12-.27.18-.41-.12,0-.26-.15-.35-.12C86.27,168.61,85.37,168.92,84.22,169.32ZM140.78,42.09a8.42,8.42,0,0,0-1.55,0,2.69,2.69,0,0,0-.88.53s.13.38.2.38a4.56,4.56,0,0,0,1-.15,2.75,2.75,0,0,0,.69-.27A3.32,3.32,0,0,0,140.78,42.09Zm-13.52-20c0-.05.33-.37.29-.43a5.08,5.08,0,0,0-1-.95s-.52.3-.5.41C126.18,21.65,126.25,22.25,127.26,22.13ZM95.05,162.36a1.92,1.92,0,0,0,2.54-.9A3.33,3.33,0,0,0,95.05,162.36ZM43.7,123h-.51c0,.77,0,1.54,0,2.31,0,.06.17.19.23.17s.28-.15.28-.23C43.72,124.45,43.71,123.71,43.7,123ZM20.12,94.22l.07-.36L18.7,92.74c-.1.18-.34.45-.29.53a4.91,4.91,0,0,0,1,1.12C19.49,94.49,19.86,94.28,20.12,94.22ZM125.8,32.53l0-.28c-.9,0-1.81,0-2.71,0-.08,0-.15.18-.22.29a1.19,1.19,0,0,0,.38.21c.29,0,.68-.1.86,0C124.84,33.42,125.28,32.83,125.8,32.53ZM62,80.3l-.55,0c0,.65,0,1.3.12,1.94,0,.1.29.21.46.24s.24-.18.23-.26C62.2,81.6,62.1,81,62,80.3ZM54.92,105l.31.06a16.6,16.6,0,0,0,.47-1.81c0-.14-.33-.36-.55-.48-.06,0-.37.21-.37.32C54.79,103.75,54.86,104.38,54.92,105Zm62.68-1.78-.07-.28a1.75,1.75,0,0,0-2.3.87ZM72,109.32c.63-.77.63-2.83,0-3.24Zm7-65.86c.58.45,1.11.11,1.62-.06a.44.44,0,0,0,.18-.4.66.66,0,0,0-.39-.36A1.12,1.12,0,0,0,79,43.46ZM192.51,78.15l0,.37a12.49,12.49,0,0,0,1.5,0c.12,0,.21-.33.32-.51-.18-.1-.39-.3-.54-.27A10.55,10.55,0,0,0,192.51,78.15Zm-43.67,65.74c.29-.08.55-.16.81-.21a6.78,6.78,0,0,0,.9-.16.68.68,0,0,0,.38-.38c0-.07-.13-.3-.25-.35C150.26,142.62,149,143.35,148.84,143.89ZM29.46,70.47l.3-.31c-.21-.23-.41-.47-.61-.71a4.33,4.33,0,0,1-.38-.47c-.09-.13-.11-.31-.21-.44a.46.46,0,0,0-.34.14c-.08.19-.18.51-.09.61C28.54,69.71,29,70.08,29.46,70.47ZM169.23,26.85l.09-.45c-.47-.17-.93-.36-1.41-.49-.14,0-.33.1-.5.16.08.19.13.5.25.53C168.17,26.73,168.7,26.77,169.23,26.85ZM35.63,54.8c-.8.57-.9,2.26-.2,2.67Zm47.11-9.51.05.35,1.55-.11c-.07-.22-.07-.57-.21-.64A1,1,0,0,0,82.74,45.29Zm71.09-22.94c.2,1.27,1.07.48,1.61.71C155.29,22.19,155.23,22.17,153.83,22.35ZM92.89,33.07a6.79,6.79,0,0,0-1.17,0c-.21,0-.41.22-.61.34.15.15.29.41.46.43C92.17,33.87,92.73,33.76,92.89,33.07Zm-64,11L29,46.8h.31a5,5,0,0,1,0-.67,2.49,2.49,0,0,1,.21-.95C29.93,44.57,29.77,44.22,28.89,44.11Zm10.2,71.82-.2-1.43-1.06-.21A1.47,1.47,0,0,0,39.09,115.93Zm-8-60.47-.9-2A1.3,1.3,0,0,0,31.08,55.46ZM11.58,94l.15,0V90.71h-.15V94Zm154.78,48.41c.59-.19,1.25-.22,1.29-1a1.48,1.48,0,0,0-.88-.21C166.11,141.36,166.13,141.85,166.36,142.45ZM30.8,61.79l.65-1.91C30.28,60.2,30.13,60.64,30.8,61.79ZM155.86,31.17c.4,0,.93.43,1.46-.15-.18-.28-.33-.53-.51-.76s-.26-.22-.31-.19a1.12,1.12,0,0,0-.25.35C156.12,30.66,156,30.89,155.86,31.17ZM39.15,100.6l.26,0a11.56,11.56,0,0,0,.15-1.43c0-.15-.3-.31-.46-.46-.1.2-.31.41-.29.59A8.22,8.22,0,0,0,39.15,100.6ZM63.6,36.49l-.05-.44a13.61,13.61,0,0,0-1.43,0c-.12,0-.24.26-.31.42s.18.25.27.24C62.59,36.68,63.09,36.58,63.6,36.49Zm97.85-2.7.08-1.29-1.29.16C160,33.75,161.12,33.27,161.45,33.79Zm-32.29,116c-.68-.86-1.31-.76-2,.18Zm-102.93-80-1-1.05c-.1.14-.32.33-.29.4a7.64,7.64,0,0,0,.68,1A5.68,5.68,0,0,0,26.23,69.79Zm4.09,44.13c-.67,1-.56,1.79.3,2.2Zm183-48.67c0-.64,0-1.15,0-1.65,0-.11-.19-.26-.32-.3s-.24.11-.31.21C212.34,64,212.54,64.75,213.32,65.25ZM153.26,27.4l-.19-.17-.74.95-.38.49.64.47Zm-96,79.68a1.93,1.93,0,0,0-.25,2.2h.25Zm11-86.3,0,.19a15.76,15.76,0,0,0,1.68.09c.11,0,.26-.37.28-.58s-.33-.31-.45-.28C69.21,20.36,68.72,20.58,68.23,20.78Zm-39.9,97.66c-.13.72-.24,1.43.38,2C28.83,119.68,29.19,118.92,28.33,118.44ZM143.68,146l.14.44c.66-.19,1.32-.37,2-.59.09,0,.14-.28.13-.42a.42.42,0,0,0-.35-.12C144.94,145.47,144.31,145.72,143.68,146ZM28.53,39l-.29.1a1.15,1.15,0,0,0,.9,1.62Zm137.7.67.06.29,2.06-.4-.06-.3C167.49,38.9,166.89,39.45,166.23,39.7ZM111,44.78l1.76-.82-.06-.33a4.35,4.35,0,0,0-1.32.17C111.15,43.88,111.12,44.35,111,44.78Zm-8-21.38c-.59-.69-1.13-.32-1.62-.21-.08,0-.16.31-.12.42s.27.27.37.24C102,23.74,102.4,23.58,102.92,23.4Zm96.54,35.71-.8.73c.18.11.4.34.55.31a5.21,5.21,0,0,0,.94-.48ZM91.89,163.91c-.41-.93-.88-.64-1.29-.4-.11.06-.08.37-.11.57Zm25.8-108-.39,0c0,.52,0,1,0,1.54,0,.09.23.24.35.23s.3-.21.29-.31C117.9,56.89,117.79,56.39,117.69,55.89ZM20.46,64.48l-.24.19,1.47,1.75C21.85,65.86,21.17,64.88,20.46,64.48Zm53-21.75c.66.33,1.12.58,1.6.8,0,0,.25-.08.25-.13a.59.59,0,0,0-.11-.36C74.8,42.54,74.3,42.46,73.44,42.73ZM63.3,176.18l-.07-.21c-.31.15-.82.23-.89.45a3,3,0,0,0,.08,1.22l.17-.07Zm4.1-133a1.68,1.68,0,0,0,2.27-.71ZM65.86,24.21l0,.33,2.26-.14,0-.19Zm-34.49,40a1.88,1.88,0,0,0-.73-1.9C30.46,63.16,30.35,63.82,31.37,64.21ZM55,98.15l-.31.07.39,1.87C55.6,99.36,55.68,98.7,55,98.15ZM205.58,66.42c.17.26.25.52.37.54a1.15,1.15,0,0,0,.81-.1c.16-.12.12-.48.17-.74-.22.07-.44.14-.66.19A6.72,6.72,0,0,1,205.58,66.42Zm-186.69,12,.22,0c0-.69,0-1.37,0-2,0-.14-.22-.26-.34-.38-.09.11-.28.24-.27.34C18.6,77.07,18.75,77.77,18.89,78.47Zm155.18,61.62c.54-.11.94-.17,1.32-.27a.4.4,0,0,0,.19-.32c0-.1-.16-.27-.24-.27A1.12,1.12,0,0,0,174.07,140.09Zm-157-28.37.22-.11a4.75,4.75,0,0,0-.19-1c-.08-.19-.35-.3-.54-.44-.07.24-.27.54-.19.71A4.28,4.28,0,0,0,17.05,111.72Zm26,19.35c-.07.52-.07,1,.55,1.08a.55.55,0,0,0,.42-.36C44.05,131.22,43.7,131,43.09,131.07ZM20.94,91.33V89.26A1.39,1.39,0,0,0,20.94,91.33Zm147.81,50.56.71-.52a3.37,3.37,0,0,0-.75-.52c-.09,0-.47.29-.45.39S168.54,141.62,168.75,141.89ZM14.09,58.36l.49,0,.14-1.69-.42,0ZM15.8,30.21l.39.08c.11-.45.24-.89.31-1.35,0-.09-.22-.32-.3-.31s-.37.18-.39.3C15.77,29.35,15.8,29.78,15.8,30.21Zm5-4.43.29-.39A2.82,2.82,0,0,0,20.3,25c-.14,0-.47.23-.47.36a3,3,0,0,0,.24.93ZM92.21,40.34l-.1.28,1.44.46.19-.74Zm39.63,4-.06-.35-2,.29,0,.26A3.27,3.27,0,0,0,131.84,44.35ZM37.19,38.16c.17,1,.75,1.47,1.44,1.18ZM153.91,142l-1.59.43.06.23C153.49,142.88,153.72,142.81,153.91,142ZM57,105.78c0-.48.07-1,.07-1.43,0-.09-.15-.21-.26-.26a.35.35,0,0,0-.26.13C56.49,104.77,56.34,105.34,57,105.78Zm4.82-80.84c-1-.81-1.39-.73-1.7.2Zm62.56,126,0-.36c-.47.08-1,.14-1.41.25-.08,0-.14.25-.15.39s.18.16.25.14C123.49,151.23,123.94,151.08,124.39,150.93Zm21-6.63c.92.49,1.25.36,1.64-.74ZM22,115.81l-.34.18.7,1.75.41-.18Zm141.43,27.91.09.38,1.5-.35-.06-.31C164.42,143.34,163.86,143.15,163.43,143.72ZM32.12,101.05l-.32.08.36,2.25.35-.06Zm-7-35.54c0,.57-.19,1.1.47,1.3a.43.43,0,0,0,.36-.2A.9.9,0,0,0,25.15,65.51Zm11.64,47.4-.2.13a2.79,2.79,0,0,0,0,.71,2.36,2.36,0,0,0,.29.57c.15-.2.47-.44.43-.59A3,3,0,0,0,36.79,112.91ZM212.4,70.2l.28.18c.2-.21.53-.4.55-.62s-.28-.46-.44-.7l-.24.09Zm-117-29.52-.38.11.09.93.83-.1ZM160.47,145.2l.69-.57c-.18-.11-.38-.32-.54-.3a2.4,2.4,0,0,0-.7.38ZM133.71,42.47l1.56-.57c-.25-.26-.6-.48-.83-.39C134,41.66,133.58,41.92,133.71,42.47ZM55.54,108.09c.48-.84.12-1.19-.51-1.4l-.24.14Zm64.83-63.3a5.12,5.12,0,0,0,.84-.24c.14-.07.32-.28.3-.37a.53.53,0,0,0-.38-.33C120.42,43.75,120.46,44.3,120.37,44.79Zm90.76,29.44L211,74l-1.08.11.64,1ZM26,112.22c-.65.85-.49,1.41.3,1.48Zm38.1-3.49v1.94A1.21,1.21,0,0,0,64.12,108.73ZM150.61,25l-.27.17a2.46,2.46,0,0,0,.46.77c.09.07.44-.16.82-.31ZM26.45,29.72l-.16.26c.09.56.52.69,1,.66.09,0,.18-.21.27-.33Zm4.77,26.89H30.8c.46.44-1.06,1,.3,1.5ZM152.15,31.47l.17-.25c-.4-.22-.78-.47-1.19-.66-.08,0-.25.12-.39.18.09.12.15.31.27.35A11.72,11.72,0,0,0,152.15,31.47ZM43.43,99.2c.49-1,.4-1.44-.28-1.62ZM72.94,43.08l-1.12.52c.56,0,1.16.87,1.61-.07Zm28.61-15.86.15-.28a9.91,9.91,0,0,0-1-.47c-.08,0-.24.18-.36.28.11.13.2.33.34.37A4.82,4.82,0,0,0,101.55,27.22ZM19.3,28.66c-.23.28-.44.46-.41.55a3.66,3.66,0,0,0,.43.7c.12-.12.38-.26.36-.35A4.79,4.79,0,0,0,19.3,28.66Zm84.9.41-.1.44,1.27.2.08-.36ZM72,19.63l-.31-.32-.95,1,.2.23ZM54.82,97.38c.72-.43.69-.74-.11-1.72Zm82.77,50.12,0,.25c.48,0,1.05.34,1.52-.59ZM92.33,77.78c-.42-.2-.63-.39-.75-.35s-.36.31-.53.47c.13.11.27.32.38.3A4,4,0,0,0,92.33,77.78Zm104.11,55.64c-.56-.77-.77-.75-1.49.16ZM43,67.66l.37,0-.21-2.29-.16,0ZM150.63,42.57l.47-.43c-.12-.12-.24-.34-.35-.34a.57.57,0,0,0-.43.3C150.29,42.17,150.49,42.36,150.63,42.57ZM205.42,32l0-.26a2.26,2.26,0,0,0-.71-.32c-.14,0-.3.2-.46.32a2.3,2.3,0,0,0,.57.44C205,32.21,205.23,32.05,205.42,32ZM55.79,59.63l-.67-.71c-.1.18-.28.36-.26.53s.21.38.33.56Zm1.06,41.45.46-.19-.53-1.16c-.1.1-.31.23-.29.31A10.69,10.69,0,0,0,56.85,101.08Zm-25.48,5.79c.48-.86.4-1.33-.15-1.51Zm107.4-65.19.5-.53c-.16-.15-.31-.37-.51-.42s-.44.24-.42.31A2.44,2.44,0,0,0,138.77,41.68ZM99.3,26.31l.23-.4-.88-.58c-.06.2-.23.53-.18.56A5,5,0,0,0,99.3,26.31ZM38.54,102.46l.21,1.36C39.48,103.15,39.46,102.94,38.54,102.46ZM17.23,49c0,.78-.5,1.69.43,2.36ZM163,33.4v-.24c-.2-.08-.41-.24-.59-.23s-.3.24-.45.37c.15.13.3.34.46.35S162.79,33.49,163,33.4ZM32.66,94.6l-.24-.18a5.15,5.15,0,0,0-.74.47.53.53,0,0,0-.05.45.43.43,0,0,0,.34.1C32.22,95.18,32.44,94.88,32.66,94.6ZM144.73,41l-.07-.35-1.07.19.08.41Zm63.69,24.07a3.07,3.07,0,0,0-.52.68c0,.07.31.39.43.36s.39-.27.59-.42Zm-171-27.9-.23.27,1.24,1,.21-.25Zm32.37,7.24.35-.18-.31-.69-.45.3ZM46,29.86c.87.35,1.08.21,1-.65ZM70.51,42.6l-.11.08.17.24c.12.18.2.43.36.52s.35-.07.53-.12Zm42.56,17.14.29,0V58.54h-.29Zm52.53,83.48.08.36c.37-.08.75-.14,1.12-.24,0,0-.05-.28-.08-.44ZM193.87,37.08l0-.36-1,.1,0,.39Zm-49.76-21.7.34-.2.36-.47c-.15-.1-.32-.29-.44-.27a.66.66,0,0,0-.41.39C143.92,15,144.05,15.2,144.11,15.38Zm7,16.36h-.39l-.11.88.57,0ZM71.48,41.21l0-.42-1,.14,0,.4Zm63.41,106.23c.09.35.08.69.2.74a2.3,2.3,0,0,0,.79,0l0-.18ZM81.72,19.11v-.37c-.26,0-.53,0-.8,0a2.83,2.83,0,0,0,0,.36ZM44.43,138.62h-.26V140h.26ZM155,142.79l0,.22c.21,0,.55,0,.59-.13a5.25,5.25,0,0,0,.22-1.06h-.16ZM145.34,42.68l-.1-.24-1,.34c.06.11.15.32.16.31C144.71,43,145,42.82,145.34,42.68ZM32.18,33.54c-.25-.22-.38-.41-.55-.46s-.32.24-.32.37a.56.56,0,0,0,.32.39C31.74,33.87,31.91,33.7,32.18,33.54Zm100.74,9c-.35-.78-.35-.78-1.28-.07Zm15.36,102.59-.09-.4c-.33.09-.66.17-1,.28a2,2,0,0,0,.08.33C147.61,145.24,148,145.17,148.28,145.09Zm-38-100.77v-.19L109,44v.33Zm92.56-13.54-.18.41a6.83,6.83,0,0,0,.83.29c.05,0,.16-.21.24-.33Z"/><path d="M63.87,180.39a6,6,0,0,0-1.14.74,1.1,1.1,0,0,0-.26.87,6.38,6.38,0,0,0,.55,1.19.77.77,0,0,1-.7,1.13c-.58,0-1.22.08-1.54-.53a2.5,2.5,0,0,1,.49-2.25C62.46,180.52,62.57,180.47,63.87,180.39Z"/><path d="M112.23,129.26l.56.19c.26-1-1-1.86.18-2.84a6.79,6.79,0,0,1,.27,1c.17,1.19.28,2.39.5,3.58.05.27.52.7.72.66a5.94,5.94,0,0,0,1.85-.7.92.92,0,0,0,.23-.87c-.59-.89,0-1.2.8-1.7a9.74,9.74,0,0,1,.39,1.52c0,.57.17.86.81.63,1.57-.56,3.14-1.12,4.71-1.65.29-.1.62-.08.91-.18,1.16-.4,2.3-.87,3.47-1.22.84-.25,1.73-.35,2.6-.52.18,0,.46,0,.54-.17.89-1.32,2.35-1.15,3.64-1.45a9.51,9.51,0,0,0,1.73-.58,8.24,8.24,0,0,1,3.84-.43c.55,0,1.1,0,1.75,0l-.86-1.31,2.18-.14c.57-1.2,1.44.41,2.23,0l.05.23a17.87,17.87,0,0,1-4.11,1.79c-1.3.21-2.72.79-4.12.1-.18-.09-.53.17-.83.27l.62.44,0,.21c-.82-.15-1.63.49-2.47-.1a.49.49,0,0,0-.47.12,1.51,1.51,0,0,1-1.44,1.11,20.22,20.22,0,0,0-2.71,1.13c-1.06.36-2.17.57-3.25.85-.64.17-1.27.39-1.91.52-2.16.45-4.11,1.51-6.22,2.09-.75.2-.47.86-.35,1.34.26,1.09.59,2.17.9,3.26a2.07,2.07,0,0,0,.17.55.79.79,0,0,1-.39,1.24.93.93,0,0,1-1.24-.63c-.25-1-.44-2.12-.65-3.18,0-.11,0-.22,0-.34-.13-1.76-.6-2-2.14-1.11-.19.11-.27.51-.28.78-.07,1.25,0,2.5-.16,3.74a15.65,15.65,0,0,1-.58,2.41,1.3,1.3,0,0,1-.39.7,1.61,1.61,0,0,1-1,.2c-.14,0-.3-.48-.3-.73,0-1.85.09-3.69.13-5.53,0-1.09-.14-1.16-1.15-.67a7.67,7.67,0,0,1-1.12.32L105,135.71c-.82.25-1.64.51-2.47.74-1.58.43-3.17.87-4.77,1.26a14.28,14.28,0,0,1-2,.25,8.43,8.43,0,0,0-3,1.06,35.14,35.14,0,0,1-3.41,1.18c-.77.27-1.54.56-2.31.85-.13,0-.24.18-.36.19-1.65,0-2.72,1.27-4.06,1.93a1.36,1.36,0,0,1-.6.23.63.63,0,0,1-.48-.32.55.55,0,0,1,.23-.52c1.7-.79,3.39-1.58,5.12-2.28a44.47,44.47,0,0,1,4.45-1.59,67.45,67.45,0,0,0,6.52-1.81c1.68-.68,3.43-1,5.12-1.6s3.4-1,5.11-1.42c.9-.23,1.82-.39,2.72-.59a1.82,1.82,0,0,0,1.19-1.94A3,3,0,0,1,112.23,129.26Z"/><path d="M190.25,101c-.31,1.31-1.34,2.15-2.1,3.16-1,1.29-1.94,2.55-2.89,3.82-.08.11-.06.3-.1.56l3.67-1.43.16.34c-.44.25-.86.53-1.31.73-1.07.46-2.16.84-3.22,1.33a3,3,0,0,0-.89.81c-.58.69-1.14,1.4-1.69,2.12s-1,1.46-1.55,2.16c-.39.49-.86.92-1.25,1.41a2.39,2.39,0,0,0-.25.74,2.4,2.4,0,0,0,.68.13c3.22-.3,6.44-.55,9.64-1,2.36-.31,4.67-.94,7-1.28a36.17,36.17,0,0,1,4.17-.13,1,1,0,0,1,.25,0c.43.16,1.15-.44,1.29.44.05.35-1.26,1-1.71,1-1.66.12-3.31.28-5,.47-1.29.16-2.58.44-3.88.56-2.51.24-5,.4-7.55.6l-3.63.26a2.08,2.08,0,0,1-.66,0,2.36,2.36,0,0,0-2.6,1c-1.3,1.57-2.74,3-4.12,4.54a2.33,2.33,0,0,0-.27.4c-.64.92-1.27,1.85-1.93,2.75-.13.18-.4.25-.6.37l-.25-.24,7.14-8.77a19,19,0,0,0-3.12.78c-1.1.49-2-.2-2.92-.41,1.87-.33,3.75-.72,5.64-1a2.07,2.07,0,0,0,1.52-.83c1.42-1.83,2.91-3.62,4.35-5.44a2.67,2.67,0,0,0,.3-.69,2.07,2.07,0,0,0-.78,0c-1.06.38-2.09.84-3.15,1.23a7.71,7.71,0,0,1-1.18.24l-.09-.32.76-.32c1.4-.51,2.81-1,4.19-1.55a8.12,8.12,0,0,0,3.29-2.89c.88-1.17,1.75-2.35,2.66-3.49.61-.77,1.29-1.48,1.93-2.22Z"/><path d="M115.83,112.48l.31.76c-.16.08-.35.25-.49.22-1.62-.31-2.94.7-4.4,1a57.38,57.38,0,0,0-5.5,2c-1.2.42-2.45.71-3.68,1.06-1.06.3-2.11.68-3.18.91-1.61.34-3.23.58-4.84.86-.44.08-.88.14-1.32.21-.59.1-1.19.19-1.78.3s-1,.19-1.53.32c-.36.09-1.33-.37-1.24-.67a1.32,1.32,0,0,1,.79-.76c1.31-.26,2.64-.37,4-.62,2.2-.4,4.39-.86,6.59-1.3,1-.21,2.11-.42,3.16-.67s2.09-.55,3.14-.84l4.57-1.27,4.85-1.4C115.42,112.54,115.61,112.52,115.83,112.48Z"/><path d="M153.62,126.21l-6.89,8.46.82.17c-.59.74-1.11,1.43-1.65,2.1s-1.33,1.1-1,2.14c0,.1-.21.32-.36.41-.55.3-.94.6-.17,1.1-1.23.89-2.14.9-2.85.13a1.56,1.56,0,0,1-.22-2.15c1.23-1.4,2.55-2.72,3.84-4.08l.11-.12c.79-.85,1.55-1.72,2.37-2.54,1.15-1.15,2.36-2.22,3.5-3.38.68-.7,1.27-1.49,1.91-2.23a1.77,1.77,0,0,1,.39-.26Z"/><path d="M160.28,113.85l.35-.46,0-.12c-.09.24-.11.56-.28.72a1.36,1.36,0,0,0-.1,2c.44.36.37.62.08,1a1.47,1.47,0,0,0-.22,1c.09.46.44.82.25,1.4-.07.2.5.61.8,1-.48.89-1.47,1.77-.54,3a.34.34,0,0,1,0,.31c-.67.71-.18,1.48-.13,2.22.1,1.25.2,2.5.27,3.75,0,.18-.13.36-.2.54l-.24.09a5.13,5.13,0,0,1-.62-1.54c-.13-2.23-.14-4.46-.23-6.69a3.84,3.84,0,0,0-.26-.92,2.74,2.74,0,0,0-.85.37c-.42.38-1.28.34-1.18,1.22,0,0-.22.11-.37.17a6.22,6.22,0,0,1,.18-1.55c.08-.24.5-.45.8-.51.76-.17,1.41-.44,1.54-1.3a1,1,0,0,0-.18-.74c-.08-.1-.44,0-.67.09s-.74.2-1.11.3l-.13-.39a5.6,5.6,0,0,1,1.08-.39,1.25,1.25,0,0,0,1.09-1.24l.15-9.87,0-2.09c0-.57-.08-1.17.57-1.54.14-.08.13-.46.14-.7,0-.7,0-1.39,0-2.09a.55.55,0,0,1,.33-.4c0,1.47.8,3.09-1.07,4.39a6.55,6.55,0,0,0,1.07.3c.27,0,.54-.16.81-.15s.87.06.94.24c.21.52-.2.66-.67.76a2.5,2.5,0,0,0-1.19.57c-.21.22-.19.68-.29,1.14-.3.11-.48,1.26-.21,2.54l.57-.2c-.06.82.22,1.66-.49,2.37-.22.22-.15.72-.22,1.09Z"/><path d="M171.84,103.21l-.65.81c-.23-.64-.58-.76-1-.37a2.07,2.07,0,0,1-2.42.53c-.14-.06-.44.22-.74.37l-.6-.4a1.56,1.56,0,0,1,.41-.24c2.65-.58,5.31-1.08,7.94-1.72,2.86-.7,5.68-1.53,8.52-2.28a41.22,41.22,0,0,1,4.19-1,8,8,0,0,1,2.29.29c-.13.19-.2.39-.3.41-1.84.47-3.69.91-5.54,1.37-.7.17-1.38.4-2.08.59-.37.11-.74.24-1.11.32-2.59.55-5.17,1.1-7.77,1.61C172.67,103.54,172.34,103.34,171.84,103.21Z"/><path d="M119.73,141a6.6,6.6,0,0,1-1.14.72c-1.68.67-3.39,1.25-5.06,1.94-1.28.53-2.49,1.24-3.78,1.76-1.58.65-3.19,1.2-4.8,1.76-.18.07-.41,0-.7-.07.39-1.14,1.35-1.45,2.21-1.86q2.37-1.12,4.79-2.16c.55-.24,1.16-.37,1.74-.56,1.7-.54,3.38-1.12,5.09-1.59a5.28,5.28,0,0,1,1.67.08Z"/><path d="M124.7,110.44a7.6,7.6,0,0,1-1,.24c-.39,0-1,.17-1-.43a1.15,1.15,0,0,1,.66-.87c1-.32,2.05-.48,3.07-.76,1.59-.43,3.16-.93,4.75-1.36.88-.23,1.78-.38,2.68-.54a.43.43,0,0,1,.35.24c0,.18,0,.48-.16.55a9.65,9.65,0,0,1-1.52.65c-2.41.8-4.82,1.57-7.24,2.34a2.53,2.53,0,0,1-.56.06Z"/><path d="M192.85,119.9c1.05,1,2,.65,2.93.37,1.21-.35,2.39-.8,3.61-1.13.22-.07.55.2.85.44-1.37.47-2.1,1.94-3.69,2a11.12,11.12,0,0,0-2.63.65,1.31,1.31,0,0,1-1.85-1.18C192.09,120.71,192.55,120.35,192.85,119.9Z"/><path d="M114.88,147.48l6.36-3.3c.37.56.45.91-.16,1.15-.94.38-1.87.77-2.79,1.2a4.63,4.63,0,0,0-1,.66A2.6,2.6,0,0,1,114.88,147.48Z"/><path d="M190.26,101a11.77,11.77,0,0,0,.77-1.33c.25-.55.34-1.18.62-1.71a11.09,11.09,0,0,1,1.12-1.44,6.41,6.41,0,0,1,.71.93c.07.15,0,.56-.12.59-1.33.44-1.71,1.81-2.66,2.62-.14.12-.3.21-.45.32Z"/><path d="M93.76,133.25c.09-1,.54-1.52,1.24-1.33l1.67,1.4-.9.32c-.5-1-.5-1-2-.39Z"/><path d="M127.5,138.62c-1.5-.05-2.65,1.21-4.18,1l-.09-.34,4.13-1.18Z"/><path d="M176.65,112.22l-3.06,1.06C173.63,112.61,175.91,111.65,176.65,112.22Z"/><path d="M74.51,129.73c1.18-.51.72-1.57.93-2.55.2.75.39,1.38.51,2a.7.7,0,0,1-.27.58,4.56,4.56,0,0,1-1,.28Z"/><path d="M166.53,119.31c.11-.11.2-.31.32-.34.88-.2,1.76-.37,2.64-.54.09,0,.19.07.45.17a4.16,4.16,0,0,1-3.43.7Z"/><path d="M164.82,104.34c-.08.93-.14,1-1.94,1.35-.22-.42-.16-.72.35-.87s1.06-.32,1.59-.48Z"/><path d="M76.92,131.42v3.08H76.7v-3.1Z"/><path d="M158.85,106.34l-3.08.39C156.7,105.81,158.61,105.74,158.85,106.34Z"/><path d="M183.91,123l-2.07,3-.33-.23,2.17-2.92Z"/><path d="M155.27,106.85l-3.3.64-.06-.31,3.28-.68Z"/><path d="M93.75,133.25l-2.39.45c-.11-.89,0-1,.88-1.15-.29.69.14.68.6.67.3,0,.61,0,.91,0Z"/><path d="M153,121.62l3.09-.58.1.2-.67.44,0-.11c-.42.05-.85.09-1.28.16s-.81.15-1.22.22Z"/><path d="M120.78,111.64l-3.09.61-.06-.21,3.06-.78Z"/><path d="M154.31,125.24c.47-.77.93-1.54,1.91-1.52Z"/><path d="M166.51,119.3l-3.13.69a4.21,4.21,0,0,1,3.15-.68Z"/><path d="M119.75,141.05c.19-.48.31-1,1.13-.88,0,.81-.7.69-1.15.86Z"/><path d="M164.82,104.34c.8-.35,1.12.06,1.12,1a7,7,0,0,1-.62-.45,5.08,5.08,0,0,1-.5-.54Z"/><path d="M102.57,132.31l1.94-.24,0,.16-1.91.45Z"/><path d="M74.52,132.37v-1.11h.21l0,1.12Z"/><path d="M171.15,114.17c-.76.57-1,.52-1.31-.37Z"/><path d="M48.15,100.45c0,.19,0,.5.09.56,1.08.59.64,1.28,0,2.14l-.59-1,.59-.18c0-.81-1.56-.78-1.16-2l1,.49Z"/><path d="M50.16,103c1-.21,1.21-.06,1.19,1a5.54,5.54,0,0,1-.36,1.92Z"/><path d="M48.55,112.27c.14-1.08-1.42-2.06.08-3.32l.25,3.3Z"/><path d="M48.64,105v3.35C47.88,107.82,47.82,105.5,48.64,105Z"/><path d="M45.86,83.78l-.21-1.88.25,0C46.75,83.15,46.75,83.17,45.86,83.78Z"/><path d="M45.52,98.92a7.14,7.14,0,0,1,.88.65c.09.08,0,.31,0,.48-.18,0-.46,0-.53-.06a6.2,6.2,0,0,1-.54-.94Z"/><path d="M97,35.34c-1,.91-2.27.73-3.47.8l-.07-.28,3.47-.77Z"/><path d="M99.42,40.11a4.12,4.12,0,0,1,2.87-.33,3.58,3.58,0,0,1-2.85.31Z"/><path d="M98.34,34.65l1.1.41c.17.07.34.17.5.25-.15.11-.31.31-.47.31-.54,0-1.07-.08-1.66-.14.2-.31.38-.57.55-.84Z"/><path d="M101.38,34.69l.9.86-.9.3-.31-1.05Z"/><path d="M99.08,38.93,97.87,39l0-.42,1.21-.11Z"/><path d="M90.19,28.26c0,.39.1.75.11,1.12a2.13,2.13,0,0,1-.1.56c-.17-.13-.49-.26-.49-.39a.82.82,0,0,0-.87-.91,1.35,1.35,0,0,1-1.24-1l.65-.12Z"/><path d="M99.83,29.64c-.42-1-1-.62-1.73-.13.4-.85.93-1,1.52-.81.21.07.34.43.51.66Z"/><path d="M124.2,25.36a5.59,5.59,0,0,1,1.57-.26c.34,0,.63.45,1.07.79-.15,0-.11,0-.09,0,1-.92,1.58.07,2.29.48a8.67,8.67,0,0,1,.89.6,1.5,1.5,0,0,1,.25.41c-.18,0-.45.11-.51,0a2.24,2.24,0,0,0-1.66-.93,8,8,0,0,1-1.18-.24c-.36-.1-.71-.21-1.07-.33Z"/><path d="M150.78,35.92a33.67,33.67,0,0,1-4.06.46c-.71,0-.18-.51-.14-.65l2,.11.14-.35c-.27-.15-.54-.29-.8-.45l-.49-.31c.18-.09.4-.28.53-.23a14.78,14.78,0,0,1,1.52.69C149.83,35.38,150.2,35.6,150.78,35.92Z"/><path d="M68.9,32.58c.6-.07,1.08-.16,1.56-.17.2,0,.4.17.6.26a3.85,3.85,0,0,1-.57.2c-.46.07-.91.52-1.39,0C69.05,32.84,69,32.77,68.9,32.58Z"/><path d="M68.77,29.48c.53.1,1.27-.22,1.49.76-.65-.08-1.3.05-1.47-.78Z"/><path d="M56.48,119.16c.18.94.4,1.87.5,2.82a3.42,3.42,0,0,1-.32,1.16c-.58-.55-.68-2.84-.16-4Z"/><path d="M56.44,129.83v-5.71h.24v5.72Z"/><path d="M82.74,41.84c.21-.46.35-.79.52-1.1.06-.11.16-.26.26-.28,1-.21,2-.4,3-.59l.13.3a3.65,3.65,0,0,1-.71.36,8.07,8.07,0,0,1-1.37.26c-.56,0-1,.1-1.18.79C83.37,41.7,83,41.74,82.74,41.84Z"/><path d="M83.54,42.74a8.78,8.78,0,0,1,.55-1c.07-.09.33-.06.5-.08,0,.17.06.45,0,.51a10.48,10.48,0,0,1-1,.55Z"/><path d="M49.82,127.81c-.17-.51-.34-1-.5-1.54a2.62,2.62,0,0,0,.25.22C50.48,127,50.48,127,49.82,127.81Z"/><path d="M49.84,125.54l.15-1.35.32,0-.1,1.35Z"/><path d="M46.37,118.87c-.89.07-.89.07-1-.87Z"/><path d="M85.19,107.54c.21.42.5.74.44.93-.38,1.1.18,2.11.23,3.16,0,.07,0,.14-.07.22C85.06,111.45,84.65,108.93,85.19,107.54Z"/><path d="M122.85,44.19v-.9h.37c0,.3,0,.6,0,.9Z"/><path d="M38.52,111.55c-.69-.39-1.27-.68-.81-1.59a4.9,4.9,0,0,0,.26-1.41l.24,0Z"/><path d="M41.65,115c-.6-.23-1.16-.49-.82-1.4l.8,1.42Z"/></svg>