<?xml version="1.0" encoding="utf-8"?>
<!-- Generator: Adobe Illustrator 22.0.0, SVG Export Plug-In . SVG Version: 6.00 Build 0)  -->
<svg version="1.1" id="Calque_1" xmlns="http://www.w3.org/2000/svg" xmlns:xlink="http://www.w3.org/1999/xlink" x="0px" y="0px"
	 viewBox="0 0 137.8 118" style="enable-background:new 0 0 137.8 118;" xml:space="preserve">
<title>ddddd</title>
<path d="M79.2,101.1l0.8-0.8c0.3,0.4,0.9,0.8,0.9,1.2c-0.1,1.6-0.5,3.2-2.2,3.7c-0.1,0.2-0.2,0.3-0.2,0.4c0.4,3.2-1.5,4.6-4.5,5
	c-4,0.5-8.1,0.6-12.1,0.9c-9.5,0.8-18.7-1.2-27.9-2.6c-2.3-0.3-4.6-0.5-6.9-1c-1.7-0.3-3.4-0.9-5.1-1.3c-0.8-0.2-1.6-0.3-2.7-0.4
	c0.6,5.6,1.7,11.1,3.1,16.5c-0.4-0.6-0.8-1.3-1-2c-0.6-1.7-1.4-2.8-3.4-2.6c-0.2,0-0.4-0.2-0.6-0.2l0.2-0.5c0.9,0,1.8,0,2.9,0
	l-0.2-1.9c-0.3-2.4-0.7-4.7-1.1-7.1c-0.3-1.7-0.8-3.2-3-3.5c-1.1-0.2-1.6-1-1.6-2.3c-0.1-1.3-0.4-2.6-0.8-3.9c0-0.3-0.3-0.7-0.1-0.9
	c0.8-2.3-0.3-4.5-0.4-6.8c-0.1-3.6-1.4-7-1.5-10.6c-0.1-3.6-1.2-7.2-2-10.8c-1.2-6.1-2.4-12.2-3.7-18.3C5.2,47.9,4.3,44.5,3.7,41
	C3,37,2.5,33.1,2,29.1c0-0.5,0.1-0.9,0.4-1.3c1.1-1.8,2.2-3.7,3.3-5.5c0.7-1.1,1.9-2.2,2.9-1.6c1.9,1,3.2,0,4.7-0.5
	c2.7-1,5.5-0.8,8.2-1.3c1.8-0.3,3.7-0.4,5.5-0.7c0.8-0.1,1.8,0.1,2.4-0.9c0.2-0.3,0.9-0.3,1.3-0.2c5,0.1,9.9,0.3,14.8,0.2
	c1.6,0,3.1,0.2,4.6,0.4c4.8,0.3,9.5,1.2,14.1,2.7c1.7,0.5,3.5,0.8,5.3,1l-1.4-1.6l0,0c0.9,0.2,1.8,0.5,2.7,0.9c4.1,2.2,7.7,5,10,9.3
	c0.8,1.7,1.4,3.6,1.8,5.4c1.4,0.2,2.3-0.7,3.3-1.4c4.1-2.8,8-5.8,12.2-8.5s8-5.5,12.3-7.8c4-2.2,7.3-5.3,11.1-7.8
	c0.5-0.4,0.9-0.9,1.3-1.4c1.4-1.5,3.6-1.6,5.1-0.3c0.9,0.9,1.8,1.9,2.6,2.9c1,1.1,1,2.6,0.2,3.8c-0.6,1.1-1.3,2-2.1,2.9
	c-3,2.9-6.2,5.5-9.7,7.7c-3.7,2.4-7.4,5.1-10.8,7.9c-2.9,2.2-5.6,4.7-8.4,7c-0.6,0.5-1.3,0.9-2,1.3c-4.3,2.6-8.2,5.9-11.3,9.9
	c-2.7,3.6-4.7,7.7-5.9,12c-0.1,0.5-0.2,1.1-0.1,1.7c0.1,1.2,0.7,2.4-0.6,3.4c-0.3,0.2-0.2,1-0.2,1.6c0.2,2.5,0.5,4.9,0.7,7.4
	c0.1,0.8,0.2,1.7,0.1,2.5c-1-0.7-0.7-1.8-1.3-3.1c0,3.5,0,6.6-0.1,9.7c0,2.4-0.1,4.8-0.3,7.2c-0.1,1.7,0.5,3.4-0.2,5.1
	C78.2,99.8,78.5,100.7,79.2,101.1c-0.2,0.9-1.1,1.9,0,2.9C80.3,102.9,79.6,102,79.2,101.1z M74.5,88.1l-0.4,2.6l0.7,0L74.5,88.1
	c0.7-1.6,0.8-3.3,0.3-4.9c0.2-2.8,0.4-5.6,0.6-8.5c0.1-1.4,0-2.8,0.1-4.3c0-0.7,0.3-1.4,0.4-2.1c0.2-1.7,0.8-3.6-1.1-4.9
	c-0.2-0.1-0.2-0.6-0.2-0.9c0-1.7,0.1-3.3,0-5c0-1-0.3-2-0.4-3l-0.4,0l-1,3c-0.3-0.7-0.5-0.9-0.5-1.1c0.1-1.9,0.2-3.8,0.3-5.7
	c0.3-1.8,0-3.7-0.9-5.3c-0.2-0.6-0.2-1.3-0.1-2c0.1-0.5,0.3-1,0.5-1.4c-1.2,0.3-1.9,0.5-3,0.8l0.6,4.3l-0.4,0l-1-4.2
	c-2.6,0-3.2,0.5-2.7,2.7c0.1,0.5,0.3,1.1,0.5,1.6c0.5,1.7,0.9,3.4,1.3,5.1l-0.4,0.1L64.5,43c-1.3,0-2.6,0-3.8,0
	c-2.6,0.1-5.1,0.2-7.7,0.2c-5.7,0-11.5,0-17.2-0.1c-2.6-0.1-5.5,0.8-7.8-1.2c-4-0.8-7.9-1.7-11.9-2.5c-1.8-0.3-3.5-0.9-5-2
	c-1.2-0.8-2.4-1.5-3.7-2.2c0.7,3.8,1.3,7.3,2,10.7c1.1,5.5,2.3,11,3.5,16.5c0.9,4,1.9,7.9,2.8,11.9c0.6,2.9,1.6,5.7,1,8.7
	c-0.1,0.8,0.1,1.6,0.4,2.3c1.5,3.2,1.8,6.6,1.8,10c0.1,2.3,1.7,3.7,2.2,5.7c0,0.2,0.3,0.3,0.6,0.4c4.5,2,9.2,3.4,14,4
	c-0.8-0.4-1.6-0.7-2.4-1.1l0.2-0.6c4.9,1.5,9.8,3.1,14.9,3.5s10.5,0.8,15.7-0.2c-0.6-2.2-0.5-2.2,0.8-4c0.7-1,1.4-1.9,2.1-2.9
	l0.1-0.2c0.7-1.1,1.4-2.1,2.2-3.1c1.1-1.2,1.8-2.7,1.9-4.2c0.8-5.4,1.7-10.7,2.6-16l0,0l0.8-0.3l0.5,6.9L74.5,88.1z M76,54.6
	c0.1-1.5-0.4-3.1-1.4-4.3l0.6,5L76,54.6l-0.4,3.2l0.5,0.1c0.2-0.8,0.4-1.6,0.6-2.5C76.7,55.1,76.3,54.8,76,54.6z M62.6,37
	c1.1-0.1,2.3,0.5,3.2-0.8c0.6-0.8,2.4-0.4,2.1-2.3c-1.4-1.3-3.2-1.6-5-1.9c-0.5,0-0.9,0.1-1.3,0.4c-0.8,0.7-1.4,1.5-2,2.3
	c-0.2,0.3,0.1,0.8,0.2,1.2c-0.7,0.3-1.4,0.6-2.1,1c-0.8,0.7-1.3,1.6-2.1,2.3c-0.4,0.4-1.3,0.7-1.6,0.6c-0.9-0.5-0.3-1.2,0-1.9
	c0.2-0.3,0.4-0.7,0.7-1l5.1-6.6c-4.3-2.2-8.9-2.5-13.3-3.6l0.2-2.7c-1.8-0.3-3.6-0.5-5.5-0.7s-3.5,0-5.3-0.2
	c-1.8-0.1-3.5,0.5-5.2-0.3c1.6-0.3,3.3-0.5,5-0.5c3.5,0,7,0.2,10.5,0.2c0.6-0.1,1.3-0.2,1.9-0.3l0-0.6c-0.9-0.3-1.9-0.6-2.9-0.8
	c-3.4-0.4-6.9-0.3-10.3,0.4c-2.7,0.5-5.4,0.8-8.1,0.9c-3.7-0.3-7.5,0-11.2,0.7c-2.2,0.5-4.3,1.2-6.3,2.1c-1.9,0.8-2.2,2.3-0.9,4
	c0.6,0.7,1.4,1.3,2.2,1.7c8.7,4.1,18,6.2,27.4,7.4c1.1,0.3,2.3,0.2,3.4-0.1c0.9-0.4,2.1,0.1,3.4,0.2L44.3,40
	c6,1.1,17.7,0.5,21.1-1.3c-1.1-0.6-2-1.2-2.9-1.8L62.6,37z M115.9,17.4c-0.2,0.1-0.4,0.2-0.6,0.3c-3,1.6-5.8,3.4-8.3,5.6
	c-3.2,2.8-7.3,4.2-10.3,7.4c-0.2,0.2-0.5,0.4-0.8,0.5c-1.2,0.6-2.5,1.2-4,2c2.3,2.3,1,4.6,0.5,6.9c10.2-5.5,19-12.8,28.4-19.8
	c-3.5,0.7-3.5,0.7-5-2.8L115.9,17.4z M60.2,29.3c-1.4-1.8-3.4-3.1-5.6-3.6c-1.4-0.5-2.9-0.1-3.9,1C53.9,27.6,57.1,28.4,60.2,29.3z
	 M71.8,37.3l2.2-1.4c-0.9-0.7-1.6-1.3-2.4-1.9s-1.1-0.4-1.2,0.8c0,0.3-0.4,0.5-0.8,0.9L71.8,37.3z M74.1,95.3c-0.7,1.5-1.4,2.7-2,4
	c-0.6,1.3-1.2,2.6-2,4.4C72.6,101.7,74.5,97.6,74.1,95.3L74.1,95.3z M56.3,23.1c3,2.1,5.1,2.7,7.1,2.1C61,24.4,59.2,22.4,56.3,23.1z
	 M67.9,31.2c-0.7-1.1-2-1.7-3.2-1.7c-0.2,0-0.4,0.3-0.7,0.6C65.1,31,66.2,31.8,67.9,31.2L67.9,31.2z M124.1,13.4
	c-2.1,0.9-2.3,1-1.7,2.5C123.2,15.3,124.3,14.8,124.1,13.4L124.1,13.4z M12.8,36.5L13,36l-2.9-1.3l-0.2,0.5L12.8,36.5z M68.1,26.5
	c-1.4-0.8-1.2,0.7-2.1,1.1C67.1,27.7,67.9,27.7,68.1,26.5L68.1,26.5z M76.3,63.8l0.3,0l-0.4-3.3l-0.3,0L76.3,63.8z M75.5,29.8
	L74.8,30l0.6,1.7l0.5-0.1L75.5,29.8z M54.9,23.8l-0.2,0.6l1.7,0.6l0.2-0.4L54.9,23.8z M77.2,40.4l-0.4,0.1l0.1,1.3l0.4-0.1
	L77.2,40.4z M15.1,95.6l0.3-0.1l-0.3-1.2l-0.3,0L15.1,95.6z M50.4,22l0-0.5l-0.9-0.1l-0.1,0.4L50.4,22z"/>
<path d="M118.8,60.1c0.5-2.1,1.1-4.3,1.6-6.4C120.6,55.9,120.1,58.2,118.8,60.1L118.8,60.1z"/>
<path d="M118.8,60c0.1,2.1-0.8,4-2.3,5.4l0,0L118.8,60L118.8,60z"/>
<path d="M36.9,53.7c0.1-1,0.2-2,0.3-3c2.2-0.3,4.9,1.5,6.3,4.1c-1.1,1.6-1.2,1.7-2.5,1c-1.4-0.7-2.7-1.4-4-2L36.9,53.7z"/>
<path d="M59.4,63.5c-0.2-0.7-0.2-1.3-0.2-2c0.1-0.4,0.7-0.7,1.1-1c0.3,0.4,0.8,0.8,0.9,1.2C61.4,62.8,60.9,63.2,59.4,63.5L59.4,63.5
	z"/>
<path d="M68.3,56.5h5.9c-0.8,0.9-1.3,1.4-2.1,0.8c-0.8-0.6-0.7-0.6-1.5-0.6h-2.3L68.3,56.5z"/>
<path d="M40.9,13.5l-1.8,3.9l-0.4-0.2c0.6-1.3,1.2-2.6,1.8-3.9L40.9,13.5z"/>
<path d="M56.8,57.6h-4v-0.1h3.9L56.8,57.6z"/>
<path d="M61.2,56.9h3.4v0.2h-3.4V56.9z"/>
<path d="M84.1,63.8c1.1-0.5,1.7-0.4,2.1,0.9L84.1,63.8z"/>
<path d="M43.2,9l-0.7,1.2L42.2,10c0.2-0.4,0.5-0.8,0.7-1.2L43.2,9z"/>
<path d="M80.5,60.8h1v0.2L80.6,61L80.5,60.8z"/>
<path d="M109.8,21.1V17h0.3v4.1H109.8z"/>
<path d="M109.5,25.4v-1.7h0.1v1.8L109.5,25.4z"/>
<path d="M110.6,14.6l-0.3,1.1l-0.3-0.1c0.1-0.4,0.2-0.7,0.3-1.1L110.6,14.6z"/>
<path d="M100.7,91.3l-0.8-0.5l0.2-0.3l0.9,0.4L100.7,91.3z"/>
</svg>
