<svg id="Calque_1" data-name="Calque 1" xmlns="http://www.w3.org/2000/svg" viewBox="0 0 98 197"><title>Sans titre - 3</title><path d="M66.7,84.93a13,13,0,0,1,5,2.27,16.77,16.77,0,0,0,2.75,1.61,10.36,10.36,0,0,1,3.76,3.09c.68.91,1.43,1.77,2.1,2.69.54.75,1,1.54,1.52,2.32a23.58,23.58,0,0,0,1.65,2.47A27,27,0,0,1,87.35,106a12.24,12.24,0,0,1,.61,3.12,16.67,16.67,0,0,1-.6,9c-.73,1.85-1.33,3.76-2,5.63a26.63,26.63,0,0,1-2.84,5.48c-1.38,2.07-2.62,4.24-4.56,5.88a10.93,10.93,0,0,0-1.35,1.77l1,.9,0,0a3.45,3.45,0,0,1-1.42,2.05c-2,1.56-3.89,3.14-5.8,4.74-1.26,1.06-2.45,2.18-3.7,3.24a6,6,0,0,0-2,3.44,24.73,24.73,0,0,1-1.21,3.83,14,14,0,0,0-.13,9.38c-.82.87-.6,2-.23,3.09s.62,2,.91,3.07a17.85,17.85,0,0,0,5.61,8.91,3,3,0,0,1,1.15,1.71,3,3,0,0,0,.94,1.39c1.25,1.15,2.56,2.26,3.85,3.37.65.56,1.32,1.09,2,1.64l.28,2.18,1.57,1.31c-.2.72-.6.55-1,.41-3-1-5.08-3.14-7.07-5.4-1.83-2.08-3.52-4.29-5.29-6.42-.46-.54-1.13-.93-1.47-1.52-.55-.94-1.74-1.2-2.13-2.33a7.92,7.92,0,0,0-1.59-2.51,7.26,7.26,0,0,1-1.62-3c-.44-1.57-.86-3.16-1.35-4.72a17.63,17.63,0,0,1-.84-1.91c-.11-.67.22-1.4,0-2.1-.11-.33-.13-.83-.36-1-1-.59-1.09-1.62-1.42-2.54a21.47,21.47,0,0,0-5.85-8.82c-1.21-1.1-2.43-2.21-3.66-3.29a6.75,6.75,0,0,0-3.44-1.62c-.27,0-.65-.14-.82,0a1.4,1.4,0,0,1-1.93-.17,10.85,10.85,0,0,0-2.86-1.4c-.6-.25-1.2-.49-1.78-.75a5.64,5.64,0,0,1-3.12-3.06,7,7,0,0,0-1-1.63c-1.91-2.5-3.86-5-5.74-7.46a13,13,0,0,1-2.34-6.36,30.6,30.6,0,0,1-.33-6,13.79,13.79,0,0,0-.14-2.56,17.6,17.6,0,0,1,1.2-8.37c.22-.6.41-1.22.69-1.8a12.69,12.69,0,0,1,1.14-2c1.91-2.58,3.87-5.12,5.78-7.69a8.59,8.59,0,0,1,2.62-2.47A15.5,15.5,0,0,0,35.75,91,23.79,23.79,0,0,1,40,88.12c2.54-1.31,5.08-2.61,7.6-3.93a9.32,9.32,0,0,1,4.09-1.07,20.72,20.72,0,0,0,4.19-.76,5.29,5.29,0,0,1,2.74.1q3.81,1.08,7.6,2.19a2.38,2.38,0,0,1,.55.32l-1.19.22,1.06.32ZM27,108.27a1.25,1.25,0,0,0-.19,0s-.06.08-.09.12l.25-.19v-.18ZM26,126.21a1.48,1.48,0,0,0,.05-.41c0-.08-.13-.15-.19-.22a.49.49,0,0,0,0,.21c0,.14.1.26.15.39a2,2,0,0,0,.77,1.8C26.62,127.11,26.57,126.54,26,126.21Zm31.44,27.45c.43,1.27.81,2.24,1.1,3.25a30.42,30.42,0,0,0,.85,3.24c.34-1.78.61-3.22.87-4.57Zm-5-8.27a4.57,4.57,0,0,0,2,2.32,2.27,2.27,0,0,0,0-2Zm11-.25c-.06.81.2,1.06.72,1,.27-.06.5-.23.34-.66ZM34.92,95.93l-.28-.32a4.4,4.4,0,0,0-.61.52c-.1.12-.09.33-.22.81Zm40.37,43.18c-.9.17-.9.17-1.05,1Zm1.11-.93c-.05-.11-.07-.28-.15-.32s-.21.07-.32.11.06.27.14.31S76.28,138.22,76.4,138.18Zm-26.95,8-.13,0a.34.34,0,0,0,0,.17s.08,0,.13,0Z"/><path d="M53.82,41.16c.17,1.34.37,2.67.52,4a9.13,9.13,0,0,1-.41,3.35,39.65,39.65,0,0,0-.72,4.64c.88,2.53-.33,5-.17,7.54.1,1.7,0,3.42,0,5.12,0,.79,0,1.57,0,2.36,0,1.14-.12,2.28,0,3.41a5,5,0,0,1-.47,2.86A5.69,5.69,0,0,0,52.09,77a1.82,1.82,0,0,1-1.43,1.87,18.36,18.36,0,0,0-1.82.58,2,2,0,0,1-1.43.11,3.44,3.44,0,0,0-1.88,0,3.2,3.2,0,0,1-3.65-1.06A19.35,19.35,0,0,1,39,74.73a32.19,32.19,0,0,1-2.93-7.1,28.15,28.15,0,0,0-1.2-3.88A30.71,30.71,0,0,0,32,58.54a6.71,6.71,0,0,0-3.21-2.39c-.61-.21-1.24-.4-1.41-1.15l1.62.2A10.66,10.66,0,0,0,25.48,52c.52,1.37,1.51,2,1.92,3a2.22,2.22,0,0,1-1.65-1.23,38,38,0,0,0-3.59-4.51,24.77,24.77,0,0,1-2.39-3.52,39.47,39.47,0,0,1-3.2-7.22,5.83,5.83,0,0,1-.25-.81c-.28-1.76-.54-3.52-.81-5.28a1.19,1.19,0,0,1,0-.42c.35-1.82.7-3.63,1.07-5.45a6.31,6.31,0,0,0,.35-1.23,6.64,6.64,0,0,1,1.5-3.92,2,2,0,0,0,.34-1.18,3.77,3.77,0,0,1,1.28-2.84c2.36-2.49,4.85-4.83,8.2-6a1.07,1.07,0,0,0,.38-.2c1.06-1,2.43-1.06,3.78-1.18a9.75,9.75,0,0,1,8,2.77c.46.44,1,.84,1.45,1.25.16.14.4.22.51.39,1.07,1.67,2.56,3,3.34,4.91A12.12,12.12,0,0,0,46.43,21a17,17,0,0,1,2,4.68A15.09,15.09,0,0,0,49.41,28a51.82,51.82,0,0,1,2.77,10.07,5,5,0,0,0,1.68,3.12ZM35.48,32.67l.41.92.43.85a4.85,4.85,0,0,0,1.23,2.66c-.1-1.35-.35-2.16-1.26-2.63,0-.37,0-.69-.44-.84,0-.38.08-.78-.42-.92a.41.41,0,0,0,0-.19s-.07-.06-.11-.09ZM33.4,58.75a1,1,0,0,0,0,.16.52.52,0,0,0,.06.13l-.08-.26c-.23-.91-.23-.91-.88-1C32.59,58.3,32.81,58.7,33.4,58.75Zm9.4,1.74.21.33-.25-.29A18.07,18.07,0,0,0,42.49,58c-.8-3.25-1.65-6.49-2.5-9.73a4.75,4.75,0,0,0-.36-.78c-.09.17-.17.24-.15.29.88,3.81,1.57,7.66,2.77,11.4C42.4,59.61,42.62,60.05,42.8,60.49Zm2.74,9.82a8.79,8.79,0,0,0,.16,3.15c.1,1.13.23,2.25.37,3.59l1.3,1.32A25.15,25.15,0,0,0,45.54,70.31Zm5-36.31a11.86,11.86,0,0,0-1.65-5.33c-.24,1.57.61,2.62.63,3.82a2.39,2.39,0,0,0,.4,1C50,33.61,50.17,33.71,50.51,34Zm-7,28.81,0-.2a.66.66,0,0,0-.14.2s.06.11.09.17Zm6.3,10.3.09-.16-.13,0Z"/><path d="M62.43,70a7.24,7.24,0,0,0-1,3.23c-.07.7-.17,1.39-.29,2.39-.43-.41-.73-.59-.85-.84A3.77,3.77,0,0,1,60,73.52a2.26,2.26,0,0,0-1.18-1.73l-.29.74c-.46,0-.51-.45-.56-.74A3.24,3.24,0,0,0,57.27,70a1.37,1.37,0,0,1-.13-1.61,2.64,2.64,0,0,0,.09-2.06A4.41,4.41,0,0,1,57,64.89a38.31,38.31,0,0,1,1-7.62,4.25,4.25,0,0,0,0-2.73,5.53,5.53,0,0,1-.12-1.69c0-.49,0-1,0-1.49a3.38,3.38,0,0,0-2-3.45,8.42,8.42,0,0,1-1.09-.71,3.67,3.67,0,0,1,0-1.05c.61-1.86-.06-3.45-1-5l0,.05c.06-2.21.11-4.41.19-6.61a2.35,2.35,0,0,1,.23-1.21c1.53-2,2.67-4.21,4.47-5.94A16.7,16.7,0,0,1,64.09,24a7.47,7.47,0,0,1,4-.38,62.43,62.43,0,0,1,11.26,3,3,3,0,0,1,1,.45,18.65,18.65,0,0,1,4.57,5,4,4,0,0,1,.34,1.62,18.14,18.14,0,0,1,0,3.61c-.42,2.58-.39,5.28-1.87,7.61a2.31,2.31,0,0,0-.48,1.37c.17,1-.44,1.56-1,2.21a2,2,0,0,0-.21.37A14.16,14.16,0,0,0,79.31,53a7.37,7.37,0,0,0,2.38-3.71c0-.12,0-.27-.07-.4l.58.49c0,.16,0,.25,0,.3-2.32,4-4.39,8.16-7.76,11.45-1,1-2,2.08-2.89,3.15a14.22,14.22,0,0,1-7.38,4.44l0,0c.16-.65.74-.8,1.26-1a13.9,13.9,0,0,0,4.21-2.5,93.56,93.56,0,0,0,7.76-8.53.74.74,0,0,0,.09-1c-.3.3-.61.57-.88.87-1.2,1.32-2.39,2.65-3.58,4a11,11,0,0,1-3.54,2.73c-3,1.35-5.16,3.72-7.44,6l.39.8ZM66.3,40.42c.3-.29.36-.58,0-.87.32-.62.66-1.24,1-1.88.1-.21.27-.53-.21-.67l-7.53,8.85A2.08,2.08,0,0,0,59,47.51L63.75,43c.4.42.9.56,1.23,0C65.49,42.18,65.87,41.28,66.3,40.42Zm-6.9,10.2c.07,0,.16,0,.2-.09,1-1.37,2-2.72,2.92-4.12.15-.23,0-.64,0-1.1-1.09.39-1.43,1.29-1.93,2a5.16,5.16,0,0,0-1.16,3.33,1,1,0,0,0-.13.17s0,.09,0,.14Zm4.18-5,.51-.86C63.63,44.81,63.21,44.93,63.58,45.57Z"/><path d="M64.17,68.67A2.41,2.41,0,0,1,62.43,70l0,0a2.17,2.17,0,0,1,1.73-1.3Z"/><path d="M77.56,137.82l.14-.79.18.06c-.12.23-.24.45-.35.69Z"/><polygon points="64 157.09 64.03 157.25 63.92 157.22 64 157.09"/><path d="M65.28,41.25,63.73,43A2.47,2.47,0,0,1,65.28,41.25Z"/><path d="M66.34,39.53v.91l-.91.56Z"/></svg>