<svg id="Calque_1" data-name="Calque 1" xmlns="http://www.w3.org/2000/svg" viewBox="0 0 70 153.92"><title>ddddd</title><path d="M36.83,36.77l1.94-3.49a2,2,0,0,0,.27-.65c.32-3.38,1.71-6.39,3.18-9.37.45-.9.69-2.12,1.41-2.59s1.84,0,2.79,0c2.74.15,2.87.14,3.92-2.45,1.78-4.36,3.47-8.76,5.21-13.14a10.77,10.77,0,0,1,.86-2c1.13-1.82,2.82-2.06,4.52-.74a9.94,9.94,0,0,0,1.62,1A19.76,19.76,0,0,0,64.42,4c0,7.1-4.24,12.7-6.88,19l3.93,2.18-1.61,2.26c.86-.35,1.27-.55,1.71-.68,1.12-.33,1.71.18,1.53,1.31a5.8,5.8,0,0,1-.33,1.15c-1.88,4.67-3.8,9.32-5.65,14-3.22,8.09-6.39,16.19-9.57,24.3a4.17,4.17,0,0,0-.11.94c-.47,1-1,2-1.43,3l.53.19c.29-1.07.58-2.13.86-3.2.52-1,1.08-2.06,1.54-3.13a29.83,29.83,0,0,1,3.81-6.53,3.49,3.49,0,0,1-.37,2.47c-.71,1.92-1.35,3.87-2,5.81-.49.67-1.23,1.29-.47,2.22-.65,1.71-1.23,3.45-2,5.12q-5.5,12.63-11.07,25.24c-2.15,4.9-4.32,9.78-6.43,14.69-1.74,4-3.43,8.08-5.1,12.13a17.28,17.28,0,0,0-.9,3c-.67,3-2.27,3.59-4.71,1.85a5.91,5.91,0,0,0-1.29-.49c-.41,1.34-.69,2.57-1.14,3.73-1.07,2.75-2.25,5.46-3.34,8.21-1,2.43-2,4.85-2.79,7.33a2.32,2.32,0,0,1-2.51,1.72c-2.37.09-5.61-2.92-4.58-5.68.8-2.17,1.63-4.32,2.41-6.49.9-2.47,1.73-5,2.64-7.44.35-1,.81-1.89,1.27-3-.62-.73-1.13-1.79-2-2.2a3.87,3.87,0,0,1-2.27-3.81,4.26,4.26,0,0,0-.29-1,3,3,0,0,0,1.77-3.12c-.08-1.59,1.17-3.23,1.75-4.88Q16.44,94,23.52,73.72c1.4-4,2.88-8,4.31-11.94,1.34-3.74,2.63-7.51,4-11.24A7.31,7.31,0,0,1,33,48.83a4.17,4.17,0,0,0,.66-.9c1.11-3,2.19-6,3.28-9,.28-.78.5-1.54-.19-2.24Zm-.46,51c1,.23,1.23-.49,1.47-1.19,1-3,2-6,3-9a9.06,9.06,0,0,1,.66-1.23A43.39,43.39,0,0,0,45,65.2c.38-2,.08-4.08.29-6.11a8.74,8.74,0,0,1,1.57-5L48.07,56c1.52-2.68,1.4-5.7,3-8.21.76-1.23,0-2.64-1.4-3.23A2.45,2.45,0,0,1,48,42c.09-1.42,1.13-1.69,2.28-1.54a3.77,3.77,0,0,0-.76-3.3,5.72,5.72,0,0,1-.82-4.28C50,35.31,50,38,52.32,39.66c.68-1.94,1.16-3.55.28-5.58l-1.2,1.75a5.62,5.62,0,0,1-.08-1c.12-1.56-.54-3.52,2.12-3.77.34,0,.73-1.34.77-2.08a1.87,1.87,0,0,0-.81-1.52c-2.66-1-5.38-1.93-8.13-2.89-.2.88-.33,1.58-.52,2.26a210.56,210.56,0,0,1-7.82,22.62c-2.54,6.11-5,12.26-6.94,18.61-1.89,6.09-4.17,12.07-6.39,18-.45,1.23-1.46,2.23-2.06,3.42a42.9,42.9,0,0,0-2.17,4.9c-.37,1-.26,2.2-.64,3.2-1.4,3.74-3.06,7.38-4.34,11.16-1.56,4.58-2.84,9.27-4.22,13.87,2.91,1.36,3.36,1.22,4.5-1.47.71-1.66,1.33-3.36,2.13-5.36l2.27,1.29c.55-.33,1.22-.75,1.91-1.15,2.16-1.29,4.26-2.73,6.52-3.81,1.41-.67,1.9-1.58,2.18-3.25-1.13.64-2,1.09-2.78,1.59-1.29.79-2.55,1.65-3.85,2.42a1.89,1.89,0,0,1-2.45,0c.22-.43.3-.89.58-1.1,2.59-1.86,5.11-3.86,7.85-5.45,1.39-.8,2.33-1.49,2.24-3.29-1.79.28-1.72-1-1.65-2.35a4.48,4.48,0,0,1-1.33.42,1.65,1.65,0,0,1-1.18-.5,1.62,1.62,0,0,1,.15-1.31,3.06,3.06,0,0,1,1.08-.88c1.09-.68,2.16-1.38,3.29-2,3.54-1.88,4.89-4.93,4.78-8.79ZM14,129.21A10.7,10.7,0,0,0,13,131c-1.6,4.77-3.19,9.54-4.72,14.33a1.45,1.45,0,0,0,.57,2c1-2.35,2.11-4.65,3.07-7s1.79-4.6,2.54-7A4.91,4.91,0,0,0,14,129.21ZM59.71,7.83a32,32,0,0,0-3.63,6.78c-1,2.3-1.78,4.7-2.65,7.06l.56.26c1.74-3.13,3.83-6.06,5.22-9.39C59.79,11.16,60.6,9.7,59.71,7.83ZM25,117c-.55,0-1.29-.37-1.72-.13a32,32,0,0,0-5.9,3.65,6.22,6.22,0,0,0,1.82-.27A5.76,5.76,0,0,1,22,120c.66.24,1,1.29,1.51,2,1.17-.62,1-.62,1-1.5A25.23,25.23,0,0,1,25,117ZM46.35,61.41c.62-1.86,1.53-3.16.55-5.08a5.68,5.68,0,0,0-.56,5.08ZM29.8,60.83l.35.21.78-2.51-.36-.12Zm-12,62.77-2,.6c.89.79,1.51.4,2-.57Z"/><path d="M36.79,36.73c-.2,1-.39,2.1-.59,3.15l-.57-.14a9.78,9.78,0,0,1,1.2-3Z"/><path d="M36.41,87.7c-1.26-.41-.73,1.23-1.53,1.34-.49-1.59-.49-1.59.91-3.09.23.69.41,1.24.58,1.79Z"/><path d="M47.42,45.35l.22.92c-.18-.12-.36-.24-.53-.37A3.26,3.26,0,0,1,47.42,45.35Z"/></svg>