<svg id="Calque_1" data-name="Calque 1" xmlns="http://www.w3.org/2000/svg" viewBox="0 0 278.61 278.12"><title>cake</title><path d="M85.83,94.23c11.35.25,17.27-7.86,22.82-16.06,3.41-5,2.37-12.53-1.43-17.39,2.41-3.29,5.3-6.31,7.09-9.89a26,26,0,0,0,.88-22.45c-1.21-2.89-2.71-5.3-5.56-6.83-.74-.4-1.67-1.91-1.45-2.36.53-1.05,1.93-2.62,2.61-2.46,3.56.85,5.18-1.58,6.93-3.67,4.41-5.27,7.94-5.8,13.31-1.54,2.43,1.92,4.3,2.1,7,0,5.43-4.18,12-5.63,17.33.94,2.2,2.73,4.89,2.69,7.66.51,5.43-4.26,9.58-2.61,13.4,2.22,4.16,5.26,5.24,5.82,11.59,4,4.74-1.32,12.14,3.47,12.41,8.37.17,3.15,2,4.33,4.49,4.8a29.82,29.82,0,0,0,6.87.44c6.62-.26,10.64,3.42,10.78,10.14.07,3.15,3.48,6.35,7.08,6.65,7.91.66,11.45,5.22,11.15,13-.08,2.06,2.2,4.57,4,6.24,1.4,1.31,3.73,1.63,5.63,2.42,5.27,2.18,7,6.64,4.68,11.84-1.55,3.44-1.06,4.88,2.27,6.65,1.81,1,3.69,1.9,5.45,2.93,5.55,3.17,6.1,6.7,1.81,11.4-3.14,3.45-2.59,7.06,1.48,9.66,7.09,4.53,7.57,9.48,1.46,15.14-3.65,3.39-3.66,4.72,0,8,5.09,4.6,4.14,11.59-2.44,15.38-2.26,1.32-2.35,2.44-1.15,4.27.86,1.32,1.75,2.62,2.69,3.88,3.46,4.66,1.57,9.89-4.08,11.24-5.45,1.31-6.42,4.7-2.84,9.84,3.33,4.76,3.14,8.3-1,12.18a7.87,7.87,0,0,1-4.08,1.85c-4.45.58-6.67,3.55-6.1,8.23.34,2.83.9,5.83.29,8.52-1,4.34-4.17,6-8.52,5.47-6.29-.8-8.72,2-6.6,7.9,1.2,3.34-.32,5.63-2.24,7.87-2.2,2.57-5,3-8.24,2.16-6.78-1.89-8.57-.38-8.81,6.88-.15,4.12-2.69,6.87-6,8.89-3.14,1.9-5.49,0-7.82-1.9-3.89-3.24-9.14-1-10.13,4.3s-4.42,8.32-8.82,7.59a9.28,9.28,0,0,1-4-2.1c-3.45-2.89-7.6-2.42-10.19,1.32-4.19,6.09-7.79,7.78-13.26,5.95a10,10,0,0,1-3.55-2.31c-3.42-3.29-6.78-3.21-10.1.37a16.79,16.79,0,0,1-3.58,3.43c-4.51,2.51-8.87,1-11.2-3.64-1.81-3.61-3.24-4-6.73-1.55s-7,3.77-10.77,1.21a12.47,12.47,0,0,1-3.7-4.66c-1.93-3.81-3.42-4.53-7.46-2.93-.89.36-1.75.83-2.66,1.18-4.94,1.84-8.49-.07-9.82-5.28-1.21-4.7-4-6.1-8.35-4.11-3.78,1.73-7.36.07-8.43-4a18.5,18.5,0,0,1-.49-3.24c-.4-4.59-3-6.5-7.62-6.09a18.31,18.31,0,0,1-6.67-.57c-3.75-1.11-4.86-3.42-4.14-7.28.85-4.5-1.4-7-5.85-6.48-7.41.86-12.54-5.81-9.82-12.87,1.6-4.19,1.14-4.47-3-6.23-4.77-2-9.44-7.83-6.08-14.1,1.8-3.36-.1-6.8-3.93-7.49-1-.11-1.92-.26-2.87-.46a5.34,5.34,0,0,1-3.93-6.47,4.44,4.44,0,0,1,.29-.87,23.76,23.76,0,0,1,3-5.31c3-3.71,2.49-6.62-2-7.36S9.82,156,9.15,152.8s.6-5.65,3.24-7.53c4.4-3.16,4.66-7.18.61-10.61-1.77-1.49-4.55-2.09-4.07-5.3.52-3.5,2.62-5.6,5.69-6.94l2.26-1c9.6,9.51,24.71,8.38,33.12-2.3.5-.64,1.73-1.34,2.34-1.14,10.18,3.29,27.73-7.18,31.84-17.5A52.56,52.56,0,0,0,85.83,94.23Z"/></svg>