<svg id="Calque_1" data-name="Calque 1" xmlns="http://www.w3.org/2000/svg" viewBox="0 0 67.28 148.41"><title>Sans titre - 5</title><path d="M23.43,129.85l.54,1.57-.17.19a13.4,13.4,0,0,1-2.14-1.54,52.78,52.78,0,0,1-3.4-4,11.18,11.18,0,0,1-1-1.92c0-.07,0-.19-.07-.24-.9-.87-.83-2.15-1.28-3.21a2.82,2.82,0,0,1-.1-1.13c0-.62,0-1.24,0-1.86l-.31,0-.12.84h-.05c0-1.86,0-3.72,0-5.59a2.26,2.26,0,0,0-.18-1.2c-.85-1.32-.25-2.63,0-3.87a43.72,43.72,0,0,1,1.62-4.67c.48-1.31,1-2.62,1.44-3.93a11.59,11.59,0,0,1,.63-1.8c.52-.92,1.17-1.77,1.76-2.65a40,40,0,0,0,2.21-3.43c.82-1.56,2.29-2.53,3.25-3.94,1.11-1.63,2.27-3.23,3.39-4.85,1-1.45,2-2.92,2.91-4.39q1.88-2.89,3.68-5.8a13.67,13.67,0,0,0,1.64-3,15.58,15.58,0,0,0,.81-4.63c0-1.6-.78-3-1-4.51a1.61,1.61,0,0,0-.36-.63c-1-1.35-2-2.68-3-4a4.21,4.21,0,0,1-.57-1.28c-.58-2.08-1.39-4.17-.74-6.35.47-1.55,1.25-3,1.87-4.5.35-.86.63-1.75,1-2.62.45-1.16.92-2.3,1.38-3.46a2,2,0,0,0,.19-.69c-.07-.85-.17-1.7-.3-2.54-.07-.49-.21-1-.33-1.53a1.78,1.78,0,0,1,2,.51,6.61,6.61,0,0,1,.58,1.42c.11.27.11.63.3.82,1,1,.82,2.21.64,3.37-.29,1.76-.72,3.5-1.07,5.25a7,7,0,0,0,0,2.09c.09,1,.37,2.08.39,3.16A7,7,0,0,0,41.14,53c.88,1.27,1.62,2.64,2.43,4,.18.29.42.55.6.85.74,1.3,1.54,2.57,2.2,3.9a16.36,16.36,0,0,1,1.39,8,22.11,22.11,0,0,1-1,4.32A10,10,0,0,1,45.86,77c-1.64,2.51-3,5.26-5.27,7.32-1.56,1.39-3,2.91-4.46,4.4-1.22,1.24-2.34,2.58-3.6,3.77a24.18,24.18,0,0,0-4.2,5.41c-.65,1.08-1.59,2-2.29,3-1.14,1.72-2.19,3.5-3.27,5.26-.08.12-.09.29-.19.37-.87.69-.53,1.73-.77,2.6a32.83,32.83,0,0,0-.68,3.42,9.87,9.87,0,0,0-.27,2.89c.33,2.13.87,4.22,1.32,6.33a2.07,2.07,0,0,1,.07.41,3.41,3.41,0,0,0,.8,2.2c.77,1,1.36,2.18,2.06,3.26.34.52.78,1,1.14,1.49a8.49,8.49,0,0,1,.81,1.4.69.69,0,0,1-.16.66.82.82,0,0,1-.68,0C25.34,130.78,24.47,130.35,23.43,129.85Z"/><path d="M30.45,14.09a10.74,10.74,0,0,1-2,6.08c-.56.91-.89,1.95-1.42,2.88-.79,1.37-1.65,2.71-2.51,4a21.89,21.89,0,0,0-3,6.65,5.88,5.88,0,0,0,.11,3.77c.29.68,0,1.57.25,2.3.3,1.06-.38,2.28.58,3.24.26.26.24.79.39,1.18a20.86,20.86,0,0,0,1.72,4.18,18.51,18.51,0,0,1,1.75,3.92c.65,1.75,1.74,3.34,1.84,5.29,0,.26.24.49.31.76a33.93,33.93,0,0,1,1.14,5.19,8.91,8.91,0,0,1-.47,4.73c-.43.84-1.24.61-1.91.61s-.87-.48-.85-1.1a27.07,27.07,0,0,0-.18-5.69,20.87,20.87,0,0,0-.63-3.26,9.59,9.59,0,0,0-1.31-2.11c-.71-1-1.48-2.07-2.16-3.15C21,51.89,20,50.1,18.87,48.41c-.74-1.09-1.74-2-2.53-3.07a24,24,0,0,1-4.1-7.82c-.51-1.81,0-3.68.09-5.52a7.47,7.47,0,0,1,1.52-3.43c1.1-1.87,2.32-3.68,3.47-5.52.78-1.23,1.51-2.49,2.32-3.71a20.75,20.75,0,0,0,1.45-1.86,40.83,40.83,0,0,0,1.65-4,6.32,6.32,0,0,0,.54-2.29,22.57,22.57,0,0,0-.63-3.32c0-.13-.18-.25-.18-.37,0-.42,0-1.14.12-1.18.46-.14.94-.64,1.54,0S25.49,7,26,7.54c.91.89,1.68,1.92,2.52,2.89a7.56,7.56,0,0,0,.59.68C30.48,12.39,30.52,12.48,30.45,14.09ZM13.32,31.81l-.27,0-.39,4.39h.19Zm5.78,4.11-.24,0-.36,1.77.33.06Zm6.42-12.54.28.12.68-1.64-.3-.13ZM20,37.67h.13V36H20Zm7.3,23.07-.31,0,.35,1.69.14,0Z"/><path d="M60.55,84.24a2.8,2.8,0,0,1-.6,2.41,4.28,4.28,0,0,0-.59,1.58c-.25,1-.41,1.94-.69,2.89-.09.35-.43.62-.6.95-.35.66-.68,1.33-1,2-.42,1-.76,2.13-1.2,3.17-.64,1.53-1.35,3-2,4.57-.05.1-.17.16-.2.26-.3,1.31-.59,2.63-.88,4s-.62,2.75-.92,4.13a5.55,5.55,0,0,0-.17,1.07,42.76,42.76,0,0,0,.06,7.25c.35,2.13.73,4.43,2.34,6.16a.33.33,0,0,1,.09.23c-.11,1.89,1.28,3.33,1.51,5.12,0,.18.17.34.24.52a10.41,10.41,0,0,1,.85,2.31,15.29,15.29,0,0,0,1.86,5c.5,1,1.12,2,.7,3.18a1.37,1.37,0,0,1-.52.75c-.16.08-.52-.15-.75-.3a9.4,9.4,0,0,1-2.78-3.5c-.85-1.47-1.75-2.91-2.59-4.38a30.54,30.54,0,0,1-1.58-3.06,7.81,7.81,0,0,1-.78-2.66,11.67,11.67,0,0,0-1.29-4.35c-.53-1.22-1-2.48-1.37-3.74-.32-1-.58-2-.81-3-.13-.58-.14-1.19-.23-1.78a34,34,0,0,1-.52-3.44,35.39,35.39,0,0,1,.11-4.49c.17-2.19.43-4.36.71-6.54.09-.68.41-1.32.56-2a15.87,15.87,0,0,0,.39-2.47c.1-1.86,1.39-3.17,2.14-4.73.63-1.31,1.36-2.57,2-3.89s1.68-2.34,2.22-3.64a7.46,7.46,0,0,0,.59-5,41.51,41.51,0,0,1-.79-4.59c-.12-.74.26-.9.91-.89a2.78,2.78,0,0,1,2.76,2.06c.4,1.06.93,2.07,1.37,3.11a10,10,0,0,1,.41,1.35c.06.21,0,.51.13.64C60.65,81.55,60.37,83,60.55,84.24Z"/><path d="M6.8,112.8l-2.49-1.35.17-.32L7,112.43Z"/></svg>