<svg id="Calque_1" data-name="Calque 1" xmlns="http://www.w3.org/2000/svg" viewBox="0 0 149.99 109.77"><title>ddddd</title><path d="M106.34,51.21c-1.74,1-3.35,1.85-4.92,2.8q-6,3.68-12,7.42c-.65.41-1.49.93-1.7,1.58-.52,1.58-1.86,2.17-3,2.9C81.36,68,77.94,70,74.52,72q-5.59,3.26-11.21,6.47C61,79.75,58.75,81,56.41,82.2A117.47,117.47,0,0,0,34.06,96.65c-.12.1-.23.22-.36.31l-8.61,5.92-1.08-1c-1.62,1.09-3.29,2.25-5,3.37a5.75,5.75,0,0,1-1.67.9c-1.22.28-1.58.94-1.09,2.07a32,32,0,0,1-3.36-.91A4.75,4.75,0,0,1,11,106a45.34,45.34,0,0,1-3.3-4.36A4.89,4.89,0,0,1,7.11,100a13.55,13.55,0,0,0-.46-2.28c-.61-1.27-.16-2,.78-2.87,5.25-5,11.42-8.7,17.78-12.09,1.76-.94,3.43-2,5.22-2.92a19.68,19.68,0,0,1,3.13-.9,6.87,6.87,0,0,0,1.74-.64q12-7.68,24-15.4c.34-.22.66-.58,1-.62,3.63-.45,6-3.06,8.9-4.89,2.62-1.69,5.09-3.61,7.76-5.2A170.08,170.08,0,0,0,95.15,39.75a3.24,3.24,0,0,0,1.48-2.54c0-.81.67-1.59.73-2.41.12-1.64,0-3.3,0-5l-2.75-.23c.47-1.57,2.88-2.16,1.56-4.25,3.42-2.33,6.67-4.63,10-6.82,5.06-3.31,10.12-6.64,15.29-9.77,2.46-1.49,5-2.71,7.07-4.85a12.19,12.19,0,0,1,3.78-2.22,1.4,1.4,0,0,1,1.86.62c.8,1.27,1.72,2.47,2.51,3.76,1,1.6,2.26,3,2.6,5,.17,1,1.09,1.92,1.6,2.92,1.66,3.25,3.29,6.52,4.93,9.78.07.14,0,.4.13.44,2.18.93,2,3.48,3.4,4.92a1.76,1.76,0,0,1,.26,2.47,2.23,2.23,0,0,1-.26.27,36.83,36.83,0,0,1-4.8,4.63c-3.75,2.7-7.68,5.15-11.55,7.68a8.65,8.65,0,0,1-1.71.88c-6.32,2.33-12,5.85-18,8.89-.21.1-.49.16-.62.33-.54.73-1.19,1.53-2.14,1.09a10.22,10.22,0,0,1-2.57-2A14.52,14.52,0,0,1,106.34,51.21Zm3.7-29c-.81.44-1.62.92-2.45,1.32-1.41.68-2.82,1.34-3.33,3.08,2.09-1.18,4.07-2.52,6-3.88l-.29-.49c1.66-.74,3.32-1.5,5-2.22,4.93-2.11,8.82-5.7,12.88-9.06a26.64,26.64,0,0,1,3.26-2.41c1.28-.78,2-.42,2.51,1,.3.65.58,1.32.82,2,.48,2,2.91,3.15,2.17,5.57a.82.82,0,0,0,.24.4c1.14,1.29,2.22,2.63,3.44,3.83s1.3,2,.27,3.24a15.05,15.05,0,0,0-1.19,2c2.45.66,3.37,2.35,4.14,4-.31.92-1.48,1.24-1,2.5l4.54-3.37c-.93-1.63-.93-3.79-3.39-3.94a15.26,15.26,0,0,0-2.43-7,34.77,34.77,0,0,1-3.39-6c-1-2.72-3.4-4.17-4.85-6.43-.39-.59-1.43-.77-2.17-1.13-1.32,2.89-1.28,3-4.19,4.67-4,2.36-8,4.65-12,6.91-3,1.66-6.12,3.08-8.3,6.05ZM61,67.86a43.2,43.2,0,0,0-10.66,5.79c-.17.11-.2.41-.29.63C40.25,80,30.66,86.15,21,92.41c2.87,1.25,3.88,3.27,3.66,6.37C26,98,27,97.36,28,96.71c4.59-3,9.13-6.16,13.77-9.14,4-2.55,8.09-4.84,12-7.44,4.73-3.13,9.27-6.55,14-9.68,4.06-2.68,8.17-5.34,12.47-7.62a136.88,136.88,0,0,0,14.46-8.95c1.17-.83,2.44-1.5,3.68-2.23,1.44-.85,2.89-1.7,4.35-2.51s3.17-1.73,4.77-2.59l3.6,3.54c-.2-2,1.35-2.77,2.46-3.8a10.22,10.22,0,0,0-.59-.87c-1.44-1.64-1.42-1.64.13-3.23a5.9,5.9,0,0,0,.71-1.22,5.5,5.5,0,0,0-2.42.62l-6,2.48c-.68.28-1.42.6-1.83-.35s0-1.45.89-1.85c1.18-.53,2.28-1.23,3.69-2-3.46-1.54-4.3,2.54-6.88,2.22l.5,1.28a24.58,24.58,0,0,0-3.56,1.45c-3.43,2-6.83,4.14-10.16,6.33A161.83,161.83,0,0,1,71.23,61.36c-3.42,1.69-6.55,4-9.81,6a1.85,1.85,0,0,0-.37.51Zm70.28-54.14-25.9,16.74a6,6,0,0,0,1.46-.15c2.39-1.26,4.83-2.45,7.14-3.84,5.06-3,10.06-6.17,15.07-9.3a7.79,7.79,0,0,0,1.82-1.52c.28-.32.23-.92.42-1.92ZM102,34.46c-.39,1.09-.71,2.15-1.14,3.16-.55,1.3.94,1.75.84,2.87,1.53-.78,1.71-.84,1.53-1.41-.61-2,.8-2.71,2.14-3.46,4.81-2.67,9.64-5.3,14.43-8,1.56-.88,3-1.92,4.54-2.89-3.66,1.55-7.2,3.3-10.67,5.16s-7,3.88-10.72,6c.15-1.41.27-2.53.39-3.67-2.56.28-2.56.28-2.77,2.05ZM17.74,101.75c-3.63-1.09-3.7-1.18-4.78-4.68-.27-.68-.58-1.35-.91-2l-2,1.68c.59,1.65,1.06,3.15,1.66,4.6,1.3,3.18,3.41,3.55,5.68,1A4.48,4.48,0,0,0,17.74,101.75Zm121-70.65a160.58,160.58,0,0,0-17.66,10,67.63,67.63,0,0,0,17.66-10Zm-18.12,1.07c.77-.39,1.56-.73,2.28-1.18,2.5-1.57,4.94-3.25,7.48-4.76,1.76-1.05,3.65-1.87,5.48-2.81a13.75,13.75,0,0,0,1.17-.88c-6.23,1.68-13.29,5.67-16.37,9.63ZM99.07,27.65l1.38,1.2,1.23-2.52-.37-.26ZM19.51,97c-1.31-.41-2.12-.62-2.32.64,0,.22.26.49.47.84ZM96.14,43.92l-.25-.41-1.63.93.28.47Z"/><path d="M26.13,108c-1-1.58-1-1.58,0-3.52Z"/><path d="M22.88,105.2c-.62.43-1.24.85-1.92,1.3l1.52-1.73Z"/><path d="M60,69.31l1-1.48,5.78-2.68c.35-.17.67-.38,1.22-.7C66.94,66,63.14,68.22,60,69.31Z"/><path d="M81.14,57.27A17.49,17.49,0,0,1,76,60.43l-.28-.51,5.41-2.62Z"/><path d="M52.35,73.87C53.21,72,55,71.61,56.73,71.2Z"/><path d="M56.68,71.23a4.58,4.58,0,0,1,3.41-2Z"/><path d="M74.48,61.29,73.36,62l-.24-.32,1-.85Z"/><path d="M81.17,57.3l1.56-1.48.38.56-2,.89Z"/><path d="M86.9,54l-.84.47-.17-.27c.25-.17.5-.34.74-.52Z"/></svg>