<?xml version="1.0" encoding="utf-8"?>
<!-- Generator: Adobe Illustrator 22.0.0, SVG Export Plug-In . SVG Version: 6.00 Build 0)  -->
<svg version="1.1" id="Calque_1" xmlns="http://www.w3.org/2000/svg" xmlns:xlink="http://www.w3.org/1999/xlink" x="0px" y="0px"
	 viewBox="0 0 87.7 94.4" style="enable-background:new 0 0 87.7 94.4;" xml:space="preserve">
<title>ddddd</title>
<path d="M84.2,35.4l1.6-2.4l0.3,0.1c-0.4,1.8-0.8,3.5-1.1,5.3c-0.4,2.3-0.8,4.5-1.2,6.8c-0.5,3.7-2.4,6.9-3.6,10.3
	c-0.1,0.3-0.7,0.6-1.1,0.7c-2,0.7-4.2,0.8-6.3,0.3c-1-0.1-1.9-0.1-2.8,0.2c-1,0.1-1.8,0.8-2,1.7c-0.4,1.2-0.8,2.4-1.3,3.9
	c-1-1.3-0.3-2.5-0.4-3.7c-1,0-1.8,0.7-2.1,1.7c-0.7,2-1.2,4-1.6,6l2.1-2.6l0,0c-0.1,0.7,0.1,1.6-0.3,1.9c-1.1,0.9-1.2,2.9-3,3.1
	c-0.3,0-0.6,0.8-0.6,1.2c0.4,1.6-0.2,3.5,1.3,5.1l-0.1-2.2c1.8,3.3,4.5,5.8,6.6,8.7c1.3,2.1,2.6,4.3,3.7,6.6
	c-2.6,0.7-4.8,1.4-7.3,1.3c-2.5,0-5,0.2-7.5,0.6l0,0.5l3.1,0.3l0,0.4c-5.5,0.2-10.9,0.5-16.4,0.8c-5.5,0.3-11,0.5-16.4-1.1
	c-0.7,1-0.3,2.9-2.4,2.7c-0.9-1-0.1-2,0.2-3.2c-1.6-0.2-3-1.1-3.8-2.5c0.8,0.1,1.6,0.3,2.5,0.4c1.5-1.5,2.5-3.4,3.1-5.5
	c0.5-1.2,1.2-2.4,2.1-3.4c0.7-1,1.6-1.8,1.3-3.2c0-0.4,0.1-0.8,0.4-1c1.5-1.1,1-2.5,0.5-3.6c-1.7-3.5-3.6-7-5.4-10.4
	c-0.2-0.4-0.6-0.8-1-1c-3.9-2-8.1-3.3-12.5-3.9c-0.6-0.1-1.3-0.1-1.9,0.1c0.6,0.3,1.3,0.6,1.9,0.9l-0.1,0.3C11,56.7,9.2,56,7.5,55.5
	c-1.9-0.3-3.9-0.4-5.8-0.4c0.3-0.7,0.5-1.4,0.8-1.5c2.1-0.5,2.5-2.2,3.1-3.9c0.6-1.7,0.4-3.5-0.6-5.1c0-0.1,0-0.3,0-0.4l1.1-1.7
	l-1-2.7c3.1-1.1,6.4,0.4,9.4-1.3c-1-2.5-2.2-4.9-3.8-7.1c-0.6-0.9-1.1-2-1.6-2.9c-0.2-0.4-0.4-0.8-0.7-1.2c-1.1-1.1-2.3-2.1-3.6-3.2
	L3.7,25c-1.3-0.9-0.8-2.1-0.1-3.1l-1.1-1.3L3.1,20l-1.9-4.2c0.6-0.7,1.3-1.4,2.1-2.1c1.5-1.2,3.3-1.9,5.2-2c3.2-0.4,6.4-1.4,9.6-1.9
	c4.8-0.9,9.6-1.5,14.5-1.7c10.9-0.1,21.7,0,32.6,0.4c4.5,0.2,9.1,1.2,13.5,2c1.3,0.2,2.6,0.6,2.6,2.5c0.1,1,1.1,1.8,2.1,1.7
	c0.1,0,0.1,0,0.2,0c0.5,0,1,0.1,1.5,0.2l-2,1.9c0.6,2-0.4,3.9-1.2,5.8c-1.3,3.1-3.3,5.8-3.9,9.2l-0.2,1c1.3,0.2,2.5,0.4,3.7,0.6
	C82.7,33.2,83.9,34.1,84.2,35.4c-0.7,0.5-0.9,1.5-0.4,2.2c0,0,0,0,0,0l0.1,0.1L84.2,35.4z M19.9,48.3c-0.5-0.4-0.9-0.8-1.3-1.3
	c-1.4-2.3-3.3-3-6.4-1.7c2.3,1.2,1.2,3,1.1,4.7c0.4,0.3,0.9,0.5,1.3,0.6c1.9,0.5,3.8,0.9,5.9,1.4l-0.1-2l1.6,1.8l0.3-0.3L19.9,48.3z
	 M70,39.3L70,39.3c0.6-0.4,1.4-0.6,1.7-1.1c0.9-1.4,1.6-2.9,2.3-4.4c0.1-0.1,0.1-0.3,0.1-0.4c-0.4-2.6,1-4.6,1.9-6.8
	c0.7-1.9,1.4-3.7,2.1-5.6c0.1-0.5,0-1.1-0.1-1.6c-5.2,3.4-10.7,3.1-16.2,3.1c-3.3,0-6.7-0.5-10-0.6c-6.3-0.3-12.6-0.4-18.9-0.7
	c-7.4-0.3-14.9-0.3-22.2-1.9c-0.7-0.1-1.4,0-2.1,0.1c0.2,0.7,0.5,1.3,0.8,2c1.9,3.6,3.8,7.2,5.8,10.8C19.1,39,23,45.9,26.8,52.8
	c2.8,5.2,5.4,10.6,8.2,15.9c1.2,2.4,2.4,2.8,4.9,1.7c0.3-0.2,0.6-0.4,1-0.6c0.4-0.1,1-0.3,1.3-0.1c2,1.2,4,0.6,6,0.6
	c0.1-0.3,0.1-0.7,0.2-1c0.1-0.3,0.3-0.6,0.4-0.9c0.8,1.6,0.8,1.6,2.3,0.4c0.6-0.6,1.6-0.6,2.3,0c0.2,0.2,0.4,0.5,0.4,0.9
	c0.1,0.3,0.3,0.7,0.5,1c0.4-0.8,0.7-1.6,0.9-2.4c0-0.8,0-1.5-0.1-2.3c1.8-0.6,2.5-1.6,2.7-4.1c-1,0.6-1.9,1.1-2.7,1.6
	c-1,0.7-2,0.8-3.4-0.2c1-0.5,1.7-0.9,2.6-1.4c-0.7-0.2-1.3-0.4-2-0.6c1.6-0.9,3-1.7,4.5-2.5l0.6,2.2l0.4,0l0.4-1.7l0.9,0.5
	c-0.1-1.2,0-1.2,0.8-1.9c2.2-1.9,3.6-4.6,4-7.5l-0.8,1c0.1-1.6-2.4-1.7-1.2-3.7c1.3,0.1,2.7,0.2,3.9,0.3c1.4-2.5,2.8-4.9,4.3-7.3
	c0.4-0.5,0.4-1.2-0.1-1.6c0,0,0,0,0,0C70.1,39.4,70.1,39.4,70,39.3L70,39.3z M77.2,13.3c-1,0-1.9,0-2.9-0.1
	c-2.3-0.4-4.5-1.1-6.8-1.5c-6.2-1.2-12.5-2.2-18.8-1.6c-8.4,0.8-16.9,1.7-25.3,2.6c-2.5,0.3-5.1,0.7-7.6,1.2c-1,0.2-2,0.5-3,1
	c-0.6,0.3-1.1,0.8-0.2,1.7c0.9-1.4,2.1-0.7,3.3-0.7c0.7,0.1,1.4,0.2,2.1,0.4c1.8,0.4,3.6,0.7,5.4,0.9c4.1,0.2,8.1,0.2,12.2,0.2
	c5.4,0,10.9,0.1,16.3,0c2.1-0.1,4.3-0.5,6.4-0.7c5-0.4,9.9-0.7,14.8-1.1c1-0.1,2-0.3,3-0.6C77.3,14.7,77.5,14.1,77.2,13.3L77.2,13.3
	z M78.1,38.3c-1.2-0.1-2.2-0.3-3.2-0.4c-1.6,3.1-2.7,6.4-3.3,9.9c1.7,0.2,3.3,0.3,4.9,0.5C77.5,45,78,41.7,78.1,38.3L78.1,38.3z
	 M63,17.5c4.7,1.1,9.4,0.6,14.1-0.3c0.9-0.1,1.7-0.7,1.9-1.6c-2.8,0.5-5.3,1.2-7.9,1.5C68.4,17.4,65.6,17.4,63,17.5z M45.4,19.6
	L58.6,19C54.1,18,49.8,19,45.4,19.6z M78.6,23.5c1.8-2.4,1.8-2.6,1.4-4.2L78.6,23.5z M63.4,20.4l0-0.2L59,20.3l0,0.2L63.4,20.4z
	 M72.1,20l0-0.2l-3.9,0.2l0,0.2L72.1,20z M58.5,68.3l0.6,0.3l0.5-1.6l-0.4-0.2L58.5,68.3z M76.6,12.3l0-0.3l-1.2-0.1l0,0.3
	C75.8,12.2,76.2,12.2,76.6,12.3L76.6,12.3z"/>
<path d="M47,10.3l1.4,0.1v0.4L47,10.7L47,10.3z"/>
<path d="M29.8,70.2l1.1,0.6C30,71,30,71,29.8,70.2L29.8,70.2z"/>
<path d="M64.3,52.6C64.1,54,64.1,54.9,64,56c-1.6-3.4-0.8-7.3,1.8-8.9c1.9-1.2,3.1-0.9,4.4,1s1,3.7-0.6,4.8
	C67.9,54.2,65.6,54.1,64.3,52.6z M66.1,51.9l0.4-0.3l-0.7-1l-0.3,0.2L66.1,51.9z"/>
<path d="M53.4,54.9c-1.6-1.3-1.8-1.7-1-3.1c0.9-1.7,2-3.2,3-4.9c0.4-0.8,1.4-1.2,2.2-0.8c0,0,0,0,0,0c0.4,0.2,0.6,0.4,0.8,0.8
	c0.5,1,0.9,2,1.1,3.1c0.3,2.1-0.2,4.2-1.4,5.9c-0.8,1-2.1,1.4-3.4,1C54.1,56.9,53.8,55.6,53.4,54.9c0.5-0.1,1.1-0.1,1.6-0.2
	c1,0,1.3-0.6,1.3-1.7c-0.6,0.2-1.2,0.4-1.9,0.5c-0.2,0-0.4-0.3-0.6-0.5l2.1-2c-1-0.2-2,0.5-2.1,1.5c0,0,0,0,0,0c0,0.1,0,0.3,0,0.5
	C52.8,53.4,53.1,54.2,53.4,54.9z M57.4,46.6c-1.5,0.6-2.2,1.3-2.2,2.6l3.4,0.8L57.4,46.6z"/>
<path d="M73.9,25.7c-0.2,1.2-0.2,2.4-1.4,2.9s-3.6-0.5-4-1.5c-0.4-0.9-0.7-1.9-0.9-2.9c-0.4-1.5,0.5-3,2-3.4l0.3-0.1
	c1.7-0.4,2.7,0.3,3.3,2.2C73.4,23.8,73.6,24.8,73.9,25.7z M71.3,27.1c1.6,0.4,1.2-0.7,1.2-1.5L71.3,27.1z"/>
<path d="M64.8,40.3c1.3-0.3,1.4-1,1.2-2c-0.4-1.5-0.6-3.1-0.7-4.7c-0.1-1.1,0.6-2,1.7-2.2c0,0,0,0,0,0H67c1-0.3,2,0.2,2.4,1.1
	c0,0,0,0,0,0l0.1,0.2c0.1,0.4,0.3,0.7,0.5,1.1C71.6,37.4,69.2,40.6,64.8,40.3z M67.2,35.2c0.2-0.3,0.5-0.5,0.4-0.7
	c-0.1-0.2-0.3-0.4-0.5-0.4c-0.2,0-0.3,0.2-0.5,0.3L67.2,35.2z"/>
<path d="M63.2,58.7c0.6-0.7,1-1.3,1.5-1.6c1.2-0.6,3.9,0.3,4.8,1.5s0.5,2.6-0.6,4c-0.9,1.2-2.3,1.5-3.2,0.3
	C64.7,61.5,63.9,60.1,63.2,58.7z"/>
<path d="M53.7,65.8c-0.3-1.2-0.5-2.1-0.8-3.1c0.6-0.4,1.2-0.8,1.7-1.2c0.8-0.6,1.7-0.9,2.6,0s1.5,1.8,0.8,3c-0.6,0.8-1.3,1.6-2,2.3
	L53.7,65.8z"/>
<path d="M31.6,48.1c-0.1-1.5-0.3-3-0.8-4.4c-0.2-0.6-0.2-1.2,0-1.8c0.2-0.5,0.5-1,0.9-1.4c0.6-0.7,1-1.8,2.2-1.3s0.8,1.4,0.8,2.3
	s0,1.8,0,3.1c-0.3,0.6-1,1.5-1.5,2.6C32.9,47.8,32.5,48.4,31.6,48.1L31.6,48.1z M32,43l0.5,0.2l0.4-1.2l-0.4-0.1L32,43z"/>
<path d="M67.4,77.9c1.7,0,3.1,1.1,3.1,2.3c0,1.6-0.8,2.8-1.9,2.7c-1.8-0.1-3.4-1.6-3.3-3.1c0-1.1,0.9-2,2-2L67.4,77.9z M66.5,80.6
	l0.5,0.1c0-0.4,0.1-0.8,0.1-1.3h-0.4L66.5,80.6z"/>
<path d="M40.7,55.4c-0.7,1.1-0.7,1.1,0.2,2c-1.6,0.5-2.1,0.2-2-1.2c0.2-1.6,1.8-3.3,4-4.3c1.8,1.8,1.9,2.6,0.7,4
	C42.7,56.7,42.3,56.6,40.7,55.4z"/>
<path d="M66.3,67.1c1.5,0,2.8,1.2,2.8,2.7c0,0.3,0,0.7-0.1,1c-0.1,0.8,0.1,1.8-1,2.2s-1.5-0.4-2.2-1c-0.9-0.8-0.8-1.3,0-2.1
	C67,68.7,67,68.2,66.3,67.1z"/>
<path d="M43.8,44.2c-0.8,1.1-1.2,1.7-1.7,2.4l-3.4-1.7c0.1-2.1,1.8-3.3,4.5-3.3c1,1.8-1.1,1.9-1.7,3.1L43.8,44.2z"/>
<path d="M60.7,31.8c-0.4-0.3-0.9-0.6-1.3-0.9c-0.5-0.2-1-0.2-1.5-0.3c-0.4-1.1-1-2.1,0-3.3s2.4-1,2.9,0.4S61.7,30.4,60.7,31.8z"/>
<path d="M30.8,49.1l0.9-1h-0.1c1.9,1,1.9,1,1.5,3.1c-0.2,1.2-0.7,2.4-1.5,3.3c-2.4-1.2-2.8-2.3-1.6-4.2
	C30.2,49.9,30.5,49.6,30.8,49.1c-0.1,0.8,0,1.5,1,1.4c0.2,0,0.7-0.5,0.7-0.7c-0.1-0.8-0.8-0.8-1.5-0.7L30.8,49.1z"/>
<path d="M53.8,76.5c0.1-1,0.3-2,0.5-3c0.3-1,1-1.7,2.2-1.2c0.8,0.4,1.8,0.7,1.7,2c-0.1,1.1-1,1.9-2.1,2
	C55.4,76.4,54.6,76.4,53.8,76.5L53.8,76.5z"/>
<path d="M46.4,61.4c-0.2,1.1-0.3,1.8-0.4,2.4L43.4,65c-0.1-0.4-0.2-0.9-0.2-1.3c0-0.4,0-0.8,0-1.2l-1.1,0.2c0-0.2-0.1-0.6,0-0.6
	c0.6-0.3,1.2-0.6,2-1l-1.4-1.3C44.5,59.3,44.8,61.4,46.4,61.4z"/>
<path d="M57.4,39.7c-1,1.5-0.1,4.4-3.5,4c-0.1-1.2-0.1-2.3-0.2-3.5l3.3-1L57.4,39.7z"/>
<path d="M47.2,35.4C48,34,48,34,47,32.6l2.6-0.6c-0.7,1.9-1.1,3.4-1.8,4.9c-0.1,0.3-1.2,0.5-1.6,0.2c-0.7-0.3-1.4-1-0.8-1.9
	C45.9,34.3,46.5,34.5,47.2,35.4z"/>
<path d="M58.2,34.3l-1-2.5l2,0.7L58.2,34.3z"/>
<path d="M81.3,49.1c-2.4-0.8-2.9-1.3-3.1-3.1c-0.1-1.1,0.3-1.6,1.4-1.8c0.8-0.1,1.4,0.3,1.2,1c-0.3,1,0,2.1,0.6,3
	C81.6,48.4,81.4,48.7,81.3,49.1z"/>
<path d="M81.2,64.6L79.8,66c-1.4-1.6-1.1-3.4-1.8-5c1.6-0.3,1.4,1,1.9,1.5C80.3,63.2,80.8,63.9,81.2,64.6z"/>
<path d="M80.3,32.4c0.1,1.7,0.2,3.3,0.3,4.9c-1.1-0.5-1.9-1.5-2-2.7C78.6,33.6,78.6,32.5,80.3,32.4z"/>
<path d="M79.3,81.4c-0.8-1.2-0.8-2.7-0.1-4C79.9,78.6,79.9,80.1,79.3,81.4z"/>
</svg>
