<?xml version="1.0" encoding="utf-8"?>
<!-- Generator: Adobe Illustrator 22.0.0, SVG Export Plug-In . SVG Version: 6.00 Build 0)  -->
<svg version="1.1" id="Calque_1" xmlns="http://www.w3.org/2000/svg" xmlns:xlink="http://www.w3.org/1999/xlink" x="0px" y="0px"
	 viewBox="0 0 132.8 128.3" style="enable-background:new 0 0 132.8 128.3;" xml:space="preserve">
<title>ddddd</title>
<path d="M124.1,124.2c-0.9,0.2-1.8,0.4-2.8,0.5c-1.3,0-2.5,0.9-2.9,2.1c-0.4,1.1-1,2.1-1.6,3.1l-0.4-0.2l1.8-4.1l-6.3-0.1
	c-4.5,0-9.1,0.2-13.6,0.2c-5.4-0.1-10.7-0.5-16.1-0.6c-2.8,0-5.6-0.6-8.6-0.2c-2.5,0.3-5.2-0.5-7.8-0.7s-5.3-0.3-7.9-0.6
	c-3-0.3-6-0.8-9-1.3c-0.9-0.1-1.9-0.3-2.8-0.5c-1-0.2-1.9-0.6-2.9-0.9c0.4-2.1,1.9-2.9,3.6-3.5c-0.7-1.8-1.2-3.4-1.9-5
	c-1.6-3.7-3.7-7.2-6.4-10.3c-0.7-0.7-1.5-1.4-2.4-1.9c-0.4-0.3-1.1-0.6-1-0.9c0-1.8-1.5-2-2.6-2.3c-2-0.7-3.9-1.7-5.5-3.1l-2.7-2
	c-0.1-0.9-0.3-1.7-0.6-2.5c-1.4-2.4-2.4-5.1-3-7.8c-0.8-3.6-1.8-7.2-2.9-11l-1.3,0.6l0-3.1c0-1.1-0.7-2-1.8-2.2
	c-0.8-0.3-1.5-0.6-2.1-1.2c-2.7-2.4-6-4.2-9.5-5.2c1.4-1.3,2.6-2.6,4-3.7c1.1-0.9,2.6-1,3.8-0.4c4.1,1.4,8,3.3,11.7,5.5
	c2,1.2,4.3,2.1,6.4,3.2c3.9,1.8,7.4,4.6,10,8c0.2,0.2,0.4,0.4,0.6,0.5c0.5-2.3,1.1-4.5,1.4-6.8c0.6-4.5,3.3-7.9,5.8-11.3
	c0.5-0.7,1-1.4,1.7-2c1.4-1,1.4-2.4,1.2-3.9c-0.4-2.7-0.7-5.4-1.4-8c-1.2-4.8-1.9-9.7-2.3-14.7c-0.4-4.5,0.4-9,2.2-13.1
	c0.7-1.6,2.1-2.9,3.8-3.4c1.2-0.5,2.4-1.2,3.5-2c0.9-0.6,1.8-1.3,2.8-1.7c1.7-0.9,3.5-1.7,5.3-2.3c1.3-0.4,2.6-1.8,4.1-0.4
	c0.2,0.1,0.5,0,0.7-0.1c1.1-1.3,2.6-0.8,3.9-1c4.3-0.5,8.6-1.1,12.8-1.3c3.7-0.2,7.5,0,11.2,0.4c2.6,0.4,5.2,1,7.7,1.8
	c1,0.4,2,0.9,2.9,1.4l0,0c0.5,0.5,1.1,0.9,1.7,1.2c4.2,2.2,8.5,3.9,12.4,6.8c1.8,1.3,3.3,2.9,4.5,4.8c0.8,1.3,1.9,2.5,1.9,4.1
	c0.2,1.5,0.2,3,0.1,4.5c-0.1,1.6-0.7,3.1-1,4.6c-0.9,6-1.8,12-2.5,18c-0.2,2.1-0.3,4.1-0.3,6.2c0,0.5,0.2,0.9,0.4,1.3
	c0.3,0.5,0.5,1,0.6,1.5c0.6,4.9,2.5,9.5,3.6,14.3c1,4.4,1.4,8.9,1.1,13.3c-0.3,2.4-0.7,4.7-1.2,7c-0.7,3.7-1.3,7.4-2.1,11.1
	c-0.9,4.1-2,8.1-2.9,12.1c-0.6,2.4-1.1,4.8-1.6,7.6c1.3-0.3,2.2-0.5,3.3-0.7l0.9,2.1L124.1,124.2c-1.2-1.4-1.6-1.5-3.9,0
	L124.1,124.2z M97.2,37.8l0.8-2.1c0.1,0.9-0.1,1.8-0.4,2.6c-0.9,1.7-0.3,3.8,1.4,4.8c1.4,0.9,2.8,1.7,4.3,2.5
	c2.8,1.4,5.5,2.8,8.3,4.3c1.1,0.8,2.5,1.1,3.8,1c0.5-0.1,1.2,0.4,1.7,0.7c1.4,1,2.1,0.9,2.7-0.7c1.1-2.8,1.7-5.7,1.9-8.6
	c0.3-5.8,1-11.6,2-17.3c0.3-1.7,0.5-3.7-1.5-4.9l1.4-1c-0.8-1-1.7-1.9-2.6-2.8c-1.3-1-2.7-2-4-2.9c-0.8-0.5-1.6-1-2.5-1.5
	c-1.5-0.8-3-1.4-4.5-2.2c-4.5-2.3-9.1-4.3-14.3-4.4c-0.5,0-1.1-0.2-1.7-0.2C88.2,4.7,82.6,4,76.9,5.4c-7,1.5-13.6,4.1-19.8,7.6
	c-2.3,1.5-4.3,3.3-6,5.5c-0.3,0.5-0.4,1-0.4,1.5c0,3.5,0.2,7.1,0.6,10.6c0.1,1.1,0.3,2.2,0.3,3.3c0.2,5.6,0.8,11.2,1.7,16.7
	c0.1,0.4,0.3,0.9,0.5,1.3c0.8-0.5,1.5-0.9,2.1-1.4c1.2-1.1,2.8-1.8,4.5-1.9c1.3-0.1,2.5-0.5,3.6-1c2.5-0.9,4.8-2.1,7.3-2.8
	c2-0.6,4.1-0.8,6.1-1.2c0.6,0,1.1-0.2,1.5-0.6c1-0.9,2.4-1.4,3.7-1.2c0.9,0.2,1.8-0.1,2.4-0.7c0.3-0.4,1-0.4,1.5-0.7
	c0.5-0.3,1-0.7,1.4-1.2c0.6-1.2,1.3-2.4,0.8-3.9c-0.1-0.5,0-0.9,0.4-1.2c1.1-0.6,2.3-1.1,3.5-1.4c0.5-0.1,1.2,0.5,1.9,0.9l1.2-0.6
	L97.2,37.8z M81.9,56.5c-3.5-0.6-6.7-0.9-9.9-1.6c-2.6-0.6-5.2-0.9-8,0.4l1.6,1.5l2.3-1.9l0.8,2.4c4.2,1,8.5,1.5,12.8,1.5L81.9,56.5
	z M95.4,59c0.3-1.1,0.1-1.8-1.2-1.9c-2.5-0.2-5.1-0.3-7.6-0.4c-1.3,0-1.7,0.7-1.2,2.2L95.4,59z M105.3,57.1
	c-2.5,0.1-4.5,0.2-6.7,0.3l0.1,1.5l5.8,0.1L105.3,57.1z M107.6,60.7c-2.8-0.7-7.3-0.4-9,0.4C101.5,60.9,104.5,60.8,107.6,60.7z
	 M65.5,4.6c-1.6-0.3-6.6,1.6-8.1,3c2.7-1,5-1.7,7.4-2.5C65,5,65.2,4.8,65.5,4.6z M95.5,60.9l0.1-0.2L90,60.6l0,0.2L95.5,60.9z
	 M24,87.4l0.4-0.2l-1.7-3.9l-0.5,0.2L24,87.4z M56.6,123.1l0-0.5c-1-0.1-2.1-0.3-3.1-0.4l0,0.5L56.6,123.1z M128.4,81.5l-0.4,0
	l0.3,2.9l0.5-0.1L128.4,81.5z M113.1,60.1l0.1,0.4l3-0.5l-0.1-0.3C115.1,59.7,114.1,59.8,113.1,60.1z M105.8,58.6
	c0.3,0.2,0.5,0.4,0.7,0.4c0.3-0.1,0.5-0.3,0.8-0.5c-0.2-0.2-0.4-0.5-0.6-0.5S106.2,58.3,105.8,58.6L105.8,58.6z M110.4,56l0,0.3
	l1.2,0.2l0-0.4L110.4,56z"/>
<path d="M127.8,104.7L127.8,104.7c0.3,1.3-0.1,2.7-1.1,3.6C127.1,106.8,127.4,105.8,127.8,104.7z"/>
</svg>
