<svg id="Calque_1" data-name="Calque 1" xmlns="http://www.w3.org/2000/svg" viewBox="0 0 60 69"><title>Sans titre - 3</title><path d="M35.23,63.73l.33-1.12a3,3,0,0,0-.8,0c-.68.21-1.33.53-2,.71a8.66,8.66,0,0,1-5,.05,67.9,67.9,0,0,1-10.95-4.23,9.41,9.41,0,0,1-4-3.46,26.38,26.38,0,0,0-2.34-2.75,10.26,10.26,0,0,1-1.54-2A26.9,26.9,0,0,1,6.59,44.5a15.6,15.6,0,0,1,1.26-9.59,5.57,5.57,0,0,0,.68-2.42,4,4,0,0,1,1.19-2.68,25.06,25.06,0,0,1,7.9-6.11,13.17,13.17,0,0,0,1.9-1,12,12,0,0,1,6.66-1.89,21.62,21.62,0,0,1,4.89.21c1.11.19,2.26.12,3.39.21a3.78,3.78,0,0,1,1.24.32c1.84.93,3.66,1.9,5.49,2.86.07,0,.12.1.19.1,2.06.17,2.92,1.85,4,3.24a35.35,35.35,0,0,1,2.43,3.51,18.46,18.46,0,0,1,1.48,3.07,24.56,24.56,0,0,1,1.15,11.6,14.83,14.83,0,0,1-1.58,5.49,3.8,3.8,0,0,1-.52.93,7.48,7.48,0,0,0-2,4.32c-2.71,1.75-5.45,3.54-8.22,5.3-1,.61-2,1.15-2.94,1.72Zm-3.6-22c-.21-.72-.37-1.32-.56-1.91a4.14,4.14,0,0,1-.37-1c-.05-2.13-.57-4.23-.26-6.37a7.12,7.12,0,0,0-.54-3.56.92.92,0,0,0-.59-.51,1.06,1.06,0,0,0-.71.37,1.71,1.71,0,0,0-.37.75,15.28,15.28,0,0,0-.34,1.89q-.45,3.93-.84,7.86A11.78,11.78,0,0,0,27,41.35a3,3,0,0,0,.4,1.41A5.19,5.19,0,0,0,29.87,45a10.59,10.59,0,0,1,3.65,2.56c1.42,1.38,2.85,2.75,4.25,4.09a1.8,1.8,0,0,0,1.7-2.1C36.63,47.08,34.7,43.71,31.63,41.68Z"/><path d="M33.44,17.73c-1.82.29-3.48.62-5.16.81-1.35.14-2.74.16-3.77-1.26.68-1.06,1.48-2.19.78-3.75l-2.49-.84c-1.55-.53-1.65-.65-1.67-2.24a2.38,2.38,0,0,0-.44-1.61,2,2,0,0,1-.33-1c-.17-1.41.1-1.77,1.48-2.06.34-.07.77,0,1-.19,1.27-.88,2.72-.73,4.13-.76,2,0,4,0,6-.11a2,2,0,0,1,2.19,1.31c.29.72.66,1.41.93,2.14a4.08,4.08,0,0,0,1.11,2,1.37,1.37,0,0,1,.3.56,1.09,1.09,0,0,1-.77,1.5c-.9.15-1.83.2-2.75.3s-1.51.57-1.33,1.51C32.9,15.31,32.51,16.64,33.44,17.73ZM25,12.36l-.16.05.2.08Z"/><path d="M37.56,17.81a7.35,7.35,0,0,0,1.34-1c.29-.37.3-1,.9-1a4.19,4.19,0,0,1,1.43.29c2.4.79,2.57.92,3.69,2.62,0,1.35-.94,2.12-2,2.86l-4.35-1.86Z"/><path d="M35.2,63.7l-.36.19a.66.66,0,0,1-.2,0c.07-.07.12-.18.19-.19a1.35,1.35,0,0,1,.4,0Z"/></svg>