<svg id="Calque_1" data-name="Calque 1" xmlns="http://www.w3.org/2000/svg" viewBox="0 0 146.9 45"><title>ddddd</title><path d="M142.34,16a14.82,14.82,0,0,1,2.41,9.75,46.53,46.53,0,0,1-1.22,5.09c-.2.85-.25,1.74-.5,2.57A26.19,26.19,0,0,1,142,36a8,8,0,0,0-.66,1.49c-.25,1.4-.79,2.35-2.45,2.22-.31,0-.65.36-1.24.72l2.17.42c-7.54,2.29-14.86,3.57-22.36,1.52-1.84-.51-3.64-1.18-5.46-1.79-.6-.21-1.18-.47-1.79-.67L82.87,31c-1.48-.48-1.51-.48-3.82.69L78,30.11c-1,.39-2.07.79-3.1,1.14-.57.2-1.32.63-1.7.42-1.64-.88-3.11,0-4.62.25-1.16.2-2.31.52-3.45.8-.62.16-1.22.37-1.83.53-1.14.29-2.29.57-3.44.84-.23.06-.53,0-.71.06-2.66,1.58-5.62.82-8.44,1.12-4.83.5-9.67,1.18-14.52,1.3-4.47.11-8.9.56-13.34.87-4.22.29-8.47,0-12.71,0-1.23,0-2.39-.12-3-1.47A2,2,0,0,0,6,35.16C2.17,33.92,2,30.62,3.15,28a12.38,12.38,0,0,1,7.13-7.1,40.23,40.23,0,0,1,6.24-1.31c1.73-.3,3.48-.47,5.22-.73a8,8,0,0,1,4.4.19c1.54.58,3.45.16,5.2.21,1.28,0,2.55.18,3.82.19,1.11,0,2.21-.11,3.32-.15a28.8,28.8,0,0,1,3.35,0c3.18.13,6.36.3,9.55.46v-.59c-3.84-.22-7.7-.31-11.53-.7s-7.64.85-11.77-.4c1.46-1.26,2.89-1.06,4.13-1,8.7.34,17.4.67,26.06,1.67,4.9.57,9.87.57,14.81.83,3.82.2,7.37-.83,11-2C91.73,15.17,98.4,11,105.24,7c1.31-.76,2.73-1.33,4.09-2a3.81,3.81,0,0,0,.85-.44c4-3.39,8.74-2.67,13.25-2.07a13.14,13.14,0,0,1,7.21,3,4.07,4.07,0,0,0,1.39.92c3.48,1.16,5.24,4.32,7.76,6.6a6.28,6.28,0,0,1,.88,1.39q1.56,4.86,3.11,9.72C144.2,21.2,143,18.64,142.34,16Zm-4.56-.64,1.46,1.79c-.23-1.33-.67-1.73-1.49-1.75-.05-1.14.07-2.36-1.52-2.94C136.35,13.75,136.15,15,137.78,15.34Zm-2,8.11,2.47.93c-.65-2.12.23-4.07-1.45-5.69-.72.65-1.27,1.22-1.89,1.7a1.77,1.77,0,0,0-.67,2.43,1.74,1.74,0,0,0,.34.43l-.45.08c.05.16.13.47.14.47.54-.1,1-.22,1.54-.3Zm-62.07-.3c-1,0-1.66-.1-2.37-.1H47.19c-.95,0-1.9-.18-2.85-.22-2.85-.12-5.7-.2-8.55-.3-3.73-.14-7.53.47-11.18-1.24-2.47,1.89-5.71,1-8.57,2.14a23.7,23.7,0,0,1,2.75,1.29c1.64,1.05,2.17,4,.94,5.28a7.49,7.49,0,0,1-5.2,2.6c-2.27.06-3.82-1.23-5.32-2.79-1.14-1.19-1-2.33-.2-3.76-3.38.4-2,3.09-2.71,4.29C9,34,12.8,34.08,16.71,34c9-.19,18-.49,27-1.5,1.19-.13,2.37-.37,4.06-.64a4.87,4.87,0,0,1-2.88-1.54,23.6,23.6,0,0,1,2.61-.63c3.25-.36,6.51-.66,9.77-1l15.22-1.51c1.53-.16,1.89-.72,1.74-2.27a13.09,13.09,0,0,0-.49-1.76Zm60.59-7.23a8.7,8.7,0,0,0-2-1c-2.4-.56-4.85-.91-7.24-1.49a10.47,10.47,0,0,0-4.94.33,44.74,44.74,0,0,1-5.37,1.07A80,80,0,0,0,95.22,19.5l1.67.1c4.62.29,9.25.53,13.86.88,3,.23,6,.77,9,.92a44.15,44.15,0,0,1,7.57.56,5.35,5.35,0,0,0,5.69-2.29c.7-.92.81-2.3,1.27-3.75ZM111,28.36v.39c.52.16,1,.33,1.57.47,5.23,1.42,10.51,2.7,15.68,4.31a6.57,6.57,0,0,0,5.69-.63,18.25,18.25,0,0,1,1.63-1,4.2,4.2,0,0,0,2.2-2.7,2.58,2.58,0,0,0-1.45-3.36,2.13,2.13,0,0,0-.43-.13c-1.09-.27-2.2-.43-3.29-.64a3.78,3.78,0,0,0-2.92.6,12.28,12.28,0,0,1-6.45,2.26c-4.08.07-8.14.29-12.2.43Zm17.54-3.48c-4.18.49-8.36,1.13-12.58.81,2.31-.51,4.78-.36,7.14-1.76-6.68-1.18-33-1.15-35,0,3.56.75,7.09,1.41,10.57,2.24a43.91,43.91,0,0,0,14.5.88c3.09-.29,6.21-.4,9.32-.42A11,11,0,0,0,128.53,24.88Zm-38,4.39c11.16,3.13,22.53,6,34.45,5.78a61.36,61.36,0,0,0-8.78-2.79c-7.54-1.75-15.1-3.4-22.66-5.08-1-.24-2.1-.44-3-.63ZM102.6,15l.24.44c3.37-.92,6.72-1.89,10.11-2.75,3.24-.81,6.57-.12,9.87-.35a93.93,93.93,0,0,1,10.34.35c.1-1.4,0-1.57-1.24-1.65s-2.25,0-3.38,0v-.45l3.06-.17.11-.68a10.44,10.44,0,0,0-1.78-.7,21.43,21.43,0,0,0-9.26.13c-3.7.94-7.36,2.05-11,3.21-2.37.74-4.7,1.73-7.06,2.62ZM12.88,26l-.11-.24a3,3,0,0,0-1.1.25c-.67.49-1.81,1.11-1.78,1.62a3.45,3.45,0,0,0,1.48,2.23c2,1.36,4.23,1.14,6.4.44a3.13,3.13,0,0,0,1.42-1.2,1.44,1.44,0,0,0,0-1.28c-.17-.28-.73-.37-1.13-.46s-.91.06-1.28-.1a5.91,5.91,0,0,0-4.63,0,4.57,4.57,0,0,1-.9.15v-.29ZM106.4,8.78,122.18,4.1c-6.36-2-11,1.61-15.77,4.68Zm30.72,29.16c-1.88-.27-3.82-.9-5.93.55a5.61,5.61,0,0,0,5.94-.55ZM117.45,6.55l10.13-.48a15.23,15.23,0,0,0-10.12.48Zm17.67,28.8-.09.59,3.31.58.91-2.24Zm4.26-17a10.94,10.94,0,0,0,1.07,5.85,7.09,7.09,0,0,0-1.06-5.86ZM14,24.4v.43l3,.4v-.42Zm127.51,1.1.51-.16-.51-1.84-.3.07ZM126.29,42v-.23l-1.82.1V42Zm2-3.56v.33l1.32-.33-.12-.4Z"/><path d="M106.45,25.41l2.1-.41.13.31a5.77,5.77,0,0,1-1.05.46,5.34,5.34,0,0,1-1.13,0Z"/><path d="M102.9,25.74h-1.1v-.17l1-.06Z"/><path d="M113.53,25.72l-.82-.06v-.24l.82.06Z"/><path d="M123,11.16l2.87-.31,0,.4H123Z"/></svg>